G04 EasyPC Gerber Version 19.0.3 Build 3928 *
G04 #@! TF.Part,Single*
G04 #@! TF.FileFunction,Copper,L2,Bot *
%FSLAX35Y35*%
%MOIN*%
G04 #@! TA.AperFunction,ComponentPad*
%ADD12O,0.09000X0.07000*%
%ADD15C,0.08480*%
%ADD13C,0.10843*%
%ADD14C,0.14386*%
X0Y0D02*
D02*
D12*
X376251Y126918D03*
Y136918D03*
Y146918D03*
Y156918D03*
Y166918D03*
Y176918D03*
Y186918D03*
X436251Y126918D03*
Y136918D03*
Y146918D03*
Y156918D03*
Y166918D03*
Y176918D03*
Y186918D03*
D02*
D13*
X51911Y312196D03*
X66934Y297025D03*
X78278Y375854D03*
X93300Y360682D03*
X106020Y252500D03*
X121043Y237329D03*
X132385Y316152D03*
X147408Y300980D03*
X158753Y379806D03*
X173776Y364635D03*
X179901Y240542D03*
X194924Y225370D03*
X206267Y304190D03*
X221289Y289019D03*
X224465Y110217D03*
X232634Y367847D03*
X239487Y95045D03*
X240604Y196756D03*
X247657Y352675D03*
X255627Y181584D03*
X266968Y260408D03*
X281991Y245236D03*
X285159Y66434D03*
X293333Y324058D03*
X300182Y51262D03*
X308356Y308887D03*
X321070Y200706D03*
X336093Y185534D03*
X347441Y264361D03*
X362463Y249189D03*
X464222Y264361D03*
X485572Y264256D03*
X490589Y200709D03*
X511940Y200604D03*
X518330Y324058D03*
X526496Y66434D03*
X539680Y323953D03*
X544696Y260412D03*
X547847Y66329D03*
X566046Y260307D03*
X571058Y196756D03*
X579029Y367845D03*
X587196Y110219D03*
X592408Y196651D03*
X600379Y367740D03*
X605392Y304191D03*
X608546Y110114D03*
X626742Y304086D03*
X631761Y240538D03*
X652912Y379802D03*
X653111Y240433D03*
X674262Y379696D03*
X679279Y316148D03*
X700629Y316043D03*
X705641Y252500D03*
X726992Y252394D03*
X733381Y375849D03*
X754732Y375744D03*
X759750Y312200D03*
X781100Y312095D03*
D02*
D14*
X43022Y290736D03*
X69389Y354393D03*
X97131Y231040D03*
X123496Y294691D03*
X149864Y358346D03*
X171012Y219082D03*
X197378Y282730D03*
X215576Y88757D03*
X223745Y346387D03*
X231715Y175296D03*
X258079Y238948D03*
X276270Y44974D03*
X284444Y302598D03*
X312181Y179245D03*
X338552Y242901D03*
X473111Y242900D03*
X499478Y179248D03*
X527219Y302598D03*
X535385Y44974D03*
X553585Y238952D03*
X579947Y175296D03*
X587918Y346385D03*
X596085Y88759D03*
X614281Y282731D03*
X640650Y219078D03*
X661801Y358341D03*
X688168Y294688D03*
X714530Y231039D03*
X742270Y354389D03*
X768639Y290740D03*
D02*
D15*
X23017Y299023D03*
X49383Y362680D03*
X63028Y282450D03*
X77126Y239327D03*
X89394Y346107D03*
X103491Y302978D03*
X117137Y222754D03*
X129859Y366633D03*
X143501Y286405D03*
X151007Y227369D03*
X169869Y350059D03*
X177372Y291017D03*
X191017Y210795D03*
X195570Y97043D03*
X203740Y354673D03*
X211710Y183582D03*
X217383Y274443D03*
X235581Y80470D03*
X238074Y247234D03*
X243750Y338100D03*
X251720Y167009D03*
X256265Y53260D03*
X264439Y310885D03*
X278084Y230661D03*
X292176Y187532D03*
X296275Y36687D03*
X304449Y294311D03*
X318546Y251187D03*
X332186Y170959D03*
X358557Y234614D03*
X453106Y234614D03*
X479473Y170962D03*
X493116Y251187D03*
X507214Y294311D03*
X515380Y36687D03*
X519483Y187535D03*
X533580Y230665D03*
X547224Y310885D03*
X555391Y53261D03*
X559942Y167009D03*
X567913Y338098D03*
X573590Y247239D03*
X576080Y80472D03*
X594276Y274444D03*
X599952Y183583D03*
X607923Y354671D03*
X616090Y97046D03*
X620645Y210791D03*
X634286Y291017D03*
X641796Y350055D03*
X660655Y227364D03*
X668163Y286401D03*
X681806Y366628D03*
X694525Y222753D03*
X708173Y302974D03*
X722265Y346102D03*
X734535Y239326D03*
X748633Y282453D03*
X762276Y362675D03*
X788644Y299026D03*
X0Y0D02*
M02*
