G04 EasyPC Gerber Version 19.0.3 Build 3928 *
G04 #@! TF.Part,Single*
G04 #@! TF.FileFunction,Copper,L2,Bot *
%FSLAX35Y35*%
%MOIN*%
G04 #@! TA.AperFunction,ComponentPad*
%ADD70O,0.08000X0.06000*%
G04 #@! TD.AperFunction*
%ADD26C,0.01181*%
%ADD23C,0.01500*%
%ADD27C,0.02500*%
G04 #@! TA.AperFunction,ViaPad*
%ADD22C,0.04800*%
G04 #@! TA.AperFunction,ComponentPad*
%ADD21C,0.07480*%
%ADD71C,0.09843*%
%ADD20C,0.13386*%
X0Y0D02*
D02*
D70*
X376251Y126918D03*
Y136918D03*
Y146918D03*
Y156918D03*
Y166918D03*
Y176918D03*
Y186918D03*
X436251Y126918D03*
Y136918D03*
Y146918D03*
Y156918D03*
Y166918D03*
Y176918D03*
Y186918D03*
D02*
D71*
X51911Y312196D03*
X66934Y297025D03*
X78278Y375854D03*
X93300Y360682D03*
X106020Y252500D03*
X121043Y237329D03*
X132385Y316152D03*
X147408Y300980D03*
X158753Y379806D03*
X173776Y364635D03*
X179901Y240542D03*
X194924Y225370D03*
X206267Y304190D03*
X221289Y289019D03*
X224465Y110217D03*
X232634Y367847D03*
X239487Y95045D03*
X240604Y196756D03*
X247657Y352675D03*
X255627Y181584D03*
X266968Y260408D03*
X281991Y245236D03*
X285159Y66434D03*
X293333Y324058D03*
X300182Y51262D03*
X308356Y308887D03*
X321070Y200706D03*
X336093Y185534D03*
X347441Y264361D03*
X362463Y249189D03*
X464222Y264361D03*
X485572Y264256D03*
X490589Y200709D03*
X511940Y200604D03*
X518330Y324058D03*
X526496Y66434D03*
X539680Y323953D03*
X544696Y260412D03*
X547847Y66329D03*
X566046Y260307D03*
X571058Y196756D03*
X579029Y367845D03*
X587196Y110219D03*
X592408Y196651D03*
X600379Y367740D03*
X605392Y304191D03*
X608546Y110114D03*
X626742Y304086D03*
X631761Y240538D03*
X652912Y379802D03*
X653111Y240433D03*
X674262Y379696D03*
X679279Y316148D03*
X700629Y316043D03*
X705641Y252500D03*
X726992Y252394D03*
X733381Y375849D03*
X754732Y375744D03*
X759750Y312200D03*
X781100Y312095D03*
D02*
D20*
X43022Y290736D03*
X69389Y354393D03*
X97131Y231040D03*
X123496Y294691D03*
X149864Y358346D03*
X171012Y219082D03*
X197378Y282730D03*
X215576Y88757D03*
X223745Y346387D03*
X231715Y175296D03*
X258079Y238948D03*
X276270Y44974D03*
X284444Y302598D03*
X312181Y179245D03*
X338552Y242901D03*
X473111Y242900D03*
X499478Y179248D03*
X527219Y302598D03*
X535385Y44974D03*
X553585Y238952D03*
X579947Y175296D03*
X587918Y346385D03*
X596085Y88759D03*
X614281Y282731D03*
X640650Y219078D03*
X661801Y358341D03*
X688168Y294688D03*
X714530Y231039D03*
X742270Y354389D03*
X768639Y290740D03*
D02*
D21*
X23017Y299023D03*
X49383Y362680D03*
X63028Y282450D03*
X77126Y239327D03*
X89394Y346107D03*
X103491Y302978D03*
X117137Y222754D03*
X129859Y366633D03*
X143501Y286405D03*
X151007Y227369D03*
X169869Y350059D03*
X177372Y291017D03*
X191017Y210795D03*
X195570Y97043D03*
X203740Y354673D03*
X211710Y183582D03*
X217383Y274443D03*
X235581Y80470D03*
X238074Y247234D03*
X243750Y338100D03*
X251720Y167009D03*
X256265Y53260D03*
X264439Y310885D03*
X278084Y230661D03*
X292176Y187532D03*
X296275Y36687D03*
X304449Y294311D03*
X318546Y251187D03*
X332186Y170959D03*
X358557Y234614D03*
X453106Y234614D03*
X479473Y170962D03*
X493116Y251187D03*
X507214Y294311D03*
X515380Y36687D03*
X519483Y187535D03*
X533580Y230665D03*
X547224Y310885D03*
X555391Y53261D03*
X559942Y167009D03*
X567913Y338098D03*
X573590Y247239D03*
X576080Y80472D03*
X594276Y274444D03*
X599952Y183583D03*
X607923Y354671D03*
X616090Y97046D03*
X620645Y210791D03*
X634286Y291017D03*
X641796Y350055D03*
X660655Y227364D03*
X668163Y286401D03*
X681806Y366628D03*
X694525Y222753D03*
X708173Y302974D03*
X722265Y346102D03*
X734535Y239326D03*
X748633Y282453D03*
X762276Y362675D03*
X788644Y299026D03*
D02*
D22*
X202845Y166338D03*
X222964Y306972D03*
X244685Y149705D03*
X274852Y180433D03*
X293180Y291018D03*
X314547Y236222D03*
X385433Y141831D03*
X424803Y131996D03*
X537439Y200657D03*
X633194Y325405D03*
X653124Y266583D03*
D02*
D23*
X93300Y360682D02*
X222964Y306972D01*
X221289Y289019D02*
X293786Y258990D01*
X307622Y225585*
X327048Y217541*
X328511Y216932*
X338809Y192080*
X336093Y185534*
X221289Y289019D02*
X118511Y331586D01*
X73532Y312961*
X66934Y297025*
X255627Y181584D02*
X213049Y199218D01*
X202142Y194702*
X136198Y222016*
X131681Y232920*
X121043Y237329*
X274852Y180433D02*
X268939Y194710D01*
X262065Y197558*
X194924Y225370*
X281991Y245236D02*
X234865Y264755D01*
X223964Y260239*
X168023Y283410*
X163504Y294313*
X147408Y300980*
X293180Y291018D02*
X300040Y307582D01*
X299959Y307386*
X259040Y324341*
X253967Y322385*
X188498Y349503*
X183980Y360406*
X173776Y364635*
X308356Y308887D02*
X304588Y310450D01*
X300004Y307496*
X300040Y307582*
X362463Y249189D02*
X222964Y306972D01*
X362463Y249189D02*
X361674Y247289D01*
X351987Y243275*
X347843Y233273*
X343975Y223937*
X357458Y191386*
X361960Y187035*
X375831Y187041*
X421609Y187040*
X427391Y192825*
X449458Y192824*
X471014Y214381*
X458822Y243607*
X462549Y252609*
X471652Y256378*
X477245Y269882*
X478575Y273095*
X486298Y276294*
X489512Y274964*
X513163Y284760*
X516360Y292475*
X512592Y301571*
X516846Y311854*
X517112Y312497*
X528479Y317206*
X529533Y319749*
X539680Y323953*
X376251Y126918D02*
X242265Y126917D01*
X237453*
X207283Y157087*
X202845Y166338*
X376251Y136918D02*
X382238Y136919D01*
X389401Y129759*
X389442Y112468*
X376251Y146918D02*
X376252Y146950D01*
X290291Y146948*
X255627Y181584*
X376251Y156918D02*
X362976Y156916D01*
X310597Y156918*
X285067Y182448*
X285067Y242283*
X282113Y245235*
X281991Y245236*
X376251Y166918D02*
X354713Y166915D01*
X336093Y185534*
X376251Y176918D02*
X359578Y176917D01*
X347787Y188707*
X330914Y229444*
X314547Y236222*
X376251Y176918D02*
X404397Y176917D01*
X409374Y181898*
X450837Y181899*
X489716Y220777*
X489716Y223239*
X489591Y223115*
X489590Y235406*
X485572Y245109*
X485572Y264256*
X376251Y186918D02*
X376252Y187037D01*
X375831Y187041*
X385433Y141831D02*
X252559D01*
X244685Y149705*
X389442Y112468D02*
X527486D01*
X529617Y110335*
X529619Y110337*
X547847Y66329*
X389442Y112468D02*
X389399Y112444D01*
X281715Y112445*
X256889Y112447*
X239487Y95045*
X424803Y131996D02*
Y151997D01*
X429724Y156918*
X436251*
X485572Y264256D02*
X633194Y325405D01*
X511940Y200604D02*
X511679D01*
X511677Y201090*
X522735Y212152*
X522505*
X522903Y212338*
X653124Y266583*
X511940Y200604D02*
X512170Y200605D01*
X512170Y174065*
X500130Y162026*
X446226Y162024*
X412573Y162024*
X407465Y156918*
X376251*
X537439Y200657D02*
X536578Y199837D01*
X526374Y189637*
X526374Y171621*
X501671Y146920*
X436251Y146918*
X539680Y323953D02*
X548289Y320388D01*
X624354Y351893*
X626104Y356122*
X663815Y371742*
X665629Y376121*
X674262Y379696*
X566046Y260307D02*
X518994Y239939D01*
X519093Y239839*
X518517Y239841*
X450544Y171867*
X427905Y171864*
X410820Y171867*
X405871Y166920*
X398980Y166919*
X398981Y166918*
X376251*
X566046Y260307D02*
X575723Y264312D01*
X585624Y260210*
X651093Y287330*
X655193Y297229*
X700629Y316043*
X581494Y135554D02*
X538756Y117853D01*
X416208Y117924*
X389788Y146917*
X389894Y146918*
X389896Y146915*
X376251Y146918*
X592408Y196651D02*
X602090Y200661D01*
X611987Y196558*
X677460Y223678*
X681559Y233574*
X726992Y252394*
X608546Y110114D02*
X608827Y109435D01*
X601043Y128224*
X582251Y136009*
X581494Y135554*
X633194Y325405D02*
X725981Y363837D01*
X729172Y362515*
X742829Y368172*
X744150Y371363*
X754731Y375746*
X754732Y375744*
X653111Y240433D02*
X560848Y202215D01*
X557878Y194389*
X582139Y135822*
X581494Y135554*
X653124Y266583D02*
X733145Y299919D01*
X740117Y316749*
X764360Y326790*
X777222Y321466*
X781100Y312095*
D02*
D26*
X803273Y273991D02*
G75*
G03X805290Y278857I-1426J3442D01*
G01*
G75*
G02X805289Y278859I277J140*
G01*
X759716Y388885*
X759715Y388888*
G75*
G03X754207Y391169I-3895J-1616*
G01*
G75*
G02X754206Y391169I-67J262*
G01*
X732898Y382343*
G75*
G02X739893Y375849I483J-6494*
G01*
G75*
G02X726870I-6512*
G01*
G75*
G02X729131Y380782I6512*
G01*
X697826Y367815*
X697825Y367815*
G75*
G02X687261Y372191I-3094J7471*
G01*
G75*
G02X687260Y372193I393J158*
G01*
X678599Y393106*
X678598Y393107*
G75*
G03X674376Y394856I-2987J-1237*
G01*
X674375*
X653651Y386271*
G75*
G02X659424Y379802I-739J-6470*
G01*
G75*
G02X646400I-6512*
G01*
G75*
G02X647815Y383854I6512*
G01*
X617091Y371127*
G75*
G02X617089Y371126I-76J150*
G01*
G75*
G02X607166Y375233I-2907J7017*
G01*
G75*
G02X607165Y375236I967J324*
G01*
X604528Y381602*
X604527Y381604*
G75*
G03X600305Y383353I-2986J-1237*
G01*
G75*
G02X600304Y383352I-92J273*
G01*
X578543Y374339*
G75*
G02X585541Y367845I486J-6494*
G01*
G75*
G02X572517I-6512*
G01*
G75*
G02X574781Y372780I6512*
G01*
X553018Y363766*
G75*
G02X553017Y363765I-50J100*
G01*
G75*
G03X551002Y358900I1426J-3441*
G01*
X553073Y353903*
G75*
G02X553074Y353900I-615J-309*
G01*
G75*
G02X553691Y350804I-7472J-3096*
G01*
G75*
G02X548699Y343333I-8087J0*
G01*
G75*
G02X548698Y343333I-260J778*
G01*
X517844Y330552*
G75*
G02X524842Y324058I485J-6494*
G01*
G75*
G02X511818I-6512*
G01*
G75*
G02X514081Y328993I6512*
G01*
X491411Y319602*
G75*
G02X491409Y319602I-94J187*
G01*
G75*
G03X489926Y316025I1048J-2531*
G01*
X489926Y316024*
X498967Y294200*
G75*
G02X498968Y294198I-593J-298*
G01*
G75*
G02X494590Y283633I-7471J-3093*
G01*
G75*
G02X494589Y283633I-38J76*
G01*
X463740Y270855*
G75*
G02X470734Y264361I482J-6494*
G01*
G75*
G02X457710I-6512*
G01*
G75*
G02X459971Y269294I6512*
G01*
X438214Y260282*
G75*
G02X438211Y260281I-204J472*
G01*
G75*
G03X436196Y255415I1425J-3441*
G01*
X436197Y255413*
X452165Y216859*
G75*
G02X453680Y210667I-11899J-6193*
G01*
G75*
G02X439841Y197261I-13413*
G01*
X437346Y197236*
G75*
G02X437318I-14J2145*
G01*
X375452Y197316*
G75*
G02X361198Y220974I-223J15989*
G01*
X375278Y254962*
G75*
G02X375278Y254963I33J-16*
G01*
G75*
G03X372995Y260470I-3895J1613*
G01*
G75*
G02X372993Y260471I110J335*
G01*
X351690Y269296*
G75*
G02X347664Y257853I-4249J-4935*
G01*
X357745Y253677*
G75*
G02X368480Y246697I4719J-4488*
G01*
G75*
G02X359194Y243557I-6016J2492*
G01*
X353898Y241363*
X350152Y232320*
G75*
G02X350151Y232317I-1707J567*
G01*
X346679Y223937*
X359567Y192821*
X362970Y189533*
X371480*
G75*
G02X375252Y191507I3772J-2617*
G01*
X377252*
G75*
G02X381020Y189539J-4591*
G01*
X420574*
X425622Y194589*
G75*
G02X427391Y195323I1769J-1764*
G01*
X448424*
X468064Y214964*
X456517Y242645*
G75*
G02X456514Y244563I2306J962*
G01*
X460240Y253562*
G75*
G02X461594Y254918I2310J-952*
G01*
X469740Y258290*
X474936Y270835*
G75*
G03X474937Y270837I-737J443*
G01*
X476267Y274048*
G75*
G02X477619Y275403I2309J-953*
G01*
X485342Y278602*
G75*
G02X487256Y278602I956J-2308*
G01*
X489512Y277668*
X511252Y286672*
X513656Y292475*
X512419Y295462*
G75*
G02X502289Y292271I-5205J-1151*
G01*
G75*
G02X511707Y297179I4925J2040*
G01*
X510284Y300615*
G75*
G02X510284Y302528I2307J956*
G01*
X514537Y312807*
G75*
G02X514538Y312809I236J-140*
G01*
X514803Y313450*
G75*
G02X516156Y314805I2309J-953*
G01*
X526568Y319118*
X527226Y320706*
G75*
G02X528580Y322058I2308J-957*
G01*
X533169Y323959*
G75*
G02X546192Y323953I6512J-6*
G01*
G75*
G02X546190Y323791I-6520J-2*
G01*
X548289Y322922*
X585682Y338409*
G75*
G02X579634Y346385I2236J7976*
G01*
G75*
G02X596201I8283*
G01*
G75*
G02X595138Y342326I-8283J1*
G01*
X622562Y353684*
X623942Y357017*
G75*
G02X625212Y358286I2163J-895*
G01*
X662023Y373533*
X663466Y377014*
G75*
G02X664733Y378283I2164J-893*
G01*
X667752Y379533*
G75*
G02X667750Y379696I6516J160*
G01*
G75*
G02X680774I6512*
G01*
G75*
G02X669544Y375209I-6512*
G01*
X667420Y374330*
X665978Y370848*
G75*
G02X664710Y369580I-2163J895*
G01*
X627896Y354331*
X626516Y350997*
G75*
G02X625248Y349730I-2163J895*
G01*
X549185Y318226*
G75*
G02X547394Y318226I-896J2162*
G01*
X544399Y319466*
G75*
G02X535081Y319343I-4719J4487*
G01*
X531445Y317837*
X530787Y316249*
G75*
G02X529432Y314897I-2308J957*
G01*
X519024Y310585*
X515295Y301572*
X518668Y293431*
G75*
G02X518667Y291517I-2308J-956*
G01*
X515471Y283805*
G75*
G02X514119Y282452I-2308J956*
G01*
X490468Y272656*
G75*
G02X488555Y272656I-956J2308*
G01*
X486298Y273591*
X480487Y271183*
X479553Y268926*
G75*
G03X479552Y268924I1273J-365*
G01*
X473961Y255425*
G75*
G02X472607Y254069I-2309J952*
G01*
X464461Y250697*
X461527Y243610*
X473320Y215343*
G75*
G02X472780Y212613I-2306J-962*
G01*
X451226Y191060*
G75*
G02X449458Y190327I-1768J1765*
G01*
X440325*
G75*
G02X441089Y184396I-3073J-3410*
G01*
X449802*
X487218Y221811*
Y234894*
X483275Y244128*
G75*
G02X483074Y245109I2298J981*
G01*
Y258242*
G75*
G02X479061Y264256I2498J6013*
G01*
G75*
G02X490291Y268743I6512*
G01*
X629313Y326330*
G75*
G02X635113Y328904I3881J-926*
G01*
X725021Y366144*
G75*
G02X726937Y366145I960J-2306*
G01*
X729172Y365219*
X740917Y370083*
X741841Y372315*
G75*
G02X743194Y373671I2309J-952*
G01*
X748220Y375753*
G75*
G02X761244Y375744I6512J-9*
G01*
G75*
G02X750130Y371136I-6512*
G01*
X746063Y369452*
X745139Y367220*
G75*
G02X743785Y365864I-2309J952*
G01*
X730130Y360209*
G75*
G02X728215Y360207I-959J2307*
G01*
X725981Y361133*
X637025Y324288*
G75*
G02X631104Y322006I-3831J1117*
G01*
X492082Y264419*
G75*
G02X492084Y264256I-6507J-160*
G01*
G75*
G02X488070Y258242I-6512*
G01*
Y252906*
G75*
G02X498447Y251187I5046J-1719*
G01*
G75*
G02X488070Y249469I-5331J0*
G01*
Y245620*
X492013Y236387*
G75*
G02X492214Y235406I-2298J-981*
G01*
Y220777*
G75*
G02X491482Y219010I-2498J0*
G01*
X452604Y180132*
G75*
G02X450834Y179400I-1767J1767*
G01*
X441695*
G75*
G02X441657Y174365I-4443J-2484*
G01*
X449509*
X516748Y241703*
G75*
G02X518476Y242437I1769J-1764*
G01*
X544971Y253906*
G75*
G02X538184Y260412I-276J6506*
G01*
G75*
G02X551207I6512*
G01*
G75*
G02X549251Y255759I-6512*
G01*
X559535Y260211*
G75*
G02X559534Y260307I6509J101*
G01*
G75*
G02X570766Y264793I6512*
G01*
X574825Y266473*
G75*
G02X576619Y266474I898J-2161*
G01*
X585624Y262744*
X613898Y274456*
G75*
G02X605997Y282731I383J8275*
G01*
G75*
G02X622564I8283*
G01*
G75*
G02X620402Y277151I-8283J0*
G01*
X649301Y289122*
X653030Y298122*
G75*
G02X654298Y299391I2163J-894*
G01*
X679049Y309640*
G75*
G02X672767Y316148I230J6508*
G01*
G75*
G02X685791I6512*
G01*
G75*
G02X684042Y311708I-6512*
G01*
X694119Y315881*
G75*
G02X694117Y316043I6507J160*
G01*
G75*
G02X707141I6512*
G01*
G75*
G02X695910Y311556I-6512*
G01*
X656984Y295437*
X653256Y286436*
G75*
G02X651988Y285168I-2163J894*
G01*
X586519Y258048*
G75*
G02X584727I-896J2162*
G01*
X575722Y261779*
X572556Y260468*
G75*
G02X561520Y255626I-6510J-161*
G01*
X519989Y237648*
G75*
G02X519637Y237525I-995J2291*
G01*
X489234Y207078*
G75*
G02X497101Y200709I1355J-6369*
G01*
G75*
G02X484078I-6512*
G01*
G75*
G02X484218Y202054I6513*
G01*
X452313Y170103*
G75*
G02X450544Y169369I-1769J1764*
G01*
X441133*
G75*
G02X441170Y164524I-3881J-2452*
G01*
X499095*
X509672Y175100*
Y194499*
G75*
G02X513875Y206821I2267J6104*
G01*
X520226Y213175*
G75*
G02X521452Y214417I2279J-1023*
G01*
X521839Y214598*
G75*
G02X521942Y214644I1061J-2266*
G01*
X649291Y267693*
G75*
G02X655207Y269987I3833J-1109*
G01*
X731353Y301707*
X737748Y317146*
G75*
G02X739720Y319118I2369J-397*
G01*
X763462Y328951*
G75*
G02X765255Y328952I898J-2162*
G01*
X778117Y323628*
G75*
G02X779386Y322357I-895J-2163*
G01*
X780939Y318605*
G75*
G02X787612Y312095I161J-6510*
G01*
G75*
G02X774588I-6512*
G01*
G75*
G02X776613Y316815I6512*
G01*
X775430Y319674*
X764360Y324257*
X741909Y314958*
X735308Y299024*
G75*
G02X734045Y297758I-2163J894*
G01*
X657007Y265666*
G75*
G02X651212Y263081I-3883J918*
G01*
X524352Y210235*
X517720Y203601*
G75*
G02X517956Y203096I-5780J-3000*
G01*
G75*
G02X514669Y194691I-6016J-2492*
G01*
Y189822*
G75*
G02X523990Y190383I4815J-2287*
G01*
G75*
G02X524609Y191406I2384J-746*
G01*
X533468Y200261*
G75*
G02X533448Y200657I3970J396*
G01*
G75*
G02X541430I3991*
G01*
G75*
G02X536967Y196694I-3991*
G01*
X528872Y188602*
Y171621*
G75*
G02X528140Y169854I-2498*
G01*
X503437Y145153*
G75*
G02X501668Y144422I-1766J1767*
G01*
X441106*
G75*
G02X437252Y142326I-3854J2495*
G01*
X435252*
G75*
G02X430661Y146917J4591*
G01*
G75*
G02X435252Y151507I4591*
G01*
X437252*
G75*
G02X441101Y149418J-4591*
G01*
X500636*
X523876Y172656*
Y184514*
G75*
G02X514669Y185248I-4392J3021*
G01*
Y174065*
G75*
G02X513937Y172298I-2498*
G01*
X501896Y160259*
G75*
G02X500127Y159528I-1766J1767*
G01*
X441028*
G75*
G02X437252Y152326I-3776J-2611*
G01*
X435252*
G75*
G02X431302Y154578J4591*
G01*
X430694*
X427144Y151028*
Y135228*
G75*
G02X428794Y131996I-2341J-3232*
G01*
G75*
G02X420813I-3991*
G01*
G75*
G02X422463Y135228I3991*
G01*
Y151997*
G75*
G02X423148Y153652I2341*
G01*
X428069Y158573*
G75*
G02X429725Y159259I1655J-1656*
G01*
X431304*
G75*
G02X431476Y159528I3949J-2339*
G01*
X413607*
X409231Y155152*
G75*
G02X407462Y154420I-1766J1767*
G01*
X381104*
G75*
G02X377252Y152326I-3852J2496*
G01*
X375252*
G75*
G02X371401Y154419J4591*
G01*
X310597*
G75*
G02X308829Y155152J2498*
G01*
X283302Y180680*
G75*
G02X282569Y182448I1765J1768*
G01*
Y227780*
G75*
G02X273159Y232701I-4485J2881*
G01*
G75*
G02X282569Y233542I4925J-2040*
G01*
Y238750*
G75*
G02X275479Y245236I-578J6486*
G01*
G75*
G02X275481Y245399I6518J3*
G01*
X234865Y262222*
X224861Y258077*
G75*
G02X223068Y258077I-897J2162*
G01*
X167127Y281248*
G75*
G02X165860Y282516I895J2162*
G01*
X161713Y292521*
X152126Y296492*
G75*
G02X141392Y303472I-4719J4488*
G01*
G75*
G02X153920Y300980I6016J-2492*
G01*
G75*
G02X153918Y300817I-6509J-3*
G01*
X164397Y296476*
G75*
G02X165666Y295209I-894J-2163*
G01*
X169814Y285201*
X193700Y275308*
G75*
G02X189725Y285900I3677J7422*
G01*
G75*
G02X205030Y279560I7653J-3170*
G01*
G75*
G02X194730Y274881I-7653J3170*
G01*
X223964Y262772*
X233969Y266917*
G75*
G02X235763Y266917I896J-2162*
G01*
X262209Y255963*
G75*
G02X260952Y262900I4759J4445*
G01*
G75*
G02X272984Y257916I6016J-2492*
G01*
G75*
G02X267190Y253900I-6016J2492*
G01*
X277272Y249724*
G75*
G02X287565Y241870I4719J-4488*
G01*
Y190207*
G75*
G02X297101Y185492I4611J-2675*
G01*
G75*
G02X287565Y184857I-4925J2040*
G01*
Y183483*
X311631Y159415*
X371401*
G75*
G02X375252Y161507I3851J-2498*
G01*
X377252*
G75*
G02X381102Y159416J-4591*
G01*
X406430*
X410807Y163793*
G75*
G02X412576Y164524I1766J-1767*
G01*
X431334*
G75*
G02X431371Y169369I3918J2393*
G01*
X411854*
X407639Y165156*
G75*
G02X405871Y164422I-1768J1765*
G01*
X381106*
G75*
G02X377252Y162326I-3854J2494*
G01*
X375252*
G75*
G02X371400Y164420J4591*
G01*
X354713*
G75*
G02X352945Y165154J2498*
G01*
X338580Y179515*
G75*
G02X330077Y188026I-2487J6019*
G01*
G75*
G02X336259Y192044I6016J-2492*
G01*
X336275Y192080*
X326719Y215143*
X326152Y215379*
X306727Y223422*
G75*
G02X305459Y224691I895J2163*
G01*
X291995Y257198*
X226008Y284531*
G75*
G02X214778Y289019I-4719J4488*
G01*
G75*
G02X214780Y289181I6522J3*
G01*
X118511Y329052*
X75324Y311169*
X71421Y301744*
G75*
G02X72950Y294533I-4487J-4719*
G01*
G75*
G02X60918Y299517I-6016J2492*
G01*
G75*
G02X67096Y303535I6016J-2492*
G01*
X71369Y313855*
G75*
G02X72637Y315123I2163J-894*
G01*
X117612Y333747*
G75*
G02X119407Y333748I899J-2161*
G01*
X201508Y299744*
G75*
G02X200250Y306682I4758J4446*
G01*
G75*
G02X212283Y301698I6016J-2492*
G01*
G75*
G02X206488Y297682I-6016J2492*
G01*
X216571Y293506*
G75*
G02X227801Y289019I4719J-4488*
G01*
G75*
G02X227799Y288856I-6513J-3*
G01*
X294682Y261152*
G75*
G02X295950Y259883I-895J-2163*
G01*
X309413Y227376*
X327944Y219704*
G75*
G02X327952Y219700I-713J-1756*
G01*
X329408Y219094*
G75*
G02X330673Y217828I-897J-2161*
G01*
X340970Y192977*
G75*
G02Y191183I-2162J-897*
G01*
X340583Y190250*
G75*
G02X342112Y183048I-4491J-4716*
G01*
X355748Y169416*
X371402*
G75*
G02X375252Y171507I3850J-2500*
G01*
X377252*
G75*
G02X381101Y169419J-4591*
G01*
X404837*
X409052Y173631*
G75*
G02X410820Y174365I1768J-1765*
G01*
X430847*
G75*
G02X430809Y179400I4405J2552*
G01*
X410409*
X406166Y175154*
G75*
G02X404397Y174420I-1769J1764*
G01*
X381104*
G75*
G02X377252Y172326I-3852J2496*
G01*
X375252*
G75*
G02X371401Y174419J4591*
G01*
X359578*
G75*
G02X357810Y175152J2498*
G01*
X346023Y186939*
G75*
G02X345479Y187752I1764J1769*
G01*
X329002Y227532*
X316467Y232723*
G75*
G02X310557Y236222I-1919J3499*
G01*
G75*
G02X318378Y237339I3991*
G01*
X331868Y231752*
G75*
G02X333222Y230400I-954J-2309*
G01*
X349904Y190122*
X360613Y179415*
X371401*
G75*
G02X375252Y181507I3851J-2498*
G01*
X377252*
G75*
G02X381102Y179416J-4591*
G01*
X403362*
X407605Y183663*
G75*
G02X409374Y184396I1769J-1764*
G01*
X431415*
G75*
G02X432179Y190327I3837J2520*
G01*
X428426*
X423378Y185276*
G75*
G02X421609Y184543I-1769J1764*
G01*
X381181*
G75*
G02X377252Y182326I-3929J2374*
G01*
X375252*
G75*
G02X371326Y184537J4591*
G01*
X361960*
G75*
G02X360222Y185242J2498*
G01*
X355726Y189586*
G75*
G02X355150Y190430I1733J1799*
G01*
X341667Y222981*
G75*
G02X341668Y224895I2308J956*
G01*
X345535Y234230*
G75*
G03X345537Y234233I-839J421*
G01*
X349679Y244231*
G75*
G02X351031Y245583I2308J-956*
G01*
X356126Y247694*
G75*
G02X355952Y249189I6338J1495*
G01*
G75*
G02X355954Y249352I6513J3*
G01*
X225054Y303573*
G75*
G02X219082Y306046I-2090J3399*
G01*
X98019Y356194*
G75*
G02X87284Y363174I-4719J4488*
G01*
G75*
G02X99812Y360682I6016J-2492*
G01*
G75*
G02X99810Y360519I-6509J-3*
G01*
X220874Y310371*
G75*
G02X226845Y307898I2090J-3399*
G01*
X342681Y259917*
G75*
G02X347925Y270855I4760J4444*
G01*
X317074Y283634*
G75*
G02X317071Y283635I1408J2820*
G01*
G75*
G02X312696Y294202I3096J7471*
G01*
X321357Y315114*
G75*
G02X321358Y315116I792J-395*
G01*
G75*
G03X319343Y319981I-3440J1425*
G01*
G75*
G03X319341Y319982I-140J-346*
G01*
X297577Y328997*
G75*
G02X299349Y321566I-4244J-4939*
G01*
G75*
G02X287317Y326550I-6016J2492*
G01*
G75*
G02X293824Y330552I6016J-2492*
G01*
X262966Y343334*
G75*
G02X262963Y343335I344J806*
G01*
G75*
G02X258587Y353900I3094J7470*
G01*
G75*
G02X258588Y353903I1687J-631*
G01*
X260659Y358901*
G75*
G03X260660Y358902I-81J55*
G01*
G75*
G03X258646Y363766I-3440J1424*
G01*
G75*
G02X258644Y363767I274J459*
G01*
X236884Y372781*
G75*
G02X238650Y365355I-4250J-4934*
G01*
G75*
G02X226618Y370339I-6016J2492*
G01*
G75*
G02X233118Y374341I6016J-2492*
G01*
X210905Y383542*
G75*
G02X210904Y383543I119J360*
G01*
G75*
G03X206681Y381794I-1237J-2986*
G01*
X203292Y373609*
X203291Y373607*
G75*
G02X195940Y370565I-5197J2155*
G01*
G75*
G03X195938Y370566I-153J-252*
G01*
X163852Y383856*
G75*
G02X164769Y377314I-5099J-4050*
G01*
G75*
G02X152737Y382298I-6016J2492*
G01*
G75*
G02X158011Y386276I6017J-2492*
G01*
X137289Y394859*
X137289*
G75*
G03X132423Y392844I-1425J-3442*
G01*
G75*
G03X132422Y392842I1503J-753*
G01*
X123381Y371019*
G75*
G02X123380Y371015I-2752J1098*
G01*
G75*
G02X114105Y367175I-6559J2722*
G01*
G75*
G03X114103Y367176I-166J-411*
G01*
X83378Y379902*
G75*
G02X84294Y373361I-5100J-4048*
G01*
G75*
G02X72261Y378346I-6016J2492*
G01*
G75*
G02X77533Y382323I6016J-2492*
G01*
X56816Y390904*
G75*
G02X56813Y390905I479J1440*
G01*
G75*
G03X51948Y388889I-1424J-3441*
G01*
G75*
G02X51947Y388885I-950J420*
G01*
X5809Y277499*
X5808Y277495*
G75*
G03X7289Y273916I2531J-1049*
G01*
G75*
G02X7290Y273915I-78J-118*
G01*
X68216Y248680*
G75*
G02X69398Y247496I-835J-2015*
G01*
X70461Y244928*
G75*
G02X70460Y243257I-2015J-834*
G01*
X60293Y218709*
G75*
G03X60291Y218706I797J-343*
G01*
G75*
G03X62306Y213841I3440J-1425*
G01*
G75*
G03X62307Y213840I125J248*
G01*
X110956Y193689*
G75*
G02X110957Y193689I-272J-684*
G01*
G75*
G03X113894Y194903I860J2077*
G01*
X113894Y194905*
X117096Y202634*
G75*
G02X117098Y202638I1684J-671*
G01*
G75*
G02X125729Y206214I6106J-2533*
G01*
G75*
G02X125732Y206212I-311J-703*
G01*
X192113Y178715*
X192114*
G75*
G02X196802Y171698I-2907J-7017*
G01*
G75*
G02X196224Y168792I-7596J0*
G01*
G75*
G02X196222Y168789I-1088J406*
G01*
X193211Y161520*
G75*
G03X193211Y161518I1880J-753*
G01*
G75*
G03X194691Y157939I2531J-1048*
G01*
G75*
G03X194693Y157939I69J102*
G01*
X204240Y153985*
G75*
G03X204242Y153983I237J393*
G01*
G75*
G02X207554Y145991I-2340J-5652*
G01*
G75*
G02X207552Y145989I-836J357*
G01*
X178739Y76430*
G75*
G02X178737Y76427I-1003J374*
G01*
G75*
G03X180753Y71560I3441J-1426*
G01*
G75*
G02X180754Y71560I-23J-46*
G01*
X238494Y47643*
G75*
G03X238495Y47642I113J225*
G01*
G75*
G02X242076Y39009I-2530J-6108*
G01*
G75*
G02X242074Y39005I-2086J946*
G01*
X239437Y32640*
G75*
G02X239436Y32637I-302J99*
G01*
G75*
G03X241572Y27488I3644J-1506*
G01*
G75*
G02X241575Y27487I-186J-563*
G01*
X289106Y7797*
G75*
G02X289109Y7796I-235J-553*
G01*
G75*
G03X292972Y9396I1131J2732*
G01*
Y9396*
X314444Y61233*
G75*
G02X315621Y62412I2015J-835*
G01*
G75*
G02X495487Y62826I90432J-216915*
G01*
G75*
G02X496679Y61625I-830J-2017*
G01*
X517536Y11270*
G75*
G02X517571Y11180I-2011J-833*
G01*
G75*
G02X517643Y10939I-2050J-744*
G01*
G75*
G03X523498Y8000I4160J987*
G01*
G75*
G02X523529Y8014I897J-2042*
G01*
X570359Y27410*
G75*
G02X570361Y27411I27J-78*
G01*
G75*
G03X572376Y32278I-1426J3441*
G01*
X572375Y32281*
X570305Y37278*
G75*
G02X574680Y47844I7470J3096*
G01*
G75*
G02X574682Y47845I499J-994*
G01*
X631058Y71196*
G75*
G02X631059Y71197I83J-164*
G01*
G75*
G03X633341Y76705I-1615J3896*
G01*
X633341Y76707*
X605093Y144907*
G75*
G02X605093Y144909I234J95*
G01*
G75*
G02X609469Y155472I7470J3093*
G01*
G75*
G02X609472Y155473I206J-409*
G01*
X614921Y157730*
G75*
G02X614924Y157731I124J-367*
G01*
G75*
G03X617222Y161170I-1424J3439*
G01*
G75*
G03X616939Y162594I-3724*
G01*
G75*
G02X616938Y162595I87J59*
G01*
X614681Y168048*
X614680Y168050*
G75*
G02X619053Y178615I7469J3096*
G01*
X619054Y178615*
X683530Y205322*
X683533Y205324*
G75*
G02X695508Y200361I3505J-8472*
G01*
G75*
G03X695509Y200360I461J306*
G01*
X697354Y195908*
G75*
G02X697355Y195905I-642J-243*
G01*
G75*
G03X701577Y194156I2986J1237*
G01*
G75*
G02X701580Y194157I382J-761*
G01*
X749315Y213931*
G75*
G02X749317Y213932I1411J-2819*
G01*
G75*
G03X751067Y218155I-1237J2986*
G01*
X751066Y218157*
X741878Y240336*
G75*
G02X741878Y240338I164J42*
G01*
G75*
G02X741299Y243244I7017J2907*
G01*
G75*
G02X745987Y250260I7595J0*
G01*
G75*
G03X745988Y250261I-135J408*
G01*
X803271Y273991*
G75*
G03X803273Y273991I-469J1175*
G01*
X593867Y367740D02*
G75*
G02X606891I6512D01*
G01*
G75*
G02X593867I-6512*
G01*
X602592Y354671D02*
G75*
G02X613254I5331D01*
G01*
G75*
G02X602592I-5331*
G01*
X562582Y338098D02*
G75*
G02X573243I5331D01*
G01*
G75*
G02X562582I-5331*
G01*
X447775Y234614D02*
G75*
G02X458437I5331D01*
G01*
G75*
G02X447775I-5331*
G01*
X353226Y234614D02*
G75*
G02X363887I5331D01*
G01*
G75*
G02X353226I-5331*
G01*
X676475Y366628D02*
G75*
G02X687137I5331D01*
G01*
G75*
G02X676475I-5331*
G01*
X636465Y350055D02*
G75*
G02X647126I5331D01*
G01*
G75*
G02X636465I-5331*
G01*
X653517Y358341D02*
G75*
G02X670084I8283D01*
G01*
G75*
G02X653517I-8283*
G01*
X541893Y310885D02*
G75*
G02X552555I5331D01*
G01*
G75*
G02X541893I-5331*
G01*
X518935Y302598D02*
G75*
G02X535502I8283D01*
G01*
G75*
G02X518935I-8283*
G01*
X464828Y242900D02*
G75*
G02X481394I8283D01*
G01*
G75*
G02X464828I-8283*
G01*
X756945Y362675D02*
G75*
G02X767606I5331D01*
G01*
G75*
G02X756945I-5331*
G01*
X733987Y354389D02*
G75*
G02X750554I8283D01*
G01*
G75*
G02X733987I-8283*
G01*
X716935Y346102D02*
G75*
G02X727596I5331D01*
G01*
G75*
G02X716935I-5331*
G01*
X588945Y274444D02*
G75*
G02X599606I5331D01*
G01*
G75*
G02X588945I-5331*
G01*
X598880Y304191D02*
G75*
G02X611904I6512D01*
G01*
G75*
G02X598880I-6512*
G01*
X620230Y304086D02*
G75*
G02X633254I6512D01*
G01*
G75*
G02X620230I-6512*
G01*
X628955Y291017D02*
G75*
G02X639617I5331D01*
G01*
G75*
G02X628955I-5331*
G01*
X702842Y302974D02*
G75*
G02X713504I5331D01*
G01*
G75*
G02X702842I-5331*
G01*
X662832Y286401D02*
G75*
G02X673493I5331D01*
G01*
G75*
G02X662832I-5331*
G01*
X679884Y294688D02*
G75*
G02X696451I8283D01*
G01*
G75*
G02X679884I-8283*
G01*
X568259Y247239D02*
G75*
G02X578920I5331D01*
G01*
G75*
G02X568259I-5331*
G01*
X528249Y230665D02*
G75*
G02X538910I5331D01*
G01*
G75*
G02X528249I-5331*
G01*
X545301Y238952D02*
G75*
G02X561868I8283D01*
G01*
G75*
G02X545301I-8283*
G01*
X491195Y179248D02*
G75*
G02X507762I8283D01*
G01*
G75*
G02X491195I-8283*
G01*
X474143Y170962D02*
G75*
G02X484804I5331D01*
G01*
G75*
G02X474143I-5331*
G01*
X783313Y299026D02*
G75*
G02X793974I5331D01*
G01*
G75*
G02X783313I-5331*
G01*
X743303Y282453D02*
G75*
G02X753964I5331D01*
G01*
G75*
G02X743303I-5331*
G01*
X753238Y312200D02*
G75*
G02X766261I6512D01*
G01*
G75*
G02X753238I-6512*
G01*
X760355Y290740D02*
G75*
G02X776922I8283D01*
G01*
G75*
G02X760355I-8283*
G01*
X720480Y252394D02*
G75*
G02X733504I6512D01*
G01*
G75*
G02X722273Y247907I-6512*
G01*
X683350Y231783*
X679624Y222785*
G75*
G02X678356Y221515I-2164J892*
G01*
X612882Y194396*
G75*
G02X611088Y194396I-896J2162*
G01*
X602089Y198127*
X598918Y196814*
G75*
G02X598920Y196651I-6509J-160*
G01*
G75*
G02X585896I-6512*
G01*
G75*
G02X597127Y201139I6512*
G01*
X601194Y202823*
G75*
G02X602988Y202822I895J-2163*
G01*
X611987Y199091*
X640262Y210803*
G75*
G02X632367Y219078I388J8274*
G01*
G75*
G02X648933I8283*
G01*
G75*
G02X646775Y213501I-8284J0*
G01*
X675669Y225469*
X679396Y234470*
G75*
G02X680664Y235737I2163J-896*
G01*
X705419Y245991*
G75*
G02X699130Y252500I222J6508*
G01*
G75*
G02X712153I6512*
G01*
G75*
G02X710401Y248055I-6512*
G01*
X720482Y252231*
G75*
G02X720480Y252394I6518J160*
G01*
X729205Y239326D02*
G75*
G02X739866I5331D01*
G01*
G75*
G02X729205I-5331*
G01*
X689194Y222753D02*
G75*
G02X699856I5331D01*
G01*
G75*
G02X689194I-5331*
G01*
X706247Y231039D02*
G75*
G02X722814I8283D01*
G01*
G75*
G02X706247I-8283*
G01*
X594621Y183583D02*
G75*
G02X605283I5331D01*
G01*
G75*
G02X594621I-5331*
G01*
X554611Y167009D02*
G75*
G02X565272I5331D01*
G01*
G75*
G02X554611I-5331*
G01*
X646600Y240433D02*
G75*
G02X659623I6512D01*
G01*
G75*
G02X648393Y235945I-6512*
G01*
X562678Y200440*
X560396Y194426*
X583814Y137894*
X601939Y130386*
G75*
G02X603206Y129117I-896J-2162*
G01*
X608382Y116624*
G75*
G02X615058Y110114I164J-6510*
G01*
G75*
G02X602035I-6512*
G01*
G75*
G02X604058Y114832I6512*
G01*
X599252Y126433*
X582617Y133323*
G75*
G02X582450Y133246I-1122J2230*
G01*
X539713Y115546*
G75*
G02X538756Y115355I-958J2307*
G01*
X416208*
G75*
G02X414357Y116175J2498*
G01*
X388685Y144417*
X388472*
G75*
G02X384798Y137891I-3039J-2587*
G01*
X391167Y131526*
G75*
G02X391899Y129759I-1766J-1767*
G01*
Y114809*
X527485*
G75*
G02X529142Y114122I1J-2341*
G01*
X531271Y111992*
G75*
G02X531780Y111231I-1654J-1656*
G01*
X547683Y72839*
G75*
G02X554359Y66329I163J-6510*
G01*
G75*
G02X541335I-6512*
G01*
G75*
G02X543359Y71048I6512*
G01*
X527633Y109010*
X526516Y110128*
X390315*
G75*
G02X389442Y109970I-873J2341*
G01*
X257924*
X245505Y97535*
G75*
G02X245504Y92553I-6017J-2489*
G01*
G75*
G02X233471Y97537I-6016J2492*
G01*
G75*
G02X241970Y101065I6016J-2492*
G01*
X255120Y114232*
G75*
G02X256889Y114966I1769J-1764*
G01*
X386903*
Y128724*
X381204Y134420*
X381104*
G75*
G02X377252Y132326I-3852J2496*
G01*
X375252*
G75*
G02X371451Y139490J4591*
G01*
X252560*
G75*
G02X250904Y140176I-1J2341*
G01*
X245315Y145764*
G75*
G02X240694Y149705I-630J3941*
G01*
G75*
G02X248676I3991*
G01*
G75*
G02X248626Y149074I-3990J-1*
G01*
X253529Y144171*
X371573*
G75*
G02X371400Y144420I3680J2746*
G01*
X290294*
G75*
G02X288524Y145152I-2J2498*
G01*
X258113Y175565*
G75*
G02X249115Y181584I-2486J6019*
G01*
G75*
G02X249117Y181747I6506J2*
G01*
X213049Y196685*
X203038Y192540*
G75*
G02X201246I-896J2163*
G01*
X135305Y219852*
G75*
G02X134035Y221120I893J2163*
G01*
X129889Y231129*
X125761Y232840*
G75*
G02X115027Y239821I-4718J4489*
G01*
G75*
G02X127555Y237329I6016J-2492*
G01*
G75*
G02X127553Y237164I-6521J-4*
G01*
X132577Y235082*
G75*
G02X133844Y233814I-896J-2162*
G01*
X137989Y223807*
X167434Y211611*
G75*
G02X163359Y222252I3578J7471*
G01*
G75*
G02X178665Y215912I7653J-3170*
G01*
G75*
G02X168260Y211269I-7653J3170*
G01*
X202142Y197235*
X212150Y201380*
G75*
G02X213944Y201381I898J-2161*
G01*
X235846Y192310*
G75*
G02X234588Y199248I4758J4446*
G01*
G75*
G02X246620Y194264I6016J-2492*
G01*
G75*
G02X240825Y190248I-6016J2492*
G01*
X250908Y186072*
G75*
G02X261645Y179098I4719J-4488*
G01*
X291326Y149416*
X371402*
G75*
G02X375252Y151507I3850J-2500*
G01*
X377252*
G75*
G02X381104Y149413J-4591*
G01*
X389689*
G75*
G02X389706Y149414I128J-2459*
G01*
G75*
G02X392126Y148059I191J-2499*
G01*
X417313Y120351*
X538259*
X579021Y137234*
X555716Y193493*
G75*
G02X555691Y195221I2163J896*
G01*
X558659Y203044*
G75*
G02X559953Y204378I2189J-828*
G01*
X631538Y234030*
G75*
G02X625249Y240538I223J6508*
G01*
G75*
G02X638273I6512*
G01*
G75*
G02X636521Y236094I-6512*
G01*
X646602Y240270*
G75*
G02X646600Y240433I6507J160*
G01*
X655324Y227364D02*
G75*
G02X665986I5331D01*
G01*
G75*
G02X655324I-5331*
G01*
X564546Y196756D02*
G75*
G02X577570I6512D01*
G01*
G75*
G02X564546I-6512*
G01*
X571663Y175296D02*
G75*
G02X588230I8283D01*
G01*
G75*
G02X571663I-8283*
G01*
X615314Y210791D02*
G75*
G02X625976I5331D01*
G01*
G75*
G02X615314I-5331*
G01*
X610759Y97046D02*
G75*
G02X621421I5331D01*
G01*
G75*
G02X610759I-5331*
G01*
X570749Y80472D02*
G75*
G02X581411I5331D01*
G01*
G75*
G02X570749I-5331*
G01*
X580684Y110219D02*
G75*
G02X593708I6512D01*
G01*
G75*
G02X580684I-6512*
G01*
X587802Y88759D02*
G75*
G02X604369I8283D01*
G01*
G75*
G02X587802I-8283*
G01*
X550060Y53261D02*
G75*
G02X560721I5331D01*
G01*
G75*
G02X550060I-5331*
G01*
X510050Y36687D02*
G75*
G02X520711I5331D01*
G01*
G75*
G02X510050I-5331*
G01*
X519985Y66434D02*
G75*
G02X533008I6512D01*
G01*
G75*
G02X519985I-6512*
G01*
X527102Y44974D02*
G75*
G02X543669I8283D01*
G01*
G75*
G02X527102I-8283*
G01*
X267987Y44974D02*
G75*
G02X284554I8283D01*
G01*
G75*
G02X267987I-8283*
G01*
X278647Y66434D02*
G75*
G02X291671I6512D01*
G01*
G75*
G02X278647I-6512*
G01*
X290944Y36687D02*
G75*
G02X301606I5331D01*
G01*
G75*
G02X290944I-5331*
G01*
X293670Y51262D02*
G75*
G02X306694I6512D01*
G01*
G75*
G02X293670I-6512*
G01*
X250934Y53260D02*
G75*
G02X261596I5331D01*
G01*
G75*
G02X250934I-5331*
G01*
X223431Y175296D02*
G75*
G02X239998I8283D01*
G01*
G75*
G02X223431I-8283*
G01*
X246389Y167009D02*
G75*
G02X257051I5331D01*
G01*
G75*
G02X246389I-5331*
G01*
X206379Y183582D02*
G75*
G02X217041I5331D01*
G01*
G75*
G02X206379I-5331*
G01*
X377252Y131507D02*
G75*
G02X381843Y126917J-4591D01*
G01*
G75*
G02X377252Y122326I-4591*
G01*
X375252*
G75*
G02X371400Y124420J4591*
G01*
X237453*
G75*
G02X235685Y125154J2498*
G01*
X205519Y155318*
G75*
G02X205031Y156006I1765J1769*
G01*
X201939Y162452*
G75*
G02X199159Y167865I906J3886*
G01*
G75*
G02X206532Y164811I3687J-1527*
G01*
G75*
G02X206444Y164613I-3688J1524*
G01*
X209351Y158552*
X238487Y129416*
X371402*
G75*
G02X375252Y131507I3850J-2500*
G01*
X377252*
X217953Y110217D02*
G75*
G02X230976I6512D01*
G01*
G75*
G02X217953I-6512*
G01*
X230250Y80470D02*
G75*
G02X240911I5331D01*
G01*
G75*
G02X230250I-5331*
G01*
X437252Y131507D02*
G75*
G02X441843Y126917J-4591D01*
G01*
G75*
G02X437252Y122326I-4591*
G01*
X435252*
G75*
G02X430661Y126917J4591*
G01*
G75*
G02X435252Y131507I4591*
G01*
X437252*
Y141507D02*
G75*
G02X441843Y136917J-4591D01*
G01*
G75*
G02X437252Y132326I-4591*
G01*
X435252*
G75*
G02X430661Y136917J4591*
G01*
G75*
G02X435252Y141507I4591*
G01*
X437252*
X249795Y238948D02*
G75*
G02X266362I8283D01*
G01*
G75*
G02X249795I-8283*
G01*
X232743Y247234D02*
G75*
G02X243404I5331D01*
G01*
G75*
G02X232743I-5331*
G01*
X173389Y240542D02*
G75*
G02X186413I6512D01*
G01*
G75*
G02X173389I-6512*
G01*
X185687Y210795D02*
G75*
G02X196348I5331D01*
G01*
G75*
G02X185687I-5331*
G01*
X275778Y184315D02*
G75*
G02X278539Y178906I-926J-3881D01*
G01*
G75*
G02X271165Y181961I-3687J1527*
G01*
G75*
G02X271453Y182524I3686J-1527*
G01*
X267148Y192919*
X261170Y195395*
G75*
G02X261169Y195396I138J278*
G01*
X199643Y220883*
G75*
G02X188908Y227863I-4719J4488*
G01*
G75*
G02X201436Y225370I6016J-2492*
G01*
G75*
G02X201434Y225207I-6520J-3*
G01*
X262960Y199720*
G75*
G02X262962Y199720I-98J-248*
G01*
X269835Y196872*
G75*
G02X271102Y195603I-896J-2163*
G01*
X275778Y184315*
X314558Y200706D02*
G75*
G02X327582I6512D01*
G01*
G75*
G02X314558I-6512*
G01*
X326856Y170959D02*
G75*
G02X337517I5331D01*
G01*
G75*
G02X326856I-5331*
G01*
X303898Y179245D02*
G75*
G02X320465I8283D01*
G01*
G75*
G02X303898I-8283*
G01*
X125873Y316152D02*
G75*
G02X138897I6512D01*
G01*
G75*
G02X125873I-6512*
G01*
X138170Y286405D02*
G75*
G02X148832I5331D01*
G01*
G75*
G02X138170I-5331*
G01*
X145676Y227369D02*
G75*
G02X156338I5331D01*
G01*
G75*
G02X145676I-5331*
G01*
X172042Y291017D02*
G75*
G02X182703I5331D01*
G01*
G75*
G02X172042I-5331*
G01*
X212052Y274443D02*
G75*
G02X222713I5331D01*
G01*
G75*
G02X212052I-5331*
G01*
X88848Y231040D02*
G75*
G02X105415I8283D01*
G01*
G75*
G02X88848I-8283*
G01*
X98160Y302978D02*
G75*
G02X108822I5331D01*
G01*
G75*
G02X98160I-5331*
G01*
X99509Y252500D02*
G75*
G02X112532I6512D01*
G01*
G75*
G02X99509I-6512*
G01*
X111806Y222754D02*
G75*
G02X122467I5331D01*
G01*
G75*
G02X111806I-5331*
G01*
X115213Y294691D02*
G75*
G02X131780I8283D01*
G01*
G75*
G02X115213I-8283*
G01*
X71796Y239327D02*
G75*
G02X82457I5331D01*
G01*
G75*
G02X71796I-5331*
G01*
X313216Y251187D02*
G75*
G02X323877I5331D01*
G01*
G75*
G02X313216I-5331*
G01*
X330268Y242901D02*
G75*
G02X346835I8283D01*
G01*
G75*
G02X330268I-8283*
G01*
X241145Y352675D02*
G75*
G02X254169I6512D01*
G01*
G75*
G02X241145I-6512*
G01*
X238420Y338100D02*
G75*
G02X249081I5331D01*
G01*
G75*
G02X238420I-5331*
G01*
X302785Y312260D02*
G75*
G02X314372Y306394I5570J-3374D01*
G01*
G75*
G02X302465Y306110I-6016J2492*
G01*
X301954Y305781*
G75*
G02X301730Y305546I-1915J1604*
G01*
X296579Y293108*
G75*
G02X297170Y291018I-3399J-2091*
G01*
G75*
G02X289189I-3991*
G01*
G75*
G02X292254Y294899I3991*
G01*
X296852Y306001*
X289798Y308918*
G75*
G02X292096Y299428I-5355J-6320*
G01*
G75*
G02X276791Y305768I-7653J3170*
G01*
G75*
G02X285117Y310854I7653J-3170*
G01*
X259007Y321652*
X254868Y320056*
G75*
G02X253011Y320078I-902J2329*
G01*
X187542Y347195*
G75*
G02X186189Y348550I956J2308*
G01*
X182068Y358494*
X178375Y360025*
G75*
G02X167760Y367127I-4599J4610*
G01*
G75*
G02X180288Y364640I6016J-2492*
G01*
X184935Y362715*
G75*
G02X186288Y361363I-955J-2308*
G01*
X190410Y351415*
X219089Y339535*
G75*
G02X216093Y349557I4656J6851*
G01*
G75*
G02X231398Y343217I7653J-3170*
G01*
G75*
G02X222193Y338250I-7653J3170*
G01*
X254000Y325076*
X258142Y326672*
G75*
G02X259997Y326649I898J-2331*
G01*
X299660Y310246*
X302785Y312260*
X299118Y294311D02*
G75*
G02X309780I5331D01*
G01*
G75*
G02X299118I-5331*
G01*
X259108Y310885D02*
G75*
G02X269769I5331D01*
G01*
G75*
G02X259108I-5331*
G01*
X198409Y354673D02*
G75*
G02X209071I5331D01*
G01*
G75*
G02X198409I-5331*
G01*
X164539Y350059D02*
G75*
G02X175200I5331D01*
G01*
G75*
G02X164539I-5331*
G01*
X141581Y358346D02*
G75*
G02X158148I8283D01*
G01*
G75*
G02X141581I-8283*
G01*
X124528Y366633D02*
G75*
G02X135190I5331D01*
G01*
G75*
G02X124528I-5331*
G01*
X84063Y346107D02*
G75*
G02X94724I5331D01*
G01*
G75*
G02X84063I-5331*
G01*
X61105Y354393D02*
G75*
G02X77672I8283D01*
G01*
G75*
G02X61105I-8283*
G01*
X17687Y299023D02*
G75*
G02X28348I5331D01*
G01*
G75*
G02X17687I-5331*
G01*
X34739Y290736D02*
G75*
G02X51306I8283D01*
G01*
G75*
G02X34739I-8283*
G01*
X44053Y362680D02*
G75*
G02X54714I5331D01*
G01*
G75*
G02X44053I-5331*
G01*
X45400Y312196D02*
G75*
G02X58423I6512D01*
G01*
G75*
G02X45400I-6512*
G01*
X57697Y282450D02*
G75*
G02X68358I5331D01*
G01*
G75*
G02X57697I-5331*
G01*
X190240Y97043D02*
G75*
G02X200901I5331D01*
G01*
G75*
G02X190240I-5331*
G01*
X207292Y88757D02*
G75*
G02X223859I8283D01*
G01*
G75*
G02X207292I-8283*
G01*
X292013Y8161D02*
G36*
G75*
G03X292972Y9396I-1773J2367D01*
G01*
Y9396*
X304277Y36687*
X301606*
Y36687*
G75*
G02X290944I-5331*
G01*
Y36687*
X241114*
X239437Y32640*
X239436Y32637*
G75*
G03X239137Y31131I3644J-1507*
G01*
G75*
G03X241572Y27488I3943*
G01*
G75*
G02X241575Y27487I-3J-14*
G01*
X288227Y8161*
X292013*
G37*
X570550Y36687D02*
G36*
X520711D01*
G75*
G02X510050I-5331*
G01*
X507008*
X517536Y11270*
G75*
G02X517571Y11180I-1735J-726*
G01*
G75*
G02X517643Y10939I-2099J-759*
G01*
G75*
G03X519776Y8161I4160J987*
G01*
X523885*
X570359Y27410*
G75*
G02X570361Y27411J0*
G01*
G75*
G03X572660Y30852I-1426J3441*
G01*
G75*
G03X572376Y32278I-3725J0*
G01*
X572375Y32281*
X570550Y36687*
G37*
X304277D02*
G36*
X307709Y44974D01*
X301874*
G75*
G02X298490I-1692J6288*
G01*
X284554*
Y44974*
G75*
G02X267987I-8283*
G01*
Y44974*
X241611*
G75*
G02X242577Y41534I-5646J-3440*
G01*
G75*
G02X242076Y39009I-6611*
G01*
G75*
G02X242074Y39005I-27J10*
G01*
X241114Y36687*
X290944*
G75*
G02X301606I5331J0*
G01*
X304277*
G37*
X571125Y44974D02*
G36*
X543669D01*
G75*
G02X527102I-8283*
G01*
X503576*
X507008Y36687*
X510050*
G75*
G02X520711I5331*
G01*
X570550*
X570305Y37278*
X570305Y37278*
G75*
G02X569689Y40374I7470J3096*
G01*
G75*
G02X571125Y44974I8087*
G01*
G37*
X293984Y53261D02*
G36*
X261596D01*
Y53260*
G75*
G02X250934I-5331*
G01*
Y53261*
X224931*
X238494Y47643*
X238495Y47642*
G75*
G02X241611Y44974I-2529J-6108*
G01*
X267987*
G75*
G02X284554I8283J0*
G01*
X298490*
G75*
G02X293670Y51262I1692J6288*
G01*
G75*
G02X293984Y53261I6512*
G01*
G37*
X307709Y44974D02*
G36*
X311142Y53261D01*
X306380*
G75*
G02X306694Y51262I-6198J-1998*
G01*
G75*
G02X301874Y44974I-6512*
G01*
X307709*
G37*
X587757Y53261D02*
G36*
X560721D01*
G75*
G02X550060I-5331*
G01*
X500143*
X503576Y44974*
X527102*
G75*
G02X543669I8283*
G01*
X571125*
G75*
G02X574680Y47844I6650J-4600*
G01*
G75*
G02X574682Y47845I4J-4*
G01*
X587757Y53261*
G37*
X311142D02*
G36*
X314444Y61233D01*
G75*
G02X315621Y62412I2017J-836*
G01*
G75*
G02X325949Y66434I90444J-216944*
G01*
X291671*
Y66434*
G75*
G02X278647I-6512*
G01*
Y66434*
X193128*
X224931Y53261*
X250934*
G75*
G02X261596I5331J0*
G01*
X293984*
G75*
G02X306380I6198J-1998*
G01*
X311142*
G37*
X619561Y66434D02*
G36*
X554358D01*
G75*
G02X554359Y66330I-6515J-101*
G01*
Y66329*
G75*
G02X541335I-6512*
G01*
Y66330*
G75*
G02X541336Y66434I6515J4*
G01*
X533008*
G75*
G02X519985I-6512*
G01*
X486158*
G75*
G02X495487Y62826I-80130J-221007*
G01*
G75*
G02X496679Y61625I-830J-2016*
G01*
X500143Y53261*
X550060*
G75*
G02X560721I5331*
G01*
X587757*
X619561Y66434*
G37*
X325949D02*
G36*
G75*
G02X401982Y80472I80106J-220941D01*
G01*
X240911*
G75*
G02Y80470I-5414J-1*
G01*
G75*
G02X230250I-5331*
G01*
G75*
G02Y80472I5414J1*
G01*
X180413*
X178739Y76430*
G75*
G02X178737Y76427I-8J1*
G01*
G75*
G03X178454Y75001I3441J-1426*
G01*
G75*
G03X180753Y71560I3725*
G01*
G75*
G02X180754Y71560J0*
G01*
X193128Y66434*
X278647*
G75*
G02X291671I6512J0*
G01*
X325949*
G37*
X541336D02*
G36*
G75*
G02X543359Y71048I6510J-105D01*
G01*
X539455Y80472*
X410125*
G75*
G02X486158Y66434I-4072J-234979*
G01*
X519985*
G75*
G02X533008I6512*
G01*
X541336*
G37*
X631781Y80472D02*
G36*
X581411D01*
G75*
G02X570749I-5331*
G01*
X544521*
X547683Y72839*
G75*
G02X554358Y66434I164J-6509*
G01*
X619561*
X631058Y71196*
X631059Y71197*
G75*
G03X633662Y75093I-1615J3896*
G01*
G75*
G03X633341Y76705I-4218J0*
G01*
X633341Y76707*
X631781Y80472*
G37*
X539455D02*
G36*
X536022Y88759D01*
X241187*
G75*
G02X237788I-1700J6287*
G01*
X223859*
G75*
G02Y88757I-8459J-1*
G01*
G75*
G02X207292I-8283*
G01*
G75*
G02Y88759I8459J1*
G01*
X183846*
X180413Y80472*
X230250*
G75*
G02X240911I5331J-2*
G01*
X401982*
G75*
G02X410125I4072J-235017*
G01*
X539455*
G37*
X628349Y88759D02*
G36*
X604369D01*
G75*
G02X587802I-8283*
G01*
X541089*
X544521Y80472*
X570749*
G75*
G02X581411I5331*
G01*
X631781*
X628349Y88759*
G37*
X233291Y97046D02*
G36*
X200901D01*
G75*
G02Y97043I-5414J-1*
G01*
G75*
G02X190240I-5331*
G01*
G75*
G02Y97046I5414J1*
G01*
X187278*
X183846Y88759*
X207292*
G75*
G02X223859I8283J-2*
G01*
X237788*
G75*
G02X232976Y95045I1700J6286*
G01*
G75*
G02X233291Y97046I6512J0*
G01*
G37*
X536022Y88759D02*
G36*
X532589Y97046D01*
X245685*
G75*
G02X245999Y95046I-6199J-2000*
G01*
G75*
G02X245504Y92553I-6515*
G01*
G75*
G02X241187Y88759I-6016J2492*
G01*
X536022*
G37*
X624917Y97046D02*
G36*
X621421D01*
G75*
G02X610759I-5331*
G01*
X537656*
X541089Y88759*
X587802*
G75*
G02X604369I8283*
G01*
X628349*
X624917Y97046*
G37*
X251112Y110219D02*
G36*
X230976D01*
G75*
G02Y110217I-6767J-1*
G01*
G75*
G02X217953I-6512*
G01*
G75*
G02Y110219I6767J1*
G01*
X192735*
X187278Y97046*
X190240*
G75*
G02X200901I5331J-2*
G01*
X233291*
G75*
G02X233471Y97537I6197J-1998*
G01*
G75*
G02X241970Y101065I6016J-2492*
G01*
X251112Y110219*
G37*
X532589Y97046D02*
G36*
X527633Y109010D01*
X526516Y110128*
X390315*
G75*
G02X389442Y109970I-874J2346*
G01*
X257924*
X245505Y97535*
G75*
G02X245685Y97046I-6021J-2491*
G01*
X532589*
G37*
X619460Y110219D02*
G36*
X615057D01*
G75*
G02X615058Y110114I-6518J-102*
G01*
G75*
G02X602035I-6512*
G01*
G75*
G02X602035Y110219I6519J4*
G01*
X593708*
G75*
G02X580684I-6512*
G01*
X532199*
X537656Y97046*
X610759*
G75*
G02X621421I5331*
G01*
X624917*
X619460Y110219*
G37*
X251112D02*
G36*
X255120Y114232D01*
G75*
G02X256889Y114966I1770J-1765*
G01*
X386903*
Y126917*
X381843*
G75*
G02X377252Y122326I-4591*
G01*
X375252*
G75*
G02X371400Y124420J4591*
G01*
X237453*
G75*
G02X235685Y125154I0J2497*
G01*
X233922Y126917*
X199652*
X192735Y110219*
X217953*
G75*
G02X230976I6512J-2*
G01*
X251112*
G37*
X602035D02*
G36*
G75*
G02X604058Y114832I6512J-106D01*
G01*
X599252Y126433*
X598083Y126917*
X567167*
X539713Y115546*
G75*
G02X538756Y115355I-957J2300*
G01*
X416208*
G75*
G02X414357Y116175J2498*
G01*
X404593Y126917*
X391899*
Y114809*
X527485*
G75*
G02X529142Y114122I0J-2344*
G01*
X531271Y111992*
G75*
G02X531780Y111231I-1656J-1658*
G01*
X532199Y110219*
X580684*
G75*
G02X593708I6512*
G01*
X602035*
G37*
X554111Y126917D02*
G36*
X441843D01*
G75*
G02X437252Y122326I-4591*
G01*
X435252*
G75*
G02X430661Y126917J4591*
G01*
X411344*
X417313Y120351*
X538259*
X554111Y126917*
G37*
X612544D02*
G36*
X604118D01*
X608382Y116624*
G75*
G02X615057Y110219I164J-6510*
G01*
X619460*
X612544Y126917*
G37*
X233922D02*
G36*
X223921Y136917D01*
X203794*
X199652Y126917*
X233922*
G37*
X386903D02*
G36*
Y128724D01*
X381204Y134420*
X381104*
G75*
G02X377252Y132326I-3852J2497*
G01*
X375252*
G75*
G02X370661Y136917J4591*
G01*
X230987*
X238487Y129416*
X371402*
G75*
G02X375252Y131507I3850J-2498*
G01*
X377252*
G75*
G02X381843Y126917J-4591*
G01*
X386903*
G37*
X578255Y136917D02*
G36*
X441843D01*
G75*
G02X437252Y132326I-4591*
G01*
X435252*
G75*
G02X430661Y136917J4591*
G01*
X427144*
Y135228*
G75*
G02X428794Y131996I-2339J-3231*
G01*
G75*
G02X420813Y131996I-3991J-1*
G01*
G75*
G02X422463Y135228I3990*
G01*
Y136917*
X402255*
X411344Y126917*
X430661*
G75*
G02X435252Y131507I4591*
G01*
X437252*
G75*
G02X441843Y126917J-4591*
G01*
X554111*
X578255Y136917*
G37*
X404593Y126917D02*
G36*
X395503Y136917D01*
X385774*
X391167Y131526*
G75*
G02X391899Y129760I-1764J-1766*
G01*
G75*
G02Y129759I-2820J0*
G01*
Y126917*
X404593*
G37*
X598083D02*
G36*
X582617Y133323D01*
G75*
G02X582450Y133246I-1204J2407*
G01*
X567167Y126917*
X598083*
G37*
X608403Y136917D02*
G36*
X586174D01*
X601939Y130386*
G75*
G02X603206Y129117I-896J-2162*
G01*
X604118Y126917*
X612544*
X608403Y136917*
G37*
X223921D02*
G36*
X214511Y146327D01*
X207681*
G75*
G02X207554Y145991I-5780J2004*
G01*
G75*
G02X207552Y145989I-10J3*
G01*
X203794Y136917*
X223921*
G37*
X370661D02*
G36*
G75*
G02X371451Y139490I4591D01*
G01*
X252560*
G75*
G02X250904Y140176I-1J2341*
G01*
X245315Y145764*
G75*
G02X242559Y146327I-630J3940*
G01*
X221576*
X230987Y136917*
X370661*
G37*
X287349Y146327D02*
G36*
X251373D01*
X253529Y144171*
X371573*
G75*
G02X371400Y144420I3662J2734*
G01*
X290294*
G75*
G02X288524Y145152I-2J2499*
G01*
X287349Y146327*
G37*
X578255Y136917D02*
G36*
X579021Y137234D01*
X575254Y146327*
X504611*
X503437Y145153*
G75*
G02X501668Y144422I-1767J1768*
G01*
X441106*
G75*
G02X437252Y142326I-3854J2495*
G01*
X435252*
G75*
G02X430699Y146327I0J4591*
G01*
X427144*
Y136917*
X430661*
G75*
G02X435252Y141507I4591*
G01*
X437252*
G75*
G02X441843Y136917J-4591*
G01*
X578255*
G37*
X395503D02*
G36*
X388685Y144417D01*
X388472*
G75*
G02X389424Y141831I-3039J-2587*
G01*
G75*
G02X384798Y137891I-3991*
G01*
X385774Y136917*
X395503*
G37*
X422463Y146327D02*
G36*
X393700D01*
X402255Y136917*
X422463*
Y146327*
G37*
X604653D02*
G36*
X580320D01*
X583814Y137894*
X586174Y136917*
X608403*
X605093Y144907*
G75*
G02X605093Y144909I7J4*
G01*
G75*
G02X604653Y146327I7471J3094*
G01*
G37*
X287349D02*
G36*
X262716Y170962D01*
X255297*
G75*
G02X257051Y167009I-3577J-3953*
G01*
G75*
G02X246389I-5331*
G01*
G75*
G02X248143Y170962I5331*
G01*
X238774*
G75*
G02X224656I-7059J4334*
G01*
X196766*
G75*
G02X196224Y168792I-7561J737*
G01*
G75*
G02X196222Y168789I-8J1*
G01*
X193211Y161520*
G75*
G03X193211Y161518I7J-4*
G01*
G75*
G03X193002Y160469I2531J-1049*
G01*
G75*
G03X194691Y157939I2739*
G01*
G75*
G03X194693Y157939I2J2*
G01*
X204240Y153985*
G75*
G02X204242Y153983I-4J-9*
G01*
G75*
G02X208019Y148331I-2341J-5652*
G01*
G75*
G02X207681Y146327I-6119J0*
G01*
X214511*
X205519Y155318*
G75*
G02X205031Y156006I1767J1770*
G01*
X201939Y162452*
G75*
G02X198855Y166338I906J3886*
G01*
G75*
G02X199159Y167865I3991J0*
G01*
G75*
G02X206836Y166338I3687J-1527*
G01*
G75*
G02X206532Y164811I-3991J0*
G01*
G75*
G02X206444Y164613I-4111J1712*
G01*
X209351Y158552*
X221576Y146327*
X242559*
G75*
G02X240694Y149704I2125J3377*
G01*
Y149705*
G75*
G02X248676I3991*
G01*
G75*
G02X248626Y149074I-4024J2*
G01*
X251373Y146327*
X287349*
G37*
X347135Y170962D02*
G36*
X337517D01*
G75*
G02Y170959I-5469J-2*
G01*
G75*
G02X326856I-5331*
G01*
G75*
G02Y170962I5469J2*
G01*
X312181*
X300085*
X311631Y159415*
X371401*
G75*
G02X375252Y161507I3852J-2499*
G01*
X377252*
G75*
G02X381102Y159416I1J-4589*
G01*
X406430*
X410807Y163793*
G75*
G02X412576Y164524I1767J-1768*
G01*
X431334*
G75*
G02X430662Y166917I3919J2392*
G01*
G75*
G02X431371Y169369I4591*
G01*
X411854*
X407639Y165156*
G75*
G02X405871Y164422I-1768J1766*
G01*
X381106*
G75*
G02X377252Y162326I-3853J2493*
G01*
X375252*
G75*
G02X371400Y164420J4591*
G01*
X354713*
G75*
G02X352945Y165154I0J2497*
G01*
X347135Y170962*
G37*
X373081D02*
G36*
X354202D01*
X355748Y169416*
X371402*
G75*
G02X373081Y170962I3850J-2498*
G01*
G37*
X422463Y146327D02*
G36*
Y151997D01*
G75*
G02Y151998I2506J0*
G01*
G75*
G02X423148Y153652I2339*
G01*
X428069Y158573*
G75*
G02X429725Y159259I1655J-1656*
G01*
X431304*
G75*
G02X431476Y159528I3878J-2293*
G01*
X413607*
X409231Y155152*
G75*
G02X407462Y154420I-1767J1768*
G01*
X381104*
G75*
G02X377252Y152326I-3852J2497*
G01*
X375252*
G75*
G02X371401Y154419I1J4592*
G01*
X310597*
G75*
G02X308829Y155152I0J2497*
G01*
X293020Y170962*
X269781*
X291326Y149416*
X371402*
G75*
G02X375252Y151507I3850J-2498*
G01*
X377252*
G75*
G02X381104Y149413I0J-4589*
G01*
X389689*
G75*
G02X389706Y149414I174J-3400*
G01*
G75*
G02X392126Y148059I191J-2499*
G01*
X393700Y146327*
X422463*
G37*
X575254D02*
G36*
X565049Y170962D01*
X563519*
G75*
G02X565272Y167009I-3577J-3952*
G01*
G75*
G02X554611I-5331*
G01*
G75*
G02X556365Y170962I5331*
G01*
X528783*
G75*
G02X528140Y169854I-2409J659*
G01*
X504611Y146327*
X575254*
G37*
X406381Y170962D02*
G36*
X379422D01*
G75*
G02X381101Y169419I-2170J-4046*
G01*
X404837*
X406381Y170962*
G37*
X505534D02*
G36*
X484804D01*
G75*
G02X474143I-5331*
G01*
X453171*
X452313Y170103*
G75*
G02X450544Y169369I-1770J1765*
G01*
X441133*
G75*
G02X441842Y166917I-3882J-2452*
G01*
G75*
G02X441170Y164524I-4592J0*
G01*
X499095*
X505534Y170962*
G37*
X522182D02*
G36*
X512600D01*
X501896Y160259*
G75*
G02X500127Y159528I-1767J1768*
G01*
X441028*
G75*
G02X441843Y156917I-3776J-2611*
G01*
G75*
G02X437252Y152326I-4591*
G01*
X435252*
G75*
G02X431302Y154578J4591*
G01*
X430694*
X427144Y151028*
Y146327*
X430699*
G75*
G02X430661Y146917I4554J588*
G01*
G75*
G02X435252Y151507I4591*
G01*
X437252*
G75*
G02X441101Y149418J-4590*
G01*
X500636*
X522182Y170962*
G37*
X614066D02*
G36*
X587006D01*
G75*
G02X572888I-7059J4334*
G01*
X570116*
X580320Y146327*
X604653*
G75*
G02X604478Y148002I7911J1674*
G01*
G75*
G02X609469Y155472I8085*
G01*
G75*
G02X609472Y155473I4J-4*
G01*
X614921Y157730*
X614924Y157731*
G75*
G03X617222Y161170I-1425J3439*
G01*
G75*
G03Y161172I-3638J1*
G01*
G75*
G03X616939Y162594I-3713*
G01*
G75*
G02X616938Y162595I2J2*
G01*
X614681Y168048*
X614680Y168050*
G75*
G02X614066Y170962I7469J3096*
G01*
G37*
X224435Y179248D02*
G36*
X214814D01*
G75*
G02X208606I-3104J4334*
G01*
X190826*
X192113Y178715*
X192114*
G75*
G02X196802Y171698I-2907J-7017*
G01*
G75*
G02X196766Y170962I-7597J0*
G01*
X224656*
G75*
G02X223431Y175296I7059J4333*
G01*
G75*
G02X224435Y179248I8284*
G01*
G37*
X262716Y170962D02*
G36*
X258113Y175565D01*
G75*
G02X249548Y179248I-2485J6019*
G01*
X238994*
G75*
G02X239998Y175296I-7280J-3953*
G01*
G75*
G02X238774Y170962I-8283J0*
G01*
X248143*
G75*
G02X255297I3577J-3953*
G01*
X262716*
G37*
X293020D02*
G36*
X284734Y179248D01*
X278662*
G75*
G02X278539Y178906I-3811J1183*
G01*
G75*
G02X271042Y179248I-3687J1527*
G01*
X261705*
G75*
G02X261645Y179098I-6081J2333*
G01*
X269781Y170962*
X293020*
G37*
X347135D02*
G36*
X338846Y179248D01*
X337796*
G75*
G02X334390I-1703J6286*
G01*
X320465*
G75*
G02Y179245I-8593J-2*
G01*
G75*
G02X312181Y170962I-8283*
G01*
G75*
G02X303898Y179245J8283*
G01*
G75*
G02Y179248I8593J2*
G01*
X291799*
X300085Y170962*
X312181*
X326856*
G75*
G02X337517I5331J-3*
G01*
X347135*
G37*
X406381D02*
G36*
X409052Y173631D01*
G75*
G02X410820Y174365I1768J-1766*
G01*
X430847*
G75*
G02X430162Y176917I4407J2552*
G01*
G75*
G02X430727Y179248I5092*
G01*
X410257*
X406166Y175154*
G75*
G02X404397Y174420I-1768J1763*
G01*
X381104*
G75*
G02X377252Y172326I-3852J2497*
G01*
X375252*
G75*
G02X371401Y174419I1J4592*
G01*
X359578*
G75*
G02X357810Y175152I0J2497*
G01*
X353713Y179248*
X345913*
X354202Y170962*
X373081*
G75*
G02X375252Y171507I2170J-4044*
G01*
X377252*
G75*
G02X379422Y170962I-1J-4592*
G01*
X406381*
G37*
X454385Y179248D02*
G36*
X441777D01*
G75*
G02X442342Y176917I-4526J-2332*
G01*
G75*
G02X441657Y174365I-5092J0*
G01*
X449509*
X454385Y179248*
G37*
X509672D02*
G36*
X507762D01*
G75*
G02X491195I-8283*
G01*
X461446*
X453171Y170962*
X474143*
G75*
G02X484804I5331*
G01*
X505534*
X509672Y175100*
Y179248*
G37*
X523876D02*
G36*
X514669D01*
Y174065*
G75*
G02X513937Y172298I-2498*
G01*
X512600Y170962*
X522182*
X523876Y172656*
Y179248*
G37*
X565049Y170962D02*
G36*
X561617Y179248D01*
X528872*
Y171621*
G75*
G02X528783Y170962I-2498J0*
G01*
X556365*
G75*
G02X563519I3577J-3952*
G01*
X565049*
G37*
X572667Y179248D02*
G36*
X566683D01*
X570116Y170962*
X572888*
G75*
G02X571663Y175296I7059J4334*
G01*
G75*
G02X572667Y179248I8283J0*
G01*
G37*
X620583D02*
G36*
X603055D01*
G75*
G02X596849I-3103J4334*
G01*
X587227*
G75*
G02X588230Y175296I-7280J-3952*
G01*
G75*
G02X587006Y170962I-8284*
G01*
X614066*
G75*
G02X614064Y171146I8083J178*
G01*
G75*
G02X619053Y178615I8085*
G01*
X619054Y178615*
X620583Y179248*
G37*
X249548D02*
G36*
G75*
G02X249115Y181584I6079J2336D01*
G01*
G75*
G02Y181598I5599J7*
G01*
G75*
G02X249117Y181747I5577J1*
G01*
X213049Y196685*
X203038Y192540*
G75*
G02X201246I-896J2161*
G01*
X191066Y196756*
X148560*
X190826Y179248*
X208606*
G75*
G02X206379Y183582I3104J4334*
G01*
G75*
G02X217041I5331*
G01*
G75*
G02X214814Y179248I-5331*
G01*
X224435*
G75*
G02X238994I7280J-3953*
G01*
X249548*
G37*
X114661Y196756D02*
G36*
X103551D01*
X110956Y193689*
G75*
G03X110957Y193689I4J7*
G01*
G75*
G03X113894Y194903I860J2077*
G01*
X113894Y194905*
X114661Y196756*
G37*
X234092D02*
G36*
X225110D01*
X235846Y192310*
G75*
G02X234092Y196756I4757J4446*
G01*
Y196756*
G37*
X271042Y179248D02*
G36*
G75*
G02X270861Y180433I3810J1186D01*
G01*
G75*
G02X271165Y181961I3991J0*
G01*
G75*
G02X271453Y182524I3748J-1558*
G01*
X267148Y192919*
X261170Y195395*
X261169Y195396*
X257885Y196756*
X247116*
Y196756*
G75*
G02X246620Y194264I-6512*
G01*
G75*
G02X240825Y190248I-6017J2493*
G01*
X250908Y186072*
G75*
G02X262139Y181584I4719J-4488*
G01*
G75*
G02X261705Y179248I-6513J0*
G01*
X271042*
G37*
X284734D02*
G36*
X283302Y180680D01*
G75*
G02X282569Y182448I1763J1768*
G01*
Y182448*
Y196756*
X270075*
G75*
G02X271102Y195603I-1136J-2046*
G01*
X275778Y184315*
G75*
G02X278842Y180433I-926J-3882*
G01*
G75*
G02X278662Y179248I-3991*
G01*
X284734*
G37*
X334337Y196756D02*
G36*
X326248D01*
G75*
G02X315893I-5178J3949*
G01*
X287565*
Y190207*
G75*
G02X297507Y187532I4611J-2675*
G01*
G75*
G02X297101Y185492I-5331J0*
G01*
G75*
G02X287565Y184857I-4925J2040*
G01*
Y183483*
X291799Y179248*
X303898*
G75*
G02X320465I8283J-3*
G01*
X334390*
G75*
G02X329581Y185534I1703J6285*
G01*
G75*
G02X330077Y188026I6511J0*
G01*
G75*
G02X336259Y192044I6016J-2492*
G01*
X336275Y192080*
X334337Y196756*
G37*
X338846Y179248D02*
G36*
X338580Y179515D01*
G75*
G02X337796Y179248I-2487J6018*
G01*
X338846*
G37*
X352530Y196756D02*
G36*
X347157D01*
X349904Y190122*
X360613Y179415*
X371401*
G75*
G02X375252Y181507I3852J-2499*
G01*
X377252*
G75*
G02X381102Y179416I1J-4589*
G01*
X403362*
X407605Y183663*
G75*
G02X409374Y184396I1768J-1763*
G01*
X431415*
G75*
G02X430661Y186917I3838J2520*
G01*
G75*
G02X432179Y190327I4591J0*
G01*
X428426*
X423378Y185276*
G75*
G02X421609Y184543I-1769J1766*
G01*
X381181*
G75*
G02X377252Y182326I-3930J2376*
G01*
X375252*
G75*
G02X371326Y184537I1J4592*
G01*
X361960*
G75*
G02X360222Y185242J2498*
G01*
X355726Y189586*
G75*
G02X355150Y190430I1735J1800*
G01*
X352530Y196756*
G37*
X353713Y179248D02*
G36*
X346023Y186939D01*
G75*
G02X345479Y187752I1763J1769*
G01*
X341749Y196756*
X339405*
X340970Y192977*
G75*
G02X341149Y192080I-2161J-897*
G01*
G75*
G02X340970Y191183I-2341*
G01*
X340583Y190250*
G75*
G02X342605Y185534I-4491J-4716*
G01*
G75*
G02X342112Y183048I-6512*
G01*
X345913Y179248*
X353713*
G37*
X430727D02*
G36*
G75*
G02X430809Y179400I4528J-2331D01*
G01*
X410409*
X410257Y179248*
X430727*
G37*
X449857Y196756D02*
G36*
X357937D01*
X359567Y192821*
X362970Y189533*
X371480*
G75*
G02X375252Y191507I3772J-2617*
G01*
X377252*
G75*
G02X381020Y189539I0J-4590*
G01*
X420574*
X425622Y194589*
G75*
G02X427391Y195323I1769J-1766*
G01*
X448424*
X449857Y196756*
G37*
X462162D02*
G36*
X456922D01*
X451226Y191060*
G75*
G02X449458Y190327I-1768J1763*
G01*
X440325*
G75*
G02X441843Y186917I-3073J-3411*
G01*
G75*
G02X441089Y184396I-4591*
G01*
X449802*
X462162Y196756*
G37*
X471868D02*
G36*
X469228D01*
X452604Y180132*
G75*
G02X450834Y179400I-1766J1765*
G01*
X441695*
G75*
G02X441777Y179248I-4447J-2483*
G01*
X454385*
X471868Y196756*
G37*
X506686D02*
G36*
X495765D01*
G75*
G02X485414I-5175J3952*
G01*
X478928*
X461446Y179248*
X491195*
G75*
G02X507762I8283*
G01*
X509672*
Y194499*
G75*
G02X506686Y196756I2267J6105*
G01*
G37*
X523876Y179248D02*
G36*
Y184514D01*
G75*
G02X514669Y185248I-4392J3021*
G01*
Y179248*
X523876*
G37*
X529962Y196756D02*
G36*
X517194D01*
G75*
G02X514669Y194691I-5254J3847*
G01*
Y189822*
G75*
G02X523990Y190383I4815J-2287*
G01*
G75*
G02X524609Y191406I2381J-744*
G01*
X529962Y196756*
G37*
X561617Y179248D02*
G36*
X555716Y193493D01*
G75*
G02X555537Y194389I2163J896*
G01*
G75*
G02X555691Y195221I2341J0*
G01*
X556273Y196756*
X538281*
G75*
G02X536967Y196694I-842J3902*
G01*
X528872Y188602*
Y179248*
X561617*
G37*
X620583D02*
G36*
X662850Y196756D01*
X618581*
X612882Y194396*
G75*
G02X611088Y194396I-896J2162*
G01*
X605396Y196756*
X598919*
G75*
G02X598920Y196665I-5579J-94*
G01*
G75*
G02Y196651I-5599J-7*
G01*
G75*
G02X585896I-6512*
G01*
G75*
G02X585897Y196756I6519J4*
G01*
X577570*
G75*
G02X564546I-6512*
G01*
X561280*
X560396Y194426*
X566683Y179248*
X572667*
G75*
G02X587227I7280J-3952*
G01*
X596849*
G75*
G02X594621Y183583I3103J4334*
G01*
G75*
G02X605283I5331*
G01*
G75*
G02X603055Y179248I-5331*
G01*
X620583*
G37*
X707854Y196756D02*
G36*
X697002D01*
X697354Y195908*
G75*
G03X697355Y195905I8J1*
G01*
G75*
G03X701577Y194156I2986J1236*
G01*
X701580Y194157*
X707854Y196756*
G37*
X191066D02*
G36*
X157182Y210791D01*
X69669*
X103551Y196756*
X114661*
X117096Y202634*
X117098Y202638*
G75*
G02X125729Y206214I6106J-2533*
G01*
G75*
G03X125732Y206212I11J20*
G01*
X148560Y196756*
X191066*
G37*
X257885D02*
G36*
X224005Y210791D01*
X196348*
G75*
G02X185687I-5331J4*
G01*
X169415*
X202142Y197235*
X212150Y201380*
G75*
G02X213944Y201381I898J-2164*
G01*
X225110Y196756*
X234092*
G75*
G02X234588Y199248I6511J-1*
G01*
G75*
G02X247116Y196756I6016J-2492*
G01*
X257885*
G37*
X282569Y210791D02*
G36*
X236235D01*
X262960Y199720*
G75*
G02X262962Y199720I-2J-7*
G01*
X269835Y196872*
G75*
G02X270075Y196756I-896J-2162*
G01*
X282569*
Y210791*
G37*
X334337Y196756D02*
G36*
X328522Y210791D01*
X287565*
Y196756*
X315893*
G75*
G02X314558Y200706I5178J3949*
G01*
G75*
G02X327582I6512*
G01*
G75*
G02X326248Y196756I-6512*
G01*
X334337*
G37*
X341749D02*
G36*
X335936Y210791D01*
X333589*
X339405Y196756*
X341749*
G37*
X352530D02*
G36*
X346717Y210791D01*
X341343*
X347157Y196756*
X352530*
G37*
X525686Y210791D02*
G36*
X524352Y210235D01*
X517720Y203601*
G75*
G02X517956Y203096I-5759J-2990*
G01*
G75*
G02X518452Y200604I-6016J-2492*
G01*
G75*
G02X517194Y196756I-6512*
G01*
X529962*
X533468Y200261*
G75*
G02X533448Y200657I4132J404*
G01*
G75*
G02X541430I3991*
G01*
G75*
G02X538281Y196756I-3991*
G01*
X556273*
X558659Y203044*
G75*
G02X559953Y204378I2189J-828*
G01*
X575435Y210791*
X525686*
G37*
X463891D02*
G36*
X453680D01*
G75*
G02X453680Y210667I-13424J-105*
G01*
G75*
G02X439841Y197261I-13413J0*
G01*
X437346Y197236*
X437318*
X375452Y197316*
G75*
G02X359438Y210791I-223J15989*
G01*
X352124*
X357937Y196756*
X449857*
X463891Y210791*
G37*
X476197D02*
G36*
X470957D01*
X456922Y196756*
X462162*
X476197Y210791*
G37*
X485414Y196756D02*
G36*
G75*
G02X484078Y200709I5175J3952D01*
G01*
G75*
G02Y200712I6767J2*
G01*
G75*
G02X484218Y202054I6479*
G01*
X478928Y196756*
X485414*
G37*
X485881Y210791D02*
G36*
X483263D01*
X469228Y196756*
X471868*
X485881Y210791*
G37*
X517843D02*
G36*
X492942D01*
X489234Y207078*
G75*
G02X497101Y200709I1355J-6369*
G01*
G75*
G02X495765Y196756I-6512*
G01*
X506686*
G75*
G02X505428Y200604I5254J3848*
G01*
G75*
G02X513875Y206821I6512*
G01*
X517843Y210791*
G37*
X605396Y196756D02*
G36*
X602089Y198127D01*
X598918Y196814*
G75*
G02X598919Y196756I-5581J-143*
G01*
X605396*
G37*
X640233Y210791D02*
G36*
X625976D01*
G75*
G02X615314I-5331*
G01*
X587667*
X562678Y200440*
X561280Y196756*
X564546*
G75*
G02X577570I6512*
G01*
X585897*
G75*
G02X597127Y201139I6511J-106*
G01*
X601194Y202823*
G75*
G02X602988Y202822I895J-2164*
G01*
X611987Y199091*
X640233Y210791*
G37*
X741735D02*
G36*
X652465D01*
X618581Y196756*
X662850*
X683530Y205322*
X683533Y205324*
G75*
G02X695508Y200361I3505J-8472*
G01*
G75*
G02X695509Y200360I-2J-2*
G01*
X697002Y196756*
X707854*
X741735Y210791*
G37*
X157182D02*
G36*
X135305Y219852D01*
G75*
G02X134035Y221120I893J2163*
G01*
X133359Y222753*
X122467*
G75*
G02X111806I-5331J1*
G01*
X61967*
X60293Y218709*
G75*
G03X60291Y218706I3J-3*
G01*
G75*
G03X60007Y217281I3440J-1426*
G01*
G75*
G03X62306Y213841I3724J0*
G01*
X62307Y213840*
X69669Y210791*
X157182*
G37*
X163587Y222753D02*
G36*
X153674D01*
G75*
G02X148341I-2667J4615*
G01*
X140535*
X167434Y211611*
G75*
G02X162729Y219081I3577J7470*
G01*
G75*
G02X163359Y222252I8282J0*
G01*
G75*
G02X163587Y222753I7654J-3170*
G01*
G37*
X224005Y210791D02*
G36*
X199643Y220883D01*
G75*
G02X188961Y222753I-4719J4488*
G01*
X178438*
G75*
G02X179296Y219082I-7426J-3671*
G01*
G75*
G02X178665Y215912I-8283J0*
G01*
G75*
G02X168260Y211269I-7652J3170*
G01*
X169415Y210791*
X185687*
G75*
G02Y210795I5394J2*
G01*
G75*
G02X196348I5331*
G01*
G75*
G02Y210791I-5394J-2*
G01*
X224005*
G37*
X282569Y222753D02*
G36*
X207359D01*
X236235Y210791*
X282569*
Y222753*
G37*
X328522Y210791D02*
G36*
X326719Y215143D01*
X326152Y215379*
X308343Y222753*
X287565*
Y210791*
X328522*
G37*
X335936D02*
G36*
X330981Y222753D01*
X320580*
X327944Y219704*
G75*
G02X327952Y219700I-19J-57*
G01*
X329408Y219094*
G75*
G02X330673Y217828I-896J-2161*
G01*
X333589Y210791*
X335936*
G37*
X346717D02*
G36*
X341762Y222753D01*
X336389*
X341343Y210791*
X346717*
G37*
X541409Y222753D02*
G36*
X504886D01*
X492942Y210791*
X517843*
X520226Y213175*
G75*
G02X521452Y214417I2277J-1022*
G01*
X521839Y214598*
G75*
G02X521942Y214644I1522J-3310*
G01*
X541409Y222753*
G37*
X359438Y210791D02*
G36*
G75*
G02X359239Y213305I15794J2514D01*
G01*
G75*
G02X361198Y220974I15991*
G01*
X361935Y222753*
X347169*
X352124Y210791*
X359438*
G37*
X463891D02*
G36*
X468064Y214964D01*
X464815Y222753*
X449724*
X452165Y216859*
G75*
G02X453680Y210791I-11900J-6193*
G01*
X463891*
G37*
X487218Y222753D02*
G36*
X470228D01*
X473320Y215343*
G75*
G02X473512Y214381I-2306J-962*
G01*
G75*
G02X472780Y212613I-2499*
G01*
X470957Y210791*
X476197*
X487218Y221811*
Y222753*
G37*
X497826D02*
G36*
X492214D01*
Y220777*
G75*
G02X491482Y219010I-2500J0*
G01*
X483263Y210791*
X485881*
X497826Y222753*
G37*
X640233Y210791D02*
G36*
X640262Y210803D01*
G75*
G02X632367Y219078I388J8274*
G01*
G75*
G02X633226Y222753I8284*
G01*
X616545*
X587667Y210791*
X615314*
G75*
G02X625976I5331*
G01*
X640233*
G37*
X554401Y222753D02*
G36*
X525686Y210791D01*
X575435*
X604313Y222753*
X554401*
G37*
X749162D02*
G36*
X699856D01*
G75*
G02X689194I-5331*
G01*
X679610*
G75*
G02X678356Y221515I-2150J925*
G01*
X652465Y210791*
X741735*
X749315Y213931*
G75*
G02X749317Y213932I4J-4*
G01*
G75*
G03X751312Y216919I-1237J2987*
G01*
G75*
G03X751067Y218155I-3232*
G01*
X751066Y218157*
X749162Y222753*
G37*
X669111D02*
G36*
X663329D01*
G75*
G02X657981I-2674J4611*
G01*
X648074*
G75*
G02X648933Y219078I-7424J-3675*
G01*
G75*
G02X646775Y213501I-8286J1*
G01*
X669111Y222753*
G37*
X133359D02*
G36*
X129889Y231129D01*
X125761Y232840*
G75*
G02X115124Y234614I-4718J4489*
G01*
X104604*
G75*
G02X105415Y231040I-7473J-3574*
G01*
G75*
G02X88848I-8283*
G01*
G75*
G02X89659Y234614I8284J0*
G01*
X79617*
G75*
G02X74635I-2491J4713*
G01*
X66880*
X61967Y222753*
X111806*
G75*
G02Y222754I5639J0*
G01*
G75*
G02X122467I5331*
G01*
G75*
G02Y222753I-5639J0*
G01*
X133359*
G37*
X282569D02*
G36*
Y227780D01*
G75*
G02X272753Y230661I-4485J2881*
G01*
G75*
G02X273159Y232701I5331*
G01*
G75*
G02X274507Y234614I4925J-2041*
G01*
X265138*
G75*
G02X251019I-7059J4334*
G01*
X182595*
G75*
G02X177207I-2694J5928*
G01*
X133296*
G75*
G02X133844Y233814I-1616J-1693*
G01*
X137989Y223807*
X140535Y222753*
X148341*
G75*
G02X145676Y227369I2667J4616*
G01*
G75*
G02X156338I5331*
G01*
G75*
G02X153674Y222753I-5331*
G01*
X163587*
G75*
G02X178438I7426J-3671*
G01*
X188961*
G75*
G02X188412Y225370I5963J2617*
G01*
G75*
G02X188908Y227863I6512*
G01*
G75*
G02X201436Y225370I6016J-2492*
G01*
G75*
G02Y225357I-5599J-7*
G01*
G75*
G02X201434Y225207I-5636J-1*
G01*
X207359Y222753*
X282569*
G37*
Y234614D02*
G36*
X281660D01*
G75*
G02X282569Y233542I-3576J-3954*
G01*
Y234614*
G37*
X308343Y222753D02*
G36*
X306727Y223422D01*
G75*
G02X305459Y224691I897J2165*
G01*
X301349Y234614*
X287565*
Y222753*
X308343*
G37*
X330981D02*
G36*
X329002Y227532D01*
X316467Y232723*
G75*
G02X310895Y234614I-1919J3499*
G01*
X306416*
X309413Y227376*
X320580Y222753*
X330981*
G37*
X341762D02*
G36*
X341667Y222981D01*
G75*
G02X341477Y223937I2307J956*
G01*
G75*
G02X341668Y224895I2496*
G01*
X345535Y234230*
X345537Y234233*
X345695Y234614*
X324959*
X331868Y231752*
G75*
G02X333222Y230400I-954J-2309*
G01*
X336389Y222753*
X341762*
G37*
X569882Y234614D02*
G36*
X560641D01*
G75*
G02X546528I-7057J4338*
G01*
X537161*
G75*
G02X538910Y230665I-3581J-3948*
G01*
G75*
G02X528249I-5331*
G01*
G75*
G02X529998Y234614I5331*
G01*
X516730*
X504886Y222753*
X541409*
X569882Y234614*
G37*
X361935Y222753D02*
G36*
X366848Y234614D01*
X363887*
G75*
G02X353226I-5331J0*
G01*
X351102*
X350152Y232320*
G75*
G02X350151Y232317I-14J3*
G01*
X346679Y223937*
X347169Y222753*
X361935*
G37*
X464815D02*
G36*
X459867Y234614D01*
X458437*
G75*
G02X447775I-5331*
G01*
X444811*
X449724Y222753*
X464815*
G37*
X487218Y234614D02*
G36*
X465280D01*
X470228Y222753*
X487218*
Y234614*
G37*
X509669D02*
G36*
X492214D01*
Y222753*
X497826*
X509669Y234614*
G37*
X679462D02*
G36*
X656035D01*
G75*
G02X650188I-2923J5819*
G01*
X645180*
X616545Y222753*
X633226*
G75*
G02X648074I7424J-3675*
G01*
X657981*
G75*
G02X655324Y227364I2674J4611*
G01*
G75*
G02X665986I5331*
G01*
G75*
G02X663329Y222753I-5331*
G01*
X669111*
X675669Y225469*
X679396Y234470*
G75*
G02X679462Y234614I2163J-897*
G01*
G37*
X582874D02*
G36*
X554401Y222753D01*
X604313*
X631538Y234030*
G75*
G02X629058Y234614I224J6508*
G01*
X582874*
G37*
X744248D02*
G36*
X737028D01*
G75*
G02X732043I-2492J4712*
G01*
X722003*
G75*
G02X722814Y231039I-7473J-3575*
G01*
G75*
G02X706247I-8283*
G01*
G75*
G02X707058Y234614I8284J0*
G01*
X690184*
X683350Y231783*
X679624Y222785*
G75*
G02X679610Y222753I-2164J893*
G01*
X689194*
G75*
G02X699856I5331*
G01*
X749162*
X744248Y234614*
G37*
X115124D02*
G36*
G75*
G02X114531Y237329I5919J2715D01*
G01*
G75*
G02X115027Y239821I6512*
G01*
G75*
G02X117673Y242900I6016J-2492*
G01*
X81082*
G75*
G02X82457Y239327I-3956J-3574*
G01*
G75*
G02X79617Y234614I-5331*
G01*
X89659*
G75*
G02X104604I7473J-3574*
G01*
X115124*
G37*
X73171Y242900D02*
G36*
X70313D01*
X66880Y234614*
X74635*
G75*
G02X71796Y239327I2491J4713*
G01*
G75*
G02X73171Y242900I5331*
G01*
G37*
X250799D02*
G36*
X241178D01*
G75*
G02X234970I-3104J4334*
G01*
X185971*
G75*
G02X186413Y240542I-6070J-2359*
G01*
G75*
G02X182595Y234614I-6512*
G01*
X251019*
G75*
G02X249795Y238948I7059J4333*
G01*
G75*
G02X250799Y242900I8284*
G01*
G37*
X173831D02*
G36*
X124414D01*
G75*
G02X127555Y237329I-3370J-5572*
G01*
G75*
G02Y237315I-5805J-7*
G01*
G75*
G02X127553Y237164I-5733J0*
G01*
X132577Y235082*
G75*
G02X133296Y234614I-896J-2163*
G01*
X177207*
G75*
G02X173389Y240542I2694J5928*
G01*
G75*
G02X173831Y242900I6512J0*
G01*
G37*
X275912D02*
G36*
X265358D01*
G75*
G02X266362Y238948I-7280J-3953*
G01*
G75*
G02X265138Y234614I-8283J0*
G01*
X274507*
G75*
G02X281660I3576J-3953*
G01*
X282569*
Y238750*
G75*
G02X275912Y242900I-578J6486*
G01*
G37*
X301349Y234614D02*
G36*
X297917Y242900D01*
X288069*
G75*
G02X287565Y241870I-6079J2335*
G01*
Y234614*
X301349*
G37*
X349128Y242900D02*
G36*
X346835D01*
G75*
G02X330268I-8283J0*
G01*
X302984*
X306416Y234614*
X310895*
G75*
G02X310557Y236222I3652J1608*
G01*
G75*
G02X318378Y237339I3991*
G01*
X324959Y234614*
X345695*
X349128Y242900*
G37*
X519548D02*
G36*
X489231D01*
X492013Y236387*
G75*
G02X492214Y235406I-2300J-982*
G01*
Y234614*
X509669*
X516748Y241703*
G75*
G02X518476Y242437I1769J-1764*
G01*
X519548Y242900*
G37*
X366848Y234614D02*
G36*
X370281Y242900D01*
X364153*
G75*
G02X360774I-1690J6289*
G01*
X357608*
X353898Y241363*
X351102Y234614*
X353226*
Y234614*
G75*
G02X363887I5331*
G01*
Y234614*
X366848*
G37*
X459867D02*
G36*
X456517Y242645D01*
G75*
G02X456426Y242900I2307J961*
G01*
X441380*
X444811Y234614*
X447775*
G75*
G02X458437I5331*
G01*
X459867*
G37*
X487218D02*
G36*
Y234894D01*
X483799Y242900*
X481394*
G75*
G02X464828I-8283*
G01*
X461823*
X465280Y234614*
X487218*
G37*
X532124Y242900D02*
G36*
X519989Y237648D01*
G75*
G02X519637Y237525I-983J2256*
G01*
X516730Y234614*
X529998*
G75*
G02X537161I3581J-3948*
G01*
X546528*
G75*
G02X545301Y238952I7057J4338*
G01*
G75*
G02X546303Y242900I8284*
G01*
X532124*
G37*
X589774D02*
G36*
X576687D01*
G75*
G02X570492I-3098J4338*
G01*
X560867*
G75*
G02X561868Y238952I-7282J-3948*
G01*
G75*
G02X560641Y234614I-8283*
G01*
X569882*
X589774Y242900*
G37*
X697957D02*
G36*
X659137D01*
G75*
G02X659623Y240433I-6026J-2468*
G01*
G75*
G02X656035Y234614I-6512*
G01*
X679462*
G75*
G02X680664Y235737I2097J-1039*
G01*
X697957Y242900*
G37*
X602767D02*
G36*
X582874Y234614D01*
X629058*
G75*
G02X625249Y240538I2704J5924*
G01*
G75*
G02X625693Y242900I6512*
G01*
X602767*
G37*
X650188Y234614D02*
G36*
G75*
G02X648393Y235945I2923J5819D01*
G01*
X645180Y234614*
X650188*
G37*
X647085Y242900D02*
G36*
X637829D01*
G75*
G02X638273Y240538I-6068J-2363*
G01*
G75*
G02X636521Y236094I-6514J1*
G01*
X646602Y240270*
G75*
G02X646600Y240419I5631J149*
G01*
G75*
G02Y240433I5557J7*
G01*
G75*
G02X647085Y242900I6512J0*
G01*
G37*
X730581D02*
G36*
X710188D01*
X690184Y234614*
X707058*
G75*
G02X722003I7472J-3574*
G01*
X732043*
G75*
G02X729205Y239326I2492J4712*
G01*
G75*
G02X730581Y242900I5331*
G01*
G37*
X741307D02*
G36*
X738490D01*
G75*
G02X739866Y239326I-3955J-3574*
G01*
G75*
G02X737028Y234614I-5331*
G01*
X744248*
X741878Y240336*
G75*
G02X741878Y240337I2J1*
G01*
Y240338*
G75*
G02X741307Y242900I7015J2906*
G01*
G37*
X234970D02*
G36*
G75*
G02X232743Y247234I3104J4334D01*
G01*
G75*
G02X237246Y252500I5331*
G01*
X112532*
G75*
G02X99509I-6512*
G01*
X58991*
X68216Y248680*
G75*
G02X69398Y247496I-836J-2016*
G01*
X70461Y244928*
G75*
G02X70627Y244094I-2017J-834*
G01*
G75*
G02X70460Y243257I-2183*
G01*
X70313Y242900*
X73171*
G75*
G02X81082I3956J-3574*
G01*
X117673*
G75*
G02X124414I3370J-5572*
G01*
X173831*
G75*
G02X185971I6070J-2358*
G01*
X234970*
G37*
X275912D02*
G36*
G75*
G02X275479Y245236I6079J2336D01*
G01*
G75*
G02Y245250I5557J7*
G01*
G75*
G02X275481Y245399I5633J1*
G01*
X258336Y252500*
X238901*
G75*
G02X243404Y247234I-827J-5266*
G01*
G75*
G02X241178Y242900I-5331*
G01*
X250799*
G75*
G02X265358I7280J-3953*
G01*
X275912*
G37*
X297917D02*
G36*
X293941Y252500D01*
X270569*
X277272Y249724*
G75*
G02X288502Y245236I4719J-4488*
G01*
G75*
G02X288069Y242900I-6512J1*
G01*
X297917*
G37*
X360774D02*
G36*
G75*
G02X359194Y243557I1690J6289D01*
G01*
X357608Y242900*
X360774*
G37*
X348354Y252500D02*
G36*
X323713D01*
G75*
G02X323877Y251187I-5167J-1313*
G01*
G75*
G02X313216I-5331*
G01*
G75*
G02X313380Y252500I5331J0*
G01*
X299007*
X302984Y242900*
X330268*
Y242901*
G75*
G02X346835I8283*
G01*
Y242900*
X349128*
X349679Y244231*
G75*
G02X351031Y245583I2306J-954*
G01*
X356126Y247694*
G75*
G02X355952Y249189I6344J1496*
G01*
G75*
G02Y249203I5557J7*
G01*
G75*
G02X355954Y249352I5633J1*
G01*
X348354Y252500*
G37*
X541724D02*
G36*
X498283D01*
G75*
G02X498447Y251187I-5167J-1313*
G01*
G75*
G02X488070Y249469I-5331J0*
G01*
Y245620*
X489231Y242900*
X519548*
X541724Y252500*
G37*
X370281Y242900D02*
G36*
X374258Y252500D01*
X368071*
G75*
G02X368975Y249189I-5607J-3311*
G01*
G75*
G02X368480Y246697I-6512*
G01*
G75*
G02X364153Y242900I-6016J2492*
G01*
X370281*
G37*
X459800Y252500D02*
G36*
X437403D01*
X441380Y242900*
X456426*
G75*
G02X456324Y243607I2397J707*
G01*
G75*
G02X456514Y244563I2500*
G01*
X459800Y252500*
G37*
X483074D02*
G36*
X468817D01*
X464461Y250697*
X461527Y243610*
X461823Y242900*
X464828*
G75*
G02X481394I8283*
G01*
X483799*
X483275Y244128*
G75*
G02X483074Y245109I2300J982*
G01*
Y252500*
G37*
X570492Y242900D02*
G36*
G75*
G02X568259Y247239I3098J4339D01*
G01*
G75*
G02X572735Y252500I5331*
G01*
X554300*
X532124Y242900*
X546303*
G75*
G02X560867I7282J-3948*
G01*
X570492*
G37*
X612820Y252500D02*
G36*
X574444D01*
G75*
G02X578920Y247239I-854J-5262*
G01*
G75*
G02X576687Y242900I-5331J0*
G01*
X589774*
X612820Y252500*
G37*
X699130D02*
G36*
X625812D01*
X602767Y242900*
X625693*
G75*
G02X637829I6068J-2363*
G01*
X647085*
G75*
G02X659137I6026J-2468*
G01*
X697957*
X705419Y245991*
G75*
G02X699130Y252499I222J6507*
G01*
G75*
G02Y252500I7519J0*
G01*
G37*
X720481Y252500D02*
G36*
X712153D01*
G75*
G02X710401Y248055I-6514J0*
G01*
X720482Y252231*
G75*
G02X720480Y252381I5634J149*
G01*
G75*
G02Y252394I5599J7*
G01*
G75*
G02X720481Y252500I6518J4*
G01*
G37*
X751394D02*
G36*
X733503D01*
G75*
G02X733504Y252394I-6517J-102*
G01*
G75*
G02X722273Y247907I-6512*
G01*
X710188Y242900*
X730581*
G75*
G02X738490I3955J-3574*
G01*
X741307*
G75*
G02X741299Y243244I7586J346*
G01*
G75*
G02X745987Y250260I7596J-1*
G01*
G75*
G03X745988Y250261J0*
G01*
X751394Y252500*
G37*
X258336D02*
G36*
X234865Y262222D01*
X224861Y258077*
G75*
G02X223068Y258077I-897J2160*
G01*
X183553Y274444*
X6469*
G75*
G03X7289Y273916I1870J2003*
G01*
G75*
G03X7290Y273915I2J2*
G01*
X58991Y252500*
X99509*
G75*
G02X112532I6512*
G01*
X237246*
G75*
G02X238901I827J-5266*
G01*
X258336*
G37*
X293941D02*
G36*
X291995Y257198D01*
X250359Y274444*
X222713*
G75*
G02Y274443I-5639J0*
G01*
G75*
G02X212052I-5331*
G01*
G75*
G02Y274444I5639J0*
G01*
X195785*
X223964Y262772*
X233969Y266917*
G75*
G02X235763Y266917I896J-2161*
G01*
X262209Y255963*
G75*
G02X260456Y260408I4759J4445*
G01*
G75*
G02X260952Y262900I6512*
G01*
G75*
G02X273480Y260408I6016J-2492*
G01*
G75*
G02X272984Y257916I-6512*
G01*
G75*
G02X267190Y253900I-6016J2492*
G01*
X270569Y252500*
X293941*
G37*
X348354D02*
G36*
X295377Y274444D01*
X262592*
X294682Y261152*
G75*
G02X295950Y259883I-894J-2161*
G01*
X299007Y252500*
X313380*
G75*
G02X323713I5167J-1313*
G01*
X348354*
G37*
X339260Y274444D02*
G36*
X307609D01*
X342681Y259917*
G75*
G02X340928Y264361I4759J4444*
G01*
G75*
G02X347925Y270855I6512*
G01*
X339260Y274444*
G37*
X374258Y252500D02*
G36*
X375278Y254962D01*
Y254962*
X375278Y254963*
G75*
G03X375599Y256575I-3896J1612*
G01*
G75*
G03X372995Y260470I-4216*
G01*
X372993Y260471*
X351690Y269296*
G75*
G02X353952Y264361I-4249J-4934*
G01*
G75*
G02X347664Y257853I-6512*
G01*
X357745Y253677*
G75*
G02X368071Y252500I4719J-4488*
G01*
X374258*
G37*
X504053Y274444D02*
G36*
X494785D01*
X490468Y272656*
G75*
G02X488555Y272656I-956J2308*
G01*
X486298Y273591*
X480487Y271183*
X479553Y268926*
G75*
G03X479552Y268924I18J-7*
G01*
X473961Y255425*
G75*
G02X472607Y254069I-2309J952*
G01*
X468817Y252500*
X483074*
Y258242*
G75*
G02X479061Y264256I2499J6014*
G01*
G75*
G02X490291Y268743I6512*
G01*
X504053Y274444*
G37*
X476473D02*
G36*
X472406D01*
X463740Y270855*
G75*
G02X470734Y264361I482J-6494*
G01*
G75*
G02X457710I-6512*
G01*
Y264361*
G75*
G02X459971Y269294I6511*
G01*
X438214Y260282*
G75*
G02X438211Y260281I-3J3*
G01*
G75*
G03X435913Y256840I1425J-3441*
G01*
G75*
G03X436196Y255415I3724*
G01*
X436197Y255413*
X437403Y252500*
X459800*
X460240Y253562*
G75*
G02X461594Y254918I2309J-952*
G01*
X469740Y258290*
X474936Y270835*
G75*
G02X474937Y270837I9J-4*
G01*
X476267Y274048*
G75*
G02X476473Y274444I2309J-952*
G01*
G37*
X665906D02*
G36*
X626100D01*
X586519Y258048*
G75*
G02X584727I-896J2162*
G01*
X575722Y261779*
X572556Y260468*
G75*
G02X572558Y260307I-6514J-160*
G01*
G75*
G02X561520Y255626I-6512*
G01*
X554300Y252500*
X572735*
G75*
G02X574444I854J-5262*
G01*
X612820*
X649291Y267693*
G75*
G02X655207Y269987I3833J-1110*
G01*
X665906Y274444*
G37*
X516285D02*
G36*
X492082Y264419D01*
G75*
G02X492084Y264269I-5631J-149*
G01*
G75*
G02Y264256I-5557J-7*
G01*
Y264255*
G75*
G02X488070Y258242I-6511*
G01*
Y252906*
G75*
G02X498283Y252500I5046J-1719*
G01*
X541724*
X544971Y253906*
G75*
G02X538184Y260412I-275J6506*
G01*
G75*
G02X551207I6512*
G01*
G75*
G02X549251Y255759I-6512*
G01*
X559535Y260211*
G75*
G02X559534Y260307I789508J6493*
G01*
G75*
G02X570766Y264793I6512*
G01*
X574825Y266473*
G75*
G02X576619Y266474I898J-2160*
G01*
X585624Y262744*
X613869Y274444*
X599606*
G75*
G02X588945I-5331*
G01*
X516285*
G37*
X804071D02*
G36*
X678080D01*
X657007Y265666*
G75*
G02X651212Y263081I-3883J918*
G01*
X625812Y252500*
X699130*
G75*
G02X712153I6512J-1*
G01*
X720481*
G75*
G02X733503I6511J-106*
G01*
X751394*
X803271Y273991*
G75*
G03X803273Y273991I-2J7*
G01*
G75*
G03X804071Y274444I-1426J3441*
G01*
G37*
X183553D02*
G36*
X167127Y281248D01*
G75*
G02X165887Y282453I896J2163*
G01*
X147079*
G75*
G02X139923I-3578J3952*
G01*
X68358*
G75*
G02Y282450I-5343J-2*
G01*
G75*
G02X57697I-5331*
G01*
G75*
G02Y282453I5343J2*
G01*
X43103*
G75*
G02X42942I-81J8280*
G01*
X7861*
X6190Y278417*
Y274747*
G75*
G03X6469Y274444I2149J1698*
G01*
X183553*
G37*
X189099Y282453D02*
G36*
X176448D01*
X193700Y275308*
G75*
G02X189099Y282453I3678J7422*
G01*
G37*
X250359Y274444D02*
G36*
X231024Y282453D01*
X205656*
G75*
G02X205030Y279560I-8279J277*
G01*
G75*
G02X194730Y274881I-7653J3170*
G01*
X195785Y274444*
X212052*
G75*
G02X222713I5331J-1*
G01*
X250359*
G37*
X295377D02*
G36*
X276041Y282453D01*
X243256*
X262592Y274444*
X295377*
G37*
X319924Y282453D02*
G36*
X288274D01*
X307609Y274444*
X339260*
X319924Y282453*
G37*
X523388D02*
G36*
X514121D01*
G75*
G02X514119Y282452I-961J2399*
G01*
X494785Y274444*
X504053*
X523388Y282453*
G37*
X501066D02*
G36*
X491741D01*
X472406Y274444*
X476473*
G75*
G02X477619Y275403I2103J-1349*
G01*
X485342Y278602*
G75*
G02X487256Y278602I956J-2310*
G01*
X489512Y277668*
X501066Y282453*
G37*
X685132D02*
G36*
X671744D01*
G75*
G02X664581I-3582J3948*
G01*
X645434*
X626100Y274444*
X665906*
X685132Y282453*
G37*
X535620D02*
G36*
X516285Y274444D01*
X588945*
G75*
G02X599606I5331*
G01*
X613869*
X613898Y274456*
G75*
G02X606002Y282453I383J8275*
G01*
X535620*
G37*
X633203D02*
G36*
X622559D01*
G75*
G02X620402Y277151I-8278J278*
G01*
X633203Y282453*
G37*
X804983Y275421D02*
G36*
Y279599D01*
X803800Y282453*
X753964*
G75*
G02X743303I-5331*
G01*
X697306*
X678080Y274444*
X804071*
G75*
G03X804983Y275421I-2224J2990*
G01*
G37*
X11409Y291017D02*
G36*
X7861Y282453D01*
X42942*
G75*
G02X34739Y290736I81J8283*
G01*
G75*
G02X34744Y291017I8287J1*
G01*
X11409*
G37*
X139923Y282453D02*
G36*
G75*
G02X138170Y286405I3578J3952D01*
G01*
G75*
G02X140829Y291017I5331*
G01*
X130920*
G75*
G02X116072I-7424J3674*
G01*
X69447*
G75*
G02X64421I-2513J6007*
G01*
X51301*
G75*
G02X51306Y290736I-8282J-280*
G01*
G75*
G02X43103Y282453I-8283*
G01*
X57697*
G75*
G02X68358I5331J-4*
G01*
X139923*
G37*
X231024D02*
G36*
X226008Y284531D01*
G75*
G02X214778Y289019I-4719J4488*
G01*
G75*
G02Y289032I5557J7*
G01*
G75*
G02X214780Y289181I5633J1*
G01*
X210347Y291017*
X182703*
G75*
G02X172042Y291017I-5331J-1*
G01*
X167403Y291017*
X169814Y285201*
X176448Y282453*
X189099*
G75*
G02X189094Y282730I8278J280*
G01*
G75*
G02X189725Y285900I8283J0*
G01*
G75*
G02X205661Y282730I7653J-3170*
G01*
G75*
G02X205656Y282453I-8287J3*
G01*
X231024*
G37*
X165887D02*
G36*
G75*
G02X165860Y282516I2137J951D01*
G01*
X162336Y291017*
X146173*
G75*
G02X148832Y286405I-2672J-4613*
G01*
G75*
G02X147079Y282453I-5331*
G01*
X165887*
G37*
X276041D02*
G36*
X255366Y291017D01*
X227487*
G75*
G02X227801Y289019I-6198J-1998*
G01*
G75*
G02Y289005I-5557J-7*
G01*
G75*
G02X227799Y288856I-5633J-1*
G01*
X243256Y282453*
X276041*
G37*
X312080Y291017D02*
G36*
X308640D01*
G75*
G02X300258I-4191J3294*
G01*
X297170*
G75*
G02X289189I-3991J0*
G01*
X267598*
X288274Y282453*
X319924*
X317074Y283634*
X317071Y283635*
G75*
G02X312080Y291017I3095J7470*
G01*
G37*
X544063D02*
G36*
X518460D01*
X515471Y283805*
G75*
G02X514121Y282453I-2307J955*
G01*
X523388*
X544063Y291017*
G37*
X513052D02*
G36*
X511405D01*
G75*
G02X503023I-4191J3294*
G01*
X499583*
G75*
G02X494590Y283633I-8086J87*
G01*
G75*
G02X494589Y283633J0*
G01*
X491741Y282453*
X501066*
X511252Y286672*
X513052Y291017*
G37*
X650086D02*
G36*
X639617D01*
G75*
G02X628955I-5331*
G01*
X556295*
X535620Y282453*
X606002*
G75*
G02X605997Y282731I8280J280*
G01*
G75*
G02X622564I8283*
G01*
G75*
G02X622559Y282453I-8284J2*
G01*
X633203*
X649301Y289122*
X650086Y291017*
G37*
X705691D02*
G36*
X695594D01*
G75*
G02X680742I-7426J3670*
G01*
X670829*
G75*
G02X673493Y286401I-2666J-4616*
G01*
G75*
G02X671744Y282453I-5331*
G01*
X685132*
X705691Y291017*
G37*
X664581Y282453D02*
G36*
G75*
G02X662832Y286401I3582J3948D01*
G01*
G75*
G02X665496Y291017I5331*
G01*
X655153*
X653256Y286436*
G75*
G02X651988Y285168I-2163J894*
G01*
X645434Y282453*
X664581*
G37*
X803800D02*
G36*
X800253Y291017D01*
X776917*
G75*
G02X776922Y290740I-8280J-280*
G01*
G75*
G02X760355I-8283*
G01*
G75*
G02X760360Y291017I8284J-2*
G01*
X717864*
X697306Y282453*
X743303*
G75*
G02X753964I5331*
G01*
X803800*
G37*
X63566Y302598D02*
G36*
X26971D01*
G75*
G02X28348Y299023I-3954J-3575*
G01*
G75*
G02X17687I-5331*
G01*
G75*
G02X19063Y302598I5331*
G01*
X16206*
X11409Y291017*
X34744*
G75*
G02X51301I8279J-281*
G01*
X64421*
G75*
G02X60422Y297025I2513J6007*
G01*
G75*
G02X60918Y299517I6512*
G01*
G75*
G02X63566Y302598I6016J-2491*
G01*
G37*
X116072Y291017D02*
G36*
G75*
G02X115213Y294691I7424J3674D01*
G01*
G75*
G02X121026Y302598I8283*
G01*
X108808*
G75*
G02X98174I-5317J380*
G01*
X71775*
X71421Y301744*
G75*
G02X73446Y297025I-4488J-4719*
G01*
G75*
G02X72950Y294533I-6513*
G01*
G75*
G02X69447Y291017I-6016J2492*
G01*
X116072*
G37*
X210347D02*
G36*
X182385Y302598D01*
X153715*
G75*
G02X153920Y300980I-6308J-1619*
G01*
G75*
G02Y300967I-5557J-7*
G01*
G75*
G02X153918Y300817I-5633J-1*
G01*
X164397Y296476*
G75*
G02X165666Y295209I-896J-2165*
G01*
X167403Y291017*
X172042*
G75*
G02X182703I5331J-1*
G01*
X210347*
G37*
X162336D02*
G36*
X161713Y292521D01*
X152126Y296492*
G75*
G02X140896Y300980I-4719J4488*
G01*
G75*
G02X141100Y302598I6512J0*
G01*
X125966*
G75*
G02X131780Y294691I-2470J-7907*
G01*
G75*
G02X130920Y291017I-8284J0*
G01*
X140829*
G75*
G02X146173I2672J-4613*
G01*
X162336*
G37*
X199952Y302598D02*
G36*
X194619D01*
X201508Y299744*
G75*
G02X199952Y302598I4758J4445*
G01*
G37*
X255366Y291017D02*
G36*
X227407Y302598D01*
X212581*
G75*
G02X212283Y301698I-6315J1592*
G01*
G75*
G02X206488Y297682I-6016J2491*
G01*
X216571Y293506*
G75*
G02X227487Y291017I4719J-4488*
G01*
X255366*
G37*
X267598D02*
G36*
X289189D01*
Y291018*
G75*
G02X292254Y294899I3991*
G01*
X295442Y302598*
X292727*
G75*
G02X292096Y299428I-8283J0*
G01*
G75*
G02X276160Y302598I-7653J3170*
G01*
X239640*
X267598Y291017*
G37*
X312080D02*
G36*
G75*
G02X312080Y291106I8094J116D01*
G01*
G75*
G02X312696Y294202I8087J0*
G01*
X312696Y294202*
X316173Y302598*
X310047*
G75*
G02X306664I-1691J6289*
G01*
X300509*
X296579Y293108*
G75*
G02X297170Y291018I-3403J-2091*
G01*
Y291017*
X300258*
G75*
G02X299118Y294311I4191J3294*
G01*
G75*
G02X309780I5331*
G01*
G75*
G02X308640Y291017I-5331J0*
G01*
X312080*
G37*
X572020Y302598D02*
G36*
X535502D01*
G75*
G02X518935I-8283*
G01*
X515720*
X515295Y301572*
X518668Y293431*
G75*
G02X518858Y292475I-2309J-956*
G01*
G75*
G02X518667Y291517I-2500*
G01*
X518460Y291017*
X544063*
X572020Y302598*
G37*
X510313D02*
G36*
X495488D01*
X498967Y294200*
G75*
G02X498968Y294198I-4J-4*
G01*
G75*
G02X499583Y291105I-7471J-3093*
G01*
G75*
G02X499583Y291017I-8103J-7*
G01*
X503023*
G75*
G02X502289Y292271I4191J3294*
G01*
G75*
G02X501883Y294311I4924J2040*
G01*
G75*
G02X511707Y297179I5331*
G01*
X510284Y300615*
G75*
G02X510094Y301571I2309J956*
G01*
G75*
G02X510284Y302528I2499*
G01*
X510313Y302598*
G37*
X513052Y291017D02*
G36*
X513656Y292475D01*
X512419Y295462*
G75*
G02X512544Y294312I-5205J-1150*
G01*
G75*
G02X511405Y291017I-5331*
G01*
X513052*
G37*
X662042Y302598D02*
G36*
X633082D01*
G75*
G02X620402I-6340J1488*
G01*
X611706*
G75*
G02X599078I-6314J1593*
G01*
X584252*
X556295Y291017*
X628955*
G75*
G02X639617I5331*
G01*
X650086*
X653030Y298122*
G75*
G02X654298Y299391I2165J-896*
G01*
X662042Y302598*
G37*
X674278D02*
G36*
X656984Y295437D01*
X655153Y291017*
X665496*
G75*
G02X670829I2666J-4617*
G01*
X680742*
G75*
G02X679884Y294688I7426J3670*
G01*
G75*
G02X685709Y302598I8283*
G01*
X674278*
G37*
X731722D02*
G36*
X713490D01*
G75*
G02X702856I-5317J376*
G01*
X690626*
G75*
G02X696451Y294688I-2458J-7910*
G01*
G75*
G02X695594Y291017I-8283J0*
G01*
X705691*
X731353Y301707*
X731722Y302598*
G37*
X800253Y291017D02*
G36*
X795456Y302598D01*
X792601*
G75*
G02X793974Y299026I-3957J-3572*
G01*
G75*
G02X783313I-5331*
G01*
G75*
G02X784687Y302598I5331J0*
G01*
X736789*
X735308Y299024*
G75*
G02X734045Y297758I-2164J895*
G01*
X717864Y291017*
X760360*
G75*
G02X776917I8279J-278*
G01*
X800253*
G37*
X70139Y310885D02*
G36*
X58290D01*
G75*
G02X45533I-6378J1312*
G01*
X19638*
X16206Y302598*
X19063*
G75*
G02X26971I3954J-3575*
G01*
X63566*
G75*
G02X67096Y303535I3368J-5573*
G01*
X70139Y310885*
G37*
X182385Y302598D02*
G36*
X162377Y310885D01*
X136214*
G75*
G02X128556I-3829J5267*
G01*
X75206*
X71775Y302598*
X98174*
G75*
G02X98160Y302978I5319J378*
G01*
G75*
G02X108822I5331*
G01*
G75*
G02X108808Y302598I-5332J-2*
G01*
X121026*
G75*
G02X125966I2470J-7906*
G01*
X141100*
G75*
G02X141392Y303472I6308J-1617*
G01*
G75*
G02X153715Y302598I6016J-2492*
G01*
X182385*
G37*
X227407D02*
G36*
X225054Y303573D01*
G75*
G02X219082Y306046I-2090J3399*
G01*
X207402Y310885*
X174611*
X194619Y302598*
X199952*
G75*
G02X199755Y304190I6315J1592*
G01*
G75*
G02X200250Y306682I6511J0*
G01*
G75*
G02X212778Y304190I6016J-2492*
G01*
G75*
G02X212581Y302598I-6512*
G01*
X227407*
G37*
X222180Y310885D02*
G36*
X219634D01*
X220874Y310371*
G75*
G02X222180Y310885I2090J-3399*
G01*
G37*
X239640Y302598D02*
G36*
X276160D01*
G75*
G02X276791Y305768I8283J0*
G01*
G75*
G02X285117Y310854I7652J-3170*
G01*
X285043Y310885*
X269769*
G75*
G02X259108I-5331*
G01*
X223748*
G75*
G02X226845Y307898I-784J-3913*
G01*
X239640Y302598*
G37*
X295442D02*
G36*
X296852Y306001D01*
X289798Y308918*
G75*
G02X292727Y302598I-5355J-6320*
G01*
X295442*
G37*
X306664D02*
G36*
G75*
G02X302465Y306110I1692J6288D01*
G01*
X301954Y305781*
G75*
G02X301730Y305546I-1869J1559*
G01*
X300509Y302598*
X306664*
G37*
X316173D02*
G36*
X319606Y310885D01*
X314553*
G75*
G02X314867Y308887I-6198J-1998*
G01*
G75*
G02X314372Y306394I-6512*
G01*
G75*
G02X310047Y302598I-6016J2492*
G01*
X316173*
G37*
X300651Y310885D02*
G36*
X298116D01*
X299660Y310246*
X300651Y310885*
G37*
X592025D02*
G36*
X552555D01*
G75*
G02X541893I-5331*
G01*
X519747*
X519024Y310585*
X515720Y302598*
X518935*
G75*
G02X535502I8283*
G01*
X572020*
X592025Y310885*
G37*
X513741D02*
G36*
X492055D01*
X495488Y302598*
X510313*
X513741Y310885*
G37*
X675445D02*
G36*
X604257D01*
X584252Y302598*
X599078*
G75*
G02X598880Y304191I6314J1592*
G01*
G75*
G02X611904I6512*
G01*
G75*
G02X611706Y302598I-6512J-1*
G01*
X620402*
G75*
G02X620230Y304086I6340J1487*
G01*
G75*
G02X633254I6512*
G01*
G75*
G02X633082Y302598I-6512J-1*
G01*
X662042*
X679049Y309640*
G75*
G02X675445Y310885I230J6508*
G01*
G37*
X735154D02*
G36*
X704604D01*
G75*
G02X696655I-3974J5159*
G01*
X694290*
X674278Y302598*
X685709*
G75*
G02X690626I2458J-7910*
G01*
X702856*
G75*
G02X702842Y302974I5319J378*
G01*
G75*
G02X713504I5331*
G01*
G75*
G02X713490Y302598I-5332J1*
G01*
X731722*
X735154Y310885*
G37*
X795456Y302598D02*
G36*
X792024Y310885D01*
X787498*
G75*
G02X774702I-6398J1210*
G01*
X766127*
G75*
G02X753372I-6378J1315*
G01*
X740221*
X736789Y302598*
X784687*
G75*
G02X792601I3957J-3572*
G01*
X795456*
G37*
X207402Y310885D02*
G36*
X141706Y338098D01*
X30910*
X19638Y310885*
X45533*
G75*
G02X45400Y312196I6379J1312*
G01*
G75*
G02X58423I6512*
G01*
G75*
G02X58290Y310885I-6512*
G01*
X70139*
X71369Y313855*
G75*
G02X72637Y315123I2162J-893*
G01*
X117612Y333747*
G75*
G02X119407Y333748I899J-2162*
G01*
X174611Y310885*
X207402*
G37*
X162377D02*
G36*
X118511Y329052D01*
X75324Y311169*
X75206Y310885*
X128556*
G75*
G02X125873Y316152I3829J5267*
G01*
G75*
G02X138897I6512*
G01*
G75*
G02X136214Y310885I-6512*
G01*
X162377*
G37*
X285043D02*
G36*
X259007Y321652D01*
X254868Y320056*
G75*
G02X253011Y320078I-902J2331*
G01*
X209504Y338098*
X153937*
X219634Y310885*
X222180*
G75*
G02X223748I784J-3913*
G01*
X259108*
G75*
G02X269769I5331*
G01*
X285043*
G37*
X275607Y338098D02*
G36*
X249081D01*
G75*
G02X238420I-5331J2*
G01*
X222560*
X254000Y325076*
X258142Y326672*
G75*
G02X259997Y326649I898J-2332*
G01*
X298116Y310885*
X300651*
X302785Y312260*
G75*
G02X314553Y310885I5570J-3374*
G01*
X319606*
X321357Y315114*
X321358Y315116*
G75*
G03X321641Y316541I-3441J1425*
G01*
G75*
G03X319343Y319981I-3724*
G01*
G75*
G03X319341Y319982I-4J-7*
G01*
X297577Y328997*
G75*
G02X299844Y324058I-4244J-4939*
G01*
G75*
G02X299349Y321566I-6512*
G01*
G75*
G02X286821Y324058I-6016J2492*
G01*
G75*
G02X287317Y326550I6512*
G01*
G75*
G02X293824Y330552I6016J-2492*
G01*
X275607Y338098*
G37*
X584932D02*
G36*
X573243D01*
G75*
G02X562582I-5331*
G01*
X536061*
X517844Y330552*
G75*
G02X524842Y324058I485J-6494*
G01*
G75*
G02X511818I-6512*
G01*
G75*
G02X514081Y328993I6513J0*
G01*
X491411Y319602*
X491409Y319602*
G75*
G03X489719Y317071I1048J-2531*
G01*
G75*
G03X489926Y316025I2739*
G01*
X489926Y316024*
X492055Y310885*
X513741*
X514537Y312807*
G75*
G02X514538Y312809I9J-4*
G01*
X514803Y313450*
G75*
G02X516156Y314805I2309J-954*
G01*
X526568Y319118*
X527226Y320706*
G75*
G02X528580Y322058I2308J-957*
G01*
X533169Y323959*
G75*
G02X546192Y323953I6512J-6*
G01*
G75*
G02Y323940I-5681J-7*
G01*
G75*
G02X546190Y323791I-5618J0*
G01*
X548289Y322922*
X584932Y338098*
G37*
X657311D02*
G36*
X597165D01*
X549185Y318226*
G75*
G02X547394Y318226I-896J2162*
G01*
X544399Y319466*
G75*
G02X535081Y319343I-4719J4487*
G01*
X531445Y317837*
X530787Y316249*
G75*
G02X529432Y314897I-2308J957*
G01*
X519747Y310885*
X541893*
G75*
G02X552555I5331*
G01*
X592025*
X629313Y326330*
G75*
G02X635113Y328904I3881J-926*
G01*
X657311Y338098*
G37*
X696655Y310885D02*
G36*
G75*
G02X695910Y311556I3975J5159D01*
G01*
X694290Y310885*
X696655*
G37*
X792024D02*
G36*
X780752Y338098D01*
X670367*
X637025Y324288*
G75*
G02X631104Y322006I-3831J1117*
G01*
X604257Y310885*
X675445*
G75*
G02X672767Y316148I3835J5264*
G01*
G75*
G02X685791I6512*
G01*
G75*
G02X684042Y311708I-6512*
G01*
X694119Y315881*
G75*
G02X694117Y316030I5575J148*
G01*
G75*
G02Y316043I5557J7*
G01*
G75*
G02X707141I6512*
G01*
G75*
G02X704604Y310885I-6512*
G01*
X735154*
X737748Y317146*
G75*
G02X739720Y319118I2369J-397*
G01*
X763462Y328951*
G75*
G02X765255Y328952I898J-2161*
G01*
X778117Y323628*
G75*
G02X779386Y322357I-895J-2163*
G01*
X780939Y318605*
G75*
G02X787612Y312095I161J-6510*
G01*
G75*
G02X787498Y310885I-6512J0*
G01*
X792024*
G37*
X774702D02*
G36*
G75*
G02X774588Y312095I6399J1210D01*
G01*
G75*
G02X776613Y316815I6512*
G01*
X775430Y319674*
X764360Y324257*
X741909Y314958*
X740221Y310885*
X753372*
G75*
G02X753238Y312200I6378J1315*
G01*
G75*
G02X766261I6512*
G01*
G75*
G02X766127Y310885I-6512*
G01*
X774702*
G37*
X141706Y338098D02*
G36*
X122383Y346102D01*
X94724*
G75*
G02X84063I-5331J5*
G01*
X34226*
X30910Y338098*
X141706*
G37*
X209504D02*
G36*
X190181Y346102D01*
X173441*
G75*
G02X166298I-3571J3957*
G01*
X134615*
X153937Y338098*
X209504*
G37*
X215467Y346102D02*
G36*
X203236D01*
X219089Y339535*
G75*
G02X215467Y346102I4656J6851*
G01*
G37*
X259480D02*
G36*
X232024D01*
G75*
G02X231398Y343217I-8278J284*
G01*
G75*
G02X222193Y338250I-7653J3170*
G01*
X222560Y338098*
X238420*
G75*
G02Y338100I5371J1*
G01*
G75*
G02X249081I5331*
G01*
G75*
G02Y338098I-5371J-1*
G01*
X275607*
X262966Y343334*
G75*
G02X262963Y343335I0J4*
G01*
G75*
G02X259480Y346102I3094J7471*
G01*
G37*
X676635D02*
G36*
X645372D01*
G75*
G02X638219I-3577J3953*
G01*
X616489*
X597165Y338098*
X657311*
X676635Y346102*
G37*
X584932Y338098D02*
G36*
X585682Y338409D01*
G75*
G02X579639Y346102I2237J7977*
G01*
X552183*
G75*
G02X548699Y343333I-6581J4704*
G01*
G75*
G03X548698Y343333J-2*
G01*
X536061Y338098*
X562582*
G75*
G02X573243I5331*
G01*
X584932*
G37*
X604256Y346102D02*
G36*
X596196D01*
G75*
G02X595138Y342326I-8274J282*
G01*
X604256Y346102*
G37*
X780752Y338098D02*
G36*
X777437Y346102D01*
X727596*
G75*
G02X716935I-5331*
G01*
X689691*
X670367Y338098*
X780752*
G37*
X122383Y346102D02*
G36*
X101695Y354671D01*
X95806*
G75*
G02X90795I-2506J6011*
G01*
X77667*
G75*
G02X77672Y354393I-8283J-280*
G01*
G75*
G02X61105I-8283*
G01*
G75*
G02X61110Y354671I8287J-2*
G01*
X37775*
X34226Y346102*
X84063*
G75*
G02Y346107I5414J2*
G01*
G75*
G02X94724I5331*
G01*
G75*
G02Y346102I-5414J-2*
G01*
X122383*
G37*
X134615D02*
G36*
X166298D01*
G75*
G02X164539Y350059I3571J3957*
G01*
G75*
G02X167196Y354671I5331*
G01*
X157288*
G75*
G02X142441I-7424J3675*
G01*
X113927*
X134615Y346102*
G37*
X190181D02*
G36*
X187542Y347195D01*
G75*
G02X186189Y348550I956J2308*
G01*
X183652Y354671*
X172543*
G75*
G02X175200Y350059I-2674J-4612*
G01*
G75*
G02X173441Y346102I-5331*
G01*
X190181*
G37*
X258906Y354671D02*
G36*
X253856D01*
G75*
G02X254169Y352675I-6198J-1996*
G01*
G75*
G02X241145I-6512*
G01*
G75*
G02X241459Y354671I6512J0*
G01*
X209071*
G75*
G02X198409I-5331J2*
G01*
X189060*
X190410Y351415*
X203236Y346102*
X215467*
G75*
G02X215462Y346387I8284J291*
G01*
G75*
G02X216093Y349557I8283J0*
G01*
G75*
G02X232029Y346387I7653J-3170*
G01*
G75*
G02X232024Y346102I-8285J7*
G01*
X259480*
G75*
G02X257971Y350806I6577J4703*
G01*
G75*
G02X258587Y353900I8085J0*
G01*
G75*
G02X258588Y353903I8J-1*
G01*
X258906Y354671*
G37*
X628718D02*
G36*
X627896Y354331D01*
X626516Y350997*
G75*
G02X625248Y349730I-2163J896*
G01*
X616489Y346102*
X638219*
G75*
G02X636465Y350055I3577J3953*
G01*
G75*
G02X639130Y354671I5331*
G01*
X628718*
G37*
X622970D02*
G36*
X613254D01*
G75*
G02X602592I-5331*
G01*
X552755*
X553073Y353903*
G75*
G02X553074Y353900I-4J-4*
G01*
G75*
G02X553691Y350804I-7470J-3096*
G01*
G75*
G02X552183Y346102I-8089J1*
G01*
X579639*
G75*
G02X579634Y346385I8281J280*
G01*
G75*
G02X596201I8283*
G01*
G75*
G02Y346384I-11279J0*
G01*
G75*
G02X596196Y346102I-8280J-2*
G01*
X604256*
X622562Y353684*
X622970Y354671*
G37*
X697323D02*
G36*
X669227D01*
G75*
G02X654375I-7426J3670*
G01*
X644461*
G75*
G02X647126Y350055I-2665J-4617*
G01*
G75*
G02X645372Y346102I-5331*
G01*
X676635*
X697323Y354671*
G37*
X777437Y346102D02*
G36*
X773887Y354671D01*
X750549*
G75*
G02X750554Y354389I-8281J-280*
G01*
G75*
G02X733987I-8283*
G01*
G75*
G02X733992Y354671I8286J3*
G01*
X710380*
X689691Y346102*
X716935*
G75*
G02X727596I5331*
G01*
X777437*
G37*
X61110Y354671D02*
G36*
G75*
G02X69227Y362675I8279J-278D01*
G01*
X54714*
G75*
G02X44053I-5331J5*
G01*
X41091*
X37775Y354671*
X61110*
G37*
X101695D02*
G36*
X98019Y356194D01*
G75*
G02X95806Y354671I-4719J4488*
G01*
X101695*
G37*
X87101Y362675D02*
G36*
X69550D01*
G75*
G02X77667Y354671I-161J-8282*
G01*
X90795*
G75*
G02X86789Y360682I2506J6011*
G01*
G75*
G02X87101Y362675I6512*
G01*
G37*
X113927Y354671D02*
G36*
X142441D01*
G75*
G02X141581Y358346I7424J3675*
G01*
G75*
G02X142802Y362675I8283*
G01*
X133430*
G75*
G02X126288I-3571J3957*
G01*
X99500*
G75*
G02X99812Y360682I-6200J-1993*
G01*
G75*
G02Y360669I-5557J-7*
G01*
G75*
G02X99810Y360519I-5633J-1*
G01*
X113927Y354671*
G37*
X183652D02*
G36*
X182068Y358494D01*
X178375Y360025*
G75*
G02X167566Y362675I-4599J4610*
G01*
X156926*
G75*
G02X158148Y358346I-7062J-4329*
G01*
G75*
G02X157288Y354671I-8284J0*
G01*
X167196*
G75*
G02X172543I2674J-4612*
G01*
X183652*
G37*
X258906D02*
G36*
X260659Y358901D01*
G75*
G03X260660Y358902I-2J2*
G01*
G75*
G03X260943Y360327I-3441J1424*
G01*
G75*
G03X260109Y362675I-3724*
G01*
X236591*
G75*
G02X228677I-3957J5172*
G01*
X185025*
G75*
G02X186288Y361363I-1044J-2268*
G01*
X189060Y354671*
X198409*
G75*
G02Y354673I5371J1*
G01*
G75*
G02X209071I5331*
G01*
G75*
G02Y354671I-5371J-1*
G01*
X241459*
G75*
G02X253856I6198J-1996*
G01*
X258906*
G37*
X635809Y362675D02*
G36*
X604472D01*
G75*
G02X596286I-4093J5065*
G01*
X582988*
G75*
G02X575069I-3959J5170*
G01*
X551554*
G75*
G03X550719Y360324I2889J-2351*
G01*
G75*
G03X551002Y358900I3724*
G01*
X552755Y354671*
X602592*
G75*
G02X613254I5331*
G01*
X622970*
X623942Y357017*
G75*
G02X625212Y358286I2161J-894*
G01*
X635809Y362675*
G37*
X716647D02*
G36*
X685383D01*
G75*
G02X678229I-3577J3953*
G01*
X668860*
G75*
G02X670084Y358341I-7059J-4333*
G01*
G75*
G02X669227Y354671I-8283*
G01*
X697323*
X716647Y362675*
G37*
X654375Y354671D02*
G36*
G75*
G02X653517Y358341I7426J3670D01*
G01*
G75*
G02X654741Y362675I8283J0*
G01*
X648041*
X628718Y354671*
X639130*
G75*
G02X644461I2665J-4617*
G01*
X654375*
G37*
X773887D02*
G36*
X770572Y362675D01*
X767606*
G75*
G02X756945I-5331*
G01*
X736086*
X730130Y360209*
G75*
G02X728215Y360207I-959J2307*
G01*
X725981Y361133*
X710380Y354671*
X733992*
G75*
G02X750549I8279J-283*
G01*
X773887*
G37*
X44053Y362675D02*
G36*
G75*
G02Y362680I5414J2D01*
G01*
G75*
G02X47706Y367740I5331*
G01*
X43188*
X41091Y362675*
X44053*
G37*
X124644Y367740D02*
G36*
X120624D01*
G75*
G02X114105Y367175I-3803J5997*
G01*
G75*
G03X114103Y367176I-4J-7*
G01*
X112742Y367740*
X51061*
G75*
G02X54714Y362680I-1678J-5060*
G01*
G75*
G02Y362675I-5414J-2*
G01*
X69227*
G75*
G02X69550I161J-8279*
G01*
X87101*
G75*
G02X87284Y363174I6200J-1993*
G01*
G75*
G02X99500Y362675I6016J-2492*
G01*
X126288*
G75*
G02X124528Y366633I3571J3957*
G01*
G75*
G02X124644Y367740I5331J0*
G01*
G37*
X226123D02*
G36*
X179500D01*
G75*
G02X180288Y364640I-5724J-3105*
G01*
X184935Y362715*
G75*
G02X185025Y362675I-954J-2307*
G01*
X228677*
G75*
G02X226123Y367740I3957J5172*
G01*
G37*
X167566Y362675D02*
G36*
G75*
G02X167264Y364635I6209J1960D01*
G01*
G75*
G02X167760Y367127I6512*
G01*
G75*
G02X168052Y367740I6017J-2491*
G01*
X135074*
G75*
G02X135190Y366633I-5215J-1107*
G01*
G75*
G02X133430Y362675I-5331*
G01*
X142802*
G75*
G02X156926I7062J-4329*
G01*
X167566*
G37*
X249054Y367740D02*
G36*
X239145D01*
G75*
G02X238650Y365355I-6511J107*
G01*
G75*
G02X236591Y362675I-6016J2492*
G01*
X260109*
G75*
G03X258646Y363766I-2889J-2348*
G01*
G75*
G02X258644Y363767I0J3*
G01*
X249054Y367740*
G37*
X648036D02*
G36*
X606891D01*
G75*
G02X604472Y362675I-6512*
G01*
X635809*
X648036Y367740*
G37*
X572518D02*
G36*
X562612D01*
X553018Y363766*
G75*
G02X553017Y363765J0*
G01*
G75*
G03X551554Y362675I1426J-3441*
G01*
X575069*
G75*
G02X572518Y367740I3959J5170*
G01*
G37*
X593867D02*
G36*
X585540D01*
G75*
G02X582988Y362675I-6511J106*
G01*
X596286*
G75*
G02X593867Y367740I4093J5065*
G01*
G37*
X735258D02*
G36*
X697637D01*
G75*
G02X691825I-2906J7546*
G01*
X687019*
G75*
G02X687137Y366628I-5214J-1112*
G01*
G75*
G02X685383Y362675I-5331*
G01*
X716647*
X725021Y366144*
G75*
G02X726937Y366145I960J-2308*
G01*
X729172Y365219*
X735258Y367740*
G37*
X676593D02*
G36*
X660268D01*
X648041Y362675*
X654741*
G75*
G02X668860I7059J-4334*
G01*
X678229*
G75*
G02X676475Y366628I3577J3953*
G01*
G75*
G02X676593Y367740I5331J0*
G01*
G37*
X756945Y362675D02*
G36*
G75*
G02X760612Y367740I5331D01*
G01*
X745354*
X745139Y367220*
G75*
G02X743785Y365864I-2309J952*
G01*
X736086Y362675*
X756945*
G37*
X770572D02*
G36*
X768474Y367740D01*
X763939*
G75*
G02X767606Y362675I-1663J-5065*
G01*
X770572*
G37*
X138031Y394552D02*
G36*
X133851D01*
G75*
G03X132423Y392844I2013J-3135*
G01*
G75*
G03X132422Y392842I4J-4*
G01*
X123381Y371019*
X123380Y371015*
G75*
G02X120624Y367740I-6559J2722*
G01*
X124644*
G75*
G02X135074I5215J-1107*
G01*
X168052*
G75*
G02X179500I5724J-3105*
G01*
X226123*
G75*
G02X226122Y367847I6513J102*
G01*
G75*
G02X226618Y370339I6512*
G01*
G75*
G02X233118Y374341I6015J-2491*
G01*
X210905Y383542*
G75*
G02X210904Y383543J0*
G01*
G75*
G03X206681Y381794I-1237J-2985*
G01*
X203292Y373609*
X203291Y373607*
G75*
G02X195940Y370565I-5197J2154*
G01*
G75*
G03X195938Y370566I-2J-2*
G01*
X163852Y383856*
G75*
G02X165265Y379806I-5099J-4050*
G01*
G75*
G02X164769Y377314I-6512*
G01*
G75*
G02X152241Y379806I-6016J2492*
G01*
G75*
G02X152737Y382298I6512*
G01*
G75*
G02X158011Y386276I6017J-2493*
G01*
X138031Y394552*
G37*
X112742Y367740D02*
G36*
X83378Y379902D01*
G75*
G02X84789Y375853I-5102J-4049*
G01*
G75*
G02X84294Y373361I-6513J0*
G01*
G75*
G02X71766Y375854I-6016J2492*
G01*
G75*
G02X72261Y378346I6512*
G01*
G75*
G02X77533Y382323I6017J-2493*
G01*
X56816Y390904*
X56813Y390905*
G75*
G03X51948Y388889I-1424J-3440*
G01*
G75*
G02X51947Y388885I-22J8*
G01*
X43188Y367740*
X47706*
G75*
G02X51061I1678J-5060*
G01*
X112742*
G37*
X249054D02*
G36*
X236884Y372781D01*
G75*
G02X239146Y367846I-4250J-4934*
G01*
G75*
G02X239145Y367740I-6504J-6*
G01*
X249054*
G37*
X572518D02*
G36*
G75*
G02X572517Y367845I6518J102D01*
G01*
G75*
G02X574781Y372780I6512*
G01*
X562612Y367740*
X572518*
G37*
X677416Y394552D02*
G36*
X673641D01*
X653651Y386271*
G75*
G02X659424Y379802I-739J-6470*
G01*
G75*
G02X646400I-6512*
G01*
G75*
G02X647815Y383854I6512*
G01*
X617091Y371127*
X617089Y371126*
G75*
G02X607166Y375233I-2907J7017*
G01*
X607165Y375236*
X604528Y381602*
X604527Y381604*
G75*
G03X600305Y383353I-2986J-1237*
G01*
G75*
G02X600304Y383352J0*
G01*
X578543Y374339*
G75*
G02X585541Y367845I486J-6494*
G01*
G75*
G02X585540Y367740I-6519J-4*
G01*
X593867*
G75*
G02X606891I6512*
G01*
X648036*
X662023Y373533*
X663466Y377014*
G75*
G02X664733Y378283I2165J-894*
G01*
X667752Y379533*
G75*
G02X667750Y379683I5631J149*
G01*
G75*
G02Y379696I5557J7*
G01*
G75*
G02X680774I6512*
G01*
G75*
G02X669544Y375209I-6512*
G01*
X667420Y374330*
X665978Y370848*
G75*
G02X664710Y369580I-2164J896*
G01*
X660268Y367740*
X676593*
G75*
G02X687019I5213J-1112*
G01*
X691825*
G75*
G02X687261Y372191I2906J7546*
G01*
G75*
G02X687260Y372193I7J4*
G01*
X678599Y393106*
G75*
G02X678598Y393107J0*
G01*
G75*
G03X677416Y394552I-2987J-1237*
G01*
G37*
X768474Y367740D02*
G36*
X759716Y388885D01*
X759715Y388888*
G75*
G03X754207Y391169I-3895J-1616*
G01*
G75*
G02X754206Y391169I-1J2*
G01*
X732898Y382343*
G75*
G02X739893Y375849I483J-6494*
G01*
G75*
G02X726870I-6512*
G01*
Y375849*
G75*
G02X729131Y380782I6511*
G01*
X697826Y367815*
X697825Y367815*
G75*
G02X697637Y367740I-3094J7470*
G01*
X735258*
X740917Y370083*
X741841Y372315*
G75*
G02X743194Y373671I2309J-952*
G01*
X748220Y375753*
G75*
G02X761244Y375744I6512J-9*
G01*
G75*
G02X750130Y371136I-6512J0*
G01*
X746063Y369452*
X745354Y367740*
X760612*
G75*
G02X763939I1663J-5065*
G01*
X768474*
G37*
D02*
D27*
X433501Y176918D02*
X429501D01*
X439001D02*
X443001D01*
X0Y0D02*
M02*
