G04 EasyPC Gerber Version 19.0.3 Build 3928 *
G04 #@! TF.Part,Single*
G04 #@! TF.FileFunction,Copper,L1,Top *
%FSLAX35Y35*%
%MOIN*%
G04 #@! TA.AperFunction,ComponentPad*
%ADD70O,0.08000X0.06000*%
G04 #@! TD.AperFunction*
%ADD26C,0.01181*%
%ADD23C,0.01500*%
%ADD27C,0.02500*%
G04 #@! TA.AperFunction,ViaPad*
%ADD22C,0.04800*%
G04 #@! TA.AperFunction,ComponentPad*
%ADD21C,0.07480*%
%ADD71C,0.09843*%
%ADD20C,0.13386*%
G04 #@! TA.AperFunction,SMDPad*
%AMT29*0 Rectangle Pad at angle 22.5*21,1,0.04921,0.07874,0,0,22.5*%
%ADD29T29*%
%AMT28*0 Rectangle Pad at angle 157.5*21,1,0.04921,0.07874,0,0,157.5*%
%ADD28T28*%
X0Y0D02*
D02*
D70*
X376251Y126918D03*
Y136918D03*
Y146918D03*
Y156918D03*
Y166918D03*
Y176918D03*
Y186918D03*
X436251Y126918D03*
Y136918D03*
Y146918D03*
Y156918D03*
Y166918D03*
Y176918D03*
Y186918D03*
D02*
D71*
X51911Y312196D03*
X66934Y297025D03*
X78278Y375854D03*
X93300Y360682D03*
X106020Y252500D03*
X121043Y237329D03*
X132385Y316152D03*
X147408Y300980D03*
X158753Y379806D03*
X173776Y364635D03*
X179901Y240542D03*
X194924Y225370D03*
X206267Y304190D03*
X221289Y289019D03*
X224465Y110217D03*
X232634Y367847D03*
X239487Y95045D03*
X240604Y196756D03*
X247657Y352675D03*
X255627Y181584D03*
X266968Y260408D03*
X281991Y245236D03*
X285159Y66434D03*
X293333Y324058D03*
X300182Y51262D03*
X308356Y308887D03*
X321070Y200706D03*
X336093Y185534D03*
X347441Y264361D03*
X362463Y249189D03*
X464222Y264361D03*
X485572Y264256D03*
X490589Y200709D03*
X511940Y200604D03*
X518330Y324058D03*
X526496Y66434D03*
X539680Y323953D03*
X544696Y260412D03*
X547847Y66329D03*
X566046Y260307D03*
X571058Y196756D03*
X579029Y367845D03*
X587196Y110219D03*
X592408Y196651D03*
X600379Y367740D03*
X605392Y304191D03*
X608546Y110114D03*
X626742Y304086D03*
X631761Y240538D03*
X652912Y379802D03*
X653111Y240433D03*
X674262Y379696D03*
X679279Y316148D03*
X700629Y316043D03*
X705641Y252500D03*
X726992Y252394D03*
X733381Y375849D03*
X754732Y375744D03*
X759750Y312200D03*
X781100Y312095D03*
D02*
D20*
X43022Y290736D03*
X69389Y354393D03*
X97131Y231040D03*
X123496Y294691D03*
X149864Y358346D03*
X171012Y219082D03*
X197378Y282730D03*
X215576Y88757D03*
X223745Y346387D03*
X231715Y175296D03*
X258079Y238948D03*
X276270Y44974D03*
X284444Y302598D03*
X312181Y179245D03*
X338552Y242901D03*
X473111Y242900D03*
X499478Y179248D03*
X527219Y302598D03*
X535385Y44974D03*
X553585Y238952D03*
X579947Y175296D03*
X587918Y346385D03*
X596085Y88759D03*
X614281Y282731D03*
X640650Y219078D03*
X661801Y358341D03*
X688168Y294688D03*
X714530Y231039D03*
X742270Y354389D03*
X768639Y290740D03*
D02*
D21*
X23017Y299023D03*
X49383Y362680D03*
X63028Y282450D03*
X77126Y239327D03*
X89394Y346107D03*
X103491Y302978D03*
X117137Y222754D03*
X129859Y366633D03*
X143501Y286405D03*
X151007Y227369D03*
X169869Y350059D03*
X177372Y291017D03*
X191017Y210795D03*
X195570Y97043D03*
X203740Y354673D03*
X211710Y183582D03*
X217383Y274443D03*
X235581Y80470D03*
X238074Y247234D03*
X243750Y338100D03*
X251720Y167009D03*
X256265Y53260D03*
X264439Y310885D03*
X278084Y230661D03*
X292176Y187532D03*
X296275Y36687D03*
X304449Y294311D03*
X318546Y251187D03*
X332186Y170959D03*
X358557Y234614D03*
X453106Y234614D03*
X479473Y170962D03*
X493116Y251187D03*
X507214Y294311D03*
X515380Y36687D03*
X519483Y187535D03*
X533580Y230665D03*
X547224Y310885D03*
X555391Y53261D03*
X559942Y167009D03*
X567913Y338098D03*
X573590Y247239D03*
X576080Y80472D03*
X594276Y274444D03*
X599952Y183583D03*
X607923Y354671D03*
X616090Y97046D03*
X620645Y210791D03*
X634286Y291017D03*
X641796Y350055D03*
X660655Y227364D03*
X668163Y286401D03*
X681806Y366628D03*
X694525Y222753D03*
X708173Y302974D03*
X722265Y346102D03*
X734535Y239326D03*
X748633Y282453D03*
X762276Y362675D03*
X788644Y299026D03*
D02*
D22*
X202845Y166338D03*
X222964Y306972D03*
X244685Y149705D03*
X274852Y180433D03*
X293180Y291018D03*
X314547Y236222D03*
X385433Y141831D03*
X424803Y131996D03*
X537439Y200657D03*
X633194Y325405D03*
X653124Y266583D03*
D02*
D23*
X29121Y276466D02*
X31309Y281742D01*
X29442Y286242*
X38142Y307250*
X51002Y312580*
X51911Y312196*
X42761Y270816D02*
X78840Y255870D01*
X103948Y266274*
X117408Y260700*
X55487Y340123D02*
X58044Y346304D01*
X55654Y352091*
X63598Y371276*
X76459Y376608*
X78278Y375854*
X69128Y334473D02*
X62544Y318579D01*
X63720Y315743*
X48805Y279743*
X45971Y278565*
X42761Y270816*
X96870Y211120D02*
X113653Y204163D01*
X126064Y209307*
X165978Y192774*
X168548Y193838*
X170751Y199161*
X96870Y211120D02*
X99998Y218686D01*
X104119Y220389*
X119114Y256580*
X117408Y260700*
X106020Y252500D02*
X91878Y246642D01*
X89806Y241637*
X83739Y226998*
X85603Y222498*
X83230Y216770*
X109595Y280421D02*
X109141Y280611D01*
X111704Y286796*
X109836Y291294*
X117598Y310024*
X132385Y316152*
X117408Y260700D02*
X123235Y274771D01*
X125993Y281430*
X130108Y283134*
X145478Y320231*
X143770Y324352*
X149603Y338426*
X135963Y344076D02*
X137769Y348439D01*
X135370Y354226*
X143470Y373779*
X158388Y379956*
X158753Y379806*
X157111Y204811D02*
X159296Y210084D01*
X157433Y214585*
X165756Y234681*
X179901Y240542*
X170751Y199161D02*
X193087Y189910D01*
X202845Y166338*
X183476Y268459D02*
X185663Y273735D01*
X183801Y278239*
X192270Y298698*
X205904Y304344*
X206267Y304190*
X197117Y262809D02*
X220664Y253059D01*
X234405Y219886*
X252875Y212235*
X255447Y213300*
X257818Y219027*
X201674Y74486D02*
X204045Y80215D01*
X201652Y86003*
X209032Y103826*
X224465Y110217*
X209844Y332116D02*
X212405Y338299D01*
X210008Y344086*
X217204Y361453*
X232634Y367847*
X215315Y68836D02*
X218333Y76126D01*
X224365Y78625*
X252537Y146642*
X222964Y306972D02*
X240857Y350165D01*
X247285Y352827*
X247657Y352675*
X223484Y326466D02*
X207611Y288159D01*
X209076Y284624*
X203709Y271665*
X200178Y270201*
X197117Y262809*
X231454Y155375D02*
X244752Y149867D01*
X239487Y95045D02*
X271258Y171754D01*
X274852Y180433*
X240604Y196756D02*
X226457Y190894D01*
X218696Y172161*
X220563Y167663*
X217814Y161025*
X244178Y224677D02*
X246359Y229953D01*
X243964Y235741*
X251534Y254014*
X266968Y260408*
X244685Y149705D02*
Y149800D01*
X244752Y149867*
X252537Y146642*
X278906Y210293*
X257818Y219027D02*
X278906Y210293D01*
X262369Y30703D02*
X264935Y36885D01*
X262539Y42675*
X269731Y60040*
X285159Y66434*
X270543Y288328D02*
X272914Y294057D01*
X270516Y299845*
X278049Y318031*
X292968Y324213*
X293333Y324058*
X278906Y210293D02*
X298678Y258030D01*
X289355Y280535*
X284183Y282678*
X298280Y164975D02*
X301033Y171614D01*
X298638Y177404*
X306959Y197500*
X321070Y200706*
X300182Y51262D02*
X333721Y132233D01*
X369309Y146960*
X376293*
X376251Y146918*
X311920Y159325D02*
X331881Y151057D01*
X332017Y150730*
X332113Y150963*
X325710Y135503*
X331993Y150682*
X314547Y236222D02*
X293180Y291018D01*
X324650Y228630D02*
X328339Y237542D01*
X325943Y243328*
X333479Y261512*
X348394Y267693*
X347441Y264361*
X331993Y150682D02*
X295006Y61387D01*
X290436Y59494*
X286899Y50956*
X288793Y46382*
X283722Y34137*
X278958Y32167*
X276009Y25053*
X338291Y222980D02*
X323365Y186946D01*
X325361Y182126*
X319618Y168258*
X314793Y166263*
X311920Y159325*
X385433Y141831D02*
X400197Y127067D01*
X429724*
X436614Y126914*
X436252Y126575*
X436251Y126918*
X424803Y131996D02*
X498622D01*
X515189Y125133*
X537506Y71255*
X535815Y67174*
X540647Y55511*
X544728Y53820*
X548861Y43840*
X436251Y136918D02*
X407660Y136917D01*
X392867Y151912*
X332737*
X331993Y150682*
X436251Y136918D02*
X498012Y136917D01*
X509899Y141843*
X516431Y157607*
X513380Y164978*
X473372Y222980D02*
X470811Y229165D01*
X465023Y231557*
X457830Y248929*
X464222Y264361*
X487012Y228630D02*
X487011Y228632D01*
X492544Y215264*
X496203Y213754*
X511386Y177091*
X509873Y173437*
X513380Y164978*
X490589Y200709D02*
X490072Y200496D01*
X484165Y186227*
X491701Y168040*
X497048Y165826*
X499739Y159328*
X526496Y66434D02*
X520551Y52083D01*
X528569Y32735*
X533274Y30785*
X535646Y25054*
X527480Y282678D02*
X524167Y290684D01*
X520952Y292015*
X512852Y311566*
X518178Y324421*
X518330Y324058*
X541120Y288328D02*
X556146Y252046D01*
X562514Y249411*
X567053Y238447*
X564419Y232085*
X567486Y224681*
X544696Y260412D02*
X538483Y245415D01*
X546124Y226974*
X551469Y224759*
X553846Y219031*
X548861Y43840D02*
X552724Y42237D01*
X610915Y66344*
X612138Y69294*
X609986Y74489*
X549287Y30704D02*
X546355Y37783D01*
X548861Y43840*
X567486Y224681D02*
X569935Y218775D01*
X567372Y212594*
X537439Y200657*
X567486Y224681D02*
X634774Y252550D01*
X571058Y196756D02*
X564854Y181765D01*
X572550Y163174*
X577898Y160965*
X580208Y155376*
X579029Y367845D02*
X572817Y352851D01*
X580267Y334866*
X585615Y332653*
X588179Y326464*
X587196Y110219D02*
X581251Y95869D01*
X589080Y76974*
X593782Y75027*
X596346Y68839*
X592408Y196651D02*
X592426Y196614D01*
X589411Y189337*
X601130Y161050*
X587337Y127752*
X570383Y120729*
X547847Y66329*
X593848Y161026D02*
X589533Y171445D01*
X591047Y175101*
X578994Y204197*
X578924Y204170*
X573049Y206601*
X557593Y200198*
X547835Y179251*
X513380Y164978*
X600379Y367740D02*
X618825Y360101D01*
X633194Y325405*
X601819Y332114D02*
X617789Y293557D01*
X622871Y291453*
X627034Y281404*
X624925Y276327*
X628182Y268460*
X605392Y304191D02*
X599184Y289200D01*
X606632Y271214*
X611982Y269000*
X614542Y262810*
X631761Y240538D02*
X625552Y225546D01*
X633058Y207418*
X638405Y205202*
X640911Y199157*
X634774Y252550D02*
X628185Y268462D01*
X628182Y268460*
X652912Y379802D02*
X646701Y364814D01*
X653959Y347278*
X659306Y345062*
X662062Y338421*
X653124Y266583D02*
X639834Y298664D01*
X626742Y304086*
X654551Y204807D02*
X651276Y212718D01*
X652844Y216508*
X647177Y230197*
X643388Y231769*
X634774Y252550*
X675702Y344071D02*
X689978Y309608D01*
X696346Y306969*
X701258Y295106*
X698621Y288739*
X702069Y280417*
X679279Y316148D02*
X673063Y301157D01*
X680328Y283627*
X685680Y281413*
X688429Y274767*
X702069Y280417D02*
X718290Y287143D01*
X705641Y252500D02*
X699432Y237509D01*
X706693Y219974*
X712037Y217759*
X714791Y211119*
X718290Y287143D02*
X722360Y285458D01*
X743921Y233402*
X734067Y209613*
X709969Y199631*
X688108Y208686*
X614907Y178365*
X592534Y124354*
X609294Y83893*
X607692Y80028*
X609986Y74489*
X718290Y287143D02*
X718923Y287403D01*
X728672Y310943*
X762461Y324937*
X728431Y216769D02*
X724868Y225370D01*
X726384Y229027*
X712818Y261765*
X702533Y266024*
X668889Y252085*
X650886Y259544*
X634934Y252941*
X634774Y252550*
X733381Y375849D02*
X727172Y360856D01*
X734437Y343329*
X739782Y341113*
X742531Y334468*
X759750Y312200D02*
X753540Y297204D01*
X760798Y279675*
X766152Y277459*
X768900Y270819*
X762461Y324937D02*
X756172Y340118D01*
X762461Y324937D02*
X771580Y302927D01*
X775374Y301354*
X780288Y289487*
X778719Y285693*
X782540Y276469*
D02*
D26*
X375438Y199497D02*
X437320Y199417D01*
X439867Y199442*
G75*
G03X450188Y215933I400J11225*
G01*
X434181Y254580*
G75*
G02X437377Y262296I5456J2260*
G01*
X493755Y285648*
G75*
G03X496952Y293365I-2260J5457*
G01*
X487911Y315189*
G75*
G02X490576Y321617I4547J1882*
G01*
X547864Y345348*
G75*
G03X551059Y353065I-2261J5457*
G01*
X548987Y358065*
G75*
G02X552183Y365781I5456J2260*
G01*
X599470Y385368*
G75*
G02X606542Y382438I2071J-5001*
G01*
X609180Y376070*
G75*
G03X616254Y373141I5002J2072*
G01*
X673541Y396871*
G75*
G02X680614Y393941I2072J-5002*
G01*
X689276Y373026*
G75*
G03X696991Y369830I5456J2260*
G01*
X753371Y393183*
G75*
G02X761731Y389720I2448J-5911*
G01*
X807304Y279693*
G75*
G02X804108Y271976I-5457J-2260*
G01*
X746822Y248246*
G75*
G03X743893Y241172I2072J-5002*
G01*
X753082Y218989*
G75*
G02X750151Y211917I-5002J-2071*
G01*
X702412Y192141*
G75*
G02X695340Y195070I-2071J5001*
G01*
X693494Y199525*
G75*
G03X684364Y203307I-6456J-2674*
G01*
X619889Y176600*
G75*
G03X616695Y168885I2261J-5454*
G01*
X618953Y163430*
G75*
G02X615758Y155716I-5454J-2259*
G01*
X610304Y153457*
G75*
G03X607108Y145741I2260J-5456*
G01*
X635356Y77541*
G75*
G02X631893Y69181I-5912J-2448*
G01*
X575515Y45829*
G75*
G03X572320Y38113I2261J-5455*
G01*
X574391Y33113*
G75*
G02X571195Y25396I-5456J-2261*
G01*
X524362Y5998*
G75*
G02X515521Y10435I-2559J5928*
G01*
X494656Y60809*
G75*
G03X316459Y60398I-88603J-215308*
G01*
X294987Y8561*
G75*
G02X288274Y5781I-4746J1967*
G01*
X240737Y25473*
G75*
G02X237422Y33474I2343J5658*
G01*
X240059Y39839*
G75*
G03X237661Y45627I-4093J1695*
G01*
X179919Y69545*
G75*
G02X176722Y77262I2260J5457*
G01*
X205538Y146826*
G75*
G03X203407Y151969I-3637J1506*
G01*
X193858Y155924*
G75*
G02X191196Y162353I1883J4546*
G01*
X194209Y169626*
G75*
G03X191279Y176700I-5002J2072*
G01*
X124898Y204197*
G75*
G03X119111Y201800I-1694J-4092*
G01*
X115909Y194070*
G75*
G02X110122Y191674I-4092J1695*
G01*
X61473Y211825*
G75*
G02X58276Y219541I2259J5456*
G01*
X68446Y244094*
X67381Y246665*
X6455Y271900*
G75*
G02X3793Y278330I1884J4546*
G01*
X49933Y389723*
G75*
G02X57648Y392920I5456J-2259*
G01*
X114938Y369191*
G75*
G03X121367Y371854I1883J4546*
G01*
X130407Y393677*
G75*
G02X138123Y396875I5457J-2259*
G01*
X196775Y372580*
G75*
G03X201276Y374443I1319J3182*
G01*
X204666Y382629*
G75*
G02X211739Y385557I5001J-2072*
G01*
X259479Y365782*
G75*
G02X262675Y358068I-2259J-5455*
G01*
X260602Y353065*
G75*
G03X263798Y345350I5456J-2259*
G01*
X320178Y321996*
G75*
G02X323373Y314281I-2260J-5455*
G01*
X314711Y293367*
G75*
G03X317906Y285650I5456J-2261*
G01*
X373830Y262485*
G75*
G02X377293Y254127I-2448J-5911*
G01*
X363167Y220027*
G75*
G03X375438Y199497I12062J-6722*
G01*
X741560Y245218D02*
G75*
G02X745987Y250260I7334J-1974D01*
G01*
G75*
G03X745988Y250261I-135J408*
G01*
X803271Y273991*
G75*
G03X803273Y273991I-469J1175*
G01*
G75*
G03X805290Y278857I-1426J3442*
G01*
G75*
G02X805289Y278859I277J140*
G01*
X759716Y388885*
X759715Y388888*
G75*
G03X754207Y391169I-3895J-1616*
G01*
G75*
G02X754206Y391169I-67J262*
G01*
X732898Y382343*
G75*
G02X739893Y375849I483J-6494*
G01*
G75*
G02X733219Y369339I-6512*
G01*
X729706Y360856*
X736228Y345120*
X740678Y343275*
G75*
G02X741946Y342004I-896J-2162*
G01*
X742578Y340477*
X744163Y341133*
X748398Y330908*
X740900Y327803*
X736665Y338028*
X738254Y338686*
X737990Y339322*
X733541Y341167*
G75*
G02X732274Y342435I896J2162*
G01*
X725010Y359960*
G75*
G02X725011Y361753I2162J896*
G01*
X728894Y371130*
G75*
G02X729131Y380782I4487J4719*
G01*
X697826Y367815*
X697825Y367815*
G75*
G02X687261Y372191I-3094J7471*
G01*
G75*
G02X687260Y372193I393J158*
G01*
X678599Y393106*
X678598Y393107*
G75*
G03X674376Y394856I-2987J-1237*
G01*
X674375*
X653651Y386271*
G75*
G02X652748Y373292I-739J-6470*
G01*
X649234Y364814*
X655750Y349069*
X660200Y347225*
G75*
G02X661468Y345959I-894J-2163*
G01*
X662106Y344422*
X663689Y345078*
X667920Y334865*
X660434Y331764*
X656204Y341977*
X657781Y342630*
X657515Y343270*
X653063Y345116*
G75*
G02X651795Y346384I896J2162*
G01*
X644539Y363917*
G75*
G02X644539Y365710I2162J897*
G01*
X648423Y375084*
G75*
G02X647815Y383854I4489J4718*
G01*
X617091Y371127*
G75*
G02X617089Y371126I-76J150*
G01*
G75*
G02X607166Y375233I-2907J7017*
G01*
G75*
G02X607165Y375236I967J324*
G01*
X604528Y381602*
X604527Y381604*
G75*
G03X600305Y383353I-2986J-1237*
G01*
G75*
G02X600304Y383352I-92J273*
G01*
X578543Y374339*
G75*
G02X585541Y367845I486J-6494*
G01*
G75*
G02X578865Y361335I-6512*
G01*
X575351Y352851*
X582058Y336657*
X586507Y334817*
G75*
G02X587778Y333548I-892J-2164*
G01*
X588224Y332470*
X589808Y333126*
X594041Y322906*
X586550Y319803*
X582317Y330022*
X583900Y330678*
X583824Y330861*
X579373Y332702*
G75*
G02X578104Y333970I893J2163*
G01*
X570656Y351953*
G75*
G02X570655Y353746I2161J898*
G01*
X574541Y363127*
G75*
G02X574781Y372780I4489J4718*
G01*
X553018Y363766*
G75*
G02X553017Y363765I-50J100*
G01*
G75*
G03X551002Y358900I1426J-3441*
G01*
X553073Y353903*
G75*
G02X553074Y353900I-615J-309*
G01*
G75*
G02X553691Y350804I-7472J-3096*
G01*
G75*
G02X548699Y343333I-8087J0*
G01*
G75*
G02X548698Y343333I-260J778*
G01*
X517844Y330552*
G75*
G02X524842Y324058I485J-6494*
G01*
G75*
G02X518037Y317553I-6512*
G01*
X515556Y311566*
X518968Y303330*
G75*
G02X535502Y302598I8251J-733*
G01*
G75*
G02X521904Y296245I-8283*
G01*
X522864Y293927*
X525120Y292993*
G75*
G02X526475Y291639I-954J-2309*
G01*
X527672Y288747*
X529111Y289343*
X533346Y279118*
X525849Y276012*
X521613Y286237*
X523056Y286835*
X522255Y288772*
X519997Y289706*
G75*
G02X518644Y291059I955J2309*
G01*
X510544Y310609*
G75*
G02X510545Y312524I2309J956*
G01*
X513510Y319680*
G75*
G02X514081Y328993I4820J4378*
G01*
X491411Y319602*
G75*
G02X491409Y319602I-94J187*
G01*
G75*
G03X489926Y316025I1048J-2531*
G01*
X489926Y316024*
X498967Y294200*
G75*
G02X498968Y294198I-593J-298*
G01*
G75*
G02X494590Y283633I-7471J-3093*
G01*
G75*
G02X494589Y283633I-38J76*
G01*
X463740Y270855*
G75*
G02X470734Y264361I482J-6494*
G01*
G75*
G02X464059Y257851I-6512*
G01*
X460363Y248929*
X466815Y233350*
X471705Y231328*
G75*
G02X472974Y230059I-894J-2163*
G01*
X473420Y228983*
X475000Y229637*
X479230Y219424*
X471744Y216323*
X467514Y226536*
X469095Y227191*
X469020Y227373*
X464131Y229393*
G75*
G02X462861Y230662I892J2165*
G01*
X455667Y248034*
G75*
G02X455669Y249827I2163J895*
G01*
X459734Y259642*
G75*
G02X459971Y269294I4488J4719*
G01*
X438214Y260282*
G75*
G02X438211Y260281I-204J472*
G01*
G75*
G03X436196Y255415I1425J-3441*
G01*
X436197Y255413*
X452165Y216859*
G75*
G02X453680Y210667I-11899J-6193*
G01*
G75*
G02X439841Y197261I-13413*
G01*
X437346Y197236*
G75*
G02X437318I-14J2145*
G01*
X375452Y197316*
G75*
G02X361198Y220974I-223J15989*
G01*
X375278Y254962*
G75*
G02X375278Y254963I33J-16*
G01*
G75*
G03X372995Y260470I-3895J1613*
G01*
G75*
G02X372993Y260471I110J335*
G01*
X351690Y269296*
G75*
G02X353457Y261869I-4249J-4935*
G01*
G75*
G02X341292Y262216I-6016J2492*
G01*
X335270Y259720*
X328476Y243327*
X330500Y238440*
G75*
G02X330502Y236646I-2162J-898*
G01*
X328929Y232848*
X330517Y232190*
X326281Y221965*
X318784Y225070*
X323019Y235296*
X324604Y234639*
X325806Y237541*
X323781Y242430*
G75*
G02X323781Y244224I2161J898*
G01*
X331316Y262406*
G75*
G02X332583Y263674I2163J-894*
G01*
X341712Y267457*
G75*
G02X347925Y270855I5729J-3096*
G01*
X317074Y283634*
G75*
G02X317071Y283635I1408J2820*
G01*
G75*
G02X312696Y294202I3096J7471*
G01*
X321357Y315114*
G75*
G02X321358Y315116I792J-395*
G01*
G75*
G03X319343Y319981I-3440J1425*
G01*
G75*
G03X319341Y319982I-140J-346*
G01*
X297577Y328997*
G75*
G02X299349Y321566I-4244J-4939*
G01*
G75*
G02X288524Y319668I-6016J2492*
G01*
X279961Y316119*
X273220Y299845*
X275222Y295013*
G75*
G02X275220Y293098I-2308J-956*
G01*
X274964Y292479*
X276401Y291884*
X272170Y281670*
X264684Y284771*
X268915Y294985*
X270014Y294530*
X268208Y298889*
G75*
G02X268208Y300801I2307J956*
G01*
X275741Y318987*
G75*
G02X277096Y320340I2308J-956*
G01*
X286828Y324373*
G75*
G02X293824Y330552I6504J-315*
G01*
X262966Y343334*
G75*
G02X262963Y343335I344J806*
G01*
G75*
G02X258587Y353900I3094J7470*
G01*
G75*
G02X258588Y353903I1687J-631*
G01*
X260659Y358901*
G75*
G03X260660Y358902I-81J55*
G01*
G75*
G03X258646Y363766I-3440J1424*
G01*
G75*
G02X258644Y363767I274J459*
G01*
X236884Y372781*
G75*
G02X238650Y365355I-4250J-4934*
G01*
G75*
G02X227917Y363358I-6016J2492*
G01*
X218996Y359661*
X212541Y344086*
X214567Y339195*
G75*
G02X214567Y337402I-2162J-896*
G01*
X214123Y336330*
X215706Y335674*
X211473Y325455*
X203982Y328558*
X208215Y338778*
X209798Y338122*
X209872Y338299*
X207846Y343191*
G75*
G02X207846Y344983I2162J896*
G01*
X215042Y362348*
G75*
G02X216308Y363615I2163J-895*
G01*
X226124Y367683*
G75*
G02X226122Y367847I6517J160*
G01*
G75*
G02X233118Y374341I6512*
G01*
X210905Y383542*
G75*
G02X210904Y383543I119J360*
G01*
G75*
G03X206681Y381794I-1237J-2986*
G01*
X203292Y373609*
X203291Y373607*
G75*
G02X195940Y370565I-5197J2155*
G01*
G75*
G03X195938Y370566I-153J-252*
G01*
X163852Y383856*
G75*
G02X153946Y375413I-5099J-4050*
G01*
X145381Y371867*
X138074Y354226*
X140076Y349395*
G75*
G02X140267Y348439I-2308J-956*
G01*
G75*
G02X140262Y348285I-2501J-1*
G01*
X141830Y347635*
X137594Y337410*
X130096Y340516*
X134221Y350474*
X133063Y353270*
G75*
G02X133064Y355186I2308J956*
G01*
X141160Y374732*
G75*
G02X142514Y376087I2309J-953*
G01*
X152249Y380118*
G75*
G02X158011Y386276I6505J-311*
G01*
X137289Y394859*
X137289*
G75*
G03X132423Y392844I-1425J-3442*
G01*
G75*
G03X132422Y392842I1503J-753*
G01*
X123381Y371019*
G75*
G02X123380Y371015I-2752J1098*
G01*
G75*
G02X114105Y367175I-6559J2722*
G01*
G75*
G03X114103Y367176I-166J-411*
G01*
X83378Y379902*
G75*
G02X84294Y373361I-5100J-4048*
G01*
G75*
G02X72689Y372511I-6016J2492*
G01*
X65389Y369485*
X58186Y352090*
X60207Y347199*
G75*
G02Y345409I-2163J-895*
G01*
X59763Y344335*
X61346Y343679*
X57115Y333466*
X49629Y336567*
X53860Y346780*
X55438Y346126*
X55512Y346304*
X53492Y351194*
G75*
G02X53491Y352986I2161J897*
G01*
X61435Y372171*
G75*
G02X62703Y373439I2163J-896*
G01*
X71919Y377260*
G75*
G02X77533Y382323I6358J-1406*
G01*
X56816Y390904*
G75*
G02X56813Y390905I479J1440*
G01*
G75*
G03X51948Y388889I-1424J-3441*
G01*
G75*
G02X51947Y388885I-950J420*
G01*
X5809Y277499*
X5808Y277495*
G75*
G03X7289Y273916I2531J-1049*
G01*
G75*
G02X7290Y273915I-78J-118*
G01*
X68216Y248680*
G75*
G02X69398Y247496I-835J-2015*
G01*
X70461Y244928*
G75*
G02X70460Y243257I-2015J-834*
G01*
X60293Y218709*
G75*
G03X60291Y218706I797J-343*
G01*
G75*
G03X62306Y213841I3440J-1425*
G01*
G75*
G03X62307Y213840I125J248*
G01*
X110956Y193689*
G75*
G02X110957Y193689I-272J-684*
G01*
G75*
G03X113894Y194903I860J2077*
G01*
X113894Y194905*
X117096Y202634*
G75*
G02X117098Y202638I1684J-671*
G01*
G75*
G02X117340Y203158I6105J-2533*
G01*
X114549Y202001*
G75*
G02X112755Y202002I-896J2162*
G01*
X99717Y207406*
X98498Y204463*
X91012Y207563*
X95243Y217777*
X96820Y217124*
X97835Y219580*
G75*
G02X99108Y220850I2163J-894*
G01*
X102328Y222181*
X104229Y226770*
G75*
G02X89479Y234210I-7098J4270*
G01*
G75*
G02X105170Y229039I7653J-3170*
G01*
X116581Y256580*
X115617Y258909*
X103948Y263741*
X79736Y253707*
G75*
G02X77944I-896J2162*
G01*
X45615Y267100*
X44393Y264150*
X36895Y267256*
X41130Y277481*
X42717Y276824*
X43809Y279461*
G75*
G02X45074Y280727I2163J-895*
G01*
X47013Y281533*
X48122Y284209*
G75*
G02X35370Y293906I-5100J6527*
G01*
G75*
G02X51244Y291745I7653J-3170*
G01*
X61186Y315743*
X60383Y317680*
G75*
G02X60381Y319475I2161J899*
G01*
X64848Y330259*
X63265Y330915*
X67498Y341134*
X74990Y338031*
X70757Y327811*
X69173Y328467*
X65077Y318580*
X65880Y316643*
G75*
G02X65882Y314848I-2160J-900*
G01*
X50967Y278847*
G75*
G02X49700Y277580I-2163J896*
G01*
X47763Y276775*
X47041Y275033*
X48628Y274376*
X47406Y271425*
X78840Y258403*
X103052Y268436*
G75*
G02X104846Y268435I896J-2162*
G01*
X116141Y263758*
X118956Y270557*
X117373Y271213*
X121606Y281432*
X123189Y280777*
X123830Y282325*
G75*
G02X125098Y283593I2163J-896*
G01*
X128317Y284926*
X130594Y290421*
G75*
G02X115843Y297861I-7098J4270*
G01*
G75*
G02X131534Y292691I7653J-3170*
G01*
X142945Y320231*
X141609Y323454*
G75*
G02X141608Y325248I2161J898*
G01*
X145324Y334215*
X143745Y334869*
X147976Y345083*
X155461Y341982*
X151231Y331769*
X149649Y332424*
X146304Y324352*
X147640Y321130*
G75*
G02X147641Y319335I-2162J-898*
G01*
X132271Y282240*
G75*
G02X131004Y280972I-2163J895*
G01*
X127784Y279638*
X127513Y278985*
X129097Y278329*
X124864Y268109*
X123281Y268765*
X119941Y260700*
X121277Y257475*
G75*
G02X121276Y255682I-2163J-895*
G01*
X106281Y219494*
G75*
G02X105013Y218226I-2163J895*
G01*
X101790Y216894*
X101144Y215332*
X102729Y214676*
X101509Y211731*
X113653Y206697*
X125168Y211469*
G75*
G02X126962Y211469I896J-2163*
G01*
X151304Y201385*
X155482Y211473*
X156334Y211120*
X155272Y213688*
G75*
G02X155271Y215480I2162J897*
G01*
X163594Y235576*
G75*
G02X164862Y236844I2162J-896*
G01*
X173391Y240378*
G75*
G02X173389Y240542I6517J160*
G01*
G75*
G02X186413I6512*
G01*
G75*
G02X175183Y236054I-6512*
G01*
X167548Y232889*
X159967Y214584*
X161458Y210979*
G75*
G02X161457Y209187I-2163J-895*
G01*
X161391Y209025*
X162973Y208370*
X158795Y198282*
X164941Y195737*
X169120Y205827*
X176618Y202721*
X175396Y199771*
X193982Y192073*
G75*
G02X195250Y190806I-894J-2163*
G01*
X203772Y170219*
G75*
G02X206532Y164811I-926J-3881*
G01*
G75*
G02X199159Y167865I-3687J1527*
G01*
G75*
G02X199446Y168429I3687J-1526*
G01*
X191296Y188119*
X173604Y195446*
X172382Y192496*
X170798Y193152*
X170711Y192943*
G75*
G02X169440Y191674I-2163J894*
G01*
X166876Y190612*
G75*
G02X165082Y190611I-897J2162*
G01*
X126065Y206773*
X125188Y206410*
G75*
G02X125729Y206214I-1987J-6308*
G01*
G75*
G02X125732Y206212I-311J-703*
G01*
X192113Y178715*
X192114*
G75*
G02X196802Y171698I-2907J-7017*
G01*
G75*
G02X196224Y168792I-7596J0*
G01*
G75*
G02X196222Y168789I-1088J406*
G01*
X193211Y161520*
G75*
G03X193211Y161518I1880J-753*
G01*
G75*
G03X194691Y157939I2531J-1048*
G01*
G75*
G03X194693Y157939I69J102*
G01*
X204240Y153985*
G75*
G03X204242Y153983I237J393*
G01*
G75*
G02X207554Y145991I-2340J-5652*
G01*
G75*
G02X207552Y145989I-836J357*
G01*
X178739Y76430*
G75*
G02X178737Y76427I-1003J374*
G01*
G75*
G03X180753Y71560I3441J-1426*
G01*
G75*
G02X180754Y71560I-23J-46*
G01*
X238494Y47643*
G75*
G03X238495Y47642I113J225*
G01*
G75*
G02X242076Y39009I-2530J-6108*
G01*
G75*
G02X242074Y39005I-2086J946*
G01*
X239437Y32640*
G75*
G02X239436Y32637I-302J99*
G01*
G75*
G03X241572Y27488I3644J-1506*
G01*
G75*
G02X241575Y27487I-186J-563*
G01*
X289106Y7797*
G75*
G02X289109Y7796I-235J-553*
G01*
G75*
G03X292972Y9396I1131J2732*
G01*
Y9396*
X314444Y61233*
G75*
G02X315621Y62412I2015J-835*
G01*
G75*
G02X495487Y62826I90432J-216915*
G01*
G75*
G02X496679Y61625I-830J-2017*
G01*
X517536Y11270*
G75*
G02X517571Y11180I-2011J-833*
G01*
G75*
G02X517643Y10939I-2050J-744*
G01*
G75*
G03X523498Y8000I4160J987*
G01*
G75*
G02X523529Y8014I897J-2042*
G01*
X570359Y27410*
G75*
G02X570361Y27411I27J-78*
G01*
G75*
G03X572376Y32278I-1426J3441*
G01*
X572375Y32281*
X570305Y37278*
G75*
G02X574680Y47844I7470J3096*
G01*
G75*
G02X574682Y47845I499J-994*
G01*
X631058Y71196*
G75*
G02X631059Y71197I83J-164*
G01*
G75*
G03X633341Y76705I-1615J3896*
G01*
X633341Y76707*
X605093Y144907*
G75*
G02X605093Y144909I234J95*
G01*
G75*
G02X604520Y147174I7472J3093*
G01*
X595068Y124354*
X611456Y84790*
G75*
G02X611457Y82996I-2162J-897*
G01*
X610498Y80683*
X611614Y81146*
X615844Y70932*
X614264Y70278*
X614299Y70192*
G75*
G02X614300Y68398I-2161J-898*
G01*
X613078Y65450*
G75*
G02X611811Y64182I-2163J895*
G01*
X553619Y40074*
G75*
G02X551824Y40076I-896J2162*
G01*
X550128Y40780*
X548888Y37784*
X549332Y36712*
X550918Y37369*
X555153Y27144*
X547656Y24038*
X543420Y34263*
X545007Y34921*
X544193Y36888*
G75*
G02X544194Y38682I2163J895*
G01*
X546328Y43840*
X542936Y52029*
X539751Y53348*
G75*
G02X538483Y54618I896J2162*
G01*
X533654Y66275*
G75*
G02X533653Y68070I2161J899*
G01*
X534972Y71255*
X513397Y123342*
X498156Y129655*
X440936*
G75*
G02X437252Y122326I-3684J-2739*
G01*
X435252*
G75*
G02X431307Y124568J4591*
G01*
X400197*
G75*
G02X398429Y125302J2498*
G01*
X385867Y137864*
G75*
G02X381443Y141831I-434J3967*
G01*
G75*
G02X389424I3991*
G01*
G75*
G02X389400Y141396I-3991J-1*
G01*
X401231Y129564*
X421639*
G75*
G02X421632Y134419I3164J2431*
G01*
X407660*
G75*
G02X405880Y135165I0J2498*
G01*
X391822Y149415*
X381103*
G75*
G02X377252Y142326I-3851J-2498*
G01*
X375252*
G75*
G02X371373Y144462J4591*
G01*
X369806*
X335633Y130320*
X304791Y55862*
G75*
G02X306198Y48770I-4609J-4600*
G01*
G75*
G02X294166Y53754I-6016J2492*
G01*
G75*
G02X300175Y57774I6016J-2492*
G01*
X331413Y133188*
G75*
G02X332766Y134541I2308J-956*
G01*
X368354Y149268*
G75*
G02X368846Y149415I955J-2309*
G01*
X334146*
X334130Y149389*
G75*
G02X333828Y148988I-2137J1294*
G01*
X327874Y134610*
X327873Y134608*
G75*
G02X327815Y134479I-2161J897*
G01*
X297169Y60491*
G75*
G02X295899Y59223I-2162J895*
G01*
X292227Y57703*
X289433Y50956*
X290956Y47278*
G75*
G02X290955Y45484I-2163J-896*
G01*
X285885Y33244*
G75*
G02X284617Y31974I-2164J892*
G01*
X280749Y30374*
X280291Y29269*
X281876Y28613*
X277640Y18388*
X270143Y21493*
X274378Y31719*
X275966Y31061*
X276795Y33060*
G75*
G02X278063Y34330I2163J-893*
G01*
X281930Y35929*
X286260Y46382*
X284737Y50060*
G75*
G02X284737Y51853I2163J895*
G01*
X288274Y60390*
G75*
G02X288542Y60870I2162J-894*
G01*
G75*
G02X280441Y61945I-3383J5564*
G01*
X271522Y58249*
X265072Y42674*
X267097Y37781*
G75*
G02X267097Y35988I-2162J-896*
G01*
X266652Y34916*
X268231Y34261*
X263998Y24042*
X256507Y27145*
X260740Y37365*
X262327Y36707*
X262402Y36886*
X260377Y41778*
G75*
G02X260376Y43570I2162J897*
G01*
X267568Y60935*
G75*
G02X268835Y62202I2163J-895*
G01*
X278649Y66270*
G75*
G02X278647Y66434I6513J160*
G01*
G75*
G02X291671I6512*
G01*
G75*
G02X289619Y61689I-6512*
G01*
X293215Y63178*
X328991Y149551*
X314710Y155466*
X313549Y152663*
X306058Y155767*
X310291Y165986*
X311874Y165330*
X312630Y167155*
G75*
G02X313899Y168426I2164J-892*
G01*
X317826Y170050*
X322828Y182126*
X321204Y186048*
G75*
G02X321203Y187842I2162J898*
G01*
X324156Y194971*
G75*
G02X315663Y197077I-3086J5735*
G01*
X308659Y195486*
X301171Y177404*
X303194Y172512*
G75*
G02X303374Y171614I-2162J-898*
G01*
G75*
G02X303195Y170717I-2340J0*
G01*
X302560Y169185*
X304138Y168531*
X299907Y158318*
X292422Y161419*
X296652Y171632*
X298235Y170976*
X298500Y171615*
X296476Y176508*
G75*
G02X296476Y178300I2162J896*
G01*
X304796Y198393*
G75*
G02X306441Y199783I2163J-893*
G01*
X314626Y201642*
G75*
G02X327307Y202579I6444J-937*
G01*
X334013Y218769*
X332432Y219424*
X336663Y229637*
X344149Y226537*
X339918Y216323*
X338338Y216978*
X325898Y186946*
X327522Y183023*
G75*
G02X327523Y181230I-2162J-898*
G01*
X321781Y167365*
G75*
G02X320512Y166095I-2164J893*
G01*
X316585Y164470*
X316199Y163539*
X317782Y162883*
X316622Y160081*
X331342Y153985*
G75*
G02X332741Y154411I1395J-2072*
G01*
X371406*
G75*
G02X375252Y161507I3846J2506*
G01*
X377252*
G75*
G02X381098Y154411J-4591*
G01*
X392867*
G75*
G02X394647Y153665I0J-2498*
G01*
X408705Y139415*
X431401*
G75*
G02X435252Y141507I3851J-2498*
G01*
X437252*
G75*
G02X441103Y139415J-4591*
G01*
X497515*
X507987Y143755*
X513728Y157607*
X513189Y158909*
X511748Y158313*
X507513Y168538*
X509098Y169194*
X507712Y172539*
G75*
G02X507711Y174333I2161J899*
G01*
X508853Y177091*
X507746Y179764*
G75*
G02X507762Y179248I-8267J-517*
G01*
G75*
G02X491195I-8283*
G01*
G75*
G02X505690Y184729I8283*
G01*
X494412Y211961*
X491654Y213100*
G75*
G02X490381Y214369I890J2165*
G01*
X486965Y222624*
X485383Y221969*
X481150Y232188*
X488641Y235291*
X492874Y225072*
X491290Y224415*
X494335Y217057*
X497096Y215917*
G75*
G02X498365Y214649I-893J-2163*
G01*
X513547Y177989*
G75*
G02X513549Y176195I-2161J-899*
G01*
X512407Y173438*
X513423Y170986*
X515011Y171643*
X516172Y168839*
X545981Y181187*
X555327Y201250*
G75*
G02X556637Y202506I2266J-1052*
G01*
X572093Y208909*
G75*
G02X573987Y208916I956J-2308*
G01*
X579930Y206513*
G75*
G02X581303Y205151I-936J-2316*
G01*
X587280Y190723*
X587817Y192033*
G75*
G02X585896Y196651I4591J4618*
G01*
G75*
G02X598920I6512*
G01*
G75*
G02X592440Y190139I-6512*
G01*
X592113Y189342*
X594631Y183265*
G75*
G02X594621Y183583I5320J317*
G01*
G75*
G02X605283I5331*
G01*
G75*
G02X595965Y180044I-5331*
G01*
X603437Y162006*
G75*
G02Y160094I-2307J-956*
G01*
X589645Y126797*
G75*
G02X588293Y125444I-2308J955*
G01*
X572295Y118817*
X552456Y70929*
G75*
G02X554359Y66329I-4609J-4600*
G01*
G75*
G02X541335I-6512*
G01*
G75*
G02X547841Y72841I6512*
G01*
X568075Y121685*
G75*
G02X569430Y123038I2308J-956*
G01*
X585425Y129664*
X596370Y156087*
X592220Y154369*
X587990Y164582*
X589426Y165176*
X587227Y170486*
G75*
G02X587065Y171060I2306J958*
G01*
G75*
G02X571663Y175296I-7119J4236*
G01*
G75*
G02X585859Y181098I8283*
G01*
X577087Y202274*
X573061Y203902*
X571496Y203254*
G75*
G02X570897Y190246I-438J-6497*
G01*
X567387Y181765*
X574341Y164967*
X578790Y163128*
G75*
G02X580061Y161859I-893J-2164*
G01*
X580256Y161385*
X581839Y162041*
X586074Y151816*
X578577Y148710*
X574341Y158935*
X575509Y159419*
X571656Y161011*
G75*
G02X570386Y162282I894J2163*
G01*
X562693Y180867*
G75*
G02X562691Y182660I2161J898*
G01*
X566572Y192036*
G75*
G02X566154Y201040I4486J4720*
G01*
X559446Y198262*
X550101Y178199*
G75*
G02X548791Y176943I-2266J1052*
G01*
X518084Y164223*
X519246Y161418*
X517804Y160821*
X518739Y158563*
G75*
G02X518739Y156649I-2308J-956*
G01*
X512207Y140887*
G75*
G02X510856Y139535I-2308J956*
G01*
X498969Y134609*
G75*
G02X498011Y134419I-956J2307*
G01*
X441103*
G75*
G02X441049Y134336I-3854J2485*
G01*
X498620*
G75*
G02X499518Y134158I1J-2341*
G01*
X516084Y127296*
G75*
G02X517352Y126026I-896J-2162*
G01*
X539666Y72155*
G75*
G02X539668Y70359I-2161J-900*
G01*
X538349Y67174*
X542438Y57302*
X545623Y55982*
G75*
G02X546890Y54715I-896J-2163*
G01*
X550653Y45630*
X552724Y44770*
X609124Y68135*
X609130Y68151*
X608359Y67831*
X604128Y78045*
X605709Y78700*
X605531Y79129*
G75*
G02X605530Y80924I2162J898*
G01*
X606761Y83893*
X604298Y89840*
G75*
G02X604369Y88759I-8214J-1081*
G01*
G75*
G02X587802I-8283*
G01*
G75*
G02X602656Y93802I8283*
G01*
X590373Y123456*
G75*
G02X590372Y125249I2161J898*
G01*
X612744Y179259*
G75*
G02X614011Y180527I2163J-894*
G01*
X687212Y210848*
G75*
G02X689006Y210847I896J-2162*
G01*
X709969Y202165*
X732275Y211404*
X732761Y212576*
X726802Y210107*
X722569Y220327*
X724152Y220983*
X722706Y224474*
G75*
G02X722707Y226269I2163J896*
G01*
X723850Y229028*
X722796Y231571*
G75*
G02X722814Y231039I-8268J-535*
G01*
G75*
G02X706247I-8283*
G01*
G75*
G02X720750Y236511I8283*
G01*
X711027Y259974*
X702533Y263491*
X669788Y249924*
G75*
G02X667993Y249923I-898J2162*
G01*
X650886Y257011*
X637718Y251560*
X645179Y233560*
X648074Y232359*
G75*
G02X649341Y231089I-897J-2162*
G01*
X655006Y217406*
G75*
G02X655007Y215613I-2161J-898*
G01*
X653809Y212719*
X654596Y210816*
X656182Y211472*
X660418Y201247*
X652920Y198142*
X648685Y208367*
X650272Y209024*
X649115Y211819*
G75*
G02X649113Y213613I2161J899*
G01*
X650311Y216508*
X648888Y219946*
G75*
G02X632997Y215907I-8238J-868*
G01*
G75*
G02X647091Y224287I7653J3170*
G01*
X645385Y228406*
X642491Y229607*
G75*
G02X641225Y230875I897J2162*
G01*
X637997Y238662*
G75*
G02X631598Y234028I-6236J1876*
G01*
X628085Y225546*
X634850Y209209*
X639298Y207366*
G75*
G02X640567Y206099I-893J-2164*
G01*
X640955Y205162*
X642540Y205819*
X646773Y195599*
X639282Y192496*
X635049Y202715*
X636630Y203370*
X636614Y203411*
X632163Y205255*
G75*
G02X630895Y206522I894J2163*
G01*
X623390Y224648*
G75*
G02X623389Y226441I2162J898*
G01*
X627273Y235819*
G75*
G02X634841Y246275I4488J4719*
G01*
X633508Y249492*
X572127Y224070*
X573348Y221123*
X571767Y220468*
X572095Y219675*
G75*
G02X572097Y217878I-2161J-900*
G01*
X569534Y211697*
G75*
G02X568236Y210419I-2163J896*
G01*
X541308Y199680*
G75*
G02X533448Y200657I-3869J977*
G01*
G75*
G02X539574Y204028I3991*
G01*
X565588Y214402*
X567343Y218636*
X565857Y218020*
X561624Y228240*
X563207Y228896*
X562258Y231187*
G75*
G02X562257Y232980I2161J899*
G01*
X564520Y238447*
X560723Y247619*
X555254Y249882*
G75*
G02X553983Y251150I892J2164*
G01*
X550928Y258526*
G75*
G02X544533Y253902I-6233J1886*
G01*
X541017Y245415*
X547916Y228765*
X552365Y226921*
G75*
G02X553632Y225653I-896J-2162*
G01*
X553889Y225033*
X555473Y225689*
X559704Y215475*
X552218Y212374*
X547987Y222588*
X549291Y223128*
X545228Y224812*
G75*
G02X543961Y226081I896J2162*
G01*
X536323Y244515*
G75*
G02X536321Y246311I2161J900*
G01*
X540208Y255694*
G75*
G02X547770Y266153I4488J4719*
G01*
X541072Y282325*
X539493Y281670*
X535262Y291884*
X542748Y294985*
X546978Y284771*
X545397Y284117*
X557937Y253837*
X563409Y251574*
G75*
G02X564677Y250306I-894J-2163*
G01*
X569215Y239345*
G75*
G02X569216Y237552I-2161J-898*
G01*
X566953Y232085*
X567532Y230687*
X569115Y231343*
X570336Y228395*
X631570Y253757*
X627992Y262398*
X626554Y261803*
X622324Y272017*
X623905Y272672*
X622763Y275429*
G75*
G02Y277224I2161J898*
G01*
X624500Y281406*
X621080Y289661*
X616895Y291394*
G75*
G02X615627Y292662I894J2163*
G01*
X611628Y302316*
G75*
G02X605229Y297681I-6236J1875*
G01*
X601717Y289200*
X608424Y273006*
X612874Y271164*
G75*
G02X614145Y269894I-892J-2164*
G01*
X614589Y268820*
X616173Y269476*
X620408Y259250*
X612911Y256145*
X608675Y266370*
X610265Y267028*
X610190Y267209*
X605741Y269050*
G75*
G02X604470Y270319I891J2164*
G01*
X597021Y288305*
G75*
G02Y290096I2163J896*
G01*
X600904Y299472*
G75*
G02X608476Y309926I4487J4719*
G01*
X601774Y326106*
X600188Y325449*
X595952Y335674*
X603450Y338780*
X607685Y328554*
X606099Y327897*
X619580Y295349*
X623766Y293616*
G75*
G02X625033Y292349I-895J-2162*
G01*
X629196Y282300*
G75*
G02X629194Y280504I-2163J-896*
G01*
X627459Y276325*
X628230Y274463*
X629809Y275117*
X634040Y264904*
X632607Y264311*
X636072Y255945*
X649991Y261707*
G75*
G02X651784Y261706I896J-2163*
G01*
X668889Y254619*
X701635Y268186*
G75*
G02X703428Y268187I897J-2162*
G01*
X713713Y263928*
G75*
G02X714981Y262659I-896J-2162*
G01*
X728546Y229926*
G75*
G02X728546Y228131I-2161J-898*
G01*
X727402Y225370*
X728477Y222774*
X730061Y223430*
X733659Y214744*
X741387Y233402*
X739610Y237693*
G75*
G02X729205Y239326I-5074J1633*
G01*
G75*
G02X736969Y244069I5331*
G01*
X733504Y252437*
G75*
G02Y252394I-6506J-21*
G01*
G75*
G02X720480I-6512*
G01*
G75*
G02X731626Y256969I6512*
G01*
X720569Y283667*
X718291Y284610*
X706713Y279809*
X707935Y276857*
X700438Y273752*
X696202Y283977*
X697788Y284634*
X696459Y287843*
G75*
G02X696459Y289635I2163J896*
G01*
X698725Y295106*
X694554Y305178*
X689082Y307446*
G75*
G02X687815Y308714I896J2163*
G01*
X685514Y314269*
G75*
G02X679113Y309638I-6235J1879*
G01*
X675597Y301157*
X682119Y285419*
X686573Y283577*
G75*
G02X687843Y282308I-893J-2164*
G01*
X688477Y280774*
X690058Y281429*
X694291Y271209*
X686800Y268106*
X682567Y278326*
X684152Y278982*
X683888Y279622*
X679433Y281464*
G75*
G02X678164Y282735I895J2163*
G01*
X670903Y300258*
G75*
G02X670901Y302054I2161J900*
G01*
X674789Y311431*
G75*
G02X682359Y321885I4489J4717*
G01*
X675656Y338065*
X674073Y337409*
X669840Y347629*
X677331Y350732*
X681564Y340513*
X679981Y339857*
X691769Y311399*
X697239Y309133*
G75*
G02X698509Y307864I-893J-2164*
G01*
X703420Y296002*
G75*
G02X703419Y294207I-2163J-895*
G01*
X701155Y288739*
X702113Y286426*
X703700Y287083*
X704921Y284134*
X716895Y289099*
G75*
G02X717160Y289263I1394J-1954*
G01*
X726509Y311839*
G75*
G02X727779Y313107I2163J-896*
G01*
X759402Y326204*
X756125Y334116*
X754544Y333461*
X750313Y343674*
X757799Y346775*
X762030Y336562*
X760450Y335907*
X764417Y326331*
G75*
G02X764830Y325334I-1956J-1394*
G01*
X773371Y304718*
X776270Y303516*
G75*
G02X777537Y302247I-897J-2162*
G01*
X782448Y290387*
G75*
G02X782451Y288593I-2161J-900*
G01*
X781252Y285693*
X782585Y282475*
X784169Y283131*
X788402Y272911*
X780911Y269808*
X776678Y280028*
X778260Y280683*
X776557Y284794*
G75*
G02X776556Y286587I2161J899*
G01*
X777755Y289487*
X776876Y291608*
G75*
G02X776922Y290740I-8240J-869*
G01*
G75*
G02X760355I-8283*
G01*
G75*
G02X775079Y295950I8283*
G01*
X773582Y299563*
X770683Y300765*
G75*
G02X769418Y302031I897J2162*
G01*
X765984Y310319*
G75*
G02X759587Y305690I-6234J1881*
G01*
X756073Y297204*
X762589Y281467*
X767047Y279621*
G75*
G02X768315Y278352I-896J-2163*
G01*
X768948Y276822*
X770527Y277476*
X774758Y267263*
X767272Y264162*
X763041Y274376*
X764624Y275031*
X764360Y275667*
X759904Y277512*
G75*
G02X758635Y278780I894J2163*
G01*
X751378Y296308*
G75*
G02X751378Y298101I2162J895*
G01*
X755262Y307481*
G75*
G02X762826Y317939I4487J4719*
G01*
X761194Y321879*
X730463Y309152*
X721796Y288225*
X723255Y287621*
G75*
G02X724524Y286351I-895J-2163*
G01*
X741560Y245218*
X774588Y312095D02*
G75*
G02X787612I6512D01*
G01*
G75*
G02X774588I-6512*
G01*
X783313Y299026D02*
G75*
G02X793974I5331D01*
G01*
G75*
G02X783313I-5331*
G01*
X748220Y375744D02*
G75*
G02X761244I6512D01*
G01*
G75*
G02X748220I-6512*
G01*
X756945Y362675D02*
G75*
G02X767606I5331D01*
G01*
G75*
G02X756945I-5331*
G01*
X733987Y354389D02*
G75*
G02X750554I8283D01*
G01*
G75*
G02X733987I-8283*
G01*
X716935Y346102D02*
G75*
G02X727596I5331D01*
G01*
G75*
G02X716935I-5331*
G01*
X694117Y316043D02*
G75*
G02X707141I6512D01*
G01*
G75*
G02X694117I-6512*
G01*
X702842Y302974D02*
G75*
G02X713504I5331D01*
G01*
G75*
G02X702842I-5331*
G01*
X667750Y379696D02*
G75*
G02X680774I6512D01*
G01*
G75*
G02X667750I-6512*
G01*
X676475Y366628D02*
G75*
G02X687137I5331D01*
G01*
G75*
G02X676475I-5331*
G01*
X653517Y358341D02*
G75*
G02X670084I8283D01*
G01*
G75*
G02X653517I-8283*
G01*
X662832Y286401D02*
G75*
G02X673493I5331D01*
G01*
G75*
G02X662832I-5331*
G01*
X636465Y350055D02*
G75*
G02X647126I5331D01*
G01*
G75*
G02X636465I-5331*
G01*
X634120Y329286D02*
G75*
G02X637185Y325405I-926J-3882D01*
G01*
G75*
G02X629204I-3991*
G01*
G75*
G02X629795Y327495I3991*
G01*
X617034Y358310*
X605098Y363252*
G75*
G02X593867Y367740I-4719J4487*
G01*
G75*
G02X606891I6512*
G01*
G75*
G02X606889Y367577I-6520J-2*
G01*
X619721Y362264*
G75*
G02X620989Y360994I-895J-2163*
G01*
X634120Y329286*
X654049Y270465D02*
G75*
G02X657114Y266583I-926J-3882D01*
G01*
G75*
G02X649133I-3991*
G01*
G75*
G02X649724Y268674I3991J0*
G01*
X638043Y296873*
X631461Y299598*
G75*
G02X620230Y304086I-4719J4487*
G01*
G75*
G02X633254I6512*
G01*
G75*
G02X633252Y303923I-6515J-2*
G01*
X640727Y300828*
G75*
G02X641996Y299560I-893J-2163*
G01*
X654049Y270465*
X628955Y291017D02*
G75*
G02X639617I5331D01*
G01*
G75*
G02X628955I-5331*
G01*
X602592Y354671D02*
G75*
G02X613254I5331D01*
G01*
G75*
G02X602592I-5331*
G01*
X579634Y346385D02*
G75*
G02X596201I8283D01*
G01*
G75*
G02X579634I-8283*
G01*
X588945Y274444D02*
G75*
G02X599606I5331D01*
G01*
G75*
G02X588945I-5331*
G01*
X559534Y260307D02*
G75*
G02X572558I6512D01*
G01*
G75*
G02X559534I-6512*
G01*
X568259Y247239D02*
G75*
G02X578920I5331D01*
G01*
G75*
G02X568259I-5331*
G01*
X562582Y338098D02*
G75*
G02X573243I5331D01*
G01*
G75*
G02X562582I-5331*
G01*
X533169Y323953D02*
G75*
G02X546192I6512D01*
G01*
G75*
G02X533169I-6512*
G01*
X541893Y310885D02*
G75*
G02X552555I5331D01*
G01*
G75*
G02X541893I-5331*
G01*
X528249Y230665D02*
G75*
G02X538910I5331D01*
G01*
G75*
G02X528249I-5331*
G01*
X501883Y294311D02*
G75*
G02X512544I5331D01*
G01*
G75*
G02X501883I-5331*
G01*
X505428Y200604D02*
G75*
G02X518452I6512D01*
G01*
G75*
G02X505428I-6512*
G01*
X514153Y187535D02*
G75*
G02X524814I5331D01*
G01*
G75*
G02X514153I-5331*
G01*
X479061Y264256D02*
G75*
G02X492084I6512D01*
G01*
G75*
G02X479061I-6512*
G01*
X487785Y251187D02*
G75*
G02X498447I5331D01*
G01*
G75*
G02X487785I-5331*
G01*
X464828Y242900D02*
G75*
G02X481394I8283D01*
G01*
G75*
G02X464828I-8283*
G01*
X474143Y170962D02*
G75*
G02X484804I5331D01*
G01*
G75*
G02X474143I-5331*
G01*
X447775Y234614D02*
G75*
G02X458437I5331D01*
G01*
G75*
G02X447775I-5331*
G01*
X437252Y182007D02*
G75*
G02X442343Y176917J-5091D01*
G01*
G75*
G02X437252Y171826I-5091*
G01*
X435252*
G75*
G02X430161Y176917J5091*
G01*
G75*
G02X435252Y182007I5091*
G01*
X437252*
Y151507D02*
G75*
G02X441843Y146917J-4591D01*
G01*
G75*
G02X437252Y142326I-4591*
G01*
X435252*
G75*
G02X430661Y146917J4591*
G01*
G75*
G02X435252Y151507I4591*
G01*
X437252*
Y161507D02*
G75*
G02X441843Y156917J-4591D01*
G01*
G75*
G02X437252Y152326I-4591*
G01*
X435252*
G75*
G02X430661Y156917J4591*
G01*
G75*
G02X435252Y161507I4591*
G01*
X437252*
Y171507D02*
G75*
G02X441843Y166917J-4591D01*
G01*
G75*
G02X437252Y162326I-4591*
G01*
X435252*
G75*
G02X430661Y166917J4591*
G01*
G75*
G02X435252Y171507I4591*
G01*
X437252*
Y191507D02*
G75*
G02X441843Y186917J-4591D01*
G01*
G75*
G02X437252Y182326I-4591*
G01*
X435252*
G75*
G02X430661Y186917J4591*
G01*
G75*
G02X435252Y191507I4591*
G01*
X437252*
X377252Y171507D02*
G75*
G02X381843Y166917J-4591D01*
G01*
G75*
G02X377252Y162326I-4591*
G01*
X375252*
G75*
G02X370661Y166917J4591*
G01*
G75*
G02X375252Y171507I4591*
G01*
X377252*
Y181507D02*
G75*
G02X381843Y176917J-4591D01*
G01*
G75*
G02X377252Y172326I-4591*
G01*
X375252*
G75*
G02X370661Y176917J4591*
G01*
G75*
G02X375252Y181507I4591*
G01*
X377252*
Y191507D02*
G75*
G02X381843Y186917J-4591D01*
G01*
G75*
G02X377252Y182326I-4591*
G01*
X375252*
G75*
G02X370661Y186917J4591*
G01*
G75*
G02X375252Y191507I4591*
G01*
X377252*
X355952Y249189D02*
G75*
G02X368975I6512D01*
G01*
G75*
G02X355952I-6512*
G01*
X353226Y234614D02*
G75*
G02X363887I5331D01*
G01*
G75*
G02X353226I-5331*
G01*
X330268Y242901D02*
G75*
G02X346835I8283D01*
G01*
G75*
G02X330268I-8283*
G01*
X313216Y251187D02*
G75*
G02X323877I5331D01*
G01*
G75*
G02X313216I-5331*
G01*
X301844Y308887D02*
G75*
G02X314867I6512D01*
G01*
G75*
G02X301844I-6512*
G01*
X299118Y294311D02*
G75*
G02X309780I5331D01*
G01*
G75*
G02X299118I-5331*
G01*
X276160Y302598D02*
G75*
G02X292727I8283D01*
G01*
G75*
G02X276160I-8283*
G01*
X300839Y258928D02*
G75*
G02X300840Y257135I-2161J-898D01*
G01*
X281274Y209896*
G75*
G02X280861Y208899I-2369J396*
G01*
X254906Y146245*
G75*
G02X254493Y145248I-2369J397*
G01*
X235969Y100524*
G75*
G02X239650Y101555I3519J-5480*
G01*
X269095Y172648*
G75*
G03X269096Y172649I-94J32*
G01*
X271453Y178343*
G75*
G02X271165Y181961I3399J2091*
G01*
G75*
G02X278539Y178906I3687J-1527*
G01*
G75*
G02X275778Y176552I-3687J1527*
G01*
X273421Y170858*
X273420Y170856*
X243975Y99764*
G75*
G02X245504Y92553I-4488J-4719*
G01*
G75*
G02X233125Y93659I-6016J2492*
G01*
X226527Y77730*
G75*
G02X225259Y76462I-2163J896*
G01*
X220124Y74335*
X219591Y73048*
X221173Y72393*
X216942Y62179*
X209456Y65280*
X213687Y75493*
X215267Y74839*
X216169Y77019*
G75*
G02X217437Y78289I2163J-893*
G01*
X222573Y80417*
X249479Y145375*
X246953Y146421*
G75*
G02X240759Y148987I-2268J3283*
G01*
X234304Y151661*
X233083Y148714*
X225592Y151817*
X229825Y162037*
X237316Y158933*
X236095Y155986*
X242786Y153215*
G75*
G02X248510Y150843I1899J-3510*
G01*
X251270Y149700*
X275847Y209026*
X260671Y215312*
X259449Y212362*
X257864Y213019*
X257610Y212405*
G75*
G02X256340Y211137I-2163J895*
G01*
X253772Y210073*
G75*
G02X251979Y210073I-897J2162*
G01*
X233513Y217722*
G75*
G02X232243Y218990I892J2164*
G01*
X218873Y251267*
X199964Y259097*
X198744Y256152*
X191258Y259253*
X195489Y269467*
X197069Y268812*
X198016Y271097*
G75*
G02X199284Y272364I2163J-895*
G01*
X201918Y273456*
X203406Y277049*
G75*
G02X189725Y285900I-6028J5681*
G01*
G75*
G02X205661Y282730I7653J-3170*
G01*
G75*
G02X205657Y282485I-8280J-2*
G01*
X206543Y284624*
X205450Y287261*
G75*
G02X205449Y289056I2161J899*
G01*
X209342Y298450*
G75*
G02X201457Y299800I-3076J5740*
G01*
X194183Y296787*
X186504Y278238*
X187970Y274692*
G75*
G02Y272779I-2307J-956*
G01*
X187903Y272616*
X189343Y272019*
X185107Y261794*
X177610Y264900*
X181845Y275125*
X182497Y274855*
X181493Y277282*
G75*
G02X181493Y279194I2308J956*
G01*
X189962Y299654*
G75*
G02X191316Y301007I2308J-956*
G01*
X199762Y304505*
G75*
G02X212500Y306072I6504J-315*
G01*
X219204Y322250*
X217618Y322906*
X221853Y333131*
X229351Y330026*
X225115Y319801*
X223528Y320458*
X210145Y288159*
X211238Y285522*
G75*
G02X211239Y283728I-2162J-898*
G01*
X205872Y270769*
G75*
G02X204604Y269502I-2162J896*
G01*
X201970Y268410*
X201394Y267020*
X202975Y266366*
X201756Y263422*
X221557Y255222*
G75*
G02X222826Y253954I-893J-2163*
G01*
X236196Y221677*
X252875Y214769*
X253257Y214926*
X251951Y215467*
X256187Y225693*
X263684Y222587*
X262462Y219637*
X277639Y213351*
X296144Y258030*
X287563Y278743*
X287033Y278963*
X285812Y276016*
X278320Y279119*
X282554Y289339*
X290045Y286236*
X288824Y283288*
X290251Y282697*
G75*
G02X291518Y281429I-896J-2162*
G01*
X300839Y258928*
X286845Y187532D02*
G75*
G02X297507I5331D01*
G01*
G75*
G02X286845I-5331*
G01*
X250934Y53260D02*
G75*
G02X261596I5331D01*
G01*
G75*
G02X250934I-5331*
G01*
X230250Y80470D02*
G75*
G02X240911I5331D01*
G01*
G75*
G02X230250I-5331*
G01*
X234092Y196756D02*
G75*
G02X247116I6512D01*
G01*
G75*
G02X235886Y192268I-6512*
G01*
X228249Y189103*
X221230Y172162*
X222725Y168560*
G75*
G02Y166765I-2162J-897*
G01*
X222092Y165236*
X223672Y164581*
X219441Y154368*
X211956Y157469*
X216186Y167682*
X217767Y167028*
X218030Y167662*
X216534Y171264*
G75*
G02Y173058I2163J897*
G01*
X224294Y191789*
G75*
G02X225561Y193057I2163J-894*
G01*
X234094Y196592*
G75*
G02X234092Y196756I6511J160*
G01*
X246389Y167009D02*
G75*
G02X257051I5331D01*
G01*
G75*
G02X246389I-5331*
G01*
X223431Y175296D02*
G75*
G02X239998I8283D01*
G01*
G75*
G02X223431I-8283*
G01*
X217953Y110217D02*
G75*
G02X230976I6512D01*
G01*
G75*
G02X219746Y105729I-6512*
G01*
X210824Y102034*
X204185Y86002*
X206208Y81109*
G75*
G02X206206Y79316I-2163J-894*
G01*
X205953Y78704*
X207541Y78046*
X203306Y67821*
X195808Y70926*
X200043Y81152*
X201349Y80611*
X199489Y85109*
G75*
G02X199490Y86900I2163J894*
G01*
X206870Y104721*
G75*
G02X208138Y105989I2163J-896*
G01*
X217955Y110054*
G75*
G02X217953Y110217I6504J160*
G01*
X207292Y88757D02*
G75*
G02X223859I8283D01*
G01*
G75*
G02X207292I-8283*
G01*
X249115Y181584D02*
G75*
G02X262139I6512D01*
G01*
G75*
G02X249115I-6512*
G01*
X206379Y183582D02*
G75*
G02X217041I5331D01*
G01*
G75*
G02X206379I-5331*
G01*
X188412Y225370D02*
G75*
G02X201436I6512D01*
G01*
G75*
G02X188412I-6512*
G01*
X212052Y274443D02*
G75*
G02X222713I5331D01*
G01*
G75*
G02X212052I-5331*
G01*
X214778Y289019D02*
G75*
G02X227801I6512D01*
G01*
G75*
G02X214778I-6512*
G01*
X241153Y352991D02*
G75*
G02X254169Y352675I6504J-316D01*
G01*
G75*
G02X242847Y348285I-6512*
G01*
X242769Y348253*
X240217Y342091*
G75*
G02X248675Y336060I3534J-3991*
G01*
G75*
G02X238430Y337777I-4925J2040*
G01*
X226463Y308891*
G75*
G02X226650Y305445I-3499J-1919*
G01*
G75*
G02X219277Y308499I-3687J1527*
G01*
G75*
G02X221847Y310803I3687J-1527*
G01*
X238550Y351121*
G75*
G02X239903Y352473I2308J-956*
G01*
X241153Y352991*
X232743Y247234D02*
G75*
G02X243404I5331D01*
G01*
G75*
G02X232743I-5331*
G01*
X260456Y260408D02*
G75*
G02X273480I6512D01*
G01*
G75*
G02X262250Y255920I-6512*
G01*
X253325Y252223*
X246497Y235740*
X248522Y230848*
G75*
G02X248700Y229953I-2162J-895*
G01*
G75*
G02X248522Y229057I-2341*
G01*
X248454Y228893*
X250040Y228235*
X245807Y218016*
X238315Y221119*
X242548Y231339*
X243398Y230986*
X241802Y234846*
G75*
G02X241803Y236638I2163J895*
G01*
X249370Y254907*
G75*
G02X250638Y256176I2163J-893*
G01*
X260458Y260244*
G75*
G02X260456Y260408I6513J160*
G01*
X272753Y230661D02*
G75*
G02X283415I5331D01*
G01*
G75*
G02X272753I-5331*
G01*
X249795Y238948D02*
G75*
G02X266362I8283D01*
G01*
G75*
G02X249795I-8283*
G01*
X315554Y240083D02*
G75*
G02X318538Y236222I-1006J-3861D01*
G01*
G75*
G02X310557I-3991*
G01*
G75*
G02X311193Y238383I3991*
G01*
X292173Y287156*
G75*
G02X289189Y291018I1006J3861*
G01*
G75*
G02X297170I3991*
G01*
G75*
G02X296534Y288857I-3991*
G01*
X315554Y240083*
X275479Y245236D02*
G75*
G02X288502I6512D01*
G01*
G75*
G02X275479I-6512*
G01*
X259108Y310885D02*
G75*
G02X269769I5331D01*
G01*
G75*
G02X259108I-5331*
G01*
X215462Y346387D02*
G75*
G02X232029I8283D01*
G01*
G75*
G02X215462I-8283*
G01*
X198409Y354673D02*
G75*
G02X209071I5331D01*
G01*
G75*
G02X198409I-5331*
G01*
X167264Y364635D02*
G75*
G02X180288I6512D01*
G01*
G75*
G02X167264I-6512*
G01*
X164539Y350059D02*
G75*
G02X175200I5331D01*
G01*
G75*
G02X164539I-5331*
G01*
X172042Y291017D02*
G75*
G02X182703I5331D01*
G01*
G75*
G02X172042I-5331*
G01*
X141581Y358346D02*
G75*
G02X158148I8283D01*
G01*
G75*
G02X141581I-8283*
G01*
X124528Y366633D02*
G75*
G02X135190I5331D01*
G01*
G75*
G02X124528I-5331*
G01*
X125873Y316152D02*
G75*
G02X138897I6512D01*
G01*
G75*
G02X127667Y311663I-6512*
G01*
X119390Y308233*
X112370Y291295*
X113866Y287694*
G75*
G02X113865Y285897I-2161J-898*
G01*
X113419Y284820*
X115453Y283977*
X111222Y273764*
X103737Y276865*
X107967Y287078*
X109094Y286611*
X109170Y286795*
X107675Y290394*
G75*
G02X107674Y292190I2161J899*
G01*
X115435Y310918*
G75*
G02X116702Y312187I2163J-894*
G01*
X125875Y315988*
G75*
G02X125873Y316152I6506J160*
G01*
X86789Y360682D02*
G75*
G02X99812I6512D01*
G01*
G75*
G02X86789I-6512*
G01*
X98160Y302978D02*
G75*
G02X108822I5331D01*
G01*
G75*
G02X98160I-5331*
G01*
X84063Y346107D02*
G75*
G02X94724I5331D01*
G01*
G75*
G02X84063I-5331*
G01*
X61105Y354393D02*
G75*
G02X77672I8283D01*
G01*
G75*
G02X61105I-8283*
G01*
X17687Y299023D02*
G75*
G02X28348I5331D01*
G01*
G75*
G02X17687I-5331*
G01*
X45428Y312804D02*
G75*
G02X58423Y312196I6483J-607D01*
G01*
G75*
G02X46716Y308270I-6512*
G01*
X39934Y305459*
X31975Y286243*
X33469Y282641*
G75*
G02X33471Y280845I-2161J-900*
G01*
X33402Y280679*
X34983Y280024*
X30750Y269804*
X23259Y272907*
X27492Y283127*
X28347Y282773*
X27280Y285345*
G75*
G02Y287139I2162J897*
G01*
X35978Y308143*
G75*
G02X37246Y309413I2164J-892*
G01*
X45428Y312804*
X44053Y362680D02*
G75*
G02X54714I5331D01*
G01*
G75*
G02X44053I-5331*
G01*
X99509Y252500D02*
G75*
G02X112532I6512D01*
G01*
G75*
G02X101302Y248013I-6512*
G01*
X93670Y244851*
X91969Y240741*
G75*
G02X91967Y240739I-2820J1409*
G01*
X86273Y226998*
X87765Y223394*
G75*
G02X87765Y221602I-2163J-896*
G01*
X87510Y220987*
X89097Y220330*
X84861Y210104*
X77364Y213210*
X81599Y223435*
X82906Y222894*
X81578Y226100*
G75*
G02X81577Y227894I2161J898*
G01*
X87643Y242531*
G75*
G03X87643Y242532I-201J101*
G01*
X89716Y247537*
G75*
G02X90983Y248804I2163J-896*
G01*
X99511Y252337*
G75*
G02X99509Y252500I6518J160*
G01*
X71796Y239327D02*
G75*
G02X82457I5331D01*
G01*
G75*
G02X71796I-5331*
G01*
X57697Y282450D02*
G75*
G02X68358I5331D01*
G01*
G75*
G02X57697I-5331*
G01*
X60422Y297025D02*
G75*
G02X73446I6512D01*
G01*
G75*
G02X60422I-6512*
G01*
X138170Y286405D02*
G75*
G02X148832I5331D01*
G01*
G75*
G02X138170I-5331*
G01*
X145676Y227369D02*
G75*
G02X156338I5331D01*
G01*
G75*
G02X145676I-5331*
G01*
X140896Y300980D02*
G75*
G02X153920I6512D01*
G01*
G75*
G02X140896I-6512*
G01*
X111806Y222754D02*
G75*
G02X122467I5331D01*
G01*
G75*
G02X111806I-5331*
G01*
X114531Y237329D02*
G75*
G02X127555I6512D01*
G01*
G75*
G02X114531I-6512*
G01*
X185687Y210795D02*
G75*
G02X196348I5331D01*
G01*
G75*
G02X185687I-5331*
G01*
X162729Y219082D02*
G75*
G02X179296I8283D01*
G01*
G75*
G02X162729I-8283*
G01*
X190240Y97043D02*
G75*
G02X200901I5331D01*
G01*
G75*
G02X190240I-5331*
G01*
X602035Y110114D02*
G75*
G02X615058I6512D01*
G01*
G75*
G02X602035I-6512*
G01*
X610759Y97046D02*
G75*
G02X621421I5331D01*
G01*
G75*
G02X610759I-5331*
G01*
X537276Y31715D02*
X541509Y21495D01*
X534017Y18392*
X529784Y28612*
X531094Y29154*
X527676Y30571*
G75*
G02X526406Y31839I893J2163*
G01*
X518389Y51187*
G75*
G02X518390Y52982I2162J896*
G01*
X522008Y61716*
G75*
G02X519985Y66434I4488J4718*
G01*
G75*
G02X533008I6512*
G01*
G75*
G02X526333Y59924I-6512*
G01*
X523085Y52083*
X530360Y34526*
X534167Y32948*
G75*
G02X535436Y31680I-894J-2164*
G01*
X535693Y31059*
X537276Y31715*
X527102Y44974D02*
G75*
G02X543669I8283D01*
G01*
G75*
G02X527102I-8283*
G01*
X510050Y36687D02*
G75*
G02X520711I5331D01*
G01*
G75*
G02X510050I-5331*
G01*
X377252Y131507D02*
G75*
G02X381843Y126917J-4591D01*
G01*
G75*
G02X377252Y122326I-4591*
G01*
X375252*
G75*
G02X370661Y126917J4591*
G01*
G75*
G02X375252Y131507I4591*
G01*
X377252*
Y141507D02*
G75*
G02X381843Y136917J-4591D01*
G01*
G75*
G02X377252Y132326I-4591*
G01*
X375252*
G75*
G02X370661Y136917J4591*
G01*
G75*
G02X375252Y141507I4591*
G01*
X377252*
X290944Y36687D02*
G75*
G02X301606I5331D01*
G01*
G75*
G02X290944I-5331*
G01*
X267987Y44974D02*
G75*
G02X284554I8283D01*
G01*
G75*
G02X267987I-8283*
G01*
X303898Y179245D02*
G75*
G02X320465I8283D01*
G01*
G75*
G02X303898I-8283*
G01*
X329581Y185534D02*
G75*
G02X342605I6512D01*
G01*
G75*
G02X329581I-6512*
G01*
X326856Y170959D02*
G75*
G02X337517I5331D01*
G01*
G75*
G02X326856I-5331*
G01*
X501369Y165989D02*
X505602Y155770D01*
X498110Y152667*
X493877Y162886*
X495460Y163542*
X495256Y164034*
X490806Y165877*
G75*
G02X489538Y167145I895J2163*
G01*
X482004Y185327*
G75*
G02X482002Y187122I2161J900*
G01*
X485800Y196296*
G75*
G02X484078Y200709I4789J4413*
G01*
G75*
G02X497101I6512*
G01*
G75*
G02X490008Y194223I-6512*
G01*
X486698Y186227*
X493492Y169831*
X497940Y167990*
G75*
G02X499210Y166722I-892J-2164*
G01*
X499785Y165333*
X501369Y165989*
X597977Y75504D02*
X602213Y65279D01*
X594715Y62173*
X590480Y72398*
X592066Y73056*
X591991Y73235*
X588187Y74811*
G75*
G02X586918Y76078I893J2163*
G01*
X579089Y94973*
G75*
G02X579090Y96767I2162J896*
G01*
X582708Y105501*
G75*
G02X580684Y110219I4488J4718*
G01*
G75*
G02X593708I6512*
G01*
G75*
G02X587033Y103709I-6512*
G01*
X583785Y95869*
X590871Y78766*
X594676Y77190*
G75*
G02X595944Y75922I-894J-2163*
G01*
X596391Y74847*
X597977Y75504*
X570749Y80472D02*
G75*
G02X581411I5331D01*
G01*
G75*
G02X570749I-5331*
G01*
X550060Y53261D02*
G75*
G02X560721I5331D01*
G01*
G75*
G02X550060I-5331*
G01*
X554611Y167009D02*
G75*
G02X565272I5331D01*
G01*
G75*
G02X554611I-5331*
G01*
X689194Y222753D02*
G75*
G02X699856I5331D01*
G01*
G75*
G02X689194I-5331*
G01*
X716419Y217776D02*
X720650Y207563D01*
X713164Y204462*
X708933Y214675*
X710511Y215329*
X710246Y215968*
X705799Y217811*
G75*
G02X704530Y219079I894J2164*
G01*
X697269Y236613*
G75*
G02X697271Y238408I2163J895*
G01*
X701154Y247781*
G75*
G02X699130Y252500I4488J4719*
G01*
G75*
G02X712153I6512*
G01*
G75*
G02X705478Y245990I-6512*
G01*
X701965Y237509*
X708484Y221765*
X712933Y219922*
G75*
G02X714200Y218654I-896J-2162*
G01*
X714836Y217120*
X716419Y217776*
X646600Y240433D02*
G75*
G02X659623I6512D01*
G01*
G75*
G02X646600I-6512*
G01*
X655324Y227364D02*
G75*
G02X665986I5331D01*
G01*
G75*
G02X655324I-5331*
G01*
X615314Y210791D02*
G75*
G02X625976I5331D01*
G01*
G75*
G02X615314I-5331*
G01*
X545301Y238952D02*
G75*
G02X561868I8283D01*
G01*
G75*
G02X545301I-8283*
G01*
X605997Y282731D02*
G75*
G02X622564I8283D01*
G01*
G75*
G02X605997I-8283*
G01*
X679884Y294688D02*
G75*
G02X696451I8283D01*
G01*
G75*
G02X679884I-8283*
G01*
X743303Y282453D02*
G75*
G02X753964I5331D01*
G01*
G75*
G02X743303I-5331*
G01*
X292013Y8161D02*
G36*
G75*
G03X292972Y9396I-1773J2367D01*
G01*
Y9396*
X304277Y36687*
X301606*
Y36687*
G75*
G02X290944I-5331*
G01*
Y36687*
X287311*
X285885Y33244*
G75*
G02X284617Y31974I-2164J893*
G01*
X280749Y30374*
X280291Y29269*
X281876Y28613*
X277640Y18388*
X270143Y21493*
X274378Y31719*
X275966Y31061*
X276795Y33060*
G75*
G02X278063Y34330I2162J-892*
G01*
X281930Y35929*
X282244Y36687*
X267267*
G75*
G02X267097Y35988I-2333J198*
G01*
X266652Y34916*
X268231Y34261*
X263998Y24042*
X256507Y27145*
X260459Y36687*
X241114*
X239437Y32640*
X239436Y32637*
G75*
G03X239137Y31131I3644J-1507*
G01*
G75*
G03X241572Y27488I3943*
G01*
G75*
G02X241575Y27487I-3J-14*
G01*
X288227Y8161*
X292013*
G37*
X570550Y36687D02*
G36*
X551200D01*
X555153Y27144*
X547656Y24038*
X543420Y34263*
X545007Y34921*
X544276Y36687*
X529464*
X530360Y34526*
X534167Y32948*
G75*
G02X535436Y31680I-892J-2162*
G01*
X535693Y31059*
X537276Y31715*
X541509Y21495*
X534017Y18392*
X529784Y28612*
X531094Y29154*
X527676Y30571*
G75*
G02X526406Y31839I891J2161*
G01*
X524397Y36687*
X520711*
G75*
G02X510050I-5331*
G01*
X507008*
X517536Y11270*
G75*
G02X517571Y11180I-1735J-726*
G01*
G75*
G02X517643Y10939I-2099J-759*
G01*
G75*
G03X519776Y8161I4160J987*
G01*
X523885*
X570359Y27410*
G75*
G02X570361Y27411J0*
G01*
G75*
G03X572660Y30852I-1426J3441*
G01*
G75*
G03X572376Y32278I-3725J0*
G01*
X572375Y32281*
X570550Y36687*
G37*
X260957Y44974D02*
G36*
X241611D01*
G75*
G02X242577Y41534I-5646J-3440*
G01*
G75*
G02X242076Y39009I-6611*
G01*
G75*
G02X242074Y39005I-27J10*
G01*
X241114Y36687*
X260459*
X260740Y37365*
X262327Y36707*
X262402Y36886*
X260377Y41778*
G75*
G02X260198Y42675I2163J897*
G01*
G75*
G02X260376Y43570I2343*
G01*
X260957Y44974*
G37*
X285676D02*
G36*
X284554D01*
Y44974*
G75*
G02X267987I-8283*
G01*
Y44974*
X266024*
X265072Y42674*
X267097Y37781*
G75*
G02X267276Y36885I-2164J-896*
G01*
G75*
G02X267267Y36687I-2341J-1*
G01*
X282244*
X285676Y44974*
G37*
X304277Y36687D02*
G36*
X307709Y44974D01*
X301874*
G75*
G02X298490I-1692J6288*
G01*
X290744*
X287311Y36687*
X290944*
G75*
G02X301606I5331J0*
G01*
X304277*
G37*
X524397D02*
G36*
X520963Y44974D01*
X503576*
X507008Y36687*
X510050*
G75*
G02X520711I5331*
G01*
X524397*
G37*
X565446Y44974D02*
G36*
X553619Y40074D01*
G75*
G02X551824Y40076I-896J2160*
G01*
X550128Y40780*
X548888Y37784*
X549332Y36712*
X550918Y37369*
X551200Y36687*
X570550*
X570305Y37278*
X570305Y37278*
G75*
G02X569689Y40374I7470J3096*
G01*
G75*
G02X571125Y44974I8087*
G01*
X565446*
G37*
X545859D02*
G36*
X543669D01*
G75*
G02X527102I-8283*
G01*
X526030*
X529464Y36687*
X544276*
X544193Y36888*
G75*
G02X544015Y37783I2163J895*
G01*
G75*
G02X544194Y38682I2342*
G01*
X546328Y43840*
X545859Y44974*
G37*
X553216D02*
G36*
X552234D01*
X552724Y44770*
X553216Y44974*
G37*
X264389Y53260D02*
G36*
X261596D01*
G75*
G02X250934I-5331*
G01*
X224931*
X238494Y47643*
X238495Y47642*
G75*
G02X241611Y44974I-2529J-6108*
G01*
X260957*
X264389Y53260*
G37*
X285676Y44974D02*
G36*
X286260Y46382D01*
X284737Y50060*
G75*
G02X284559Y50956I2163J895*
G01*
G75*
G02X284737Y51853I2341*
G01*
X285320Y53260*
X269456*
X266024Y44974*
X267987*
G75*
G02X284554I8283J0*
G01*
X285676*
G37*
X293984Y53260D02*
G36*
X290387D01*
X289433Y50956*
X290956Y47278*
G75*
G02X291134Y46382I-2165J-896*
G01*
G75*
G02X290955Y45484I-2343*
G01*
X290744Y44974*
X298490*
G75*
G02X293670Y51262I1692J6288*
G01*
G75*
G02X293984Y53260I6512J0*
G01*
G37*
X307709Y44974D02*
G36*
X311142Y53260D01*
X306380*
G75*
G02X306694Y51262I-6198J-1998*
G01*
G75*
G02X306198Y48770I-6512J0*
G01*
G75*
G02X301874Y44974I-6016J2492*
G01*
X307709*
G37*
X520963D02*
G36*
X518389Y51187D01*
G75*
G02X518211Y52083I2162J896*
G01*
G75*
G02X518390Y52982I2340*
G01*
X518506Y53260*
X500144*
X503576Y44974*
X520963*
G37*
X545859D02*
G36*
X542936Y52029D01*
X539964Y53260*
X523572*
X523085Y52083*
X526030Y44974*
X527102*
G75*
G02X543669I8283*
G01*
X545859*
G37*
X573217Y53260D02*
G36*
X560721D01*
G75*
G02X550060I-5331J0*
G01*
X547493*
X550653Y45630*
X552234Y44974*
X553216*
X573217Y53260*
G37*
X587756D02*
G36*
X585448D01*
X565446Y44974*
X571125*
G75*
G02X574680Y47844I6650J-4600*
G01*
G75*
G02X574682Y47845I4J-4*
G01*
X587756Y53260*
G37*
X300377Y80470D02*
G36*
X240911D01*
G75*
G02X230250I-5331*
G01*
X227662*
X226527Y77730*
G75*
G02X225259Y76462I-2163J896*
G01*
X220124Y74335*
X219591Y73048*
X221173Y72393*
X216942Y62179*
X209456Y65280*
X213687Y75493*
X215267Y74839*
X216169Y77019*
G75*
G02X217437Y78289I2165J-894*
G01*
X222573Y80417*
X222595Y80470*
X206372*
G75*
G02X206386Y80215I-2324J-254*
G01*
G75*
G02X206206Y79316I-2339*
G01*
X205953Y78704*
X207541Y78046*
X203306Y67821*
X195808Y70926*
X199761Y80470*
X180412*
X178739Y76430*
G75*
G02X178737Y76427I-8J1*
G01*
G75*
G03X178454Y75001I3441J-1426*
G01*
G75*
G03X180753Y71560I3725*
G01*
G75*
G02X180754Y71560J0*
G01*
X224931Y53260*
X250934*
G75*
G02X261596I5331*
G01*
X264389*
X267568Y60935*
G75*
G02X268835Y62202I2163J-895*
G01*
X278649Y66270*
G75*
G02X278647Y66420I5690J150*
G01*
G75*
G02Y66434I5639J7*
G01*
G75*
G02X291671I6512*
G01*
G75*
G02X289619Y61689I-6513J1*
G01*
X293215Y63178*
X300377Y80470*
G37*
X285320Y53260D02*
G36*
X288274Y60390D01*
G75*
G02X288542Y60870I2150J-888*
G01*
G75*
G02X280441Y61945I-3383J5565*
G01*
X271522Y58249*
X269456Y53260*
X285320*
G37*
X309576Y80470D02*
G36*
X305444D01*
X297169Y60491*
G75*
G02X295899Y59223I-2161J894*
G01*
X292227Y57703*
X290387Y53260*
X293984*
G75*
G02X294166Y53754I6198J-1996*
G01*
G75*
G02X300175Y57774I6016J-2492*
G01*
X309576Y80470*
G37*
X311142Y53260D02*
G36*
X314444Y61233D01*
G75*
G02X315621Y62412I2017J-836*
G01*
G75*
G02X401848Y80470I90432J-216914*
G01*
X314984*
X304791Y55862*
G75*
G02X306380Y53260I-4609J-4600*
G01*
X311142*
G37*
X539964D02*
G36*
X539751Y53348D01*
G75*
G02X538483Y54618I896J2162*
G01*
X533654Y66275*
G75*
G02X533475Y67174I2163J899*
G01*
G75*
G02X533653Y68070I2343*
G01*
X534972Y71255*
X531155Y80470*
X410259*
G75*
G02X495487Y62826I-4207J-234977*
G01*
G75*
G02X496679Y61625I-830J-2016*
G01*
X500144Y53260*
X518506*
X522008Y61716*
G75*
G02X519985Y66434I4487J4718*
G01*
Y66434*
G75*
G02X533008I6512*
G01*
G75*
G02X526333Y59924I-6512J0*
G01*
X523572Y53260*
X539964*
G37*
X605394Y80470D02*
G36*
X590165D01*
X590871Y78766*
X594676Y77190*
G75*
G02X595944Y75922I-894J-2163*
G01*
X596391Y74847*
X597977Y75504*
X602213Y65279*
X594715Y62173*
X590480Y72398*
X592066Y73056*
X591991Y73235*
X588187Y74811*
G75*
G02X586918Y76078I893J2163*
G01*
X585098Y80470*
X581411*
G75*
G02X570749I-5331J2*
G01*
X556409*
X552456Y70929*
G75*
G02X554359Y66329I-4612J-4600*
G01*
G75*
G02X541335I-6512*
G01*
G75*
G02X547841Y72841I6512*
G01*
X551001Y80470*
X536222*
X539666Y72155*
G75*
G02X539846Y71255I-2161J-900*
G01*
G75*
G02X539668Y70359I-2341*
G01*
X538349Y67174*
X542438Y57302*
X545623Y55982*
G75*
G02X546890Y54715I-896J-2163*
G01*
X547493Y53260*
X550060*
Y53261*
G75*
G02X560721I5331*
G01*
Y53260*
X573217*
X609124Y68135*
X609130Y68151*
X608359Y67831*
X604128Y78045*
X605709Y78700*
X605531Y79129*
G75*
G02X605352Y80028I2163J898*
G01*
G75*
G02X605394Y80470I2342J0*
G01*
G37*
X611894D02*
G36*
X615844Y70932D01*
X614264Y70278*
X614299Y70192*
G75*
G02X614478Y69294I-2161J-898*
G01*
G75*
G02X614300Y68398I-2340*
G01*
X613078Y65450*
G75*
G02X611811Y64182I-2164J896*
G01*
X585448Y53260*
X587756*
X631058Y71196*
X631059Y71197*
G75*
G03X633662Y75093I-1615J3896*
G01*
G75*
G03X633341Y76705I-4218J0*
G01*
X633341Y76707*
X631782Y80470*
X611894*
G37*
X183844Y88757D02*
G36*
X180412Y80470D01*
X199761*
X200043Y81152*
X201349Y80611*
X199489Y85109*
G75*
G02X199311Y86003I2163J894*
G01*
G75*
G02X199490Y86900I2341*
G01*
X200259Y88757*
X183844*
G37*
X303810D02*
G36*
X241177D01*
G75*
G02X237798I-1690J6289*
G01*
X231094*
X227662Y80470*
X230250*
G75*
G02X240911I5331*
G01*
X300377*
X303810Y88757*
G37*
X226028D02*
G36*
X223859D01*
G75*
G02X207292I-8283*
G01*
X205326*
X204185Y86002*
X206208Y81109*
G75*
G02X206372Y80470I-2161J-894*
G01*
X222595*
X226028Y88757*
G37*
X313009D02*
G36*
X308876D01*
X305444Y80470*
X309576*
X313009Y88757*
G37*
X531155Y80470D02*
G36*
X527723Y88757D01*
X318417*
X314984Y80470*
X401848*
G75*
G02X410259I4206J-235067*
G01*
X531155*
G37*
X554434Y88757D02*
G36*
X532789D01*
X536222Y80470*
X551001*
X554434Y88757*
G37*
X585098Y80470D02*
G36*
X581665Y88757D01*
X559842*
X556409Y80470*
X570749*
G75*
G02Y80472I5414J1*
G01*
G75*
G02X581411I5331*
G01*
G75*
G02Y80470I-5414J-1*
G01*
X585098*
G37*
X628350Y88757D02*
G36*
X609813D01*
X611456Y84790*
G75*
G02X611635Y83893I-2163J-897*
G01*
G75*
G02X611457Y82996I-2341*
G01*
X610498Y80683*
X611614Y81146*
X611894Y80470*
X631782*
X628350Y88757*
G37*
X605394Y80470D02*
G36*
G75*
G02X605530Y80924I2300J-443D01*
G01*
X606761Y83893*
X604746Y88757*
X604369*
G75*
G02X587802I-8283J2*
G01*
X586731*
X590165Y80470*
X605394*
G37*
X229460Y97043D02*
G36*
X208757D01*
X205326Y88757*
X207292*
G75*
G02X223859I8283*
G01*
X226028*
X229460Y97043*
G37*
X203690D02*
G36*
X200901D01*
G75*
G02X190240I-5331*
G01*
X187277*
X183844Y88757*
X200259*
X203690Y97043*
G37*
X237798Y88757D02*
G36*
G75*
G02X233125Y93659I1690J6289D01*
G01*
X231094Y88757*
X237798*
G37*
X307242Y97043D02*
G36*
X245685D01*
G75*
G02X246000Y95045I-6198J-1998*
G01*
G75*
G02X245504Y92553I-6511J1*
G01*
G75*
G02X241177Y88757I-6016J2493*
G01*
X303810*
X307242Y97043*
G37*
X316441D02*
G36*
X312309D01*
X308876Y88757*
X313009*
X316441Y97043*
G37*
X527723Y88757D02*
G36*
X524291Y97043D01*
X321849*
X318417Y88757*
X527723*
G37*
X557867Y97043D02*
G36*
X529357D01*
X532789Y88757*
X554434*
X557867Y97043*
G37*
X581665Y88757D02*
G36*
X579089Y94973D01*
G75*
G02X578911Y95869I2162J896*
G01*
G75*
G02X579090Y96767I2341*
G01*
X579204Y97043*
X563275*
X559842Y88757*
X581665*
G37*
X601314Y97043D02*
G36*
X584271D01*
X583785Y95869*
X586731Y88757*
X587802*
G75*
G02Y88759I8459J1*
G01*
G75*
G02X602656Y93802I8283*
G01*
X601314Y97043*
G37*
X604746Y88757D02*
G36*
X604298Y89840D01*
G75*
G02X604369Y88760I-8200J-1080*
G01*
G75*
G02Y88759I-11279J0*
G01*
G75*
G02Y88757I-8459J-1*
G01*
X604746*
G37*
X624918Y97043D02*
G36*
X621421D01*
G75*
G02X610759I-5331J2*
G01*
X606380*
X609813Y88757*
X628350*
X624918Y97043*
G37*
X234874Y110114D02*
G36*
X230976D01*
G75*
G02X219746Y105729I-6511J103*
G01*
X210824Y102034*
X208757Y97043*
X229460*
X234874Y110114*
G37*
X217954D02*
G36*
X192692D01*
X187277Y97043*
X190240*
G75*
G02X200901I5331*
G01*
X203690*
X206870Y104721*
G75*
G02X208138Y105989I2163J-896*
G01*
X217955Y110054*
G75*
G02X217954Y110114I5574J140*
G01*
G37*
X243195D02*
G36*
X239941D01*
X235969Y100524*
G75*
G02X239650Y101555I3519J-5477*
G01*
X243195Y110114*
G37*
X312656D02*
G36*
X248262D01*
X243975Y99764*
G75*
G02X245685Y97043I-4487J-4719*
G01*
X307242*
X312656Y110114*
G37*
X321856D02*
G36*
X317722D01*
X312309Y97043*
X316441*
X321856Y110114*
G37*
X524291Y97043D02*
G36*
X518876Y110114D01*
X327263*
X321849Y97043*
X524291*
G37*
X563282Y110114D02*
G36*
X523943D01*
X529357Y97043*
X557867*
X563282Y110114*
G37*
X580685D02*
G36*
X568690D01*
X563275Y97043*
X579204*
X582708Y105501*
G75*
G02X580685Y110114I4487J4718*
G01*
G37*
X601314Y97043D02*
G36*
X595899Y110114D01*
X593707*
G75*
G02X587033Y103709I-6511J106*
G01*
X584271Y97043*
X601314*
G37*
X619504Y110114D02*
G36*
X615058D01*
G75*
G02X602035I-6512*
G01*
X600966*
X606380Y97043*
X610759*
G75*
G02Y97046I5414J1*
G01*
G75*
G02X621421I5331*
G01*
G75*
G02Y97043I-5414J-1*
G01*
X624918*
X619504Y110114*
G37*
X241833Y126917D02*
G36*
X199652D01*
X192692Y110114*
X217954*
G75*
G02X217953Y110203I5577J94*
G01*
G75*
G02Y110217I5599J7*
G01*
G75*
G02X230976I6512*
G01*
G75*
G02X230976Y110114I-6513J-2*
G01*
X234874*
X241833Y126917*
G37*
X250154D02*
G36*
X246900D01*
X239941Y110114*
X243195*
X250154Y126917*
G37*
X319616D02*
G36*
X255221D01*
X248262Y110114*
X312656*
X319616Y126917*
G37*
X518876Y110114D02*
G36*
X513397Y123342D01*
X504768Y126917*
X441843*
G75*
G02X437252Y122326I-4591*
G01*
X435252*
G75*
G02X431307Y124568J4591*
G01*
X400197*
G75*
G02X398429Y125302I0J2497*
G01*
X396814Y126917*
X381843*
G75*
G02X377252Y122326I-4591*
G01*
X375252*
G75*
G02X370661Y126917J4591*
G01*
X334223*
X327263Y110114*
X518876*
G37*
X328815Y126917D02*
G36*
X324682D01*
X317722Y110114*
X321856*
X328815Y126917*
G37*
X578793D02*
G36*
X516705D01*
G75*
G02X517352Y126026I-1516J-1783*
G01*
X523943Y110114*
X563282*
X568075Y121685*
G75*
G02X569430Y123038I2310J-958*
G01*
X578793Y126917*
G37*
X591063D02*
G36*
X589695D01*
X589645Y126797*
G75*
G02X588293Y125444I-2308J954*
G01*
X572295Y118817*
X568690Y110114*
X580685*
G75*
G02X580684Y110219I6515J101*
G01*
Y110219*
G75*
G02X593708I6512*
G01*
G75*
G02X593707Y110114I-6519J-4*
G01*
X595899*
X590373Y123456*
G75*
G02X590194Y124354I2159J898*
G01*
G75*
G02X590372Y125249I2338*
G01*
X591063Y126917*
G37*
X612544D02*
G36*
X596130D01*
X595068Y124354*
X600966Y110114*
X602035*
G75*
G02X615058I6512*
G01*
X619504*
X612544Y126917*
G37*
X245975Y136917D02*
G36*
X203794D01*
X199652Y126917*
X241833*
X245975Y136917*
G37*
X323758D02*
G36*
X259363D01*
X255221Y126917*
X319616*
X323758Y136917*
G37*
X254296D02*
G36*
X251042D01*
X246900Y126917*
X250154*
X254296Y136917*
G37*
X404151D02*
G36*
X393880D01*
X401231Y129564*
X421639*
G75*
G02X420813Y131996I3164J2431*
G01*
G75*
G02X421632Y134419I3991*
G01*
X407660*
G75*
G02X405880Y135165I0J2498*
G01*
X404151Y136917*
G37*
X338507D02*
G36*
X328829D01*
X327874Y134610*
X327873Y134608*
G75*
G02X327815Y134479I-2629J1109*
G01*
X324682Y126917*
X328815*
X331413Y133188*
G75*
G02X332766Y134541I2310J-957*
G01*
X338507Y136917*
G37*
X396814Y126917D02*
G36*
X386814Y136917D01*
X381843*
G75*
G02X377252Y132326I-4591*
G01*
X375252*
G75*
G02X370661Y136917J4591*
G01*
X351572*
X335633Y130320*
X334223Y126917*
X370661*
G75*
G02X375252Y131507I4591*
G01*
X377252*
G75*
G02X381843Y126917J-4591*
G01*
X396814*
G37*
X504768D02*
G36*
X498156Y129655D01*
X440936*
G75*
G02X441843Y126917I-3684J-2739*
G01*
X504768*
G37*
X588430Y136917D02*
G36*
X504537D01*
X498969Y134609*
G75*
G02X498011Y134419I-954J2300*
G01*
X441103*
G75*
G02X441049Y134336I-2348J1491*
G01*
X498620*
G75*
G02X499518Y134158I2J-2339*
G01*
X516084Y127296*
G75*
G02X516705Y126917I-895J-2163*
G01*
X578793*
X585425Y129664*
X588430Y136917*
G37*
X608403D02*
G36*
X600272D01*
X596130Y126917*
X612544*
X608403Y136917*
G37*
X595205D02*
G36*
X593837D01*
X589695Y126917*
X591063*
X595205Y136917*
G37*
X241830Y146917D02*
G36*
X207853D01*
G75*
G02X207554Y145991I-5952J1414*
G01*
G75*
G02X207552Y145989I-10J3*
G01*
X203794Y136917*
X245975*
X249479Y145375*
X246953Y146421*
G75*
G02X241830Y146917I-2268J3283*
G01*
G37*
X327900D02*
G36*
X263505D01*
X259363Y136917*
X323758*
X327900Y146917*
G37*
X255184D02*
G36*
X254906Y146245D01*
G75*
G02X254493Y145248I-2361J394*
G01*
X251042Y136917*
X254296*
X258438Y146917*
X255184*
G37*
X404151Y136917D02*
G36*
X394286Y146917D01*
X381842*
G75*
G02X377252Y142326I-4590*
G01*
X375252*
G75*
G02X371373Y144462J4591*
G01*
X369806*
X351572Y136917*
X370661*
G75*
G02X375252Y141507I4591*
G01*
X377252*
G75*
G02X381843Y136917J-4591*
G01*
X386814*
X385867Y137864*
G75*
G02X381443Y141831I-434J3967*
G01*
G75*
G02X389424I3991*
G01*
G75*
G02X389400Y141396I-4006*
G01*
X393880Y136917*
X404151*
G37*
X362672Y146917D02*
G36*
X332970D01*
X328829Y136917*
X338507*
X362672Y146917*
G37*
X509298D02*
G36*
X441843D01*
G75*
G02X437252Y142326I-4591*
G01*
X435252*
G75*
G02X430661Y146917J4591*
G01*
X401304*
X408705Y139415*
X431401*
G75*
G02X435252Y141507I3852J-2499*
G01*
X437252*
G75*
G02X441103Y139415I-1J-4592*
G01*
X497515*
X507987Y143755*
X509298Y146917*
G37*
X592571D02*
G36*
X514706D01*
X512207Y140887*
G75*
G02X510856Y139535I-2309J957*
G01*
X504537Y136917*
X588430*
X592571Y146917*
G37*
X604551D02*
G36*
X604414D01*
X600272Y136917*
X608403*
X605093Y144907*
G75*
G02X605093Y144909I7J4*
G01*
G75*
G02X604551Y146917I7469J3092*
G01*
G37*
X599347D02*
G36*
X597979D01*
X593837Y136917*
X595205*
X599347Y146917*
G37*
X241830D02*
G36*
G75*
G02X240759Y148987I2855J2788D01*
G01*
X234304Y151661*
X233083Y148714*
X225592Y151817*
X227704Y156917*
X220497*
X219441Y154368*
X213289Y156917*
X197160*
X204240Y153985*
G75*
G02X204242Y153983I-4J-9*
G01*
G75*
G02X208019Y148331I-2341J-5652*
G01*
G75*
G02X207853Y146917I-6119J1*
G01*
X241830*
G37*
X254260Y156917D02*
G36*
X236481D01*
X236095Y155986*
X242786Y153215*
G75*
G02X248510Y150843I1899J-3510*
G01*
X251270Y149700*
X254260Y156917*
G37*
X327900Y146917D02*
G36*
X328991Y149551D01*
X314710Y155466*
X313549Y152663*
X306058Y155767*
X306534Y156917*
X267646*
X263505Y146917*
X327900*
G37*
X259326Y156917D02*
G36*
X255184Y146917D01*
X258438*
X262580Y156917*
X259326*
G37*
X513441D02*
G36*
X505126D01*
X505602Y155770*
X498110Y152667*
X496350Y156917*
X441843*
G75*
G02X437252Y152326I-4591*
G01*
X435252*
G75*
G02X430661Y156917J4591*
G01*
X381843*
G75*
G02X381098Y154411I-4591J0*
G01*
X392867*
G75*
G02X394647Y153665I0J-2498*
G01*
X401304Y146917*
X430661*
G75*
G02X435252Y151507I4591*
G01*
X437252*
G75*
G02X441843Y146917J-4591*
G01*
X509298*
X513441Y156917*
G37*
X362672Y146917D02*
G36*
X368354Y149268D01*
G75*
G02X368846Y149415I956J-2314*
G01*
X334146*
X334130Y149389*
G75*
G02X333828Y148988I-2139J1295*
G01*
X332970Y146917*
X362672*
G37*
X370661Y156917D02*
G36*
X324263D01*
X331342Y153985*
G75*
G02X332741Y154411I1394J-2069*
G01*
X371406*
G75*
G02X370661Y156917I3846J2506*
G01*
G37*
X394286Y146917D02*
G36*
X391822Y149415D01*
X381103*
G75*
G02X381842Y146917I-3852J-2498*
G01*
X394286*
G37*
X591165Y156917D02*
G36*
X583961D01*
X586074Y151816*
X578577Y148710*
X575178Y156917*
X518832*
G75*
G02X518739Y156649I-2400J691*
G01*
X514706Y146917*
X592571*
X596370Y156087*
X592220Y154369*
X591165Y156917*
G37*
X603489D02*
G36*
X602121D01*
X597979Y146917*
X599347*
X603489Y156917*
G37*
X604551Y146917D02*
G36*
G75*
G02X604520Y147174I8011J1087D01*
G01*
X604414Y146917*
X604551*
G37*
X258402Y166917D02*
G36*
X257050D01*
G75*
G02X246390I-5330J93*
G01*
X222782*
G75*
G02X222725Y166765I-2220J744*
G01*
X222092Y165236*
X223672Y164581*
X220497Y156917*
X227704*
X229825Y162037*
X237316Y158933*
X236481Y156917*
X254260*
X258402Y166917*
G37*
X215869D02*
G36*
X206794D01*
G75*
G02X206836Y166338I-3950J-578*
G01*
G75*
G02X206532Y164811I-3990J0*
G01*
G75*
G02X198855Y166338I-3687J1527*
G01*
G75*
G02X198897Y166917I3991J-2*
G01*
X195447*
X193211Y161520*
G75*
G03X193211Y161518I7J-4*
G01*
G75*
G03X193002Y160469I2531J-1049*
G01*
G75*
G03X194691Y157939I2739*
G01*
G75*
G03X194693Y157939I2J2*
G01*
X197160Y156917*
X213289*
X211956Y157469*
X215869Y166917*
G37*
X263469D02*
G36*
X259326Y156917D01*
X262580*
X266722Y166917*
X263469*
G37*
X306534Y156917D02*
G36*
X310291Y165986D01*
X311874Y165330*
X312531Y166917*
X303469*
X299907Y158318*
X292422Y161419*
X294699Y166917*
X271788*
X267646Y156917*
X306534*
G37*
X496350D02*
G36*
X493877Y162886D01*
X495460Y163542*
X495256Y164034*
X490806Y165877*
G75*
G02X489647Y166917I894J2162*
G01*
X482945*
G75*
G02X476002I-3472J4045*
G01*
X441843*
G75*
G02X437252Y162326I-4591*
G01*
X435252*
G75*
G02X430661Y166917J4591*
G01*
X381843*
G75*
G02X377252Y162326I-4591*
G01*
X375252*
G75*
G02X370661Y166917J4591*
G01*
X335661*
G75*
G02X328711I-3475J4042*
G01*
X321536*
G75*
G02X320512Y166095I-1918J1342*
G01*
X316585Y164470*
X316199Y163539*
X317782Y162883*
X316622Y160081*
X324263Y156917*
X370661*
G75*
G02X375252Y161507I4591*
G01*
X377252*
G75*
G02X381843Y156917J-4591*
G01*
X430661*
G75*
G02X435252Y161507I4591*
G01*
X437252*
G75*
G02X441843Y156917J-4591*
G01*
X496350*
G37*
X508185Y166917D02*
G36*
X499119D01*
G75*
G02X499210Y166722I-2071J-1090*
G01*
X499785Y165333*
X501369Y165989*
X505126Y156917*
X513441*
X513728Y157607*
X513189Y158909*
X511748Y158313*
X508185Y166917*
G37*
X575178Y156917D02*
G36*
X574341Y158935D01*
X575509Y159419*
X571656Y161011*
G75*
G02X570386Y162282I894J2164*
G01*
X568468Y166917*
X565272*
G75*
G02X554612I-5330J93*
G01*
X524587*
X518084Y164223*
X519246Y161418*
X517804Y160821*
X518739Y158563*
G75*
G02X518930Y157607I-2307J-956*
G01*
G75*
G02X518832Y156917I-2496*
G01*
X575178*
G37*
X591165D02*
G36*
X587990Y164582D01*
X589426Y165176*
X588705Y166917*
X573534*
X574341Y164967*
X578790Y163128*
G75*
G02X580061Y161859I-894J-2165*
G01*
X580256Y161385*
X581839Y162041*
X583961Y156917*
X591165*
G37*
X607631Y166917D02*
G36*
X601403D01*
X603437Y162006*
G75*
G02X603628Y161050I-2308J-956*
G01*
G75*
G02X603437Y160094I-2499*
G01*
X602121Y156917*
X603489*
X607631Y166917*
G37*
X246390D02*
G36*
G75*
G02X246389Y167009I5332J92D01*
G01*
G75*
G02X248143Y170962I5331*
G01*
X238774*
G75*
G02X224656I-7059J4334*
G01*
X221728*
X222725Y168560*
G75*
G02X222904Y167663I-2163J-897*
G01*
G75*
G02X222782Y166917I-2343J0*
G01*
X246390*
G37*
X198897D02*
G36*
G75*
G02X199159Y167865I3948J-578D01*
G01*
G75*
G02X199446Y168429I3707J-1537*
G01*
X198398Y170962*
X196766*
G75*
G02X196224Y168792I-7561J737*
G01*
G75*
G02X196222Y168789I-8J1*
G01*
X195447Y166917*
X198897*
G37*
X215869D02*
G36*
X216186Y167682D01*
X217767Y167028*
X218030Y167662*
X216659Y170962*
X203464*
X203772Y170219*
G75*
G02X206794Y166917I-926J-3881*
G01*
X215869*
G37*
X265145Y170962D02*
G36*
X263469Y166917D01*
X266722*
X268397Y170962*
X265145*
G37*
X260078D02*
G36*
X255297D01*
G75*
G02X257051Y167009I-3577J-3953*
G01*
G75*
G02X257050Y166917I-5333J-1*
G01*
X258402*
X260078Y170962*
G37*
X294699Y166917D02*
G36*
X296375Y170962D01*
X273464*
X273421Y170858*
X273420Y170856*
X271788Y166917*
X294699*
G37*
X318204Y170962D02*
G36*
X312181D01*
X303281*
G75*
G02X303195Y170717I-2242J650*
G01*
X302560Y169185*
X304138Y168531*
X303469Y166917*
X312531*
X312630Y167155*
G75*
G02X313899Y168426I2163J-891*
G01*
X317826Y170050*
X318204Y170962*
G37*
X326856D02*
G36*
X323271D01*
X321781Y167365*
G75*
G02X321536Y166917I-2164J893*
G01*
X328711*
G75*
G02X326856Y170959I3475J4042*
G01*
G75*
G02Y170962I5469J2*
G01*
G37*
X370661Y166917D02*
G36*
G75*
G02X373082Y170962I4591D01*
G01*
X337517*
G75*
G02Y170959I-5469J-2*
G01*
G75*
G02X335661Y166917I-5331*
G01*
X370661*
G37*
X430661D02*
G36*
G75*
G02X433082Y170962I4591D01*
G01*
X379422*
G75*
G02X381843Y166917I-2170J-4045*
G01*
X430661*
G37*
X474143Y170962D02*
G36*
X439422D01*
G75*
G02X441843Y166917I-2170J-4045*
G01*
X476002*
G75*
G02X474143Y170962I3472J4045*
G01*
G37*
X489647Y166917D02*
G36*
G75*
G02X489538Y167145I2053J1123D01*
G01*
X487956Y170962*
X484804*
G75*
G02X482945Y166917I-5331*
G01*
X489647*
G37*
X508185D02*
G36*
X507513Y168538D01*
X509098Y169194*
X508366Y170962*
X493023*
X493492Y169831*
X497940Y167990*
G75*
G02X499119Y166917I-893J-2164*
G01*
X508185*
G37*
X521298Y170962D02*
G36*
X515293D01*
X516172Y168839*
X521298Y170962*
G37*
X554612Y166917D02*
G36*
G75*
G02X554611Y167009I5334J92D01*
G01*
G75*
G02X556365Y170962I5331*
G01*
X534352*
X524587Y166917*
X554612*
G37*
X568468D02*
G36*
X566793Y170962D01*
X563519*
G75*
G02X565272Y167009I-3577J-3952*
G01*
G75*
G02X565272Y166917I-5335J-1*
G01*
X568468*
G37*
X588705D02*
G36*
X587227Y170486D01*
G75*
G02X587083Y170962I2290J953*
G01*
X587006*
G75*
G02X572888I-7059J4335*
G01*
X571859*
X573534Y166917*
X588705*
G37*
X609307Y170962D02*
G36*
X599727D01*
X601403Y166917*
X607631*
X609307Y170962*
G37*
X223592Y176917D02*
G36*
X223200D01*
X221230Y172162*
X221728Y170962*
X224656*
G75*
G02X223431Y175296I7059J4333*
G01*
G75*
G02X223592Y176917I8283J0*
G01*
G37*
X198398Y170962D02*
G36*
X195933Y176917D01*
X194726*
G75*
G02X196802Y171698I-5519J-5218*
G01*
G75*
G02X196766Y170962I-7597J0*
G01*
X198398*
G37*
X218133Y176917D02*
G36*
X200999D01*
X203464Y170962*
X216659*
X216534Y171264*
G75*
G02X216356Y172161I2163J897*
G01*
G75*
G02X216534Y173058I2341*
G01*
X218133Y176917*
G37*
X262545D02*
G36*
X260167D01*
G75*
G02X251086I-4541J4668*
G01*
X239838*
G75*
G02X239998Y175296I-8123J-1621*
G01*
G75*
G02X238774Y170962I-8283J0*
G01*
X248143*
G75*
G02X255297I3577J-3953*
G01*
X260078*
X262545Y176917*
G37*
X267612D02*
G36*
X265145Y170962D01*
X268397*
X269095Y172648*
G75*
G03X269096Y172648J1*
G01*
Y172649*
X270863Y176917*
X267612*
G37*
X296375Y170962D02*
G36*
X296652Y171632D01*
X298235Y170976*
X298500Y171615*
X296476Y176508*
G75*
G02X296349Y176917I2163J895*
G01*
X276737*
G75*
G02X275778Y176552I-1886J3517*
G01*
X273464Y170962*
X296375*
G37*
X320670Y176917D02*
G36*
X320130D01*
G75*
G02X312181Y170962I-7949J2329*
G01*
G75*
G02X304232Y176917J8283*
G01*
X301373*
X303194Y172512*
G75*
G02X303374Y171614I-2164J-898*
G01*
G75*
G02Y171612I-2439J-1*
G01*
G75*
G02X303281Y170962I-2335J0*
G01*
X312181*
X318204*
X320670Y176917*
G37*
X487956Y170962D02*
G36*
X485489Y176917D01*
X442343*
G75*
G02X437252Y171826I-5091*
G01*
X435252*
G75*
G02X430161Y176917J5091*
G01*
X381843*
G75*
G02X377252Y172326I-4591*
G01*
X375252*
G75*
G02X370661Y176917J4591*
G01*
X325737*
X323271Y170962*
X326856*
G75*
G02X337517I5331J-3*
G01*
X373082*
G75*
G02X375252Y171507I2170J-4045*
G01*
X377252*
G75*
G02X379422Y170962J-4590*
G01*
X433082*
G75*
G02X435252Y171507I2170J-4045*
G01*
X437252*
G75*
G02X439422Y170962J-4590*
G01*
X474143*
G75*
G02X484804I5331*
G01*
X487956*
G37*
X508366D02*
G36*
X507712Y172539D01*
G75*
G02X507533Y173438I2162J899*
G01*
G75*
G02X507711Y174333I2341*
G01*
X508781Y176917*
X507427*
G75*
G02X491530I-7948J2332*
G01*
X490556*
X493023Y170962*
X508366*
G37*
X535673Y176917D02*
G36*
X513720D01*
G75*
G02X513549Y176195I-2335J174*
G01*
X512407Y173438*
X513423Y170986*
X515011Y171643*
X515293Y170962*
X521298*
X535673Y176917*
G37*
X566793Y170962D02*
G36*
X564328Y176917D01*
X548727*
X534352Y170962*
X556365*
G75*
G02X563519I3577J-3952*
G01*
X566793*
G37*
X571824Y176917D02*
G36*
X569394D01*
X571859Y170962*
X572888*
G75*
G02X571663Y175296I7059J4335*
G01*
G75*
G02X571824Y176917I8284J-1*
G01*
G37*
X587083Y170962D02*
G36*
G75*
G02X587065Y171060I2434J479D01*
G01*
G75*
G02X587006Y170962I-7123J4235*
G01*
X587083*
G37*
X611773Y176917D02*
G36*
X597260D01*
X599727Y170962*
X609307*
X611773Y176917*
G37*
X195933D02*
G36*
X191537Y187535D01*
X170821*
X192113Y178715*
X192114*
G75*
G02X194726Y176917I-2907J-7017*
G01*
X195933*
G37*
X251086D02*
G36*
G75*
G02X249115Y181584I4541J4668D01*
G01*
G75*
G02X252983Y187535I6512*
G01*
X227599*
X223200Y176917*
X223592*
G75*
G02X239838I8123J-1621*
G01*
X251086*
G37*
X222532Y187535D02*
G36*
X215287D01*
G75*
G02X217041Y183582I-3577J-3953*
G01*
G75*
G02X206379I-5331*
G01*
G75*
G02X208133Y187535I5331*
G01*
X196604*
X200999Y176917*
X218133*
X222532Y187535*
G37*
X300300D02*
G36*
X297507D01*
G75*
G02Y187532I-5469J-2*
G01*
G75*
G02X286845I-5331*
G01*
G75*
G02Y187535I5469J2*
G01*
X272011*
X267612Y176917*
X270863*
X271453Y178343*
G75*
G02X270861Y180433I3398J2091*
G01*
G75*
G02X271165Y181961I3989*
G01*
G75*
G02X278843Y180433I3687J-1527*
G01*
G75*
G02X278539Y178906I-3991J0*
G01*
G75*
G02X276737Y176917I-3687J1528*
G01*
X296349*
G75*
G02X296298Y177404I2289J489*
G01*
G75*
G02X296476Y178300I2341*
G01*
X300300Y187535*
G37*
X266944D02*
G36*
X258271D01*
G75*
G02X262139Y181584I-2644J-5951*
G01*
G75*
G02X260167Y176917I-6512*
G01*
X262545*
X266944Y187535*
G37*
X321100D02*
G36*
X305366D01*
X301171Y177404*
X301373Y176917*
X304232*
G75*
G02X303898Y179245I7950J2330*
G01*
G75*
G02X320465I8283*
G01*
G75*
G02X320130Y176917I-8284J1*
G01*
X320670*
X322828Y182126*
X321204Y186048*
G75*
G02X321025Y186946I2161J898*
G01*
G75*
G02X321100Y187535I2340J0*
G01*
G37*
X485489Y176917D02*
G36*
X482004Y185327D01*
G75*
G02X481824Y186227I2161J900*
G01*
G75*
G02X482002Y187122I2339*
G01*
X482173Y187535*
X441801*
G75*
G02X441843Y186917I-4550J-618*
G01*
G75*
G02X437252Y182326I-4591*
G01*
X435252*
G75*
G02X430661Y186917J4591*
G01*
G75*
G02X430703Y187535I4592J1*
G01*
X381801*
G75*
G02X381843Y186917I-4550J-618*
G01*
G75*
G02X377252Y182326I-4591*
G01*
X375252*
G75*
G02X370661Y186917J4591*
G01*
G75*
G02X370703Y187535I4592J1*
G01*
X342290*
G75*
G02X342605Y185534I-6197J-2001*
G01*
G75*
G02X329581I-6512*
G01*
G75*
G02X329896Y187535I6512J0*
G01*
X326143*
X325898Y186946*
X327522Y183023*
G75*
G02X327701Y182125I-2162J-898*
G01*
G75*
G02X327523Y181230I-2341*
G01*
X325737Y176917*
X370661*
G75*
G02X375252Y181507I4591*
G01*
X377252*
G75*
G02X381843Y176917J-4591*
G01*
X430161*
G75*
G02X435252Y182007I5091*
G01*
X437252*
G75*
G02X442343Y176917J-5091*
G01*
X485489*
G37*
X504528Y187535D02*
G36*
X487239D01*
X486698Y186227*
X490556Y176917*
X491530*
G75*
G02X491195Y179248I7949J2332*
G01*
G75*
G02X505690Y184729I8283*
G01*
X504528Y187535*
G37*
X548938D02*
G36*
X524814D01*
G75*
G02X514153I-5331*
G01*
X509594*
X513547Y177989*
G75*
G02X513727Y177090I-2162J-899*
G01*
G75*
G02X513720Y176917I-2341J-2*
G01*
X535673*
X545981Y181187*
X548938Y187535*
G37*
X508781Y176917D02*
G36*
X508853Y177091D01*
X507746Y179764*
G75*
G02X507762Y179254I-8043J-510*
G01*
G75*
G02Y179248I-8056J-3*
G01*
G75*
G02X507427Y176917I-8284*
G01*
X508781*
G37*
X564328D02*
G36*
X562693Y180867D01*
G75*
G02X562513Y181765I2162J898*
G01*
G75*
G02X562691Y182660I2341*
G01*
X564709Y187535*
X554450*
X550101Y178199*
G75*
G02X548791Y176943I-2266J1053*
G01*
X548727Y176917*
X564328*
G37*
X571824D02*
G36*
G75*
G02X585859Y181098I8123J-1620D01*
G01*
X583193Y187535*
X569775*
X567387Y181765*
X569394Y176917*
X571824*
G37*
X596375Y187535D02*
G36*
X592861D01*
X594631Y183265*
G75*
G02X594621Y183583I5354J318*
G01*
G75*
G02X596375Y187535I5331*
G01*
G37*
X630930D02*
G36*
X603529D01*
G75*
G02X605283Y183583I-3577J-3952*
G01*
G75*
G02X595965Y180044I-5331J0*
G01*
X597260Y176917*
X611773*
X612744Y179259*
G75*
G02X614011Y180527I2163J-894*
G01*
X630930Y187535*
G37*
X191537D02*
G36*
X191296Y188119D01*
X173604Y195446*
X172382Y192496*
X170798Y193152*
X170711Y192943*
G75*
G02X169440Y191674I-2162J893*
G01*
X166876Y190612*
G75*
G02X165082Y190611I-897J2162*
G01*
X140959Y200604*
X139272*
X170821Y187535*
X191537*
G37*
X116255Y200604D02*
G36*
X94263D01*
X110956Y193689*
G75*
G03X110957Y193689I4J7*
G01*
G75*
G03X113894Y194903I860J2077*
G01*
X113894Y194905*
X116255Y200604*
G37*
X166957D02*
G36*
X159756D01*
X158795Y198282*
X164941Y195737*
X166957Y200604*
G37*
X235350D02*
G36*
X175741D01*
X175396Y199771*
X193982Y192073*
G75*
G02X195250Y190806I-894J-2162*
G01*
X196604Y187535*
X208133*
G75*
G02X215287I3577J-3953*
G01*
X222532*
X224294Y191789*
G75*
G02X225561Y193057I2161J-893*
G01*
X234094Y196592*
G75*
G02X234092Y196742I5675J150*
G01*
G75*
G02Y196756I5763J7*
G01*
G75*
G02X235350Y200604I6512*
G01*
G37*
X272358D02*
G36*
X245857D01*
G75*
G02X247116Y196756I-5254J-3848*
G01*
G75*
G02X235886Y192268I-6512*
G01*
X228249Y189103*
X227599Y187535*
X252983*
G75*
G02X258271I2644J-5951*
G01*
X266944*
X272358Y200604*
G37*
X310054D02*
G36*
X277425D01*
X272011Y187535*
X286845*
G75*
G02X297507I5331J-3*
G01*
X300300*
X304796Y198393*
G75*
G02X306441Y199783I2163J-893*
G01*
X310054Y200604*
G37*
X321100Y187535D02*
G36*
G75*
G02X321203Y187842I2265J-590D01*
G01*
X324156Y194971*
G75*
G02X315663Y197077I-3086J5734*
G01*
X308659Y195486*
X305366Y187535*
X321100*
G37*
X484078Y200604D02*
G36*
X449135D01*
G75*
G02X439841Y197261I-8868J10063*
G01*
X437346Y197236*
X437318*
X375452Y197316*
G75*
G02X365515Y200604I-223J15989*
G01*
X331556*
X326143Y187535*
X329896*
G75*
G02X342290I6197J-2001*
G01*
X370703*
G75*
G02X375252Y191507I4549J-619*
G01*
X377252*
G75*
G02X381801Y187535J-4591*
G01*
X430703*
G75*
G02X435252Y191507I4549J-619*
G01*
X437252*
G75*
G02X441801Y187535J-4591*
G01*
X482173*
X485800Y196296*
G75*
G02X484078Y200604I4791J4413*
G01*
G37*
X504528Y187535D02*
G36*
X499115Y200604D01*
X497100*
G75*
G02X490008Y194223I-6511J105*
G01*
X487239Y187535*
X504528*
G37*
X543623Y200604D02*
G36*
X541308Y199680D01*
G75*
G02X533449Y200604I-3869J978*
G01*
X518452*
G75*
G02X505428I-6512*
G01*
X504182*
X509594Y187535*
X514153*
G75*
G02X524814I5331*
G01*
X548938*
X555026Y200604*
X543623*
G37*
X565804D02*
G36*
X565100D01*
X559446Y198262*
X554450Y187535*
X564709*
X566572Y192036*
G75*
G02X564546Y196756I4487J4720*
G01*
G75*
G02X565804Y200604I6512*
G01*
G37*
X583193Y187535D02*
G36*
X577779Y200604D01*
X576312*
G75*
G02X577570Y196756I-5254J-3848*
G01*
G75*
G02X570897Y190246I-6512*
G01*
X569775Y187535*
X583193*
G37*
X587233Y200604D02*
G36*
X583187D01*
X587280Y190723*
X587817Y192033*
G75*
G02X585896Y196650I4590J4617*
G01*
G75*
G02Y196651I9023J0*
G01*
G75*
G02X587233Y200604I6512*
G01*
G37*
X662480D02*
G36*
X658864D01*
X652920Y198142*
X651900Y200604*
X644700*
X646773Y195599*
X639282Y192496*
X635924Y200604*
X597583*
G75*
G02X598920Y196651I-5175J-3952*
G01*
G75*
G02X592440Y190139I-6512*
G01*
X592113Y189342*
X592861Y187535*
X596375*
G75*
G02X603529I3577J-3952*
G01*
X630930*
X662480Y200604*
G37*
X116255D02*
G36*
X117096Y202634D01*
X117098Y202638*
G75*
G02X117340Y203158I6167J-2561*
G01*
X114549Y202001*
G75*
G02X112755Y202002I-896J2163*
G01*
X99717Y207406*
X98498Y204463*
X91012Y207563*
X92351Y210795*
X85148*
X84861Y210104*
X83193Y210795*
X69658*
X94263Y200604*
X116255*
G37*
X123543Y210795D02*
G36*
X103765D01*
X113653Y206697*
X123543Y210795*
G37*
X139272Y200604D02*
G36*
X140959D01*
X126065Y206773*
X125188Y206410*
G75*
G02X125729Y206214I-2043J-6462*
G01*
G75*
G03X125732Y206212I11J20*
G01*
X139272Y200604*
G37*
X155201Y210795D02*
G36*
X128587D01*
X151304Y201385*
X155201Y210795*
G37*
X271576D02*
G36*
X255515D01*
X253772Y210073*
G75*
G02X251979Y210073I-897J2161*
G01*
X250235Y210795*
X196348*
G75*
G02X185687I-5331*
G01*
X161526*
G75*
G02X161636Y210084I-2228J-711*
G01*
G75*
G02X161457Y209187I-2339*
G01*
X161391Y209025*
X162973Y208370*
X159756Y200604*
X166957*
X169120Y205827*
X176618Y202721*
X175741Y200604*
X235350*
G75*
G02X245857I5254J-3848*
G01*
X272358*
X275847Y209026*
X271576Y210795*
G37*
X330710D02*
G36*
X281647D01*
X281274Y209896*
G75*
G02X280861Y208899I-2364J394*
G01*
X277425Y200604*
X310054*
X314626Y201642*
G75*
G02X327307Y202579I6444J-937*
G01*
X330710Y210795*
G37*
X359437D02*
G36*
X335777D01*
X331556Y200604*
X365515*
G75*
G02X359437Y210795I9715J12702*
G01*
G37*
X499115Y200604D02*
G36*
X494894Y210795D01*
X453680*
G75*
G02X453680Y210667I-13435J-146*
G01*
G75*
G02X449135Y200604I-13413J0*
G01*
X484078*
G75*
G02X484078Y200709I6518J102*
G01*
G75*
G02X497101I6512*
G01*
G75*
G02X497100Y200604I-6526J-4*
G01*
X499115*
G37*
X556543Y210795D02*
G36*
X499961D01*
X504182Y200604*
X505428*
G75*
G02X518452I6512*
G01*
X533449*
G75*
G02X533448Y200657I3994J56*
G01*
G75*
G02X539574Y204028I3991*
G01*
X556543Y210795*
G37*
X635924Y200604D02*
G36*
X635049Y202715D01*
X636630Y203370*
X636614Y203411*
X632163Y205255*
G75*
G02X630895Y206522I894J2162*
G01*
X629126Y210795*
X625976*
G75*
G02Y210791I-5394J-2*
G01*
G75*
G02X615314I-5331*
G01*
G75*
G02Y210795I5394J2*
G01*
X568870*
G75*
G02X568236Y210419I-1498J1798*
G01*
X543623Y200604*
X555026*
X555327Y201250*
G75*
G02X556637Y202506I2266J-1053*
G01*
X572093Y208909*
G75*
G02X573987Y208916I956J-2307*
G01*
X579930Y206513*
G75*
G02X581303Y205151I-938J-2318*
G01*
X583187Y200604*
X587233*
G75*
G02X597583I5175J-3952*
G01*
X635924*
G37*
X565804D02*
G36*
G75*
G02X566154Y201040I5255J-3850D01*
G01*
X565100Y200604*
X565804*
G37*
X577779D02*
G36*
X577087Y202274D01*
X573061Y203902*
X571496Y203254*
G75*
G02X576312Y200604I-438J-6497*
G01*
X577779*
G37*
X662480D02*
G36*
X687085Y210795D01*
X656463*
X660418Y201247*
X658864Y200604*
X662480*
G37*
X651900D02*
G36*
X648685Y208367D01*
X650272Y209024*
X649539Y210795*
X640769*
G75*
G02X640531I-119J8283*
G01*
X634193*
X634850Y209209*
X639298Y207366*
G75*
G02X640567Y206099I-894J-2165*
G01*
X640955Y205162*
X642540Y205819*
X644700Y200604*
X651900*
G37*
X730806Y210795D02*
G36*
X728463D01*
X726802Y210107*
X726517Y210795*
X719311*
X720650Y207563*
X713164Y204462*
X710540Y210795*
X689131*
X709969Y202165*
X730806Y210795*
G37*
X69658D02*
G36*
X83193D01*
X77364Y213210*
X81317Y222754*
X61968*
X60293Y218709*
G75*
G03X60291Y218706I3J-3*
G01*
G75*
G03X60007Y217281I3440J-1426*
G01*
G75*
G03X62306Y213841I3724J0*
G01*
X62307Y213840*
X69658Y210795*
G37*
X158283Y222754D02*
G36*
X153675D01*
G75*
G02X148339I-2668J4615*
G01*
X122467*
G75*
G02X111806I-5331*
G01*
X107632*
X106281Y219494*
G75*
G02X105013Y218226I-2163J895*
G01*
X101790Y216894*
X101144Y215332*
X102729Y214676*
X101509Y211731*
X103765Y210795*
X123543*
X125168Y211469*
G75*
G02X126962Y211469I896J-2163*
G01*
X128587Y210795*
X155201*
X155482Y211473*
X156334Y211120*
X155272Y213688*
G75*
G02X155093Y214585I2161J897*
G01*
G75*
G02X155271Y215480I2341*
G01*
X158283Y222754*
G37*
X102565D02*
G36*
X87930D01*
G75*
G02X87943Y222498I-2329J-254*
G01*
G75*
G02X87765Y221602I-2344*
G01*
X87510Y220987*
X89097Y220330*
X85148Y210795*
X92351*
X95243Y217777*
X96820Y217124*
X97835Y219580*
G75*
G02X99108Y220850I2165J-895*
G01*
X102328Y222181*
X102565Y222754*
G37*
X250235Y210795D02*
G36*
X233513Y217722D01*
G75*
G02X232243Y218990I893J2164*
G01*
X230684Y222754*
X200887*
G75*
G02X188961I-5963J2617*
G01*
X178437*
G75*
G02X179296Y219082I-7425J-3672*
G01*
G75*
G02X162729I-8283*
G01*
G75*
G02X163587Y222754I8283J0*
G01*
X163350*
X159967Y214584*
X161458Y210979*
G75*
G02X161526Y210795I-2161J-896*
G01*
X185687*
G75*
G02X196348I5331*
G01*
X250235*
G37*
X254969Y222754D02*
G36*
X247769D01*
X245807Y218016*
X238315Y221119*
X238993Y222754*
X235751*
X236196Y221677*
X252875Y214769*
X253257Y214926*
X251951Y215467*
X254969Y222754*
G37*
X271576Y210795D02*
G36*
X260671Y215312D01*
X259449Y212362*
X257864Y213019*
X257610Y212405*
G75*
G02X256340Y211137I-2162J894*
G01*
X255515Y210795*
X271576*
G37*
X281533Y222754D02*
G36*
X263282D01*
X263684Y222587*
X262462Y219637*
X277639Y213351*
X281533Y222754*
G37*
X333811D02*
G36*
X326608D01*
X326281Y221965*
X324378Y222754*
X286600*
X281647Y210795*
X330710*
X334013Y218769*
X332432Y219424*
X333811Y222754*
G37*
X359437Y210795D02*
G36*
G75*
G02X359239Y213305I15795J2509D01*
G01*
G75*
G02X361198Y220974I15991*
G01*
X361935Y222754*
X342582*
X339918Y216323*
X338338Y216978*
X335777Y210795*
X359437*
G37*
X494894D02*
G36*
X494412Y211961D01*
X491654Y213100*
G75*
G02X490381Y214369I891J2165*
G01*
X486965Y222624*
X485383Y221969*
X485058Y222754*
X477851*
X479230Y219424*
X471744Y216323*
X469081Y222754*
X449724*
X452165Y216859*
G75*
G02X453680Y210795I-11901J-6193*
G01*
X494894*
G37*
X563896Y222754D02*
G36*
X556689D01*
X559704Y215475*
X552218Y212374*
X547987Y222588*
X548387Y222754*
X491978*
X494335Y217057*
X497096Y215917*
G75*
G02X498365Y214649I-893J-2163*
G01*
X499961Y210795*
X556543*
X565588Y214402*
X567343Y218636*
X565857Y218020*
X563896Y222754*
G37*
X629126Y210795D02*
G36*
X624174Y222754D01*
X572673*
X573348Y221123*
X571767Y220468*
X572095Y219675*
G75*
G02X572275Y218775I-2161J-900*
G01*
G75*
G02X572097Y217878I-2342*
G01*
X569534Y211697*
G75*
G02X568870Y210795I-2162J896*
G01*
X615314*
G75*
G02X625976I5331J-4*
G01*
X629126*
G37*
X710540D02*
G36*
X708933Y214675D01*
X710511Y215329*
X710246Y215968*
X705799Y217811*
G75*
G02X704530Y219079I892J2162*
G01*
X703008Y222754*
X699856*
G75*
G02Y222753I-5639J0*
G01*
G75*
G02X689194I-5331*
G01*
G75*
G02Y222754I5639J0*
G01*
X663331*
G75*
G02X657980I-2676J4611*
G01*
X652792*
X655006Y217406*
G75*
G02X655185Y216508I-2159J-898*
G01*
G75*
G02X655007Y215613I-2339*
G01*
X653809Y212719*
X654596Y210816*
X656182Y211472*
X656463Y210795*
X687085*
X687212Y210848*
G75*
G02X689006Y210847I896J-2160*
G01*
X689131Y210795*
X710540*
G37*
X633227Y222754D02*
G36*
X629241D01*
X634193Y210795*
X640531*
G75*
G02X632997Y215907I119J8283*
G01*
G75*
G02X632367Y219078I7653J3170*
G01*
G75*
G02X633227Y222754I8283J-1*
G01*
G37*
X649539Y210795D02*
G36*
X649115Y211819D01*
G75*
G02X648935Y212718I2160J899*
G01*
G75*
G02X649113Y213613I2339*
G01*
X650311Y216508*
X648888Y219946*
G75*
G02X648933Y219078I-8238J-869*
G01*
G75*
G02X640769Y210795I-8284*
G01*
X649539*
G37*
X723418Y222754D02*
G36*
X708075D01*
X708484Y221765*
X712933Y219922*
G75*
G02X714200Y218654I-894J-2160*
G01*
X714836Y217120*
X716419Y217776*
X719311Y210795*
X726517*
X722569Y220327*
X724152Y220983*
X723418Y222754*
G37*
X730806Y210795D02*
G36*
X732275Y211404D01*
X732761Y212576*
X728463Y210795*
X730806*
G37*
X736977Y222754D02*
G36*
X730341D01*
X733659Y214744*
X736977Y222754*
G37*
X81317D02*
G36*
X81599Y223435D01*
X82906Y222894*
X81578Y226100*
G75*
G02X81399Y226998I2161J898*
G01*
G75*
G02X81577Y227894I2340*
G01*
X82726Y230665*
X65245*
X61968Y222754*
X81317*
G37*
X102565D02*
G36*
X104229Y226770D01*
G75*
G02X88856Y230665I-7098J4270*
G01*
X87793*
X86273Y226998*
X87765Y223394*
G75*
G02X87930Y222754I-2166J-896*
G01*
X102565*
G37*
X105843Y230665D02*
G36*
X105406D01*
G75*
G02X105170Y229039I-8275J374*
G01*
X105843Y230665*
G37*
X146818D02*
G36*
X110910D01*
X107632Y222754*
X111806*
G75*
G02X122467I5331*
G01*
X148339*
G75*
G02X145676Y227369I2668J4615*
G01*
G75*
G02X146818Y230665I5331*
G01*
G37*
X161560D02*
G36*
X155196D01*
G75*
G02X156338Y227369I-4189J-3297*
G01*
G75*
G02X153675Y222754I-5331*
G01*
X158283*
X161560Y230665*
G37*
X188961Y222754D02*
G36*
G75*
G02X188412Y225370I5963J2617D01*
G01*
G75*
G02X191133Y230665I6512*
G01*
X166626*
X163350Y222754*
X163587*
G75*
G02X178437I7425J-3672*
G01*
X188961*
G37*
X242270Y230665D02*
G36*
X232473D01*
X235751Y222754*
X238993*
X242270Y230665*
G37*
X230684Y222754D02*
G36*
X227407Y230665D01*
X198715*
G75*
G02X201436Y225370I-3791J-5295*
G01*
G75*
G02X200887Y222754I-6512J0*
G01*
X230684*
G37*
X284810Y230665D02*
G36*
X283415D01*
G75*
G02Y230661I-5394J-2*
G01*
G75*
G02X272753I-5331*
G01*
G75*
G02Y230665I5394J2*
G01*
X258219*
G75*
G02X257939I-140J8276*
G01*
X248589*
G75*
G02X248700Y229953I-2226J-712*
G01*
Y229953*
G75*
G02Y229952I-2506J0*
G01*
G75*
G02X248522Y229057I-2335*
G01*
X248454Y228893*
X250040Y228235*
X247769Y222754*
X254969*
X256187Y225693*
X263282Y222754*
X281533*
X284810Y230665*
G37*
X321101D02*
G36*
X289877D01*
X286600Y222754*
X324378*
X318784Y225070*
X321101Y230665*
G37*
X361935Y222754D02*
G36*
X365213Y230665D01*
X362138*
G75*
G02X354976I-3581J3949*
G01*
X329885*
X326608Y222754*
X333811*
X336663Y229637*
X344149Y226537*
X342582Y222754*
X361935*
G37*
X548387D02*
G36*
X549291Y223128D01*
X545228Y224812*
G75*
G02X543961Y226081I898J2164*
G01*
X542061Y230665*
X538910*
G75*
G02X528249I-5331*
G01*
X490557*
X492874Y225072*
X491290Y224415*
X491978Y222754*
X548387*
G37*
X469081D02*
G36*
X467514Y226536D01*
X469095Y227191*
X469020Y227373*
X464131Y229393*
G75*
G02X462861Y230662I894J2166*
G01*
X462859Y230665*
X456687*
G75*
G02X449524I-3581J3948*
G01*
X446447*
X449724Y222754*
X469081*
G37*
X485058D02*
G36*
X481781Y230665D01*
X472607*
G75*
G02X472974Y230059I-1798J-1503*
G01*
X473420Y228983*
X475000Y229637*
X477851Y222754*
X485058*
G37*
X563896D02*
G36*
X561624Y228240D01*
X563207Y228896*
X562474Y230665*
X547128*
X547916Y228765*
X552365Y226921*
G75*
G02X553632Y225653I-896J-2162*
G01*
X553889Y225033*
X555473Y225689*
X556689Y222754*
X563896*
G37*
X575817Y230665D02*
G36*
X569396D01*
X570336Y228395*
X575817Y230665*
G37*
X588050D02*
G36*
X572127Y224070D01*
X572673Y222754*
X624174*
X623390Y224648*
G75*
G02X623211Y225546I2159J898*
G01*
G75*
G02X623389Y226441I2338*
G01*
X625139Y230665*
X588050*
G37*
X703008Y222754D02*
G36*
X699732Y230665D01*
X664841*
G75*
G02X665986Y227364I-4185J-3301*
G01*
G75*
G02X663331Y222754I-5331*
G01*
X689194*
G75*
G02X699856I5331J-1*
G01*
X703008*
G37*
X633227D02*
G36*
G75*
G02X647091Y224287I7423J-3676D01*
G01*
X645385Y228406*
X642491Y229607*
G75*
G02X641324Y230665I896J2161*
G01*
X630206*
X628085Y225546*
X629241Y222754*
X633227*
G37*
X656470Y230665D02*
G36*
X649516D01*
X652792Y222754*
X657980*
G75*
G02X655324Y227364I2676J4611*
G01*
G75*
G02X656470Y230665I5331*
G01*
G37*
X723418Y222754D02*
G36*
X722706Y224474D01*
G75*
G02X722527Y225370I2162J896*
G01*
G75*
G02X722707Y226269I2341*
G01*
X723850Y229028*
X723172Y230665*
X722806*
G75*
G02X706255I-8275J374*
G01*
X704799*
X708075Y222754*
X723418*
G37*
X740254Y230665D02*
G36*
X728239D01*
X728546Y229926*
G75*
G02X728725Y229027I-2163J-898*
G01*
G75*
G02X728546Y228131I-2343*
G01*
X727402Y225370*
X728477Y222774*
X730061Y223430*
X730341Y222754*
X736977*
X740254Y230665*
G37*
X86158Y238948D02*
G36*
X82444D01*
G75*
G02X71809I-5317J379*
G01*
X68676*
X65245Y230665*
X82726*
X86158Y238948*
G37*
X109275D02*
G36*
X99599D01*
G75*
G02X105415Y231040I-2467J-7907*
G01*
G75*
G02X105406Y230665I-8285J4*
G01*
X105843*
X109275Y238948*
G37*
X88856Y230665D02*
G36*
G75*
G02X88848Y231040I8277J370D01*
G01*
G75*
G02X89479Y234210I8283*
G01*
G75*
G02X94664Y238948I7653J-3170*
G01*
X91225*
X87793Y230665*
X88856*
G37*
X169940Y238948D02*
G36*
X127351D01*
G75*
G02X127555Y237329I-6307J-1619*
G01*
G75*
G02X114531I-6512*
G01*
G75*
G02X114736Y238948I6512J0*
G01*
X114342*
X110910Y230665*
X146818*
G75*
G02X155196I4189J-3297*
G01*
X161560*
X163594Y235576*
G75*
G02X164862Y236844I2164J-898*
G01*
X169940Y238948*
G37*
X227407Y230665D02*
G36*
X223976Y238948D01*
X186215*
G75*
G02X175183Y236054I-6314J1595*
G01*
X167548Y232889*
X166626Y230665*
X191133*
G75*
G02X198715I3791J-5295*
G01*
X227407*
G37*
X242759Y238948D02*
G36*
X229043D01*
X232473Y230665*
X242270*
X242548Y231339*
X243398Y230986*
X241802Y234846*
G75*
G02X241624Y235741I2161J895*
G01*
G75*
G02X241803Y236638I2339*
G01*
X242759Y238948*
G37*
X249795D02*
G36*
X247826D01*
X246497Y235740*
X248522Y230848*
G75*
G02X248589Y230665I-2159J-896*
G01*
X257939*
G75*
G02X249795Y238948I140J8282*
G01*
G37*
X288240D02*
G36*
X283681D01*
G75*
G02X280300I-1691J6289*
G01*
X266362*
G75*
G02X258219Y230665I-8283*
G01*
X272753*
G75*
G02X283415I5331J-4*
G01*
X284810*
X288240Y238948*
G37*
X325224D02*
G36*
X317461D01*
G75*
G02X318538Y236222I-2914J-2726*
G01*
G75*
G02X310557I-3991*
G01*
Y236222*
G75*
G02X311193Y238383I3989*
G01*
X310972Y238948*
X293307*
X289877Y230665*
X321101*
X323019Y235296*
X324604Y234639*
X325806Y237541*
X325224Y238948*
G37*
X354976Y230665D02*
G36*
G75*
G02X353226Y234614I3581J3949D01*
G01*
G75*
G02X355452Y238948I5331*
G01*
X345831*
G75*
G02X331272I-7279J3953*
G01*
X330290*
X330500Y238440*
G75*
G02X330680Y237542I-2162J-898*
G01*
G75*
G02X330502Y236646I-2341*
G01*
X328929Y232848*
X330517Y232190*
X329885Y230665*
X354976*
G37*
X365213D02*
G36*
X368644Y238948D01*
X361661*
G75*
G02X363887Y234614I-3104J-4333*
G01*
G75*
G02X362138Y230665I-5331*
G01*
X365213*
G37*
X542061D02*
G36*
X538630Y238948D01*
X480391*
G75*
G02X465831I-7280J3953*
G01*
X464496*
X466815Y233350*
X471705Y231328*
G75*
G02X472607Y230665I-896J-2164*
G01*
X481781*
X481150Y232188*
X488641Y235291*
X490557Y230665*
X528249*
G75*
G02X538910I5331*
G01*
X542061*
G37*
X449524D02*
G36*
G75*
G02X447775Y234614I3581J3948D01*
G01*
G75*
G02X450002Y238948I5331*
G01*
X443017*
X446447Y230665*
X449524*
G37*
X462859D02*
G36*
X459430Y238948D01*
X456210*
G75*
G02X458437Y234614I-3104J-4334*
G01*
G75*
G02X456687Y230665I-5331*
G01*
X462859*
G37*
X562474D02*
G36*
X562258Y231187D01*
G75*
G02X562079Y232085I2160J899*
G01*
G75*
G02X562257Y232980I2339*
G01*
X564520Y238447*
X564313Y238948*
X561868*
G75*
G02X545301I-8283J4*
G01*
X543697*
X547128Y230665*
X562474*
G37*
X595814Y238948D02*
G36*
X569340D01*
G75*
G02X569394Y238447I-2287J-500*
G01*
G75*
G02X569216Y237552I-2341*
G01*
X566953Y232085*
X567532Y230687*
X569115Y231343*
X569396Y230665*
X575817*
X595814Y238948*
G37*
X625446D02*
G36*
X608048D01*
X588050Y230665*
X625139*
X627273Y235819*
G75*
G02X625446Y238948I4488J4719*
G01*
G37*
X699732Y230665D02*
G36*
X697269Y236613D01*
G75*
G02X697091Y237508I2161J895*
G01*
G75*
G02X697271Y238408I2341*
G01*
X697494Y238948*
X659452*
G75*
G02X646771I-6340J1485*
G01*
X642946*
X645179Y233560*
X648074Y232359*
G75*
G02X649341Y231089I-899J-2164*
G01*
X649516Y230665*
X656470*
G75*
G02X664841I4185J-3301*
G01*
X699732*
G37*
X641324D02*
G36*
G75*
G02X641225Y230875I2064J1102D01*
G01*
X637997Y238662*
G75*
G02X631598Y234028I-6236J1875*
G01*
X630206Y230665*
X641324*
G37*
X706255D02*
G36*
G75*
G02X706247Y231039I8278J370D01*
G01*
G75*
G02X712066Y238948I8283J0*
G01*
X702561*
X701965Y237509*
X704799Y230665*
X706255*
G37*
X719740Y238948D02*
G36*
X716994D01*
G75*
G02X720750Y236511I-2464J-7909*
G01*
X719740Y238948*
G37*
X723172Y230665D02*
G36*
X722796Y231571D01*
G75*
G02X722814Y231039I-8153J-532*
G01*
G75*
G02X722806Y230665I-8286J-4*
G01*
X723172*
G37*
X729218Y238948D02*
G36*
X724807D01*
X728239Y230665*
X740254*
X741387Y233402*
X739610Y237693*
G75*
G02X729218Y238948I-5074J1633*
G01*
G37*
X89592Y247239D02*
G36*
X69504D01*
X70461Y244928*
G75*
G02X70627Y244094I-2017J-834*
G01*
G75*
G02X70460Y243257I-2183*
G01*
X68676Y238948*
X71809*
G75*
G02X71796Y239327I5318J378*
G01*
G75*
G02X82457I5331*
G01*
G75*
G02X82444Y238948I-5331J-2*
G01*
X86158*
X87643Y242531*
G75*
G03X87643Y242532J1*
G01*
X89592Y247239*
G37*
X112710D02*
G36*
X109857D01*
G75*
G02X102184I-3836J5262*
G01*
X99434*
X93670Y244851*
X91969Y240741*
G75*
G02X91967Y240739I-5J1*
G01*
X91225Y238948*
X94664*
G75*
G02X99599I2467J-7908*
G01*
X109275*
X112710Y247239*
G37*
X223976Y238948D02*
G36*
X220542Y247239D01*
X117777*
X114342Y238948*
X114736*
G75*
G02X127351I6307J-1619*
G01*
X169940*
X173391Y240378*
G75*
G02X173389Y240528I5690J150*
G01*
G75*
G02Y240542I5639J7*
G01*
G75*
G02X186413I6512*
G01*
G75*
G02X186215Y238948I-6512J1*
G01*
X223976*
G37*
X246194Y247239D02*
G36*
X243404D01*
G75*
G02Y247234I-5394J-2*
G01*
G75*
G02X232743I-5331*
G01*
G75*
G02Y247239I5394J2*
G01*
X225608*
X229043Y238948*
X242759*
X246194Y247239*
G37*
X275794D02*
G36*
X251261D01*
X247826Y238948*
X249795*
G75*
G02X266362I8283*
G01*
X280300*
G75*
G02X275479Y245236I1691J6289*
G01*
G75*
G02X275794Y247239I6512J0*
G01*
G37*
X291674D02*
G36*
X288187D01*
G75*
G02X288502Y245236I-6196J-2002*
G01*
G75*
G02X283681Y238948I-6512*
G01*
X288240*
X291674Y247239*
G37*
X310972Y238948D02*
G36*
X307739Y247239D01*
X296741*
X293307Y238948*
X310972*
G37*
X325030Y247239D02*
G36*
X322128D01*
G75*
G02X314965I-3581J3949*
G01*
X312763*
X315554Y240083*
G75*
G02X317461Y238948I-1006J-3861*
G01*
X325224*
X323781Y242430*
G75*
G02X323602Y243328I2161J898*
G01*
G75*
G02X323781Y244224I2340*
G01*
X325030Y247239*
G37*
X331272Y238948D02*
G36*
G75*
G02X330268Y242901I7280J3954D01*
G01*
G75*
G02X331495Y247239I8284J0*
G01*
X330097*
X328476Y243327*
X330290Y238948*
X331272*
G37*
X368644D02*
G36*
X372078Y247239D01*
X368676*
G75*
G02X356251I-6213J1951*
G01*
X345608*
G75*
G02X346835Y242901I-7057J-4338*
G01*
G75*
G02X345831Y238948I-8284J0*
G01*
X355452*
G75*
G02X361661I3104J-4333*
G01*
X368644*
G37*
X459430D02*
G36*
X455996Y247239D01*
X439583*
X443017Y238948*
X450002*
G75*
G02X456210I3104J-4334*
G01*
X459430*
G37*
X538630D02*
G36*
X536323Y244515D01*
G75*
G02X536143Y245415I2159J900*
G01*
G75*
G02X536321Y246311I2339*
G01*
X536706Y247239*
X496698*
G75*
G02X489535I-3581J3948*
G01*
X480168*
G75*
G02X481394Y242900I-7057J-4338*
G01*
G75*
G02X480391Y238948I-8284*
G01*
X538630*
G37*
X465831D02*
G36*
G75*
G02X464828Y242900I7280J3953D01*
G01*
G75*
G02X466054Y247239I8283*
G01*
X461063*
X464496Y238948*
X465831*
G37*
X564313D02*
G36*
X560880Y247239D01*
X541772*
X541017Y245415*
X543697Y238948*
X545301*
G75*
G02Y238952I8556J2*
G01*
G75*
G02X561868I8283*
G01*
G75*
G02Y238948I-8556J-2*
G01*
X564313*
G37*
X615833Y247239D02*
G36*
X578920D01*
G75*
G02X568259I-5331*
G01*
X565947*
X569215Y239345*
G75*
G02X569340Y238948I-2162J-899*
G01*
X595814*
X615833Y247239*
G37*
X625446Y238948D02*
G36*
G75*
G02X625249Y240538I6315J1589D01*
G01*
G75*
G02X634841Y246275I6512*
G01*
X634442Y247239*
X628067*
X608048Y238948*
X625446*
G37*
X700929Y247239D02*
G36*
X639509D01*
X642946Y238948*
X646771*
G75*
G02X646600Y240433I6341J1485*
G01*
G75*
G02X659623I6512*
G01*
G75*
G02X659452Y238948I-6512J0*
G01*
X697494*
X700929Y247239*
G37*
X719740Y238948D02*
G36*
X716304Y247239D01*
X709479*
G75*
G02X705478Y245990I-3838J5261*
G01*
X702561Y238948*
X712066*
G75*
G02X716994I2464J-7909*
G01*
X719740*
G37*
X729218D02*
G36*
G75*
G02X729205Y239326I5317J378D01*
G01*
G75*
G02X736969Y244069I5331*
G01*
X735656Y247239*
X730969*
G75*
G02X723014I-3978J5156*
G01*
X721371*
X724807Y238948*
X729218*
G37*
X742435Y247239D02*
G36*
X740723D01*
X741560Y245218*
G75*
G02X742435Y247239I7333J-1973*
G01*
G37*
X112240Y260307D02*
G36*
X95663D01*
X79736Y253707*
G75*
G02X77944I-896J2163*
G01*
X62013Y260307*
X40144*
X68216Y248680*
G75*
G02X69398Y247496I-836J-2016*
G01*
X69504Y247239*
X89592*
X89716Y247537*
G75*
G02X90983Y248804I2163J-896*
G01*
X99511Y252337*
G75*
G02X99509Y252487I5634J149*
G01*
G75*
G02Y252500I5599J7*
G01*
G75*
G02X112532I6512*
G01*
G75*
G02X109857Y247239I-6512*
G01*
X112710*
X116581Y256580*
X115617Y258909*
X112240Y260307*
G37*
X83435D02*
G36*
X74244D01*
X78840Y258403*
X83435Y260307*
G37*
X102184Y247239D02*
G36*
G75*
G02X101302Y248013I3837J5263D01*
G01*
X99434Y247239*
X102184*
G37*
X220542D02*
G36*
X218873Y251267D01*
X199964Y259097*
X198744Y256152*
X191258Y259253*
X191695Y260307*
X120104*
X121277Y257475*
G75*
G02X121455Y256580I-2163J-895*
G01*
G75*
G02X121276Y255682I-2341*
G01*
X117777Y247239*
X220542*
G37*
X260457Y260307D02*
G36*
X209278D01*
X221557Y255222*
G75*
G02X222826Y253954I-892J-2162*
G01*
X225608Y247239*
X232743*
G75*
G02X243404I5331J-4*
G01*
X246194*
X249370Y254907*
G75*
G02X250638Y256176I2163J-893*
G01*
X260458Y260244*
G75*
G02X260457Y260307I5630J137*
G01*
G37*
X295201D02*
G36*
X273479D01*
G75*
G02X262250Y255920I-6511J101*
G01*
X253325Y252223*
X251261Y247239*
X275794*
G75*
G02X288187I6196J-2002*
G01*
X291674*
X296144Y258030*
X295201Y260307*
G37*
X307739Y247239D02*
G36*
X302643Y260307D01*
X300268*
X300839Y258928*
G75*
G02X301018Y258030I-2162J-898*
G01*
G75*
G02X300840Y257135I-2341*
G01*
X296741Y247239*
X307739*
G37*
X330446Y260307D02*
G36*
X307667D01*
X312763Y247239*
X314965*
G75*
G02X313216Y251187I3581J3949*
G01*
G75*
G02X323877I5331*
G01*
G75*
G02X322128Y247239I-5331*
G01*
X325030*
X330446Y260307*
G37*
X372078Y247239D02*
G36*
X375278Y254962D01*
Y254962*
X375278Y254963*
G75*
G03X375599Y256575I-3896J1612*
G01*
G75*
G03X373344Y260307I-4216*
G01*
X352537*
G75*
G02X342344I-5096J4054*
G01*
X336686*
X335270Y259720*
X330097Y247239*
X331495*
G75*
G02X345608I7057J-4338*
G01*
X356251*
G75*
G02X355952Y249189I6213J1951*
G01*
G75*
G02X368975I6512*
G01*
G75*
G02X368676Y247239I-6512J0*
G01*
X372078*
G37*
X459126Y260307D02*
G36*
X438275D01*
X438214Y260282*
G75*
G02X438211Y260281I-3J3*
G01*
G75*
G03X435913Y256840I1425J-3441*
G01*
G75*
G03X436196Y255415I3724*
G01*
X436197Y255413*
X439583Y247239*
X455996*
X455667Y248034*
G75*
G02X455489Y248929I2161J895*
G01*
G75*
G02X455669Y249827I2340*
G01*
X459734Y259642*
G75*
G02X459126Y260307I4488J4719*
G01*
G37*
X538185D02*
G36*
X490751D01*
G75*
G02X480394I-5178J3948*
G01*
X469318*
G75*
G02X464059Y257851I-5096J4054*
G01*
X460363Y248929*
X461063Y247239*
X466054*
G75*
G02X480168I7057J-4338*
G01*
X489535*
G75*
G02X487785Y251187I3581J3948*
G01*
G75*
G02X498447I5331*
G01*
G75*
G02X496698Y247239I-5331*
G01*
X536706*
X540208Y255694*
G75*
G02X538185Y260307I4488J4719*
G01*
G37*
X560880Y247239D02*
G36*
X560723Y247619D01*
X555254Y249882*
G75*
G02X553983Y251150I891J2163*
G01*
X550928Y258526*
G75*
G02X544533Y253902I-6232J1885*
G01*
X541772Y247239*
X560880*
G37*
X628858Y260307D02*
G36*
X619970D01*
X620408Y259250*
X612911Y256145*
X611187Y260307*
X572558*
G75*
G02X559534I-6512*
G01*
X555257*
X557937Y253837*
X563409Y251574*
G75*
G02X564677Y250306I-896J-2164*
G01*
X565947Y247239*
X568259*
G75*
G02X578920I5331*
G01*
X615833*
X631570Y253757*
X628858Y260307*
G37*
X716304Y247239D02*
G36*
X711027Y259974D01*
X710222Y260307*
X694848*
X669788Y249924*
G75*
G02X667993Y249923I-898J2162*
G01*
X650886Y257011*
X637718Y251560*
X639509Y247239*
X700929*
X701154Y247781*
G75*
G02X699130Y252498I4485J4717*
G01*
G75*
G02Y252500I6767J1*
G01*
G75*
G02X712153I6512*
G01*
G75*
G02X709479Y247239I-6512*
G01*
X716304*
G37*
X634442D02*
G36*
X633508Y249492D01*
X628067Y247239*
X634442*
G37*
X646609Y260307D02*
G36*
X634265D01*
X636072Y255945*
X646609Y260307*
G37*
X682619D02*
G36*
X655161D01*
X668889Y254619*
X682619Y260307*
G37*
X730244D02*
G36*
X715956D01*
X721371Y247239*
X723014*
G75*
G02X720480Y252394I3978J5156*
G01*
Y252395*
G75*
G02X731626Y256969I6512*
G01*
X730244Y260307*
G37*
X735656Y247239D02*
G36*
X733504Y252437D01*
Y252394*
G75*
G02X730969Y247239I-6512*
G01*
X735656*
G37*
X770240Y260307D02*
G36*
X735311D01*
X740723Y247239*
X742435*
G75*
G02X745987Y250260I6459J-3993*
G01*
G75*
G03X745988Y250261J0*
G01*
X770240Y260307*
G37*
X62013D02*
G36*
X45615Y267100D01*
X44393Y264150*
X36895Y267256*
X39872Y274444*
X32672*
X30750Y269804*
X23259Y272907*
X23896Y274444*
X6469*
G75*
G03X7289Y273916I1870J2003*
G01*
G75*
G03X7290Y273915I2J2*
G01*
X40144Y260307*
X62013*
G37*
X118711Y274444D02*
G36*
X111504D01*
X111222Y273764*
X109580Y274444*
X48463*
X48628Y274376*
X47406Y271425*
X74244Y260307*
X83435*
X103052Y268436*
G75*
G02X104846Y268435I896J-2161*
G01*
X116141Y263758*
X118956Y270557*
X117373Y271213*
X118711Y274444*
G37*
X112240Y260307D02*
G36*
X103948Y263741D01*
X95663Y260307*
X112240*
G37*
X191695D02*
G36*
X195489Y269467D01*
X197069Y268812*
X198016Y271097*
G75*
G02X199284Y272364I2163J-896*
G01*
X201918Y273456*
X202327Y274444*
X188058*
G75*
G02X188161Y273735I-2393J-709*
G01*
G75*
G02X187970Y272779I-2496*
G01*
X187903Y272616*
X189343Y272019*
X185107Y261794*
X177610Y264900*
X181563Y274444*
X127488*
X124864Y268109*
X123281Y268765*
X119941Y260700*
X120104Y260307*
X191695*
G37*
X295201D02*
G36*
X289344Y274444D01*
X222713*
G75*
G02Y274443I-5639J0*
G01*
G75*
G02X212052I-5331*
G01*
G75*
G02Y274444I5639J0*
G01*
X207394*
X205872Y270769*
G75*
G02X204604Y269502I-2164J898*
G01*
X201970Y268410*
X201394Y267020*
X202975Y266366*
X201756Y263422*
X209278Y260307*
X260457*
G75*
G02X260456Y260394I5639J94*
G01*
G75*
G02Y260408I5599J7*
G01*
G75*
G02X273480I6512*
G01*
G75*
G02X273479Y260307I-6518J0*
G01*
X295201*
G37*
X302643D02*
G36*
X297130Y274444D01*
X294411*
X300268Y260307*
X302643*
G37*
X339260Y274444D02*
G36*
X302154D01*
X307667Y260307*
X330446*
X331316Y262406*
G75*
G02X332583Y263674I2165J-896*
G01*
X341712Y267457*
G75*
G02X347925Y270855I5728J-3096*
G01*
X339260Y274444*
G37*
X342344Y260307D02*
G36*
G75*
G02X341292Y262216I5096J4054D01*
G01*
X336686Y260307*
X342344*
G37*
X373344D02*
G36*
G75*
G03X372995Y260470I-1961J-3733D01*
G01*
X372993Y260471*
X351690Y269296*
G75*
G02X353952Y264361I-4250J-4935*
G01*
G75*
G02X353457Y261869I-6512*
G01*
G75*
G02X352537Y260307I-6016J2492*
G01*
X373344*
G37*
X459126D02*
G36*
G75*
G02X457710Y264361I5097J4054D01*
G01*
G75*
G02X459971Y269294I6512*
G01*
X438275Y260307*
X459126*
G37*
X538185D02*
G36*
G75*
G02X538184Y260412I6511J101D01*
G01*
G75*
G02X547770Y266153I6512*
G01*
X544336Y274444*
X472406*
X463740Y270855*
G75*
G02X470734Y264361I482J-6494*
G01*
G75*
G02X469318Y260307I-6512J0*
G01*
X480394*
G75*
G02X479061Y264256I5178J3948*
G01*
G75*
G02X492084I6512*
G01*
G75*
G02X490751Y260307I-6512*
G01*
X538185*
G37*
X611187D02*
G36*
X608675Y266370D01*
X610265Y267028*
X610190Y267209*
X605741Y269050*
G75*
G02X604470Y270319I893J2165*
G01*
X602761Y274444*
X599606*
G75*
G02X588945I-5331*
G01*
X549403*
X555257Y260307*
X559534*
G75*
G02X572558I6512*
G01*
X611187*
G37*
X628858D02*
G36*
X627992Y262398D01*
X626554Y261803*
X622324Y272017*
X623905Y272672*
X623171Y274444*
X607828*
X608424Y273006*
X612874Y271164*
G75*
G02X614145Y269894I-892J-2164*
G01*
X614589Y268820*
X616173Y269476*
X619970Y260307*
X628858*
G37*
X730244D02*
G36*
X724388Y274444D01*
X702109*
X700438Y273752*
X700151Y274444*
X692951*
X694291Y271209*
X686800Y268106*
X684174Y274444*
X652401*
X654049Y270465*
G75*
G02X657114Y266583I-926J-3881*
G01*
G75*
G02X649133I-3991*
G01*
G75*
G02X649724Y268674I3991J0*
G01*
X647334Y274444*
X630088*
X634040Y264904*
X632607Y264311*
X634265Y260307*
X646609*
X649991Y261707*
G75*
G02X651784Y261706I896J-2164*
G01*
X655161Y260307*
X682619*
X701635Y268186*
G75*
G02X703428Y268187I897J-2163*
G01*
X713713Y263928*
G75*
G02X714981Y262659I-895J-2162*
G01*
X715956Y260307*
X730244*
G37*
X710222D02*
G36*
X702533Y263491D01*
X694848Y260307*
X710222*
G37*
X804071Y274444D02*
G36*
X787767D01*
X788402Y272911*
X780911Y269808*
X778990Y274444*
X771783*
X774758Y267263*
X767272Y264162*
X763041Y274376*
X763207Y274444*
X729455*
X735311Y260307*
X770240*
X803271Y273991*
G75*
G03X803273Y273991I-2J7*
G01*
G75*
G03X804071Y274444I-1426J3441*
G01*
G37*
X9497Y286401D02*
G36*
X6190Y278417D01*
Y274747*
G75*
G03X6469Y274444I2149J1698*
G01*
X23896*
X27492Y283127*
X28347Y282773*
X27280Y285345*
G75*
G02X27101Y286242I2161J897*
G01*
G75*
G02X27107Y286401I2340J-2*
G01*
X9497*
G37*
X35964D02*
G36*
X32041D01*
X31975Y286243*
X33469Y282641*
G75*
G02X33649Y281741I-2161J-900*
G01*
G75*
G02X33471Y280845I-2341*
G01*
X33402Y280679*
X34983Y280024*
X32672Y274444*
X39872*
X41130Y277481*
X42717Y276824*
X43809Y279461*
G75*
G02X45074Y280727I2161J-894*
G01*
X47013Y281533*
X48122Y284209*
G75*
G02X35964Y286401I-5100J6527*
G01*
G37*
X107687D02*
G36*
X66606D01*
G75*
G02X68358Y282450I-3578J-3952*
G01*
G75*
G02X57697I-5331*
G01*
G75*
G02X59450Y286401I5331*
G01*
X54097*
X50967Y278847*
G75*
G02X49700Y277580I-2162J896*
G01*
X47763Y276775*
X47041Y275033*
X48463Y274444*
X109580*
X103737Y276865*
X107687Y286401*
G37*
X128928D02*
G36*
X114011D01*
G75*
G02X113865Y285897I-2307J395*
G01*
X113419Y284820*
X115453Y283977*
X111504Y274444*
X118711*
X121606Y281432*
X123189Y280777*
X123830Y282325*
G75*
G02X125098Y283593I2163J-896*
G01*
X128317Y284926*
X128928Y286401*
G37*
X184476D02*
G36*
X180040D01*
G75*
G02X174705I-2667J4615*
G01*
X148832*
G75*
G02X138170I-5331J4*
G01*
X133995*
X132271Y282240*
G75*
G02X131004Y280972I-2164J896*
G01*
X127784Y279638*
X127513Y278985*
X129097Y278329*
X127488Y274444*
X181563*
X181845Y275125*
X182497Y274855*
X181493Y277282*
G75*
G02X181303Y278239I2310J956*
G01*
G75*
G02X181493Y279194I2500*
G01*
X184476Y286401*
G37*
X289344Y274444D02*
G36*
X287563Y278743D01*
X287033Y278963*
X285812Y276016*
X278320Y279119*
X281337Y286401*
X274130*
X272170Y281670*
X264684Y284771*
X265359Y286401*
X227252*
G75*
G02X215327I-5963J2617*
G01*
X210874*
X211238Y285522*
G75*
G02X211417Y284624I-2163J-898*
G01*
G75*
G02X211239Y283728I-2341*
G01*
X207394Y274444*
X212052*
G75*
G02X222713I5331J-1*
G01*
X289344*
G37*
X202327D02*
G36*
X203406Y277049D01*
G75*
G02X189094Y282730I-6028J5681*
G01*
G75*
G02X189725Y285900I8284*
G01*
G75*
G02X189952Y286401I7654J-3173*
G01*
X189883*
X186504Y278238*
X187970Y274692*
G75*
G02X188058Y274444I-2306J-957*
G01*
X202327*
G37*
X205806Y286401D02*
G36*
X204803D01*
G75*
G02X205661Y282730I-7426J-3672*
G01*
G75*
G02Y282717I-7679J-6*
G01*
G75*
G02X205657Y282485I-7572J0*
G01*
X206543Y284624*
X205806Y286401*
G37*
X297130Y274444D02*
G36*
X292468Y286401D01*
X289646*
X290045Y286236*
X288824Y283288*
X290251Y282697*
G75*
G02X291518Y281429I-894J-2161*
G01*
X294411Y274444*
X297130*
G37*
X313589Y286401D02*
G36*
X297492D01*
X302154Y274444*
X339260*
X317074Y283634*
X317071Y283635*
G75*
G02X313589Y286401I3095J7470*
G01*
G37*
X544336Y274444D02*
G36*
X541072Y282325D01*
X539493Y281670*
X537533Y286401*
X530330*
X533346Y279118*
X525849Y276012*
X521613Y286237*
X522009Y286401*
X498074*
G75*
G02X494590Y283633I-6578J4704*
G01*
G75*
G02X494589Y283633J0*
G01*
X472406Y274444*
X544336*
G37*
X602761D02*
G36*
X597809Y286401D01*
X546303*
X546978Y284771*
X545397Y284117*
X549403Y274444*
X588945*
G75*
G02X599606I5331*
G01*
X602761*
G37*
X623171D02*
G36*
X622763Y275429D01*
G75*
G02X622584Y276327I2161J898*
G01*
G75*
G02X622763Y277224I2339*
G01*
X624500Y281406*
X622430Y286401*
X621707*
G75*
G02X622564Y282731I-7426J-3670*
G01*
G75*
G02X605997I-8283*
G01*
G75*
G02X606855Y286401I8283J0*
G01*
X602876*
X607828Y274444*
X623171*
G37*
X647334D02*
G36*
X642381Y286401D01*
X636952*
G75*
G02X631620I-2666J4617*
G01*
X627497*
X629196Y282300*
G75*
G02X629374Y281404I-2160J-896*
G01*
G75*
G02X629194Y280504I-2340*
G01*
X627459Y276325*
X628230Y274463*
X629809Y275117*
X630088Y274444*
X647334*
G37*
X684174D02*
G36*
X682567Y278326D01*
X684152Y278982*
X683888Y279622*
X679433Y281464*
G75*
G02X678164Y282735I894J2163*
G01*
X676644Y286401*
X673493*
G75*
G02X662832I-5331*
G01*
X647448*
X652401Y274444*
X684174*
G37*
X697056Y286401D02*
G36*
X681712D01*
X682119Y285419*
X686573Y283577*
G75*
G02X687843Y282308I-893J-2163*
G01*
X688477Y280774*
X690058Y281429*
X692951Y274444*
X700151*
X696202Y283977*
X697788Y284634*
X697056Y286401*
G37*
X710389D02*
G36*
X703982D01*
X704921Y284134*
X710389Y286401*
G37*
X724388Y274444D02*
G36*
X720569Y283667D01*
X718291Y284610*
X706713Y279809*
X707935Y276857*
X702109Y274444*
X724388*
G37*
X763207D02*
G36*
X764624Y275031D01*
X764360Y275667*
X759904Y277512*
G75*
G02X758635Y278780I893J2162*
G01*
X755480Y286401*
X752215*
G75*
G02X753964Y282453I-3582J-3948*
G01*
G75*
G02X743303I-5331*
G01*
G75*
G02X745052Y286401I5331*
G01*
X724502*
G75*
G02X724524Y286351I-2142J-950*
G01*
X729455Y274444*
X763207*
G37*
X804983Y275421D02*
G36*
Y279599D01*
X802165Y286401*
X781544*
X781252Y285693*
X782585Y282475*
X784169Y283131*
X787767Y274444*
X804071*
G75*
G03X804983Y275421I-2224J2990*
G01*
G37*
X778990Y274444D02*
G36*
X776678Y280028D01*
X778260Y280683*
X776557Y284794*
G75*
G02X776378Y285693I2160J899*
G01*
G75*
G02X776488Y286401I2340J0*
G01*
X775695*
G75*
G02X761582I-7056J4339*
G01*
X760546*
X762589Y281467*
X767047Y279621*
G75*
G02X768315Y278352I-896J-2163*
G01*
X768948Y276822*
X770527Y277476*
X771783Y274444*
X778990*
G37*
X14726Y299026D02*
G36*
X9497Y286401D01*
X27107*
G75*
G02X27280Y287139I2334J-159*
G01*
X32203Y299026*
X28348*
G75*
G02Y299023I-5343J-2*
G01*
G75*
G02X17687I-5331*
G01*
G75*
G02Y299026I5343J2*
G01*
X14726*
G37*
X54261D02*
G36*
X37270D01*
X32041Y286401*
X35964*
G75*
G02X34739Y290736I7059J4335*
G01*
G75*
G02X35370Y293906I8284*
G01*
G75*
G02X51244Y291745I7653J-3170*
G01*
X54261Y299026*
G37*
X110507D02*
G36*
X107069D01*
G75*
G02X99913I-3578J3952*
G01*
X73131*
G75*
G02X73446Y297025I-6196J-2002*
G01*
G75*
G02X60422I-6512*
G01*
G75*
G02X60738Y299026I6512J0*
G01*
X59328*
X54097Y286401*
X59450*
G75*
G02X66606I3578J-3952*
G01*
X107687*
X107967Y287078*
X109094Y286611*
X109170Y286795*
X107675Y290394*
G75*
G02X107495Y291293I2162J899*
G01*
G75*
G02X107674Y292190I2342*
G01*
X110507Y299026*
G37*
X128928Y286401D02*
G36*
X130594Y290421D01*
G75*
G02X115213Y294691I-7098J4270*
G01*
G75*
G02X115843Y297861I8283*
G01*
G75*
G02X116438Y299026I7653J-3171*
G01*
X115574*
X112370Y291295*
X113866Y287694*
G75*
G02X114045Y286796I-2161J-898*
G01*
G75*
G02X114011Y286401I-2340J0*
G01*
X128928*
G37*
X134159Y299026D02*
G36*
X130555D01*
G75*
G02X131780Y294691I-7059J-4335*
G01*
G75*
G02X131534Y292691I-8284*
G01*
X134159Y299026*
G37*
X189702D02*
G36*
X153620D01*
G75*
G02X141196I-6212J1954*
G01*
X139226*
X133995Y286401*
X138170*
G75*
G02Y286405I5343J2*
G01*
G75*
G02X148832I5331*
G01*
G75*
G02Y286401I-5343J-2*
G01*
X174705*
G75*
G02X172042Y291017I2667J4615*
G01*
G75*
G02X182703I5331*
G01*
G75*
G02X180040Y286401I-5331*
G01*
X184476*
X189702Y299026*
G37*
X265359Y286401D02*
G36*
X268915Y294985D01*
X270014Y294530*
X268208Y298889*
G75*
G02X268156Y299026I2307J956*
G01*
X214648*
X210145Y288159*
X210874Y286401*
X215327*
G75*
G02X214778Y289019I5963J2617*
G01*
G75*
G02X227801I6512*
G01*
G75*
G02X227252Y286401I-6512*
G01*
X265359*
G37*
X202299Y299026D02*
G36*
X199591D01*
X194183Y296787*
X189883Y286401*
X189952*
G75*
G02X204803I7425J-3671*
G01*
X205806*
X205450Y287261*
G75*
G02X205271Y288159I2161J899*
G01*
G75*
G02X205449Y289056I2340*
G01*
X209342Y298450*
G75*
G02X202299Y299026I-3076J5740*
G01*
G37*
X313589Y286401D02*
G36*
G75*
G02X312080Y291106I6577J4705D01*
G01*
G75*
G02X312696Y294202I8087J0*
G01*
X312696Y294202*
X314694Y299026*
X306936*
G75*
G02X309780Y294311I-2487J-4715*
G01*
G75*
G02X299118I-5331*
G01*
G75*
G02X301962Y299026I5331*
G01*
X291918*
G75*
G02X276970I-7474J3572*
G01*
X273559*
X275222Y295013*
G75*
G02X275412Y294057I-2308J-956*
G01*
G75*
G02X275220Y293098I-2499*
G01*
X274964Y292479*
X276401Y291884*
X274130Y286401*
X281337*
X282554Y289339*
X289646Y286401*
X292468*
X292173Y287156*
G75*
G02X289189Y291018I1006J3861*
G01*
G75*
G02X297170I3991*
G01*
Y291017*
G75*
G02X296534Y288857I-3989*
G01*
X297492Y286401*
X313589*
G37*
X515343Y299026D02*
G36*
X509701D01*
G75*
G02X512544Y294311I-2487J-4715*
G01*
G75*
G02X501883I-5331*
G01*
G75*
G02X504727Y299026I5331*
G01*
X496968*
X498967Y294200*
G75*
G02X498968Y294198I-4J-4*
G01*
G75*
G02X499583Y291105I-7471J-3093*
G01*
G75*
G02X498074Y286401I-8087*
G01*
X522009*
X523056Y286835*
X522255Y288772*
X519997Y289706*
G75*
G02X518644Y291059I957J2310*
G01*
X515343Y299026*
G37*
X600720D02*
G36*
X534693D01*
G75*
G02X521904Y296245I-7474J3572*
G01*
X522864Y293927*
X525120Y292993*
G75*
G02X526475Y291639I-955J-2310*
G01*
X527672Y288747*
X529111Y289343*
X530330Y286401*
X537533*
X535262Y291884*
X542748Y294985*
X546303Y286401*
X597809*
X597021Y288305*
G75*
G02X596843Y289200I2165J896*
G01*
G75*
G02X597021Y290096I2343*
G01*
X600720Y299026*
G37*
X622430Y286401D02*
G36*
X621080Y289661D01*
X616895Y291394*
G75*
G02X615627Y292662I896J2165*
G01*
X612991Y299026*
X609358*
G75*
G02X605229Y297681I-3967J5165*
G01*
X601717Y289200*
X602876Y286401*
X606855*
G75*
G02X621707I7426J-3670*
G01*
X622430*
G37*
X642381D02*
G36*
X638043Y296873D01*
X632843Y299026*
X630842*
G75*
G02X622642I-4100J5059*
G01*
X618057*
X619580Y295349*
X623766Y293616*
G75*
G02X625033Y292349I-895J-2163*
G01*
X627497Y286401*
X631620*
G75*
G02X628955Y291017I2666J4616*
G01*
G75*
G02X639617I5331*
G01*
G75*
G02X636952Y286401I-5331*
G01*
X642381*
G37*
X676644D02*
G36*
X671413Y299026D01*
X642217*
X647448Y286401*
X662832*
G75*
G02X673493I5331*
G01*
X676644*
G37*
X697056D02*
G36*
X696459Y287843D01*
G75*
G02X696281Y288739I2162J896*
G01*
G75*
G02X696459Y289635I2340*
G01*
X698725Y295106*
X697102Y299026*
X695224*
G75*
G02X696451Y294688I-7056J-4339*
G01*
G75*
G02X679884I-8283*
G01*
G75*
G02X681111Y299026I8283*
G01*
X676480*
X681712Y286401*
X697056*
G37*
X721203Y299026D02*
G36*
X711755D01*
G75*
G02X704591I-3582J3948*
G01*
X702168*
X703420Y296002*
G75*
G02X703598Y295106I-2163J-895*
G01*
G75*
G02X703419Y294207I-2342*
G01*
X701155Y288739*
X702113Y286426*
X703700Y287083*
X703982Y286401*
X710389*
X716895Y289099*
G75*
G02X717160Y289263I1447J-2039*
G01*
X721203Y299026*
G37*
X755480Y286401D02*
G36*
X751378Y296308D01*
G75*
G02X751200Y297204I2163J895*
G01*
G75*
G02X751378Y298101I2341*
G01*
X751761Y299026*
X726270*
X721796Y288225*
X723255Y287621*
G75*
G02X724502Y286401I-894J-2162*
G01*
X745052*
G75*
G02X752215I3582J-3948*
G01*
X755480*
G37*
X802165D02*
G36*
X796936Y299026D01*
X793974*
G75*
G02X783313I-5331*
G01*
X778871*
X782448Y290387*
G75*
G02X782628Y289487I-2161J-900*
G01*
G75*
G02X782451Y288593I-2340*
G01*
X781544Y286401*
X802165*
G37*
X773804Y299026D02*
G36*
X756828D01*
X756073Y297204*
X760546Y286401*
X761582*
G75*
G02X760355Y290740I7056J4339*
G01*
G75*
G02X775079Y295950I8283*
G01*
X773804Y299026*
G37*
X776488Y286401D02*
G36*
G75*
G02X776556Y286587I2230J-707D01*
G01*
X777755Y289487*
X776876Y291608*
G75*
G02X776922Y290741I-8222J-868*
G01*
G75*
G02Y290740I-11279J0*
G01*
G75*
G02X775695Y286401I-8283*
G01*
X776488*
G37*
X43718Y312095D02*
G36*
X20139D01*
X14726Y299026*
X17687*
G75*
G02X28348I5331J-4*
G01*
X32203*
X35978Y308143*
G75*
G02X37246Y309413I2165J-893*
G01*
X43718Y312095*
G37*
X59675D02*
G36*
X58422D01*
G75*
G02X46716Y308270I-6511J102*
G01*
X39934Y305459*
X37270Y299026*
X54261*
X59675Y312095*
G37*
X116507D02*
G36*
X64741D01*
X59328Y299026*
X60738*
G75*
G02X73131I6196J-2002*
G01*
X99913*
G75*
G02X98160Y302978I3578J3952*
G01*
G75*
G02X108822I5331*
G01*
G75*
G02X107069Y299026I-5331*
G01*
X110507*
X115435Y310918*
G75*
G02X116507Y312095I2165J-896*
G01*
G37*
X139574D02*
G36*
X137479D01*
G75*
G02X127667Y311663I-5094J4057*
G01*
X119390Y308233*
X115574Y299026*
X116438*
G75*
G02X130555I7059J-4335*
G01*
X134159*
X139574Y312095*
G37*
X214996D02*
G36*
X144641D01*
X139226Y299026*
X141196*
G75*
G02X140896Y300980I6212J1954*
G01*
G75*
G02X153920I6512*
G01*
G75*
G02X153620Y299026I-6512J0*
G01*
X189702*
X189962Y299654*
G75*
G02X191316Y301007I2307J-955*
G01*
X199762Y304505*
G75*
G02X212500Y306072I6504J-315*
G01*
X214996Y312095*
G37*
X202299Y299026D02*
G36*
G75*
G02X201457Y299800I3968J5164D01*
G01*
X199591Y299026*
X202299*
G37*
X272887Y312095D02*
G36*
X269630D01*
G75*
G02X269769Y310885I-5192J-1211*
G01*
G75*
G02X259108I-5331*
G01*
G75*
G02X259247Y312095I5331J-1*
G01*
X227790*
X226463Y308891*
G75*
G02X226954Y306972I-3498J-1919*
G01*
G75*
G02X226650Y305445I-3989*
G01*
G75*
G02X218973Y306972I-3687J1527*
G01*
G75*
G02X219277Y308499I3991J0*
G01*
G75*
G02X221847Y310803I3687J-1527*
G01*
X222382Y312095*
X220063*
X214648Y299026*
X268156*
G75*
G02X268018Y299844I2360J818*
G01*
G75*
G02X268208Y300801I2497*
G01*
X272887Y312095*
G37*
X314694Y299026D02*
G36*
X320107Y312095D01*
X314022*
G75*
G02X314867Y308887I-5667J-3208*
G01*
G75*
G02X301844I-6512*
G01*
G75*
G02X302689Y312095I6512*
G01*
X278294*
X273220Y299845*
X273559Y299026*
X276970*
G75*
G02X276160Y302598I7474J3571*
G01*
G75*
G02X292727I8283*
G01*
G75*
G02X291918Y299026I-8283J0*
G01*
X301962*
G75*
G02X306936I2487J-4715*
G01*
X314694*
G37*
X515343D02*
G36*
X510544Y310609D01*
G75*
G02X510354Y311565I2308J956*
G01*
G75*
G02X510411Y312095I2499J0*
G01*
X491554*
X496968Y299026*
X504727*
G75*
G02X509701I2487J-4715*
G01*
X515343*
G37*
X607578Y312095D02*
G36*
X552415D01*
G75*
G02X552555Y310885I-5192J-1211*
G01*
G75*
G02X541893I-5331*
G01*
G75*
G02X542033Y312095I5331J-1*
G01*
X515775*
X515556Y311566*
X518968Y303330*
G75*
G02X535502Y302598I8251J-733*
G01*
G75*
G02X534693Y299026I-8283J0*
G01*
X600720*
X600904Y299472*
G75*
G02X598880Y304191I4487J4719*
G01*
G75*
G02X608476Y309926I6512*
G01*
X607578Y312095*
G37*
X612991Y299026D02*
G36*
X611628Y302316D01*
G75*
G02X609358Y299026I-6237J1875*
G01*
X612991*
G37*
X674182Y312095D02*
G36*
X612644D01*
X618057Y299026*
X622642*
G75*
G02X620230Y304085I4100J5059*
G01*
Y304086*
G75*
G02X633254I6512*
G01*
G75*
G02Y304072I-5599J-7*
G01*
G75*
G02X633252Y303923I-5577J-1*
G01*
X640727Y300828*
G75*
G02X641996Y299560I-894J-2165*
G01*
X642217Y299026*
X671413*
X670903Y300258*
G75*
G02X670723Y301158I2161J900*
G01*
G75*
G02X670901Y302054I2341*
G01*
X674789Y311431*
G75*
G02X674182Y312095I4490J4716*
G01*
G37*
X632843Y299026D02*
G36*
X631461Y299598D01*
G75*
G02X630842Y299026I-4720J4488*
G01*
X632843*
G37*
X697102D02*
G36*
X694554Y305178D01*
X689082Y307446*
G75*
G02X687815Y308714I898J2164*
G01*
X686415Y312095*
X684376*
G75*
G02X679113Y309638I-5097J4054*
G01*
X675597Y301157*
X676480Y299026*
X681111*
G75*
G02X695224I7056J-4339*
G01*
X697102*
G37*
X726634Y312095D02*
G36*
X705807D01*
G75*
G02X695451I-5178J3948*
G01*
X691481*
X691769Y311399*
X697239Y309133*
G75*
G02X698509Y307864I-892J-2163*
G01*
X702168Y299026*
X704591*
G75*
G02X702842Y302974I3582J3948*
G01*
G75*
G02X713504I5331*
G01*
G75*
G02X711755Y299026I-5331*
G01*
X721203*
X726509Y311839*
G75*
G02X726634Y312095I2164J-897*
G01*
G37*
X753239D02*
G36*
X737570D01*
X730463Y309152*
X726270Y299026*
X751761*
X755262Y307481*
G75*
G02X753239Y312095I4487J4719*
G01*
G37*
X796936Y299026D02*
G36*
X791523Y312095D01*
X787612*
G75*
G02X774588I-6512*
G01*
X770315*
X773371Y304718*
X776270Y303516*
G75*
G02X777537Y302247I-896J-2161*
G01*
X778871Y299026*
X783313*
G75*
G02X793974I5331*
G01*
X796936*
G37*
X773804D02*
G36*
X773582Y299563D01*
X770683Y300765*
G75*
G02X769418Y302031I898J2163*
G01*
X765984Y310319*
G75*
G02X759587Y305690I-6235J1882*
G01*
X756828Y299026*
X773804*
G37*
X62237Y323953D02*
G36*
X25051D01*
X20139Y312095*
X43718*
X45428Y312804*
G75*
G02X58423Y312196I6483J-607*
G01*
G75*
G02X58422Y312095I-6517J0*
G01*
X59675*
X61186Y315743*
X60383Y317680*
G75*
G02X60203Y318579I2160J899*
G01*
G75*
G02X60381Y319475I2339*
G01*
X62237Y323953*
G37*
X141464D02*
G36*
X67303D01*
X65077Y318580*
X65880Y316643*
G75*
G02X66060Y315743I-2159J-900*
G01*
G75*
G02X65882Y314848I-2339*
G01*
X64741Y312095*
X116507*
G75*
G02X116702Y312187I1093J-2073*
G01*
X125875Y315988*
G75*
G02X125873Y316138I5675J150*
G01*
G75*
G02Y316152I5763J7*
G01*
G75*
G02X138897I6512*
G01*
G75*
G02X137479Y312095I-6512J0*
G01*
X139574*
X142945Y320231*
X141609Y323454*
G75*
G02X141464Y323953I2160J898*
G01*
G37*
X218051D02*
G36*
X146469D01*
X147640Y321130*
G75*
G02X147819Y320231I-2162J-898*
G01*
G75*
G02X147641Y319335I-2342*
G01*
X144641Y312095*
X214996*
X219204Y322250*
X217618Y322906*
X218051Y323953*
G37*
X285815D02*
G36*
X232702D01*
X227790Y312095*
X259247*
G75*
G02X269630I5191J-1210*
G01*
X272887*
X275741Y318987*
G75*
G02X277096Y320340I2309J-957*
G01*
X285815Y323953*
G37*
X227294D02*
G36*
X226835D01*
X225115Y319801*
X223528Y320458*
X220063Y312095*
X222382*
X227294Y323953*
G37*
X309754D02*
G36*
X299844D01*
G75*
G02X299349Y321566I-6511J105*
G01*
G75*
G02X288524Y319668I-6016J2493*
G01*
X279961Y316119*
X278294Y312095*
X302689*
G75*
G02X314022I5667J-3208*
G01*
X320107*
X321357Y315114*
X321358Y315116*
G75*
G03X321641Y316541I-3441J1425*
G01*
G75*
G03X319343Y319981I-3724*
G01*
G75*
G03X319341Y319982I-4J-7*
G01*
X309754Y323953*
G37*
X511819D02*
G36*
X501915D01*
X491411Y319602*
X491409Y319602*
G75*
G03X489719Y317071I1048J-2531*
G01*
G75*
G03X489926Y316025I2739*
G01*
X489926Y316024*
X491554Y312095*
X510411*
G75*
G02X510545Y312524I2442J-530*
G01*
X513510Y319680*
G75*
G02X511819Y323953I4820J4378*
G01*
G37*
X607578Y312095D02*
G36*
X602666Y323953D01*
X593607*
X594041Y322906*
X586550Y319803*
X584830Y323953*
X546192*
G75*
G02X533169I-6512*
G01*
X524841*
G75*
G02X518037Y317553I-6511J105*
G01*
X515775Y312095*
X542033*
G75*
G02X552415I5191J-1210*
G01*
X607578*
G37*
X681502Y323953D02*
G36*
X636912D01*
G75*
G02X629477I-3717J1452*
G01*
X607732*
X612644Y312095*
X674182*
G75*
G02X672767Y316148I5097J4054*
G01*
G75*
G02X682359Y321885I6512*
G01*
X681502Y323953*
G37*
X686415Y312095D02*
G36*
X685514Y314269D01*
G75*
G02X684376Y312095I-6235J1879*
G01*
X686415*
G37*
X753969Y323953D02*
G36*
X686569D01*
X691481Y312095*
X695451*
G75*
G02X694117Y316043I5178J3948*
G01*
G75*
G02X707141I6512*
G01*
G75*
G02X705807Y312095I-6512J0*
G01*
X726634*
G75*
G02X727779Y313107I2039J-1154*
G01*
X753969Y323953*
G37*
X753239Y312095D02*
G36*
G75*
G02X753238Y312200I6511J101D01*
G01*
G75*
G02X762826Y317939I6512*
G01*
X761194Y321879*
X737570Y312095*
X753239*
G37*
X791523D02*
G36*
X786611Y323953D01*
X765402*
X770315Y312095*
X774588*
G75*
G02X787612I6512*
G01*
X791523*
G37*
X66241Y338098D02*
G36*
X59034D01*
X57115Y333466*
X49629Y336567*
X50263Y338098*
X30910*
X25051Y323953*
X62237*
X64848Y330259*
X63265Y330915*
X66241Y338098*
G37*
X145082D02*
G36*
X137879D01*
X137594Y337410*
X135933Y338098*
X74828*
X74990Y338031*
X70757Y327811*
X69173Y328467*
X67303Y323953*
X141464*
G75*
G02X141430Y324352I2304J399*
G01*
G75*
G02X141608Y325248I2340*
G01*
X145324Y334215*
X143745Y334869*
X145082Y338098*
G37*
X233155D02*
G36*
X214737D01*
G75*
G02X214567Y337402I-2330J201*
G01*
X214123Y336330*
X215706Y335674*
X211473Y325455*
X203982Y328558*
X207933Y338098*
X153853*
X151231Y331769*
X149649Y332424*
X146304Y324352*
X146469Y323953*
X218051*
X221853Y333131*
X229351Y330026*
X226835Y323953*
X227294*
X233155Y338098*
G37*
X275607D02*
G36*
X249081D01*
G75*
G02X248675Y336060I-5331J2*
G01*
G75*
G02X238430Y337777I-4925J2040*
G01*
X232702Y323953*
X285815*
X286828Y324373*
G75*
G02X293824Y330552I6504J-315*
G01*
X275607Y338098*
G37*
X309754Y323953D02*
G36*
X297577Y328997D01*
G75*
G02X299844Y324058I-4244J-4939*
G01*
G75*
G02X299844Y323953I-6511J-4*
G01*
X309754*
G37*
X511819D02*
G36*
G75*
G02X511818Y324058I6511J101D01*
G01*
G75*
G02X514081Y328993I6512*
G01*
X501915Y323953*
X511819*
G37*
X584830D02*
G36*
X582317Y330022D01*
X583900Y330678*
X583824Y330861*
X579373Y332702*
G75*
G02X578104Y333970I893J2163*
G01*
X576394Y338098*
X573243*
G75*
G02X562582I-5331*
G01*
X536061*
X517844Y330552*
G75*
G02X524842Y324058I485J-6494*
G01*
G75*
G02X524841Y323953I-6519J-4*
G01*
X533169*
G75*
G02X546192I6512*
G01*
X584830*
G37*
X602666D02*
G36*
X601774Y326106D01*
X600188Y325449*
X595952Y335674*
X601805Y338098*
X581461*
X582058Y336657*
X586507Y334817*
G75*
G02X587778Y333548I-891J-2163*
G01*
X588224Y332470*
X589808Y333126*
X593607Y323953*
X602666*
G37*
X629477D02*
G36*
G75*
G02X629204Y325405I3717J1451D01*
G01*
G75*
G02X629795Y327495I3994J-1*
G01*
X625404Y338098*
X603732*
X607685Y328554*
X606099Y327897*
X607732Y323953*
X629477*
G37*
X681502D02*
G36*
X675656Y338065D01*
X674073Y337409*
X673788Y338098*
X666581*
X667920Y334865*
X660434Y331764*
X657810Y338098*
X630471*
X634120Y329286*
G75*
G02X637185Y325405I-926J-3882*
G01*
G75*
G02X636912Y323953I-3991J0*
G01*
X681502*
G37*
X753969D02*
G36*
X759402Y326204D01*
X756125Y334116*
X754544Y333461*
X752623Y338098*
X745420*
X748398Y330908*
X740900Y327803*
X736665Y338028*
X736834Y338098*
X680709*
X686569Y323953*
X753969*
G37*
X786611D02*
G36*
X780752Y338098D01*
X761394*
X762030Y336562*
X760450Y335907*
X764417Y326331*
G75*
G02X764830Y325334I-1952J-1393*
G01*
X765402Y323953*
X786611*
G37*
X53579Y346102D02*
G36*
X34226D01*
X30910Y338098*
X50263*
X53579Y346102*
G37*
X132410D02*
G36*
X94724D01*
G75*
G02X84063I-5331J5*
G01*
X60376*
G75*
G02X60207Y345409I-2331J202*
G01*
X59763Y344335*
X61346Y343679*
X59034Y338098*
X66241*
X67498Y341134*
X74828Y338098*
X135933*
X130096Y340516*
X132410Y346102*
G37*
X208310D02*
G36*
X173441D01*
G75*
G02X166298I-3571J3957*
G01*
X141194*
X137879Y338098*
X145082*
X147976Y345083*
X155461Y341982*
X153853Y338098*
X207933*
X208215Y338778*
X209798Y338122*
X209872Y338299*
X207846Y343191*
G75*
G02X207667Y344086I2160J896*
G01*
G75*
G02X207846Y344983I2339*
G01*
X208310Y346102*
G37*
X233155Y338098D02*
G36*
X236470Y346102D01*
X232024*
G75*
G02X215467I-8279J285*
G01*
X213377*
X212541Y344086*
X214567Y339195*
G75*
G02X214746Y338299I-2160J-896*
G01*
G75*
G02X214737Y338098I-2341*
G01*
X233155*
G37*
X259480Y346102D02*
G36*
X241878D01*
X240217Y342091*
G75*
G02X249081Y338100I3534J-3991*
G01*
G75*
G02Y338098I-5307J-1*
G01*
X275607*
X262966Y343334*
G75*
G02X262963Y343335I0J4*
G01*
G75*
G02X259480Y346102I3094J7471*
G01*
G37*
X576394Y338098D02*
G36*
X573079Y346102D01*
X552183*
G75*
G02X548699Y343333I-6581J4704*
G01*
G75*
G03X548698Y343333J-2*
G01*
X536061Y338098*
X562582*
G75*
G02X573243I5331*
G01*
X576394*
G37*
X625404D02*
G36*
X622090Y346102D01*
X596196*
G75*
G02X579639I-8279J283*
G01*
X578146*
X581461Y338098*
X601805*
X603450Y338780*
X603732Y338098*
X625404*
G37*
X657810D02*
G36*
X656204Y341977D01*
X657781Y342630*
X657515Y343270*
X653063Y345116*
G75*
G02X651935Y346102I898J2164*
G01*
X645372*
G75*
G02X638219I-3577J3953*
G01*
X627156*
X630471Y338098*
X657810*
G37*
X673788D02*
G36*
X670472Y346102D01*
X661403*
G75*
G02X661468Y345959I-2096J-1039*
G01*
X662106Y344422*
X663689Y345078*
X666581Y338098*
X673788*
G37*
X736834D02*
G36*
X738254Y338686D01*
X737990Y339322*
X733541Y341167*
G75*
G02X732274Y342435I894J2161*
G01*
X730754Y346102*
X727596*
G75*
G02X716935I-5331*
G01*
X679249*
X681564Y340513*
X679981Y339857*
X680709Y338098*
X736834*
G37*
X752623D02*
G36*
X750313Y343674D01*
X756174Y346102*
X735821*
X736228Y345120*
X740678Y343275*
G75*
G02X741946Y342004I-897J-2163*
G01*
X742578Y340477*
X744163Y341133*
X745420Y338098*
X752623*
G37*
X780752D02*
G36*
X777437Y346102D01*
X758078*
X761394Y338098*
X780752*
G37*
X54072Y354389D02*
G36*
X37658D01*
X34226Y346102*
X53579*
X53860Y346780*
X55438Y346126*
X55512Y346304*
X53492Y351194*
G75*
G02X53313Y352091I2161J897*
G01*
G75*
G02X53491Y352986I2341*
G01*
X54072Y354389*
G37*
X132410Y346102D02*
G36*
X134221Y350474D01*
X133063Y353270*
G75*
G02X132872Y354226I2309J956*
G01*
G75*
G02X132878Y354389I2497J2*
G01*
X94973*
G75*
G02X91628I-1673J6294*
G01*
X77672*
G75*
G02X61105I-8283J5*
G01*
X59138*
X58186Y352090*
X60207Y347199*
G75*
G02X60385Y346304I-2162J-895*
G01*
G75*
G02X60376Y346102I-2343J-1*
G01*
X84063*
G75*
G02Y346107I5414J2*
G01*
G75*
G02X94724I5331*
G01*
G75*
G02Y346102I-5414J-2*
G01*
X132410*
G37*
X166298D02*
G36*
G75*
G02X164539Y350059I3571J3957D01*
G01*
G75*
G02X166759Y354389I5331*
G01*
X157141*
G75*
G02X142587I-7277J3957*
G01*
X138142*
X138074Y354226*
X140076Y349395*
G75*
G02X140267Y348439I-2312J-957*
G01*
G75*
G02X140262Y348285I-2525*
G01*
X141830Y347635*
X141194Y346102*
X166298*
G37*
X211744Y354389D02*
G36*
X209063D01*
G75*
G02X198417I-5323J285*
G01*
X172980*
G75*
G02X175200Y350059I-3111J-4329*
G01*
G75*
G02X173441Y346102I-5331*
G01*
X208310*
X211744Y354389*
G37*
X241374D02*
G36*
X225886D01*
G75*
G02X232029Y346387I-2141J-8002*
G01*
G75*
G02X232024Y346102I-8284J-5*
G01*
X236470*
X238550Y351121*
G75*
G02X239903Y352473I2310J-958*
G01*
X241153Y352991*
G75*
G02X241374Y354389I6505J-315*
G01*
G37*
X215467Y346102D02*
G36*
G75*
G02X215462Y346387I8280J280D01*
G01*
G75*
G02X221604Y354389I8283*
G01*
X216811*
X213377Y346102*
X215467*
G37*
X258789Y354389D02*
G36*
X253939D01*
G75*
G02X254169Y352675I-6282J-1714*
G01*
G75*
G02X242847Y348285I-6512J0*
G01*
X242769Y348253*
X241878Y346102*
X259480*
G75*
G02X257971Y350806I6577J4703*
G01*
G75*
G02X258587Y353900I8085J0*
G01*
G75*
G02X258588Y353903I8J-1*
G01*
X258789Y354389*
G37*
X573079Y346102D02*
G36*
X570656Y351953D01*
G75*
G02X570477Y352851I2159J898*
G01*
G75*
G02X570655Y353746I2338*
G01*
X570921Y354389*
X552872*
X553073Y353903*
G75*
G02X553074Y353900I-4J-4*
G01*
G75*
G02X553691Y350804I-7470J-3096*
G01*
G75*
G02X552183Y346102I-8089J1*
G01*
X573079*
G37*
X579639D02*
G36*
G75*
G02X579634Y346385I8281J280D01*
G01*
G75*
G02X585784Y354389I8283*
G01*
X575988*
X575351Y352851*
X578146Y346102*
X579639*
G37*
X622090D02*
G36*
X618658Y354389D01*
X613246*
G75*
G02X602600I-5323J283*
G01*
X590052*
G75*
G02X596201Y346385I-2134J-8004*
G01*
G75*
G02X596196Y346102I-8286J-3*
G01*
X622090*
G37*
X638219D02*
G36*
G75*
G02X636465Y350055I3577J3953D01*
G01*
G75*
G02X638692Y354389I5331*
G01*
X623724*
X627156Y346102*
X638219*
G37*
X651935D02*
G36*
G75*
G02X651795Y346384I2026J1179D01*
G01*
X648483Y354389*
X644900*
G75*
G02X647126Y350055I-3104J-4334*
G01*
G75*
G02X645372Y346102I-5331*
G01*
X651935*
G37*
X730754D02*
G36*
X727319Y354389D01*
X669080*
G75*
G02X654521I-7280J3953*
G01*
X653549*
X655750Y349069*
X660200Y347225*
G75*
G02X661403Y346102I-893J-2162*
G01*
X670472*
X669840Y347629*
X677331Y350732*
X679249Y346102*
X716935*
G75*
G02X727596I5331*
G01*
X730754*
G37*
X777437D02*
G36*
X774004Y354389D01*
X750554*
G75*
G02X733987I-8283*
G01*
X732387*
X735821Y346102*
X756174*
X757799Y346775*
X758078Y346102*
X777437*
G37*
X57503Y362675D02*
G36*
X54714D01*
G75*
G02X44053I-5331J5*
G01*
X41091*
X37658Y354389*
X54072*
X57503Y362675*
G37*
X87101D02*
G36*
X69550D01*
G75*
G02X77672Y354393I-161J-8282*
G01*
G75*
G02Y354389I-8459J-2*
G01*
X91628*
G75*
G02X86789Y360682I1673J6293*
G01*
G75*
G02X87101Y362675I6512*
G01*
G37*
X61105Y354389D02*
G36*
G75*
G02Y354393I8459J2D01*
G01*
G75*
G02X69227Y362675I8283*
G01*
X62570*
X59138Y354389*
X61105*
G37*
X136166Y362675D02*
G36*
X133430D01*
G75*
G02X126288I-3571J3957*
G01*
X99500*
G75*
G02X99812Y360682I-6200J-1993*
G01*
G75*
G02X94973Y354389I-6512*
G01*
X132878*
G75*
G02X133064Y355186I2494J-163*
G01*
X136166Y362675*
G37*
X142587Y354389D02*
G36*
G75*
G02X141581Y358346I7277J3958D01*
G01*
G75*
G02X142802Y362675I8283*
G01*
X141574*
X138142Y354389*
X142587*
G37*
X215209Y362675D02*
G36*
X179986D01*
G75*
G02X167566I-6210J1959*
G01*
X156926*
G75*
G02X158148Y358346I-7062J-4329*
G01*
G75*
G02X157141Y354389I-8284J0*
G01*
X166759*
G75*
G02X172980I3111J-4330*
G01*
X198417*
G75*
G02X198409Y354673I5325J282*
G01*
G75*
G02X209071I5331*
G01*
G75*
G02X209063Y354389I-5332J-2*
G01*
X211744*
X215042Y362348*
G75*
G02X215209Y362675I2163J-896*
G01*
G37*
X258789Y354389D02*
G36*
X260659Y358901D01*
G75*
G03X260660Y358902I-2J2*
G01*
G75*
G03X260943Y360327I-3441J1424*
G01*
G75*
G03X260109Y362675I-3724*
G01*
X236591*
G75*
G02X228677I-3957J5172*
G01*
X226268*
X218996Y359661*
X216811Y354389*
X221604*
G75*
G02X225886I2141J-8002*
G01*
X241374*
G75*
G02X253939I6283J-1713*
G01*
X258789*
G37*
X574354Y362675D02*
G36*
X551554D01*
G75*
G03X550719Y360324I2889J-2351*
G01*
G75*
G03X551002Y358900I3724*
G01*
X552872Y354389*
X570921*
X574354Y362675*
G37*
X618658Y354389D02*
G36*
X617034Y358310D01*
X606492Y362675*
X604472*
G75*
G02X596286I-4093J5064*
G01*
X582988*
G75*
G02X578865Y361335I-3960J5170*
G01*
X575988Y354389*
X585784*
G75*
G02X590052I2134J-8004*
G01*
X602600*
G75*
G02X602592Y354671I5324J282*
G01*
G75*
G02X613254I5331*
G01*
G75*
G02X613246Y354389I-5332J0*
G01*
X618658*
G37*
X648483D02*
G36*
X645053Y362675D01*
X618727*
X619721Y362264*
G75*
G02X620989Y360994I-896J-2163*
G01*
X623724Y354389*
X638692*
G75*
G02X644900I3104J-4334*
G01*
X648483*
G37*
X654521D02*
G36*
G75*
G02X653517Y358341I7280J3953D01*
G01*
G75*
G02X654741Y362675I8283J0*
G01*
X650119*
X653549Y354389*
X654521*
G37*
X727319D02*
G36*
X725010Y359960D01*
G75*
G02X724832Y360856I2162J896*
G01*
G75*
G02X725011Y361753I2340*
G01*
X725393Y362675*
X685383*
G75*
G02X678229I-3577J3953*
G01*
X668860*
G75*
G02X670084Y358341I-7059J-4333*
G01*
G75*
G02X669080Y354389I-8284*
G01*
X727319*
G37*
X774004D02*
G36*
X770572Y362675D01*
X767606*
G75*
G02X756945I-5331*
G01*
X730459*
X729706Y360856*
X732387Y354389*
X733987*
G75*
G02X750554I8283*
G01*
X774004*
G37*
X68262Y375744D02*
G36*
X46504D01*
X41091Y362675*
X44053*
G75*
G02Y362680I5414J2*
G01*
G75*
G02X54714I5331*
G01*
G75*
G02Y362675I-5414J-2*
G01*
X57503*
X61435Y372171*
G75*
G02X62703Y373439I2162J-894*
G01*
X68262Y375744*
G37*
X141926D02*
G36*
X125339D01*
X123381Y371019*
X123380Y371015*
G75*
G02X114105Y367175I-6559J2722*
G01*
G75*
G03X114103Y367176I-4J-7*
G01*
X93418Y375744*
X84788*
G75*
G02X84294Y373361I-6512J109*
G01*
G75*
G02X72689Y372511I-6016J2492*
G01*
X65389Y369485*
X62570Y362675*
X69227*
G75*
G02X69550I161J-8279*
G01*
X87101*
G75*
G02X99500I6199J-1993*
G01*
X126288*
G75*
G02X124528Y366633I3571J3957*
G01*
G75*
G02X135190I5331*
G01*
G75*
G02X133430Y362675I-5331*
G01*
X136166*
X141160Y374732*
G75*
G02X141926Y375744I2307J-951*
G01*
G37*
X229731D02*
G36*
X204176D01*
X203292Y373609*
X203291Y373607*
G75*
G02X195940Y370565I-5197J2154*
G01*
G75*
G03X195938Y370566I-2J-2*
G01*
X183438Y375744*
X163842*
G75*
G02X153946Y375413I-5089J4063*
G01*
X145381Y371867*
X141574Y362675*
X142802*
G75*
G02X156926I7062J-4329*
G01*
X167566*
G75*
G02X167264Y364635I6210J1960*
G01*
G75*
G02X180288I6512*
G01*
G75*
G02X179986Y362675I-6512J0*
G01*
X215209*
G75*
G02X216308Y363615I1996J-1223*
G01*
X226124Y367683*
G75*
G02X226122Y367833I5690J150*
G01*
G75*
G02Y367847I5639J7*
G01*
G75*
G02X233118Y374341I6512*
G01*
X229731Y375744*
G37*
X228677Y362675D02*
G36*
G75*
G02X227917Y363358I3957J5172D01*
G01*
X226268Y362675*
X228677*
G37*
X260109D02*
G36*
G75*
G03X258646Y363766I-2889J-2348D01*
G01*
G75*
G02X258644Y363767I0J3*
G01*
X236884Y372781*
G75*
G02X239146Y367846I-4250J-4934*
G01*
G75*
G02X238650Y365355I-6512*
G01*
G75*
G02X236591Y362675I-6016J2492*
G01*
X260109*
G37*
X574354D02*
G36*
X574541Y363127D01*
G75*
G02X572517Y367845I4488J4718*
G01*
G75*
G02X574781Y372780I6512*
G01*
X553018Y363766*
G75*
G02X553017Y363765J0*
G01*
G75*
G03X551554Y362675I1426J-3441*
G01*
X574354*
G37*
X647819Y375744D02*
G36*
X628235D01*
X617091Y371127*
X617089Y371126*
G75*
G02X607166Y375233I-2907J7017*
G01*
X607165Y375236*
X606955Y375744*
X581935*
X578543Y374339*
G75*
G02X585541Y367845I486J-6494*
G01*
G75*
G02X582988Y362675I-6512J0*
G01*
X596286*
G75*
G02X593867Y367739I4093J5065*
G01*
Y367740*
G75*
G02X606891I6512*
G01*
G75*
G02Y367726I-5681J-7*
G01*
G75*
G02X606889Y367577I-5618J0*
G01*
X618727Y362675*
X645053*
X644539Y363917*
G75*
G02X644360Y364814I2163J897*
G01*
G75*
G02X644539Y365710I2341*
G01*
X648423Y375084*
G75*
G02X647819Y375744I4489J4718*
G01*
G37*
X606492Y362675D02*
G36*
X605098Y363252D01*
G75*
G02X604472Y362675I-4719J4487*
G01*
X606492*
G37*
X726870Y375744D02*
G36*
X716967D01*
X697826Y367815*
X697825Y367815*
G75*
G02X687261Y372191I-3094J7470*
G01*
G75*
G02X687260Y372193I7J4*
G01*
X685789Y375744*
X679437*
G75*
G02X669087I-5175J3953*
G01*
X658005*
G75*
G02X652748Y373292I-5093J4058*
G01*
X649234Y364814*
X650119Y362675*
X654741*
G75*
G02X668860I7059J-4334*
G01*
X678229*
G75*
G02X676475Y366628I3577J3953*
G01*
G75*
G02X687137I5331*
G01*
G75*
G02X685383Y362675I-5331*
G01*
X725393*
X728894Y371130*
G75*
G02X726870Y375744I4488J4719*
G01*
G37*
X770572Y362675D02*
G36*
X765159Y375744D01*
X761244*
G75*
G02X748220I-6512*
G01*
X739893*
G75*
G02X733219Y369339I-6511J105*
G01*
X730459Y362675*
X756945*
G75*
G02X767606I5331*
G01*
X770572*
G37*
X138031Y394552D02*
G36*
X133851D01*
G75*
G03X132423Y392844I2013J-3135*
G01*
G75*
G03X132422Y392842I4J-4*
G01*
X125339Y375744*
X141926*
G75*
G02X142514Y376087I1541J-1964*
G01*
X152249Y380118*
G75*
G02X158011Y386276I6504J-311*
G01*
X138031Y394552*
G37*
X68262Y375744D02*
G36*
X71919Y377260D01*
G75*
G02X77533Y382323I6359J-1407*
G01*
X56816Y390904*
X56813Y390905*
G75*
G03X51948Y388889I-1424J-3440*
G01*
G75*
G02X51947Y388885I-22J8*
G01*
X46504Y375744*
X68262*
G37*
X93418D02*
G36*
X83378Y379902D01*
G75*
G02X84789Y375853I-5102J-4049*
G01*
G75*
G02X84788Y375744I-6506J15*
G01*
X93418*
G37*
X183438D02*
G36*
X163852Y383856D01*
G75*
G02X165265Y379806I-5099J-4050*
G01*
G75*
G02X163842Y375744I-6512*
G01*
X183438*
G37*
X229731D02*
G36*
X210905Y383542D01*
G75*
G02X210904Y383543J0*
G01*
G75*
G03X206681Y381794I-1237J-2985*
G01*
X204176Y375744*
X229731*
G37*
X606955D02*
G36*
X604528Y381602D01*
X604527Y381604*
G75*
G03X600305Y383353I-2986J-1237*
G01*
G75*
G02X600304Y383352J0*
G01*
X581935Y375744*
X606955*
G37*
X647819D02*
G36*
G75*
G02X646400Y379802I5093J4058D01*
G01*
G75*
G02X647815Y383854I6512*
G01*
X628235Y375744*
X647819*
G37*
X677416Y394552D02*
G36*
X673641D01*
X653651Y386271*
G75*
G02X659424Y379802I-739J-6470*
G01*
G75*
G02X658005Y375744I-6512*
G01*
X669087*
G75*
G02X667750Y379696I5175J3953*
G01*
G75*
G02X680774I6512*
G01*
G75*
G02X679437Y375744I-6512*
G01*
X685789*
X678599Y393106*
G75*
G02X678598Y393107J0*
G01*
G75*
G03X677416Y394552I-2987J-1237*
G01*
G37*
X726870Y375744D02*
G36*
G75*
G02X726870Y375849I6518J102D01*
G01*
G75*
G02X729131Y380782I6512*
G01*
X716967Y375744*
X726870*
G37*
X765159D02*
G36*
X759716Y388885D01*
X759715Y388888*
G75*
G03X754207Y391169I-3895J-1616*
G01*
G75*
G02X754206Y391169I-1J2*
G01*
X732898Y382343*
G75*
G02X739893Y375849I483J-6494*
G01*
Y375848*
G75*
G02X739893Y375744I-6515J-4*
G01*
X748220*
G75*
G02X761244I6512*
G01*
X765159*
G37*
D02*
D27*
X434574Y175241D02*
X431716Y172383D01*
X434574Y178596D02*
X431716Y181453D01*
X437929Y175241D02*
X440786Y172383D01*
X437929Y178596D02*
X440786Y181453D01*
D02*
D28*
X29121Y276466D03*
X42761Y270816D03*
X55487Y340123D03*
X69128Y334473D03*
X83230Y216770D03*
X96870Y211120D03*
X109595Y280421D03*
X123235Y274771D03*
X135963Y344076D03*
X149603Y338426D03*
X157111Y204811D03*
X170751Y199161D03*
X183476Y268459D03*
X197117Y262809D03*
X201674Y74486D03*
X209844Y332116D03*
X215315Y68836D03*
X217814Y161025D03*
X223484Y326466D03*
X231454Y155375D03*
X244178Y224677D03*
X257818Y219027D03*
X262369Y30703D03*
X270543Y288328D03*
X276009Y25053D03*
X284183Y282678D03*
X298280Y164975D03*
X311920Y159325D03*
X324650Y228630D03*
X338291Y222980D03*
D02*
D29*
X473372Y222980D03*
X487012Y228630D03*
X499739Y159328D03*
X513380Y164978D03*
X527480Y282678D03*
X535646Y25054D03*
X541120Y288328D03*
X549287Y30704D03*
X553846Y219031D03*
X567486Y224681D03*
X580208Y155376D03*
X588179Y326464D03*
X593848Y161026D03*
X596346Y68839D03*
X601819Y332114D03*
X609986Y74489D03*
X614542Y262810D03*
X628182Y268460D03*
X640911Y199157D03*
X654551Y204807D03*
X662062Y338421D03*
X675702Y344071D03*
X688429Y274767D03*
X702069Y280417D03*
X714791Y211119D03*
X728431Y216769D03*
X742531Y334468D03*
X756172Y340118D03*
X768900Y270819D03*
X782540Y276469D03*
X0Y0D02*
M02*
