G04 EasyPC Gerber Version 19.0.3 Build 3928 *
G04 #@! TF.Part,Single*
%FSLAX35Y35*%
%MOIN*%
%ADD10C,0.00500*%
G04 #@! TA.AperFunction,ComponentPad*
%ADD24C,0.10000*%
X0Y0D02*
D02*
D10*
X33017Y304960D02*
Y308710D01*
X34893*
X35517Y308398*
X35830Y308085*
X36143Y307460*
Y306210*
X35830Y305585*
X35517Y305273*
X34893Y304960*
X33017*
X56148Y297299D02*
X55835Y296986D01*
X55210Y296674*
X54272*
X53648Y296986*
X53335Y297299*
X53022Y297924*
Y299174*
X53335Y299799*
X53648Y300111*
X54272Y300424*
X55210*
X55835Y300111*
X56148Y299799*
X59383Y368617D02*
Y372367D01*
X61259*
X61883Y372055*
X62196Y371743*
X62509Y371117*
Y369867*
X62196Y369243*
X61883Y368930*
X61259Y368617*
X59383*
X64099Y320009D02*
X64724Y319696D01*
X65037Y319072*
X64724Y318446*
X64099Y318134*
X61911*
Y321884*
X64099*
X64724Y321572*
X65037Y320946*
X64724Y320322*
X64099Y320009*
X61911*
X73028Y288387D02*
Y292137D01*
X74903*
X75528Y291825*
X75840Y291512*
X76153Y290887*
Y289637*
X75840Y289012*
X75528Y288700*
X74903Y288387*
X73028*
X79122Y304837D02*
X79747Y304525D01*
X80059Y303900*
X79747Y303275*
X79122Y302962*
X76934*
Y306712*
X79122*
X79747Y306400*
X80059Y305775*
X79747Y305150*
X79122Y304837*
X76934*
X82514Y360956D02*
X82201Y360643D01*
X81576Y360331*
X80639*
X80014Y360643*
X79701Y360956*
X79389Y361581*
Y362831*
X79701Y363456*
X80014Y363769*
X80639Y364081*
X81576*
X82201Y363769*
X82514Y363456*
X87126Y245264D02*
Y249014D01*
X89002*
X89626Y248702*
X89939Y248389*
X90252Y247764*
Y246514*
X89939Y245889*
X89626Y245577*
X89002Y245264*
X87126*
X90465Y383666D02*
X91090Y383354D01*
X91403Y382729*
X91090Y382104*
X90465Y381791*
X88278*
Y385541*
X90465*
X91090Y385229*
X91403Y384604*
X91090Y383979*
X90465Y383666*
X88278*
X99394Y352044D02*
Y355794D01*
X101269*
X101894Y355482*
X102206Y355169*
X102519Y354544*
Y353294*
X102206Y352669*
X101894Y352357*
X101269Y352044*
X99394*
X105488Y368494D02*
X106113Y368182D01*
X106426Y367557*
X106113Y366932*
X105488Y366619*
X103300*
Y370369*
X105488*
X106113Y370057*
X106426Y369432*
X106113Y368807*
X105488Y368494*
X103300*
X110257Y237603D02*
X109944Y237290D01*
X109319Y236978*
X108381*
X107757Y237290*
X107444Y237603*
X107131Y238228*
Y239478*
X107444Y240103*
X107757Y240415*
X108381Y240728*
X109319*
X109944Y240415*
X110257Y240103*
X113491Y308915D02*
Y312665D01*
X115366*
X115991Y312353*
X116304Y312041*
X116616Y311415*
Y310165*
X116304Y309541*
X115991Y309228*
X115366Y308915*
X113491*
X118208Y260313D02*
X118833Y260000D01*
X119146Y259376*
X118833Y258750*
X118208Y258438*
X116020*
Y262188*
X118208*
X118833Y261876*
X119146Y261250*
X118833Y260626*
X118208Y260313*
X116020*
X127137Y228691D02*
Y232441D01*
X129012*
X129637Y232129*
X129949Y231816*
X130262Y231191*
Y229941*
X129949Y229316*
X129637Y229004*
X129012Y228691*
X127137*
X133231Y245141D02*
X133856Y244829D01*
X134169Y244204*
X133856Y243579*
X133231Y243266*
X131043*
Y247016*
X133231*
X133856Y246704*
X134169Y246079*
X133856Y245454*
X133231Y245141*
X131043*
X136621Y301254D02*
X136309Y300941D01*
X135683Y300629*
X134746*
X134121Y300941*
X133809Y301254*
X133496Y301879*
Y303129*
X133809Y303754*
X134121Y304067*
X134746Y304379*
X135683*
X136309Y304067*
X136621Y303754*
X139859Y372570D02*
Y376320D01*
X141734*
X142359Y376008*
X142672Y375695*
X142984Y375070*
Y373820*
X142672Y373195*
X142359Y372883*
X141734Y372570*
X139859*
X144572Y323964D02*
X145198Y323652D01*
X145510Y323027*
X145198Y322402*
X144572Y322089*
X142385*
Y325839*
X144572*
X145198Y325527*
X145510Y324902*
X145198Y324277*
X144572Y323964*
X142385*
X153501Y292342D02*
Y296092D01*
X155376*
X156001Y295780*
X156314Y295467*
X156626Y294842*
Y293592*
X156314Y292967*
X156001Y292655*
X155376Y292342*
X153501*
X159595Y308793D02*
X160220Y308480D01*
X160533Y307855*
X160220Y307230*
X159595Y306917*
X157408*
Y310667*
X159595*
X160220Y310355*
X160533Y309730*
X160220Y309105*
X159595Y308793*
X157408*
X162989Y364909D02*
X162677Y364596D01*
X162052Y364283*
X161114*
X160489Y364596*
X160177Y364909*
X159864Y365533*
Y366783*
X160177Y367409*
X160489Y367721*
X161114Y368033*
X162052*
X162677Y367721*
X162989Y367409*
X161007Y233306D02*
Y237056D01*
X162882*
X163507Y236744*
X163820Y236431*
X164132Y235806*
Y234556*
X163820Y233931*
X163507Y233619*
X162882Y233306*
X161007*
X170941Y387619D02*
X171566Y387306D01*
X171878Y386681*
X171566Y386056*
X170941Y385744*
X168753*
Y389494*
X170941*
X171566Y389181*
X171878Y388556*
X171566Y387931*
X170941Y387619*
X168753*
X179869Y355997D02*
Y359747D01*
X181744*
X182369Y359435*
X182682Y359122*
X182994Y358497*
Y357247*
X182682Y356622*
X182369Y356309*
X181744Y355997*
X179869*
X184137Y225644D02*
X183825Y225332D01*
X183200Y225019*
X182262*
X181637Y225332*
X181325Y225644*
X181012Y226269*
Y227519*
X181325Y228144*
X181637Y228457*
X182262Y228769*
X183200*
X183825Y228457*
X184137Y228144*
X185963Y372447D02*
X186589Y372135D01*
X186901Y371510*
X186589Y370885*
X185963Y370572*
X183776*
Y374322*
X185963*
X186589Y374010*
X186901Y373385*
X186589Y372760*
X185963Y372447*
X183776*
X187372Y296954D02*
Y300704D01*
X189248*
X189872Y300392*
X190185Y300079*
X190498Y299454*
Y298204*
X190185Y297579*
X189872Y297267*
X189248Y296954*
X187372*
X192089Y248355D02*
X192714Y248042D01*
X193026Y247417*
X192714Y246792*
X192089Y246480*
X189901*
Y250230*
X192089*
X192714Y249917*
X193026Y249292*
X192714Y248667*
X192089Y248355*
X189901*
X201017Y216733D02*
Y220483D01*
X202893*
X203517Y220170*
X203830Y219858*
X204143Y219233*
Y217983*
X203830Y217358*
X203517Y217045*
X202893Y216733*
X201017*
X207111Y233183D02*
X207737Y232870D01*
X208049Y232246*
X207737Y231620*
X207111Y231308*
X204924*
Y235058*
X207111*
X207737Y234746*
X208049Y234120*
X207737Y233496*
X207111Y233183*
X204924*
X205570Y102981D02*
Y106731D01*
X207446*
X208070Y106419*
X208383Y106106*
X208696Y105481*
Y104231*
X208383Y103606*
X208070Y103293*
X207446Y102981*
X205570*
X210503Y289293D02*
X210190Y288980D01*
X209565Y288667*
X208628*
X208003Y288980*
X207690Y289293*
X207378Y289917*
Y291167*
X207690Y291793*
X208003Y292105*
X208628Y292417*
X209565*
X210190Y292105*
X210503Y291793*
X212845Y172275D02*
Y176025D01*
X215970*
X215345Y174150D02*
X212845D01*
Y172275D02*
X215970D01*
X213740Y360611D02*
Y364361D01*
X215615*
X216240Y364048*
X216553Y363736*
X216865Y363111*
Y361861*
X216553Y361236*
X216240Y360923*
X215615Y360611*
X213740*
X218454Y312003D02*
X219079Y311690D01*
X219392Y311065*
X219079Y310440*
X218454Y310128*
X216267*
Y313878*
X218454*
X219079Y313565*
X219392Y312940*
X219079Y312315*
X218454Y312003*
X216267*
X221710Y189520D02*
Y193270D01*
X223585*
X224210Y192957*
X224522Y192645*
X224835Y192020*
Y190770*
X224522Y190145*
X224210Y189832*
X223585Y189520*
X221710*
X228701Y95319D02*
X228388Y95007D01*
X227763Y94694*
X226826*
X226201Y95007*
X225888Y95319*
X225576Y95944*
Y97194*
X225888Y97819*
X226201Y98132*
X226826Y98444*
X227763*
X228388Y98132*
X228701Y97819*
X227383Y280381D02*
Y284131D01*
X229258*
X229883Y283819*
X230195Y283506*
X230508Y282881*
Y281631*
X230195Y281006*
X229883Y280693*
X229258Y280381*
X227383*
X233477Y296831D02*
X234102Y296519D01*
X234415Y295894*
X234102Y295269*
X233477Y294956*
X231289*
Y298706*
X233477*
X234102Y298394*
X234415Y297769*
X234102Y297144*
X233477Y296831*
X231289*
X232964Y312909D02*
Y316659D01*
X236089*
X235464Y314785D02*
X232964D01*
Y312909D02*
X236089D01*
X236870Y352949D02*
X236558Y352637D01*
X235933Y352324*
X234995*
X234370Y352637*
X234058Y352949*
X233745Y353574*
Y354824*
X234058Y355449*
X234370Y355762*
X234995Y356074*
X235933*
X236558Y355762*
X236870Y355449*
X236652Y118030D02*
X237277Y117717D01*
X237590Y117092*
X237277Y116467*
X236652Y116154*
X234465*
Y119904*
X236652*
X237277Y119592*
X237590Y118967*
X237277Y118342*
X236652Y118030*
X234465*
X244840Y181858D02*
X244528Y181546D01*
X243902Y181233*
X242965*
X242340Y181546*
X242028Y181858*
X241715Y182483*
Y183733*
X242028Y184358*
X242340Y184671*
X242965Y184983*
X243902*
X244528Y184671*
X244840Y184358*
X244822Y375659D02*
X245447Y375347D01*
X245759Y374722*
X245447Y374097*
X244822Y373784*
X242634*
Y377534*
X244822*
X245447Y377222*
X245759Y376597*
X245447Y375972*
X244822Y375659*
X242634*
X245581Y86407D02*
Y90157D01*
X247456*
X248081Y89845*
X248393Y89533*
X248706Y88907*
Y87657*
X248393Y87033*
X248081Y86720*
X247456Y86407*
X245581*
X248074Y253172D02*
Y256922D01*
X249949*
X250574Y256609*
X250886Y256297*
X251199Y255672*
Y254422*
X250886Y253797*
X250574Y253484*
X249949Y253172*
X248074*
X251675Y102858D02*
X252300Y102545D01*
X252613Y101920*
X252300Y101295*
X251675Y100983*
X249487*
Y104733*
X251675*
X252300Y104420*
X252613Y103795*
X252300Y103170*
X251675Y102858*
X249487*
X252791Y204569D02*
X253417Y204256D01*
X253729Y203631*
X253417Y203006*
X252791Y202693*
X250604*
Y206443*
X252791*
X253417Y206131*
X253729Y205506*
X253417Y204881*
X252791Y204569*
X250604*
X253750Y344037D02*
Y347787D01*
X255626*
X256250Y347475*
X256563Y347163*
X256876Y346537*
Y345287*
X256563Y344663*
X256250Y344350*
X255626Y344037*
X253750*
X254685Y155642D02*
Y159392D01*
X257810*
X257185Y157517D02*
X254685D01*
Y155642D02*
X257810D01*
X259844Y360488D02*
X260470Y360175D01*
X260782Y359550*
X260470Y358925*
X259844Y358613*
X257657*
Y362363*
X259844*
X260470Y362050*
X260782Y361425*
X260470Y360800*
X259844Y360488*
X257657*
X261720Y172946D02*
Y176696D01*
X263595*
X264220Y176384*
X264533Y176072*
X264845Y175446*
Y174196*
X264533Y173572*
X264220Y173259*
X263595Y172946*
X261720*
X267814Y189397D02*
X268439Y189084D01*
X268752Y188459*
X268439Y187834*
X267814Y187522*
X265627*
Y191272*
X267814*
X268439Y190959*
X268752Y190334*
X268439Y189709*
X267814Y189397*
X265627*
X266265Y59198D02*
Y62948D01*
X268140*
X268765Y62635*
X269078Y62323*
X269390Y61698*
Y60448*
X269078Y59823*
X268765Y59510*
X268140Y59198*
X266265*
X271204Y245510D02*
X270891Y245198D01*
X270266Y244885*
X269329*
X268704Y245198*
X268391Y245510*
X268079Y246135*
Y247385*
X268391Y248010*
X268704Y248323*
X269329Y248635*
X270266*
X270891Y248323*
X271204Y248010*
X274439Y316822D02*
Y320572D01*
X276314*
X276939Y320260*
X277251Y319947*
X277564Y319322*
Y318072*
X277251Y317447*
X276939Y317135*
X276314Y316822*
X274439*
X279155Y268220D02*
X279780Y267908D01*
X280093Y267283*
X279780Y266658*
X279155Y266345*
X276968*
Y270095*
X279155*
X279780Y269783*
X280093Y269158*
X279780Y268533*
X279155Y268220*
X276968*
X284852Y186371D02*
Y190121D01*
X287977*
X287352Y188246D02*
X284852D01*
Y186371D02*
X287977D01*
X289395Y51536D02*
X289083Y51224D01*
X288457Y50911*
X287520*
X286895Y51224*
X286583Y51536*
X286270Y52161*
Y53411*
X286583Y54036*
X286895Y54349*
X287520Y54661*
X288457*
X289083Y54349*
X289395Y54036*
X288084Y236598D02*
Y240348D01*
X289959*
X290584Y240036*
X290896Y239724*
X291209Y239098*
Y237848*
X290896Y237224*
X290584Y236911*
X289959Y236598*
X288084*
X294178Y253049D02*
X294803Y252736D01*
X295116Y252111*
X294803Y251486*
X294178Y251174*
X291991*
Y254924*
X294178*
X294803Y254611*
X295116Y253986*
X294803Y253361*
X294178Y253049*
X291991*
X297569Y309161D02*
X297256Y308848D01*
X296631Y308535*
X295694*
X295069Y308848*
X294756Y309161*
X294444Y309785*
Y311035*
X294756Y311661*
X295069Y311973*
X295694Y312285*
X296631*
X297256Y311973*
X297569Y311661*
X297346Y74246D02*
X297972Y73934D01*
X298284Y73309*
X297972Y72684*
X297346Y72371*
X295159*
Y76121*
X297346*
X297972Y75809*
X298284Y75184*
X297972Y74559*
X297346Y74246*
X295159*
X302176Y193469D02*
Y197219D01*
X304051*
X304676Y196907*
X304989Y196594*
X305301Y195969*
Y194719*
X304989Y194094*
X304676Y193782*
X304051Y193469*
X302176*
X303180Y296955D02*
Y300705D01*
X306305*
X305680Y298830D02*
X303180D01*
Y296955D02*
X306305D01*
X305520Y331871D02*
X306145Y331558D01*
X306458Y330933*
X306145Y330308*
X305520Y329996*
X303333*
Y333746*
X305520*
X306145Y333433*
X306458Y332808*
X306145Y332183*
X305520Y331871*
X303333*
X306275Y42624D02*
Y46374D01*
X308150*
X308775Y46062*
X309088Y45750*
X309400Y45124*
Y43874*
X309088Y43250*
X308775Y42937*
X308150Y42624*
X306275*
X312369Y59075D02*
X312994Y58762D01*
X313307Y58137*
X312994Y57512*
X312369Y57200*
X310182*
Y60950*
X312369*
X312994Y60637*
X313307Y60012*
X312994Y59387*
X312369Y59075*
X310182*
X314449Y300249D02*
Y303999D01*
X316324*
X316949Y303687*
X317261Y303374*
X317574Y302749*
Y301499*
X317261Y300874*
X316949Y300561*
X316324Y300249*
X314449*
X320543Y316699D02*
X321168Y316387D01*
X321481Y315762*
X321168Y315137*
X320543Y314824*
X318356*
Y318574*
X320543*
X321168Y318262*
X321481Y317637*
X321168Y317012*
X320543Y316699*
X318356*
X325306Y185808D02*
X324994Y185495D01*
X324369Y185183*
X323431*
X322806Y185495*
X322494Y185808*
X322181Y186433*
Y187683*
X322494Y188308*
X322806Y188620*
X323431Y188933*
X324369*
X324994Y188620*
X325306Y188308*
X324547Y242159D02*
Y245909D01*
X327672*
X327047Y244034D02*
X324547D01*
Y242159D02*
X327672D01*
X328546Y257125D02*
Y260875D01*
X330422*
X331046Y260563*
X331359Y260250*
X331672Y259625*
Y258375*
X331359Y257750*
X331046Y257437*
X330422Y257125*
X328546*
X333257Y208518D02*
X333883Y208206D01*
X334195Y207581*
X333883Y206956*
X333257Y206643*
X331070*
Y210393*
X333257*
X333883Y210081*
X334195Y209456*
X333883Y208831*
X333257Y208518*
X331070*
X342186Y176896D02*
Y180646D01*
X344061*
X344686Y180334*
X344999Y180021*
X345311Y179396*
Y178146*
X344999Y177521*
X344686Y177209*
X344061Y176896*
X342186*
X348280Y193346D02*
X348906Y193034D01*
X349218Y192409*
X348906Y191784*
X348280Y191471*
X346093*
Y195221*
X348280*
X348906Y194909*
X349218Y194284*
X348906Y193659*
X348280Y193346*
X346093*
X351677Y249463D02*
X351364Y249151D01*
X350739Y248838*
X349802*
X349177Y249151*
X348864Y249463*
X348552Y250088*
Y251338*
X348864Y251963*
X349177Y252276*
X349802Y252588*
X350739*
X351364Y252276*
X351677Y251963*
X359628Y272174D02*
X360253Y271861D01*
X360566Y271236*
X360253Y270611*
X359628Y270298*
X357441*
Y274048*
X359628*
X360253Y273736*
X360566Y273111*
X360253Y272486*
X359628Y272174*
X357441*
X368557Y240552D02*
Y244302D01*
X370432*
X371057Y243989*
X371369Y243677*
X371682Y243052*
Y241802*
X371369Y241177*
X371057Y240864*
X370432Y240552*
X368557*
X374651Y257002D02*
X375276Y256689D01*
X375589Y256065*
X375276Y255439*
X374651Y255127*
X372463*
Y258877*
X374651*
X375276Y258565*
X375589Y257939*
X375276Y257315*
X374651Y257002*
X372463*
X386251Y132856D02*
X387814Y136606D01*
X389376Y132856*
X386876Y134418D02*
X388751D01*
X386251Y142856D02*
X387814Y146606D01*
X389376Y142856*
X386876Y144418D02*
X388751D01*
X386251Y152856D02*
X387814Y156606D01*
X389376Y152856*
X386876Y154418D02*
X388751D01*
X386251Y162856D02*
X387814Y166606D01*
X389376Y162856*
X386876Y164418D02*
X388751D01*
X386251Y172856D02*
X387814Y176606D01*
X389376Y172856*
X386876Y174418D02*
X388751D01*
X386251Y182856D02*
X387814Y186606D01*
X389376Y182856*
X386876Y184418D02*
X388751D01*
X386251Y192856D02*
X387814Y196606D01*
X389376Y192856*
X386876Y194418D02*
X388751D01*
X395433Y147768D02*
Y151518D01*
X398558*
X397933Y149643D02*
X395433D01*
Y147768D02*
X398558D01*
X434803Y137933D02*
Y141683D01*
X437928*
X437303Y139808D02*
X434803D01*
Y137933D02*
X437928D01*
X446251Y132856D02*
X447814Y136606D01*
X449376Y132856*
X446876Y134418D02*
X448751D01*
X446251Y142856D02*
X447814Y146606D01*
X449376Y142856*
X446876Y144418D02*
X448751D01*
X446251Y152856D02*
X447814Y156606D01*
X449376Y152856*
X446876Y154418D02*
X448751D01*
X446251Y162856D02*
X447814Y166606D01*
X449376Y162856*
X446876Y164418D02*
X448751D01*
X446251Y172856D02*
X447814Y176606D01*
X449376Y172856*
X446876Y174418D02*
X448751D01*
X446251Y182856D02*
X447814Y186606D01*
X449376Y182856*
X446876Y184418D02*
X448751D01*
X446251Y192856D02*
X447814Y196606D01*
X449376Y192856*
X446876Y194418D02*
X448751D01*
X463106Y240551D02*
Y244301D01*
X464981*
X465606Y243989*
X465919Y243676*
X466231Y243051*
Y241801*
X465919Y241176*
X465606Y240864*
X464981Y240551*
X463106*
X476409Y272173D02*
X477035Y271861D01*
X477347Y271236*
X477035Y270611*
X476409Y270298*
X474222*
Y274048*
X476409*
X477035Y273736*
X477347Y273111*
X477035Y272486*
X476409Y272173*
X474222*
X486236Y249463D02*
X485924Y249150D01*
X485298Y248838*
X484361*
X483736Y249150*
X483424Y249463*
X483111Y250088*
Y251338*
X483424Y251963*
X483736Y252276*
X484361Y252588*
X485298*
X485924Y252276*
X486236Y251963*
X489473Y176899D02*
Y180649D01*
X491348*
X491973Y180337*
X492286Y180024*
X492598Y179399*
Y178149*
X492286Y177524*
X491973Y177212*
X491348Y176899*
X489473*
X497760Y272068D02*
X498385Y271756D01*
X498698Y271131*
X498385Y270506*
X497760Y270193*
X495572*
Y273943*
X497760*
X498385Y273631*
X498698Y273006*
X498385Y272381*
X497760Y272068*
X495572*
X502777Y208521D02*
X503402Y208209D01*
X503715Y207584*
X503402Y206959*
X502777Y206646*
X500589*
Y210396*
X502777*
X503402Y210084*
X503715Y209459*
X503402Y208834*
X502777Y208521*
X500589*
X503116Y257124D02*
Y260874D01*
X504991*
X505616Y260562*
X505929Y260250*
X506241Y259624*
Y258374*
X505929Y257750*
X505616Y257437*
X504991Y257124*
X503116*
X512604Y185811D02*
X512291Y185498D01*
X511666Y185186*
X510728*
X510104Y185498*
X509791Y185811*
X509478Y186436*
Y187686*
X509791Y188311*
X510104Y188624*
X510728Y188936*
X511666*
X512291Y188624*
X512604Y188311*
X517214Y300249D02*
Y303999D01*
X519089*
X519714Y303687*
X520026Y303374*
X520339Y302749*
Y301499*
X520026Y300874*
X519714Y300561*
X519089Y300249*
X517214*
X524127Y208416D02*
X524752Y208104D01*
X525065Y207479*
X524752Y206854*
X524127Y206541*
X521940*
Y210291*
X524127*
X524752Y209979*
X525065Y209354*
X524752Y208729*
X524127Y208416*
X521940*
X525380Y42625D02*
Y46375D01*
X527256*
X527880Y46063*
X528193Y45750*
X528506Y45125*
Y43875*
X528193Y43250*
X527880Y42937*
X527256Y42625*
X525380*
X530517Y331871D02*
X531143Y331558D01*
X531455Y330933*
X531143Y330308*
X530517Y329996*
X528330*
Y333746*
X530517*
X531143Y333433*
X531455Y332808*
X531143Y332183*
X530517Y331871*
X528330*
X529483Y193472D02*
Y197222D01*
X531359*
X531983Y196910*
X532296Y196598*
X532609Y195972*
Y194722*
X532296Y194098*
X531983Y193785*
X531359Y193472*
X529483*
X538684Y74247D02*
X539309Y73934D01*
X539622Y73309*
X539309Y72684*
X538684Y72372*
X536496*
Y76122*
X538684*
X539309Y75809*
X539622Y75184*
X539309Y74559*
X538684Y74247*
X536496*
X540344Y309161D02*
X540031Y308848D01*
X539406Y308535*
X538469*
X537844Y308848*
X537531Y309161*
X537219Y309785*
Y311035*
X537531Y311661*
X537844Y311973*
X538469Y312285*
X539406*
X540031Y311973*
X540344Y311661*
X543580Y236603D02*
Y240353D01*
X545455*
X546080Y240041*
X546392Y239728*
X546705Y239103*
Y237853*
X546392Y237228*
X546080Y236915*
X545455Y236603*
X543580*
X548511Y51537D02*
X548198Y51224D01*
X547573Y50911*
X546635*
X546011Y51224*
X545698Y51537*
X545385Y52161*
Y53411*
X545698Y54037*
X546011Y54349*
X546635Y54661*
X547573*
X548198Y54349*
X548511Y54037*
X547439Y206594D02*
Y210344D01*
X550564*
X549939Y208470D02*
X547439D01*
Y206594D02*
X550564D01*
X551868Y331766D02*
X552493Y331453D01*
X552806Y330828*
X552493Y330203*
X551868Y329891*
X549680*
Y333641*
X551868*
X552493Y333328*
X552806Y332703*
X552493Y332078*
X551868Y331766*
X549680*
X556883Y268225D02*
X557508Y267912D01*
X557821Y267287*
X557508Y266662*
X556883Y266350*
X554696*
Y270100*
X556883*
X557508Y269787*
X557821Y269162*
X557508Y268537*
X556883Y268225*
X554696*
X557224Y316822D02*
Y320572D01*
X559099*
X559724Y320260*
X560037Y319947*
X560349Y319322*
Y318072*
X560037Y317447*
X559724Y317135*
X559099Y316822*
X557224*
X560034Y74142D02*
X560659Y73829D01*
X560972Y73204*
X560659Y72579*
X560034Y72267*
X557847*
Y76017*
X560034*
X560659Y75704*
X560972Y75079*
X560659Y74454*
X560034Y74142*
X557847*
X566710Y245515D02*
X566397Y245202D01*
X565772Y244889*
X564835*
X564210Y245202*
X563897Y245515*
X563585Y246139*
Y247389*
X563897Y248015*
X564210Y248327*
X564835Y248639*
X565772*
X566397Y248327*
X566710Y248015*
X565391Y59198D02*
Y62948D01*
X567266*
X567891Y62636*
X568203Y62323*
X568516Y61698*
Y60448*
X568203Y59823*
X567891Y59511*
X567266Y59198*
X565391*
X569942Y172947D02*
Y176697D01*
X571817*
X572442Y176385*
X572754Y176072*
X573067Y175447*
Y174197*
X572754Y173572*
X572442Y173259*
X571817Y172947*
X569942*
X578233Y268120D02*
X578859Y267807D01*
X579171Y267182*
X578859Y266557*
X578233Y266244*
X576046*
Y269994*
X578233*
X578859Y269682*
X579171Y269057*
X578859Y268432*
X578233Y268120*
X576046*
X577913Y344035D02*
Y347785D01*
X579788*
X580413Y347473*
X580725Y347161*
X581038Y346535*
Y345285*
X580725Y344661*
X580413Y344348*
X579788Y344035*
X577913*
X583245Y204569D02*
X583870Y204256D01*
X584183Y203631*
X583870Y203006*
X583245Y202694*
X581058*
Y206444*
X583245*
X583870Y206131*
X584183Y205506*
X583870Y204881*
X583245Y204569*
X581058*
X583590Y253176D02*
Y256926D01*
X585465*
X586090Y256614*
X586402Y256301*
X586715Y255676*
Y254426*
X586402Y253801*
X586090Y253489*
X585465Y253176*
X583590*
X586080Y86410D02*
Y90160D01*
X587955*
X588580Y89848*
X588893Y89535*
X589205Y88910*
Y87660*
X588893Y87035*
X588580Y86722*
X587955Y86410*
X586080*
X591216Y375657D02*
X591841Y375345D01*
X592154Y374720*
X591841Y374095*
X591216Y373782*
X589029*
Y377532*
X591216*
X591841Y377220*
X592154Y376595*
X591841Y375970*
X591216Y375657*
X589029*
X593072Y181859D02*
X592759Y181546D01*
X592134Y181233*
X591197*
X590572Y181546*
X590259Y181859*
X589947Y182483*
Y183733*
X590259Y184359*
X590572Y184671*
X591197Y184983*
X592134*
X592759Y184671*
X593072Y184359*
X599383Y118032D02*
X600009Y117719D01*
X600321Y117094*
X600009Y116469*
X599383Y116157*
X597196*
Y119907*
X599383*
X600009Y119594*
X600321Y118969*
X600009Y118344*
X599383Y118032*
X597196*
X601043Y352947D02*
X600730Y352635D01*
X600105Y352322*
X599168*
X598543Y352635*
X598230Y352947*
X597918Y353572*
Y354822*
X598230Y355447*
X598543Y355760*
X599168Y356072*
X600105*
X600730Y355760*
X601043Y355447*
X604596Y204464D02*
X605221Y204151D01*
X605533Y203526*
X605221Y202901*
X604596Y202589*
X602408*
Y206339*
X604596*
X605221Y206026*
X605533Y205401*
X605221Y204776*
X604596Y204464*
X602408*
X604276Y280381D02*
Y284131D01*
X606151*
X606776Y283819*
X607088Y283507*
X607401Y282881*
Y281631*
X607088Y281007*
X606776Y280694*
X606151Y280381*
X604276*
X609210Y95322D02*
X608898Y95009D01*
X608272Y94696*
X607335*
X606710Y95009*
X606398Y95322*
X606085Y95946*
Y97196*
X606398Y97822*
X606710Y98134*
X607335Y98446*
X608272*
X608898Y98134*
X609210Y97822*
X609952Y189520D02*
Y193270D01*
X611827*
X612452Y192958*
X612765Y192645*
X613077Y192020*
Y190770*
X612765Y190145*
X612452Y189833*
X611827Y189520*
X609952*
X612567Y375552D02*
X613192Y375240D01*
X613504Y374615*
X613192Y373990*
X612567Y373677*
X610379*
Y377427*
X612567*
X613192Y377115*
X613504Y376490*
X613192Y375865*
X612567Y375552*
X610379*
X617579Y312004D02*
X618204Y311691D01*
X618517Y311066*
X618204Y310441*
X617579Y310128*
X615392*
Y313878*
X617579*
X618204Y313566*
X618517Y312941*
X618204Y312316*
X617579Y312004*
X615392*
X617923Y360609D02*
Y364359D01*
X619798*
X620423Y364046*
X620735Y363734*
X621048Y363109*
Y361859*
X620735Y361234*
X620423Y360921*
X619798Y360609*
X617923*
X620734Y117927D02*
X621359Y117614D01*
X621672Y116989*
X621359Y116364*
X620734Y116052*
X618546*
Y119802*
X620734*
X621359Y119489*
X621672Y118864*
X621359Y118239*
X620734Y117927*
X618546*
X627406Y289293D02*
X627093Y288981D01*
X626468Y288668*
X625531*
X624906Y288981*
X624593Y289293*
X624281Y289918*
Y291168*
X624593Y291793*
X624906Y292106*
X625531Y292418*
X626468*
X627093Y292106*
X627406Y291793*
X626090Y102983D02*
Y106733D01*
X627965*
X628590Y106421*
X628903Y106108*
X629215Y105483*
Y104233*
X628903Y103608*
X628590Y103296*
X627965Y102983*
X626090*
X630645Y216728D02*
Y220478D01*
X632520*
X633145Y220166*
X633457Y219854*
X633770Y219228*
Y217978*
X633457Y217354*
X633145Y217041*
X632520Y216728*
X630645*
X638930Y311898D02*
X639555Y311586D01*
X639867Y310961*
X639555Y310336*
X638930Y310023*
X636742*
Y313773*
X638930*
X639555Y313461*
X639867Y312836*
X639555Y312211*
X638930Y311898*
X636742*
X643948Y248350D02*
X644574Y248038D01*
X644886Y247413*
X644574Y246788*
X643948Y246475*
X641761*
Y250225*
X643948*
X644574Y249913*
X644886Y249288*
X644574Y248663*
X643948Y248350*
X641761*
X643194Y331342D02*
Y335092D01*
X646320*
X645694Y333217D02*
X643194D01*
Y331342D02*
X646320D01*
X644286Y296955D02*
Y300705D01*
X646161*
X646786Y300393*
X647098Y300080*
X647411Y299455*
Y298205*
X647098Y297580*
X646786Y297267*
X646161Y296955*
X644286*
X653775Y225640D02*
X653463Y225328D01*
X652837Y225015*
X651900*
X651275Y225328*
X650963Y225640*
X650650Y226265*
Y227515*
X650963Y228140*
X651275Y228453*
X651900Y228765*
X652837*
X653463Y228453*
X653775Y228140*
X651796Y355992D02*
Y359742D01*
X653671*
X654296Y359430*
X654608Y359117*
X654921Y358492*
Y357242*
X654608Y356617*
X654296Y356305*
X653671Y355992*
X651796*
X665099Y387614D02*
X665724Y387302D01*
X666037Y386677*
X665724Y386052*
X665099Y385739*
X662912*
Y389489*
X665099*
X665724Y389177*
X666037Y388552*
X665724Y387927*
X665099Y387614*
X662912*
X665299Y248245D02*
X665924Y247933D01*
X666237Y247308*
X665924Y246683*
X665299Y246370*
X663111*
Y250120*
X665299*
X665924Y249808*
X666237Y249183*
X665924Y248558*
X665299Y248245*
X663111*
X663124Y272521D02*
Y276271D01*
X666249*
X665624Y274396D02*
X663124D01*
Y272521D02*
X666249D01*
X670655Y233302D02*
Y237052D01*
X672530*
X673155Y236739*
X673468Y236427*
X673780Y235802*
Y234552*
X673468Y233927*
X673155Y233614*
X672530Y233302*
X670655*
X674926Y364904D02*
X674613Y364591D01*
X673988Y364279*
X673051*
X672426Y364591*
X672113Y364904*
X671801Y365529*
Y366779*
X672113Y367404*
X672426Y367717*
X673051Y368029*
X673988*
X674613Y367717*
X674926Y367404*
X678163Y292339D02*
Y296089D01*
X680038*
X680663Y295776*
X680975Y295464*
X681288Y294839*
Y293589*
X680975Y292964*
X680663Y292651*
X680038Y292339*
X678163*
X686450Y387509D02*
X687075Y387196D01*
X687387Y386572*
X687075Y385946*
X686450Y385634*
X684262*
Y389384*
X686450*
X687075Y389072*
X687387Y388446*
X687075Y387822*
X686450Y387509*
X684262*
X691466Y323961D02*
X692091Y323648D01*
X692404Y323023*
X692091Y322398*
X691466Y322085*
X689279*
Y325835*
X691466*
X692091Y325523*
X692404Y324898*
X692091Y324273*
X691466Y323961*
X689279*
X691806Y372565D02*
Y376315D01*
X693681*
X694306Y376003*
X694619Y375691*
X694931Y375065*
Y373815*
X694619Y373191*
X694306Y372878*
X693681Y372565*
X691806*
X701293Y301250D02*
X700980Y300938D01*
X700355Y300625*
X699418*
X698793Y300938*
X698480Y301250*
X698168Y301875*
Y303125*
X698480Y303750*
X698793Y304063*
X699418Y304375*
X700355*
X700980Y304063*
X701293Y303750*
X704525Y228690D02*
Y232440D01*
X706400*
X707025Y232128*
X707338Y231815*
X707650Y231190*
Y229940*
X707338Y229315*
X707025Y229003*
X706400Y228690*
X704525*
X712817Y323856D02*
X713442Y323543D01*
X713754Y322918*
X713442Y322293*
X712817Y321980*
X710629*
Y325730*
X712817*
X713442Y325418*
X713754Y324793*
X713442Y324168*
X712817Y323856*
X710629*
X717829Y260312D02*
X718454Y260000D01*
X718767Y259375*
X718454Y258750*
X717829Y258437*
X715641*
Y262187*
X717829*
X718454Y261875*
X718767Y261250*
X718454Y260625*
X717829Y260312*
X715641*
X718173Y308912D02*
Y312662D01*
X720048*
X720673Y312350*
X720985Y312037*
X721298Y311412*
Y310162*
X720985Y309537*
X720673Y309224*
X720048Y308912*
X718173*
X727656Y237602D02*
X727343Y237289D01*
X726718Y236977*
X725780*
X725156Y237289*
X724843Y237602*
X724530Y238227*
Y239477*
X724843Y240102*
X725156Y240415*
X725780Y240727*
X726718*
X727343Y240415*
X727656Y240102*
X732265Y352039D02*
Y355789D01*
X734141*
X734765Y355477*
X735078Y355165*
X735391Y354539*
Y353289*
X735078Y352665*
X734765Y352352*
X734141Y352039*
X732265*
X739179Y260207D02*
X739804Y259894D01*
X740117Y259270*
X739804Y258644*
X739179Y258332*
X736992*
Y262082*
X739179*
X739804Y261770*
X740117Y261144*
X739804Y260520*
X739179Y260207*
X736992*
X745569Y383661D02*
X746194Y383349D01*
X746507Y382724*
X746194Y382099*
X745569Y381786*
X743381*
Y385536*
X745569*
X746194Y385224*
X746507Y384599*
X746194Y383974*
X745569Y383661*
X743381*
X744535Y245263D02*
Y249013D01*
X746411*
X747035Y248701*
X747348Y248389*
X747661Y247763*
Y246513*
X747348Y245889*
X747035Y245576*
X746411Y245263*
X744535*
X755396Y360951D02*
X755083Y360639D01*
X754458Y360326*
X753520*
X752896Y360639*
X752583Y360951*
X752270Y361576*
Y362826*
X752583Y363451*
X752896Y363764*
X753520Y364076*
X754458*
X755083Y363764*
X755396Y363451*
X758633Y288391D02*
Y292141D01*
X760509*
X761133Y291828*
X761446Y291516*
X761759Y290891*
Y289641*
X761446Y289016*
X761133Y288703*
X760509Y288391*
X758633*
X766919Y383556D02*
X767544Y383244D01*
X767857Y382619*
X767544Y381994*
X766919Y381681*
X764732*
Y385431*
X766919*
X767544Y385119*
X767857Y384494*
X767544Y383869*
X766919Y383556*
X764732*
X771937Y320013D02*
X772562Y319700D01*
X772875Y319075*
X772562Y318450*
X771937Y318137*
X769750*
Y321887*
X771937*
X772562Y321575*
X772875Y320950*
X772562Y320325*
X771937Y320013*
X769750*
X772276Y368613D02*
Y372363D01*
X774151*
X774776Y372050*
X775088Y371738*
X775401Y371113*
Y369863*
X775088Y369238*
X774776Y368925*
X774151Y368613*
X772276*
X781764Y297302D02*
X781451Y296990D01*
X780826Y296677*
X779889*
X779264Y296990*
X778951Y297302*
X778639Y297927*
Y299177*
X778951Y299802*
X779264Y300115*
X779889Y300427*
X780826*
X781451Y300115*
X781764Y299802*
X793287Y319907D02*
X793913Y319595D01*
X794225Y318970*
X793913Y318345*
X793287Y318032*
X791100*
Y321782*
X793287*
X793913Y321470*
X794225Y320845*
X793913Y320220*
X793287Y319907*
X791100*
X798644Y304964D02*
Y308714D01*
X800519*
X801144Y308402*
X801456Y308089*
X801769Y307464*
Y306214*
X801456Y305589*
X801144Y305276*
X800519Y304964*
X798644*
D02*
D24*
X23017Y299023D03*
X43022Y290736D03*
X49383Y362680D03*
X51911Y312196D03*
X63028Y282450D03*
X66934Y297025D03*
X69389Y354393D03*
X77126Y239327D03*
X78278Y375854D03*
X89394Y346107D03*
X93300Y360682D03*
X97131Y231040D03*
X103491Y302978D03*
X106020Y252500D03*
X117137Y222754D03*
X121043Y237329D03*
X123496Y294691D03*
X129859Y366633D03*
X132385Y316152D03*
X143501Y286405D03*
X147408Y300980D03*
X149864Y358346D03*
X151007Y227369D03*
X158753Y379806D03*
X169869Y350059D03*
X171012Y219082D03*
X173776Y364635D03*
X177372Y291017D03*
X179901Y240542D03*
X191017Y210795D03*
X194924Y225370D03*
X195570Y97043D03*
X197378Y282730D03*
X202845Y166338D03*
X203740Y354673D03*
X206267Y304190D03*
X211710Y183582D03*
X215576Y88757D03*
X217383Y274443D03*
X221289Y289019D03*
X222964Y306972D03*
X223745Y346387D03*
X224465Y110217D03*
X231715Y175296D03*
X232634Y367847D03*
X235581Y80470D03*
X238074Y247234D03*
X239487Y95045D03*
X240604Y196756D03*
X243750Y338100D03*
X244685Y149705D03*
X247657Y352675D03*
X251720Y167009D03*
X255627Y181584D03*
X256265Y53260D03*
X258079Y238948D03*
X264439Y310885D03*
X266968Y260408D03*
X274852Y180433D03*
X276270Y44974D03*
X278084Y230661D03*
X281991Y245236D03*
X284444Y302598D03*
X285159Y66434D03*
X292176Y187532D03*
X293180Y291018D03*
X293333Y324058D03*
X296275Y36687D03*
X300182Y51262D03*
X304449Y294311D03*
X308356Y308887D03*
X312181Y179245D03*
X314547Y236222D03*
X318546Y251187D03*
X321070Y200706D03*
X332186Y170959D03*
X336093Y185534D03*
X338552Y242901D03*
X347441Y264361D03*
X358557Y234614D03*
X362463Y249189D03*
X376251Y126918D03*
Y136918D03*
Y146918D03*
Y156918D03*
Y166918D03*
Y176918D03*
Y186918D03*
X385433Y141831D03*
X424803Y131996D03*
X436251Y126918D03*
Y136918D03*
Y146918D03*
Y156918D03*
Y166918D03*
Y176918D03*
Y186918D03*
X453106Y234614D03*
X464222Y264361D03*
X473111Y242900D03*
X479473Y170962D03*
X485572Y264256D03*
X490589Y200709D03*
X493116Y251187D03*
X499478Y179248D03*
X507214Y294311D03*
X511940Y200604D03*
X515380Y36687D03*
X518330Y324058D03*
X519483Y187535D03*
X526496Y66434D03*
X527219Y302598D03*
X533580Y230665D03*
X535385Y44974D03*
X537439Y200657D03*
X539680Y323953D03*
X544696Y260412D03*
X547224Y310885D03*
X547847Y66329D03*
X553585Y238952D03*
X555391Y53261D03*
X559942Y167009D03*
X566046Y260307D03*
X567913Y338098D03*
X571058Y196756D03*
X573590Y247239D03*
X576080Y80472D03*
X579029Y367845D03*
X579947Y175296D03*
X587196Y110219D03*
X587918Y346385D03*
X592408Y196651D03*
X594276Y274444D03*
X596085Y88759D03*
X599952Y183583D03*
X600379Y367740D03*
X605392Y304191D03*
X607923Y354671D03*
X608546Y110114D03*
X614281Y282731D03*
X616090Y97046D03*
X620645Y210791D03*
X626742Y304086D03*
X631761Y240538D03*
X633194Y325405D03*
X634286Y291017D03*
X640650Y219078D03*
X641796Y350055D03*
X652912Y379802D03*
X653111Y240433D03*
X653124Y266583D03*
X660655Y227364D03*
X661801Y358341D03*
X668163Y286401D03*
X674262Y379696D03*
X679279Y316148D03*
X681806Y366628D03*
X688168Y294688D03*
X694525Y222753D03*
X700629Y316043D03*
X705641Y252500D03*
X708173Y302974D03*
X714530Y231039D03*
X722265Y346102D03*
X726992Y252394D03*
X733381Y375849D03*
X734535Y239326D03*
X742270Y354389D03*
X748633Y282453D03*
X754732Y375744D03*
X759750Y312200D03*
X762276Y362675D03*
X768639Y290740D03*
X781100Y312095D03*
X788644Y299026D03*
X0Y0D02*
M02*
